<?xml version="1.0" encoding="utf-8"?>
<!-- Generator: Adobe Illustrator 16.0.0, SVG Export Plug-In . SVG Version: 6.00 Build 0)  -->
<!DOCTYPE svg PUBLIC "-//W3C//DTD SVG 1.1//EN" "http://www.w3.org/Graphics/SVG/1.1/DTD/svg11.dtd">
<svg version="1.1" id="Layer_1" xmlns="http://www.w3.org/2000/svg" xmlns:xlink="http://www.w3.org/1999/xlink" x="0px" y="0px"
	 width="129px" height="38px" viewBox="0 0 129 38" enable-background="new 0 0 129 38" xml:space="preserve">
<g>
	<g>
		<path fill="none" d="M75.391,6.56c-0.434,0-1.191,0.001-1.375,1.5v9.792c0,0.414-0.336,0.75-0.75,0.75s-0.75-0.336-0.75-0.75
			v-1.667c-0.02-0.067-0.043-0.134-0.043-0.208V8.81c0-0.276,0.018-0.525,0.043-0.764v-2.86c0-0.988-0.805-1.792-1.791-1.792
			c-0.988,0-1.792,0.804-1.792,1.792V17.54c0,0.414-0.336,0.75-0.75,0.75s-0.75-0.336-0.75-0.75V16.06
			c-0.02-0.067-0.042-0.134-0.042-0.208V3.186c0-0.988-0.804-1.792-1.791-1.792c-0.988,0-1.792,0.804-1.792,1.792v1.286
			c0.052,0.23,0.083,0.468,0.083,0.714V17.06c0,0.119-0.033,0.228-0.083,0.327v0.152c0,0.414-0.336,0.75-0.75,0.75
			s-0.75-0.336-0.75-0.75V4.675c-0.222-0.738-0.899-1.281-1.708-1.281c-0.988,0-1.792,0.804-1.792,1.792v19.666
			c0,0.414-0.336,0.75-0.75,0.75c-0.252,0-0.465-0.133-0.601-0.324l-5.287-5.795c-0.882-0.964-3.226-1.049-4.032-0.374
			c-0.129,0.108-0.432,0.362,0.181,1.162c3.503,4.566,6.088,9.57,7.192,11.707l0.294,0.566c0.635,1.207,2.719,4.016,8.336,4.016
			c0.561,0,1.142,0.011,1.734,0.022c3.384,0.062,7.221,0.137,9.344-1.947c1.236-1.214,1.838-3.064,1.838-5.658
			c0-8.018-0.15-20.046-0.166-21.23C76.811,7.477,76.454,6.56,75.391,6.56z"/>
		<path fill="#343434" d="M78.391,7.633c-0.002-0.053-0.008-0.105-0.02-0.156c-0.189-0.836-1.057-2.417-2.98-2.417
			c-0.402,0-0.902,0.067-1.375,0.313V5.186c0-1.815-1.477-3.292-3.291-3.292c-0.711,0-1.366,0.232-1.905,0.617
			c-0.312-1.493-1.637-2.617-3.22-2.617c-1.557,0-2.857,1.089-3.198,2.543c-0.519-0.341-1.137-0.543-1.802-0.543
			c-1.815,0-3.292,1.477-3.292,3.292v17.703l-4.03-4.418c-1.472-1.611-4.739-1.657-6.103-0.512c-0.36,0.301-1.427,1.424-0.046,3.224
			c3.421,4.462,5.963,9.383,7.049,11.483l0.299,0.575c0.762,1.449,3.229,4.818,9.664,4.818c0.552,0,1.123,0.011,1.706,0.021
			c0.614,0.012,1.241,0.024,1.873,0.024c3.153-0.001,6.405-0.297,8.55-2.4c1.539-1.511,2.287-3.711,2.287-6.729
			C78.557,20.57,78.393,7.761,78.391,7.633z M75.219,34.635c-2.123,2.084-5.96,2.01-9.344,1.947
			c-0.593-0.012-1.174-0.022-1.734-0.022c-5.617,0-7.701-2.809-8.336-4.016l-0.294-0.566c-1.104-2.137-3.689-7.141-7.192-11.707
			c-0.612-0.8-0.31-1.054-0.181-1.162c0.807-0.675,3.15-0.59,4.032,0.374l5.287,5.795c0.136,0.191,0.349,0.324,0.601,0.324
			c0.414,0,0.75-0.336,0.75-0.75V5.186c0-0.988,0.804-1.792,1.792-1.792c0.809,0,1.486,0.543,1.708,1.281V17.54
			c0,0.414,0.336,0.75,0.75,0.75s0.75-0.336,0.75-0.75v-0.152c0.05-0.1,0.083-0.208,0.083-0.327V5.186
			c0-0.246-0.031-0.483-0.083-0.714V3.186c0-0.988,0.804-1.792,1.792-1.792c0.987,0,1.791,0.804,1.791,1.792v12.666
			c0,0.074,0.022,0.141,0.042,0.208v1.479c0,0.414,0.336,0.75,0.75,0.75s0.75-0.336,0.75-0.75V5.186
			c0-0.988,0.804-1.792,1.792-1.792c0.986,0,1.791,0.804,1.791,1.792v2.86c-0.025,0.238-0.043,0.487-0.043,0.764v7.167
			c0,0.074,0.023,0.141,0.043,0.208v1.667c0,0.414,0.336,0.75,0.75,0.75s0.75-0.336,0.75-0.75V8.06c0.184-1.499,0.941-1.5,1.375-1.5
			c1.062,0,1.42,0.917,1.5,1.187c0.016,1.185,0.166,13.213,0.166,21.23C77.057,31.571,76.456,33.421,75.219,34.635z"/>
	</g>
	<g>
		<path fill="#343434" d="M30.208,20.727H5.852l3.387-3.387c0.293-0.293,0.293-0.768,0-1.061s-0.768-0.293-1.061,0l-4.667,4.667
			c-0.069,0.069-0.124,0.152-0.161,0.244c-0.076,0.183-0.076,0.39,0,0.572c0.037,0.092,0.092,0.175,0.161,0.244l4.667,4.667
			c0.146,0.146,0.339,0.22,0.53,0.22c0.192,0,0.384-0.073,0.53-0.22c0.293-0.293,0.293-0.768,0-1.061l-3.387-3.387h24.356
			c0.414,0,0.75-0.336,0.75-0.75S30.623,20.727,30.208,20.727z"/>
		<path fill="#343434" d="M98.793,22.227h24.355l-3.387,3.387c-0.293,0.293-0.293,0.768,0,1.061s0.768,0.293,1.061,0l4.666-4.667
			c0.07-0.069,0.125-0.152,0.162-0.244c0.076-0.183,0.076-0.39,0-0.572c-0.037-0.092-0.092-0.175-0.162-0.244l-4.666-4.667
			c-0.146-0.146-0.338-0.22-0.531-0.22c-0.191,0-0.383,0.073-0.529,0.22c-0.293,0.293-0.293,0.768,0,1.061l3.387,3.387H98.793
			c-0.414,0-0.75,0.336-0.75,0.75S98.379,22.227,98.793,22.227z"/>
	</g>
</g>
</svg>
