<?xml version="1.0" encoding="utf-8"?>
<!-- Generator: Adobe Illustrator 16.0.0, SVG Export Plug-In . SVG Version: 6.00 Build 0)  -->
<!DOCTYPE svg PUBLIC "-//W3C//DTD SVG 1.1//EN" "http://www.w3.org/Graphics/SVG/1.1/DTD/svg11.dtd">
<svg version="1.1" id="Layer_1" xmlns="http://www.w3.org/2000/svg" xmlns:xlink="http://www.w3.org/1999/xlink" x="0px" y="0px"
	 width="107.958px" height="108px" viewBox="0 0 107.958 108" enable-background="new 0 0 107.958 108" xml:space="preserve">
<path fill="none" d="M69.622,94.011c0.019-0.025,0.038-0.049,0.057-0.075c0.429-0.61,0.848-1.249,1.257-1.909
	c0.12-0.193,0.234-0.399,0.354-0.597c0.282-0.472,0.563-0.948,0.837-1.444c0.146-0.265,0.286-0.54,0.43-0.812
	c0.236-0.449,0.471-0.902,0.699-1.369c0.148-0.306,0.294-0.618,0.439-0.931c0.212-0.456,0.421-0.919,0.625-1.391
	c0.144-0.333,0.285-0.669,0.425-1.01c0.195-0.476,0.385-0.961,0.572-1.452c0.134-0.352,0.268-0.703,0.397-1.062
	c0.052-0.144,0.099-0.294,0.15-0.438c-0.158-0.048-0.313-0.101-0.473-0.147c-0.328-0.097-0.659-0.188-0.99-0.28
	c-0.554-0.154-1.11-0.302-1.673-0.443c-0.343-0.086-0.686-0.172-1.031-0.253c-0.587-0.138-1.179-0.267-1.772-0.391
	c-0.317-0.066-0.633-0.137-0.953-0.199c-0.78-0.152-1.568-0.291-2.36-0.42c-0.134-0.021-0.265-0.048-0.398-0.069
	c-0.92-0.145-1.847-0.27-2.779-0.381c-0.304-0.037-0.611-0.064-0.917-0.098c-0.641-0.069-1.283-0.135-1.928-0.188
	c-0.363-0.03-0.727-0.055-1.09-0.08c-0.603-0.042-1.206-0.077-1.811-0.105c-0.369-0.018-0.738-0.033-1.107-0.046
	c-0.208-0.007-0.416-0.007-0.623-0.012v25.428c0.358-0.054,0.715-0.123,1.071-0.205c0.12-0.027,0.241-0.043,0.36-0.074
	c0.532-0.137,1.062-0.306,1.586-0.505c0.111-0.042,0.221-0.099,0.332-0.144c0.41-0.166,0.818-0.344,1.223-0.547
	c0.178-0.089,0.354-0.193,0.529-0.29c0.336-0.183,0.671-0.371,1.002-0.579c0.192-0.121,0.384-0.254,0.575-0.384
	c0.312-0.211,0.622-0.43,0.929-0.663c0.194-0.147,0.387-0.301,0.579-0.456c0.302-0.245,0.601-0.501,0.896-0.767
	c0.188-0.168,0.375-0.337,0.561-0.514c0.301-0.286,0.598-0.588,0.893-0.896c0.173-0.18,0.346-0.355,0.517-0.542
	c0.317-0.349,0.63-0.719,0.94-1.093c0.14-0.167,0.281-0.326,0.419-0.499C68.795,95.146,69.213,94.591,69.622,94.011z"/>
<path fill="none" d="M30.763,31.139c-0.095,0.345-0.184,0.696-0.272,1.046c-0.145,0.564-0.282,1.133-0.414,1.708
	c-0.082,0.355-0.162,0.712-0.239,1.073c-0.129,0.605-0.249,1.22-0.365,1.837c-0.062,0.333-0.128,0.665-0.187,1.001
	c-0.132,0.758-0.252,1.527-0.364,2.301c-0.029,0.203-0.064,0.402-0.093,0.606c-0.136,0.985-0.255,1.984-0.358,2.996
	c-0.026,0.258-0.046,0.523-0.07,0.784c-0.071,0.757-0.137,1.519-0.19,2.291c-0.026,0.37-0.046,0.744-0.067,1.117
	c-0.039,0.678-0.074,1.359-0.1,2.047c-0.016,0.405-0.028,0.812-0.039,1.22c-0.008,0.288-0.009,0.58-0.014,0.869h23.969v-18.04
	c-7.3-0.176-14.499-1.309-21.067-3.301C30.849,30.844,30.803,30.989,30.763,31.139z"/>
<path fill="none" d="M50.497,4.45c-0.531,0.138-1.059,0.307-1.583,0.507c-0.147,0.056-0.293,0.13-0.439,0.191
	c-0.377,0.156-0.753,0.318-1.125,0.506c-0.198,0.1-0.395,0.217-0.592,0.326c-0.316,0.176-0.634,0.354-0.946,0.552
	c-0.211,0.133-0.419,0.278-0.628,0.421c-0.296,0.202-0.59,0.411-0.881,0.633c-0.211,0.162-0.422,0.33-0.631,0.502
	c-0.284,0.233-0.566,0.477-0.847,0.729c-0.206,0.186-0.411,0.372-0.614,0.568c-0.281,0.27-0.558,0.554-0.834,0.843
	c-0.193,0.203-0.388,0.402-0.579,0.614c-0.29,0.322-0.575,0.663-0.858,1.006c-0.168,0.203-0.339,0.396-0.504,0.606
	c-0.365,0.462-0.723,0.948-1.075,1.445c-0.077,0.109-0.158,0.208-0.235,0.319c-0.423,0.609-0.836,1.246-1.24,1.904
	c-0.14,0.227-0.272,0.468-0.41,0.701c-0.265,0.449-0.528,0.899-0.784,1.369c-0.156,0.286-0.306,0.584-0.458,0.878
	c-0.229,0.439-0.455,0.881-0.675,1.337c-0.154,0.319-0.304,0.646-0.454,0.974c-0.208,0.455-0.413,0.915-0.613,1.385
	c-0.146,0.341-0.289,0.687-0.431,1.037c-0.194,0.482-0.385,0.975-0.57,1.472c-0.133,0.353-0.266,0.707-0.394,1.067
	c-0.049,0.14-0.095,0.286-0.144,0.426c4.03,1.246,8.221,2.143,12.544,2.666c0.332,0.04,0.667,0.071,1,0.107
	c0.586,0.063,1.173,0.123,1.763,0.172c0.416,0.035,0.834,0.063,1.252,0.092c0.549,0.038,1.099,0.07,1.651,0.096
	c0.397,0.019,0.794,0.036,1.192,0.049c0.2,0.006,0.402,0.007,0.604,0.012V4.164c-0.358,0.054-0.715,0.124-1.07,0.206
	C50.758,4.399,50.627,4.417,50.497,4.45z"/>
<path fill="none" d="M50.227,78.465c-0.604,0.028-1.207,0.063-1.81,0.105c-0.363,0.025-0.728,0.05-1.09,0.08
	c-0.646,0.054-1.288,0.119-1.929,0.188c-0.306,0.033-0.612,0.061-0.917,0.098c-0.932,0.111-1.86,0.237-2.78,0.381
	c-0.131,0.021-0.26,0.047-0.392,0.068c-0.795,0.129-1.585,0.269-2.368,0.422c-0.317,0.062-0.63,0.131-0.945,0.197
	c-0.597,0.124-1.192,0.254-1.781,0.393c-0.343,0.081-0.683,0.165-1.022,0.25c-0.567,0.143-1.13,0.292-1.688,0.448
	c-0.326,0.09-0.651,0.181-0.974,0.275c-0.162,0.048-0.318,0.101-0.479,0.149c0.055,0.154,0.105,0.315,0.161,0.468
	c0.12,0.335,0.245,0.661,0.37,0.989c0.195,0.516,0.395,1.024,0.6,1.524c0.133,0.322,0.267,0.641,0.403,0.956
	c0.211,0.489,0.428,0.97,0.648,1.443c0.139,0.298,0.277,0.597,0.419,0.888c0.235,0.481,0.477,0.949,0.721,1.412
	c0.137,0.259,0.271,0.522,0.411,0.775c0.28,0.509,0.568,0.999,0.859,1.483c0.111,0.186,0.22,0.38,0.333,0.562
	c0.411,0.663,0.831,1.304,1.262,1.917c0.01,0.014,0.021,0.025,0.029,0.039c0.418,0.593,0.845,1.159,1.279,1.703
	c0.135,0.17,0.274,0.325,0.411,0.49c0.312,0.377,0.627,0.749,0.948,1.101c0.169,0.186,0.341,0.36,0.512,0.538
	c0.296,0.31,0.594,0.612,0.896,0.899c0.185,0.176,0.371,0.344,0.559,0.512c0.297,0.267,0.596,0.522,0.897,0.768
	c0.192,0.156,0.385,0.309,0.579,0.456c0.307,0.233,0.617,0.452,0.929,0.663c0.191,0.13,0.383,0.263,0.575,0.384
	c0.331,0.208,0.666,0.396,1.002,0.579c0.176,0.097,0.352,0.201,0.529,0.29c0.404,0.203,0.812,0.381,1.223,0.547
	c0.111,0.045,0.221,0.102,0.332,0.144c0.524,0.199,1.054,0.368,1.586,0.505c0.119,0.031,0.24,0.047,0.36,0.074
	c0.356,0.082,0.713,0.151,1.071,0.205V78.407c-0.207,0.005-0.415,0.005-0.623,0.012C50.966,78.432,50.597,78.447,50.227,78.465z"/>
<path fill="none" d="M27.71,57.563c0.013,0.326,0.027,0.653,0.043,0.979c0.049,0.993,0.205,1.983,0.205,2.968
	c0,0.005,0,0.01,0,0.015c0,2.094,0.402,4.165,0.713,6.201c0.016,0.092,0.018,0.182,0.032,0.273c0.144,0.918,0.301,1.828,0.472,2.73
	c0.021,0.111,0.044,0.222,0.066,0.333c0.174,0.896,0.361,1.782,0.562,2.659c0.021,0.088,0.04,0.176,0.061,0.264
	c0.216,0.921,0.444,1.832,0.689,2.729c0.01,0.034,0.019,0.068,0.027,0.102c0.082,0.297,0.175,0.583,0.26,0.877
	c0.176-0.053,0.357-0.1,0.535-0.151c0.338-0.1,0.68-0.195,1.022-0.29c0.595-0.166,1.195-0.325,1.8-0.478
	c0.353-0.089,0.704-0.177,1.06-0.261c0.631-0.148,1.268-0.287,1.907-0.421c0.326-0.067,0.649-0.14,0.978-0.204
	c0.823-0.161,1.653-0.308,2.489-0.443c0.144-0.023,0.285-0.053,0.429-0.075c0.978-0.153,1.964-0.287,2.954-0.406
	c0.299-0.035,0.6-0.062,0.899-0.095c0.701-0.077,1.403-0.148,2.109-0.207c0.365-0.03,0.731-0.055,1.097-0.08
	c0.656-0.046,1.312-0.085,1.972-0.115c0.371-0.018,0.743-0.033,1.115-0.045c0.251-0.008,0.5-0.024,0.751-0.03V56.035h-24.3
	C27.669,56.545,27.69,57.055,27.71,57.563z"/>
<path fill="none" d="M69.525,7.606c0.097,0.103,0.192,0.207,0.288,0.311c0.483,0.523,0.958,1.069,1.424,1.64
	c0.091,0.111,0.181,0.225,0.271,0.337c0.464,0.582,0.919,1.187,1.364,1.815c0.085,0.119,0.168,0.239,0.252,0.36
	c0.444,0.641,0.879,1.304,1.303,1.99c0.077,0.125,0.154,0.25,0.23,0.377c0.423,0.699,0.835,1.42,1.235,2.164
	c0.069,0.128,0.139,0.257,0.207,0.387c0.4,0.757,0.789,1.538,1.165,2.339c0.061,0.13,0.122,0.259,0.183,0.39
	c0.376,0.817,0.739,1.658,1.09,2.519c0.052,0.127,0.104,0.253,0.155,0.381c0.352,0.88,0.688,1.783,1.011,2.706
	c0.02,0.056,0.041,0.107,0.061,0.163c3.408-1.281,6.561-2.793,9.336-4.471c0.208-0.127,0.414-0.256,0.618-0.386
	c0.308-0.192,0.612-0.386,0.91-0.583c-0.053-0.056-0.102-0.116-0.154-0.172c-0.715-0.765-1.447-1.509-2.203-2.223
	c-0.097-0.092-0.199-0.176-0.297-0.267c-0.667-0.62-1.349-1.221-2.045-1.801c-0.257-0.214-0.52-0.418-0.779-0.626
	c-0.562-0.45-1.132-0.888-1.711-1.312c-0.286-0.209-0.573-0.417-0.863-0.62c-0.614-0.43-1.239-0.842-1.871-1.244
	c-0.245-0.155-0.485-0.317-0.732-0.468c-0.877-0.536-1.769-1.048-2.676-1.528c-0.137-0.072-0.276-0.134-0.413-0.205
	c-0.776-0.401-1.563-0.783-2.359-1.143c-0.308-0.139-0.619-0.268-0.93-0.401c-0.649-0.278-1.305-0.543-1.966-0.793
	c-0.333-0.126-0.668-0.251-1.004-0.37c-0.702-0.249-1.41-0.477-2.124-0.694c-0.203-0.062-0.405-0.128-0.609-0.188
	c0.053,0.048,0.104,0.105,0.156,0.154C68.547,6.607,69.04,7.094,69.525,7.606z"/>
<path fill="none" d="M79.912,51.14c-0.01-0.377-0.021-0.754-0.036-1.128c-0.027-0.734-0.063-1.46-0.105-2.182
	c-0.021-0.333-0.037-0.667-0.061-0.998c-0.057-0.82-0.126-1.631-0.202-2.435c-0.021-0.22-0.037-0.443-0.06-0.662
	c-0.104-1.022-0.225-2.032-0.362-3.027c-0.024-0.182-0.056-0.358-0.082-0.54c-0.114-0.795-0.237-1.583-0.373-2.361
	c-0.059-0.337-0.125-0.669-0.188-1.003c-0.115-0.616-0.235-1.227-0.363-1.831c-0.078-0.363-0.159-0.723-0.241-1.083
	c-0.131-0.574-0.27-1.142-0.413-1.704c-0.089-0.35-0.178-0.699-0.271-1.044c-0.041-0.15-0.087-0.296-0.129-0.446
	c-6.568,1.992-13.768,3.126-21.067,3.301v18.039h23.969C79.921,51.737,79.92,51.436,79.912,51.14z"/>
<path fill="none" d="M57.823,74.467c0.659,0.03,1.316,0.069,1.972,0.115c0.366,0.025,0.732,0.05,1.097,0.08
	c0.706,0.059,1.409,0.13,2.11,0.207c0.3,0.032,0.601,0.06,0.899,0.095c0.99,0.119,1.976,0.253,2.953,0.406
	c0.145,0.022,0.285,0.052,0.429,0.075c0.836,0.136,1.666,0.282,2.49,0.443c0.327,0.064,0.65,0.136,0.976,0.204
	c0.64,0.134,1.277,0.272,1.909,0.422c0.354,0.083,0.706,0.171,1.059,0.26c0.605,0.152,1.206,0.312,1.803,0.478
	c0.341,0.096,0.682,0.189,1.019,0.289c0.182,0.054,0.367,0.101,0.547,0.155c0.048-0.166,0.1-0.329,0.146-0.496
	c0.104-0.368,0.201-0.739,0.299-1.111c0.144-0.544,0.282-1.092,0.415-1.645c0.092-0.385,0.182-0.771,0.269-1.161
	c0.124-0.557,0.242-1.117,0.355-1.682c0.078-0.39,0.157-0.778,0.23-1.171c0.109-0.59,0.21-1.186,0.308-1.783
	c0.061-0.372,0.125-0.742,0.182-1.117c0.103-0.68,0.191-1.366,0.278-2.054c0.037-0.298,0.081-0.592,0.116-0.891
	c0.113-0.983,0.213-1.973,0.295-2.968c0.019-0.222,0.028-0.445,0.045-0.667c0.059-0.781,0.112-1.563,0.151-2.35
	c0.019-0.374,0.027-0.751,0.041-1.126c0.019-0.479,0.032-0.96,0.043-1.44H55.958v18.356c0.251,0.006,0.5,0.022,0.751,0.03
	C57.081,74.435,57.452,74.449,57.823,74.467z"/>
<path fill="none" d="M57.762,29.9c0.545-0.025,1.088-0.058,1.63-0.094c0.426-0.029,0.852-0.059,1.276-0.095
	c0.577-0.048,1.151-0.107,1.724-0.168c0.346-0.037,0.691-0.069,1.035-0.11c4.321-0.523,8.509-1.42,12.537-2.665
	c-0.05-0.144-0.097-0.293-0.147-0.436c-0.125-0.353-0.255-0.698-0.384-1.043c-0.189-0.507-0.383-1.007-0.581-1.499
	c-0.139-0.342-0.278-0.68-0.421-1.014c-0.204-0.479-0.413-0.947-0.625-1.41c-0.146-0.32-0.293-0.64-0.443-0.952
	c-0.225-0.466-0.456-0.917-0.689-1.366c-0.147-0.284-0.293-0.572-0.443-0.849c-0.264-0.485-0.537-0.952-0.811-1.415
	c-0.129-0.217-0.253-0.444-0.384-0.656c-0.407-0.662-0.822-1.303-1.249-1.916c-0.06-0.086-0.123-0.164-0.184-0.25
	c-0.369-0.523-0.744-1.031-1.127-1.516c-0.157-0.199-0.318-0.383-0.478-0.575c-0.293-0.354-0.587-0.706-0.886-1.038
	c-0.186-0.205-0.373-0.397-0.561-0.593c-0.282-0.296-0.566-0.587-0.854-0.864c-0.198-0.19-0.398-0.373-0.6-0.553
	c-0.285-0.257-0.572-0.505-0.862-0.743c-0.205-0.168-0.411-0.333-0.618-0.491c-0.296-0.226-0.594-0.438-0.895-0.643
	c-0.204-0.14-0.408-0.282-0.615-0.413c-0.317-0.201-0.639-0.382-0.961-0.56c-0.192-0.106-0.385-0.221-0.578-0.319
	c-0.379-0.191-0.761-0.356-1.144-0.515c-0.142-0.058-0.28-0.129-0.422-0.183c-0.525-0.2-1.054-0.37-1.586-0.508
	c-0.128-0.033-0.257-0.05-0.386-0.079c-0.356-0.082-0.715-0.153-1.074-0.207v25.798c0.2-0.005,0.402-0.005,0.602-0.012
	C56.961,29.937,57.361,29.919,57.762,29.9z"/>
<path fill="none" d="M38.24,100.355c-0.066-0.071-0.133-0.141-0.198-0.213c-0.498-0.541-0.986-1.109-1.465-1.703
	c-0.062-0.077-0.124-0.152-0.186-0.23c-0.479-0.602-0.945-1.229-1.403-1.882c-0.059-0.083-0.116-0.164-0.174-0.247
	c-0.456-0.66-0.901-1.347-1.337-2.057c-0.054-0.089-0.108-0.175-0.162-0.264c-0.433-0.718-0.854-1.462-1.265-2.228
	c-0.05-0.094-0.101-0.186-0.15-0.28c-0.408-0.772-0.804-1.571-1.188-2.392c-0.047-0.099-0.094-0.196-0.14-0.297
	c-0.382-0.827-0.751-1.68-1.107-2.554c-0.042-0.104-0.085-0.205-0.127-0.31c-0.354-0.881-0.694-1.786-1.021-2.713
	c-0.023-0.065-0.049-0.126-0.072-0.191c-0.083,0.031-0.166,0.062-0.25,0.094c-0.748,0.283-1.48,0.58-2.202,0.887
	c-0.347,0.147-0.688,0.298-1.029,0.45c-0.489,0.22-0.971,0.445-1.446,0.676c-0.454,0.219-0.903,0.44-1.345,0.669
	c-0.521,0.27-1.036,0.545-1.54,0.828c-0.388,0.218-0.768,0.442-1.146,0.669c-0.319,0.19-0.632,0.386-0.944,0.582
	c-0.283,0.18-0.568,0.358-0.847,0.542c6.155,6.562,13.888,11.283,22.357,13.776c-0.031-0.029-0.061-0.062-0.092-0.092
	C39.246,101.396,38.738,100.889,38.24,100.355z"/>
<path fill="none" d="M80.832,29.407c0.057,0.202,0.105,0.411,0.161,0.614c0.098,0.356,0.19,0.715,0.283,1.076
	c0.154,0.602,0.302,1.209,0.442,1.822c0.085,0.371,0.171,0.742,0.251,1.117c0.138,0.641,0.265,1.292,0.389,1.945
	c0.065,0.35,0.136,0.697,0.198,1.05c0.143,0.815,0.271,1.642,0.393,2.474c0.028,0.197,0.063,0.389,0.091,0.586
	c0.143,1.031,0.268,2.077,0.377,3.134c0.031,0.306,0.055,0.619,0.083,0.928c0.072,0.762,0.14,1.528,0.193,2.303
	c0.028,0.399,0.05,0.803,0.073,1.206c0.041,0.703,0.077,1.409,0.104,2.122c0.016,0.424,0.028,0.851,0.04,1.279
	c0.008,0.325,0.024,0.644,0.03,0.971h19.978c-0.415-10.514-4.152-20.659-10.66-28.93C89.607,25.6,85.439,27.71,80.832,29.407z"/>
<path fill="none" d="M88.279,86.853c-0.183-0.106-0.364-0.215-0.549-0.32c-0.751-0.427-1.517-0.842-2.306-1.239
	c-0.113-0.057-0.231-0.11-0.346-0.167c-0.701-0.347-1.419-0.68-2.148-1.002c-0.212-0.094-0.423-0.188-0.636-0.278
	c-0.837-0.357-1.687-0.704-2.56-1.03c-0.021-0.008-0.043-0.015-0.063-0.022c-0.023,0.066-0.05,0.128-0.073,0.194
	c-0.327,0.927-0.667,1.832-1.021,2.713c-0.042,0.104-0.085,0.206-0.127,0.31c-0.356,0.874-0.726,1.727-1.107,2.554
	c-0.046,0.101-0.093,0.198-0.14,0.297c-0.384,0.82-0.779,1.619-1.188,2.392c-0.05,0.095-0.101,0.187-0.15,0.28
	c-0.41,0.766-0.832,1.51-1.265,2.228c-0.054,0.089-0.108,0.175-0.162,0.264c-0.436,0.71-0.881,1.396-1.337,2.057
	c-0.058,0.083-0.115,0.164-0.174,0.247c-0.458,0.652-0.925,1.28-1.403,1.882c-0.062,0.078-0.123,0.153-0.186,0.23
	c-0.479,0.594-0.967,1.162-1.465,1.703c-0.065,0.072-0.132,0.142-0.198,0.213c-0.498,0.533-1.006,1.041-1.521,1.521
	c-0.031,0.029-0.061,0.062-0.092,0.092c8.474-2.494,16.209-7.219,22.364-13.784c-0.083-0.056-0.17-0.108-0.254-0.163
	C89.558,87.621,88.926,87.231,88.279,86.853z"/>
<path fill="none" d="M84.239,56.904c-0.014,0.43-0.028,0.858-0.047,1.287c-0.03,0.688-0.069,1.374-0.113,2.059
	c-0.026,0.409-0.051,0.817-0.083,1.225c-0.058,0.748-0.129,1.492-0.204,2.235c-0.034,0.332-0.062,0.667-0.099,0.998
	c-0.12,1.067-0.255,2.13-0.41,3.182c-0.016,0.102-0.034,0.201-0.05,0.303c-0.144,0.95-0.301,1.893-0.474,2.826
	c-0.062,0.343-0.134,0.68-0.201,1.02c-0.136,0.692-0.276,1.381-0.428,2.062c-0.085,0.379-0.174,0.752-0.264,1.127
	c-0.152,0.642-0.311,1.279-0.477,1.91c-0.098,0.37-0.197,0.738-0.299,1.104c-0.068,0.243-0.129,0.493-0.199,0.734
	c0.04,0.015,0.078,0.032,0.118,0.048c0.989,0.367,1.953,0.757,2.9,1.162c0.209,0.09,0.415,0.182,0.622,0.273
	c0.913,0.403,1.812,0.819,2.684,1.258c0.043,0.021,0.088,0.042,0.13,0.063c0.902,0.456,1.773,0.938,2.63,1.431
	c0.193,0.112,0.387,0.225,0.578,0.339c0.842,0.499,1.666,1.013,2.46,1.548c0.018,0.012,0.036,0.021,0.053,0.033
	c6.613-8.301,10.416-18.503,10.849-29.097H84.271C84.265,56.325,84.247,56.614,84.239,56.904z"/>
<path fill="none" d="M17.67,83.369c1.865-1.09,3.842-2.092,5.923-3.002c0.092-0.04,0.183-0.08,0.274-0.12
	c1.022-0.44,2.065-0.862,3.137-1.259c0.011-0.004,0.02-0.008,0.03-0.012c-0.028-0.099-0.053-0.2-0.081-0.299
	c-0.19-0.666-0.372-1.338-0.547-2.017c-0.074-0.289-0.146-0.58-0.217-0.871c-0.164-0.669-0.324-1.339-0.473-2.019
	c-0.067-0.312-0.13-0.628-0.195-0.941c-0.14-0.675-0.278-1.349-0.403-2.033c-0.057-0.312-0.104-0.631-0.158-0.945
	c-0.19-1.12-0.361-2.25-0.511-3.392c-0.073-0.55-0.15-1.098-0.213-1.651c-0.054-0.476-0.096-0.955-0.143-1.434
	c-0.061-0.61-0.12-1.221-0.168-1.835c-0.036-0.458-0.064-0.918-0.094-1.379c-0.041-0.647-0.078-1.296-0.106-1.946
	c-0.02-0.439-0.035-0.88-0.049-1.32c-0.009-0.287-0.025-0.572-0.031-0.859H4.041c0.432,10.604,4.226,20.803,10.823,29.089
	c0.894-0.604,1.824-1.18,2.777-1.738C17.651,83.381,17.66,83.375,17.67,83.369z"/>
<path fill="none" d="M24.005,51.104c0.012-0.442,0.025-0.883,0.042-1.321c0.026-0.708,0.062-1.408,0.103-2.105
	c0.023-0.406,0.045-0.814,0.073-1.217c0.055-0.777,0.122-1.544,0.193-2.308c0.029-0.307,0.052-0.619,0.084-0.924
	c0.109-1.062,0.234-2.111,0.378-3.146c0.023-0.173,0.054-0.34,0.079-0.512c0.124-0.859,0.257-1.709,0.404-2.549
	c0.061-0.346,0.129-0.686,0.194-1.028c0.124-0.661,0.253-1.318,0.392-1.966c0.08-0.371,0.164-0.737,0.249-1.104
	c0.142-0.617,0.289-1.227,0.444-1.832c0.092-0.359,0.186-0.717,0.282-1.072c0.055-0.203,0.104-0.411,0.161-0.612
	c-4.584-1.688-8.734-3.785-12.372-6.263C8.198,31.434,4.456,41.563,4.039,52.035h19.937C23.981,51.722,23.997,51.416,24.005,51.104z
	"/>
<path fill="none" d="M28.256,25.205c0.302-0.856,0.613-1.696,0.939-2.516c0.075-0.188,0.152-0.374,0.229-0.56
	c0.326-0.796,0.662-1.577,1.011-2.336c0.088-0.189,0.176-0.376,0.265-0.564c0.349-0.739,0.707-1.461,1.077-2.163
	c0.098-0.187,0.197-0.37,0.297-0.554c0.371-0.685,0.751-1.351,1.141-1.998c0.107-0.179,0.216-0.355,0.325-0.531
	c0.393-0.633,0.794-1.247,1.205-1.841c0.114-0.167,0.229-0.332,0.347-0.495c0.414-0.583,0.837-1.145,1.269-1.688
	c0.12-0.152,0.24-0.303,0.362-0.451c0.437-0.533,0.881-1.044,1.333-1.536c0.124-0.135,0.247-0.27,0.372-0.401
	c0.46-0.485,0.928-0.946,1.401-1.387c0.066-0.062,0.13-0.133,0.196-0.194c-0.201,0.058-0.399,0.124-0.6,0.185
	c-0.718,0.218-1.431,0.448-2.136,0.698c-0.335,0.118-0.667,0.243-0.999,0.368c-0.663,0.251-1.32,0.517-1.972,0.795
	c-0.309,0.132-0.619,0.261-0.925,0.399c-0.797,0.36-1.583,0.741-2.359,1.143c-0.137,0.071-0.278,0.134-0.415,0.206
	c-0.907,0.48-1.798,0.992-2.675,1.527c-0.248,0.151-0.489,0.314-0.735,0.47c-0.63,0.4-1.254,0.812-1.867,1.24
	c-0.291,0.204-0.579,0.413-0.866,0.623c-0.578,0.423-1.146,0.86-1.707,1.309c-0.261,0.209-0.524,0.415-0.782,0.629
	c-0.695,0.579-1.375,1.178-2.04,1.796c-0.1,0.092-0.203,0.178-0.302,0.271c-0.756,0.714-1.487,1.458-2.202,2.222
	c-0.042,0.046-0.082,0.094-0.125,0.14c3.147,2.097,6.828,3.958,10.835,5.471C28.186,25.388,28.223,25.3,28.256,25.205z"/>
<path fill="#343434" d="M95.146,19.095C84.853,6.96,69.84,0,53.958,0C38.074,0,23.061,6.961,12.767,19.099
	c-0.09,0.106-0.167,0.219-0.231,0.337c-0.007,0.013-0.011,0.028-0.018,0.042c-0.011,0.021-0.018,0.043-0.027,0.064
	C4.437,29.244,0,41.454,0,54c0,12.821,4.565,25.229,12.854,34.968c0.039,0.056,0.071,0.115,0.116,0.168
	C23.256,101.124,38.196,108,53.958,108s30.702-6.876,40.988-18.864c8.391-9.78,13.012-22.258,13.012-35.136
	c0-12.768-4.549-25.163-12.809-34.901C95.148,19.098,95.147,19.097,95.146,19.095z M17.442,19.872
	c0.715-0.764,1.446-1.508,2.202-2.222c0.099-0.093,0.202-0.178,0.302-0.271c0.665-0.619,1.345-1.217,2.04-1.796
	c0.258-0.215,0.521-0.42,0.782-0.629c0.562-0.449,1.129-0.886,1.707-1.309c0.287-0.21,0.575-0.418,0.866-0.623
	c0.613-0.429,1.237-0.84,1.867-1.24c0.246-0.156,0.487-0.319,0.735-0.47c0.877-0.536,1.768-1.047,2.675-1.527
	c0.137-0.072,0.278-0.135,0.415-0.206c0.776-0.401,1.562-0.783,2.359-1.143c0.306-0.139,0.616-0.267,0.925-0.399
	c0.651-0.279,1.309-0.544,1.972-0.795c0.332-0.125,0.664-0.25,0.999-0.368c0.705-0.25,1.418-0.48,2.136-0.698
	c0.2-0.061,0.398-0.127,0.6-0.185c-0.066,0.061-0.13,0.132-0.196,0.194c-0.474,0.441-0.941,0.902-1.401,1.387
	c-0.125,0.131-0.248,0.267-0.372,0.401c-0.452,0.492-0.896,1.003-1.333,1.536c-0.122,0.148-0.242,0.299-0.362,0.451
	c-0.432,0.543-0.854,1.105-1.269,1.688c-0.117,0.164-0.232,0.329-0.347,0.495c-0.411,0.594-0.812,1.208-1.205,1.841
	c-0.109,0.176-0.218,0.353-0.325,0.531c-0.39,0.647-0.77,1.313-1.141,1.998c-0.1,0.184-0.199,0.368-0.297,0.554
	c-0.37,0.702-0.729,1.424-1.077,2.163c-0.089,0.188-0.177,0.375-0.265,0.564c-0.349,0.76-0.685,1.54-1.011,2.336
	c-0.076,0.187-0.153,0.372-0.229,0.56c-0.326,0.819-0.638,1.66-0.939,2.516c-0.033,0.095-0.07,0.183-0.104,0.277
	c-4.007-1.512-7.688-3.374-10.835-5.471C17.36,19.966,17.4,19.918,17.442,19.872z M14.712,23.144
	c3.638,2.478,7.788,4.575,12.372,6.263c-0.057,0.202-0.106,0.41-0.161,0.612c-0.097,0.355-0.19,0.713-0.282,1.072
	c-0.155,0.605-0.303,1.215-0.444,1.832c-0.085,0.367-0.169,0.733-0.249,1.104c-0.139,0.648-0.268,1.305-0.392,1.966
	c-0.065,0.343-0.134,0.682-0.194,1.028c-0.147,0.84-0.28,1.69-0.404,2.549c-0.025,0.172-0.056,0.339-0.079,0.512
	c-0.144,1.035-0.269,2.084-0.378,3.146c-0.032,0.305-0.055,0.617-0.084,0.924c-0.071,0.764-0.139,1.531-0.193,2.308
	c-0.028,0.403-0.05,0.811-0.073,1.217c-0.04,0.697-0.076,1.397-0.103,2.105c-0.017,0.438-0.03,0.879-0.042,1.321
	c-0.008,0.312-0.023,0.617-0.029,0.931H4.039C4.456,41.563,8.198,31.434,14.712,23.144z M14.864,85.124
	C8.267,76.838,4.473,66.639,4.041,56.035h19.604c0.006,0.287,0.022,0.572,0.031,0.859c0.014,0.44,0.029,0.881,0.049,1.32
	c0.028,0.65,0.065,1.299,0.106,1.946c0.029,0.461,0.058,0.921,0.094,1.379c0.048,0.614,0.107,1.225,0.168,1.835
	c0.047,0.479,0.089,0.958,0.143,1.434c0.062,0.554,0.14,1.102,0.213,1.651c0.149,1.142,0.32,2.271,0.511,3.392
	c0.055,0.314,0.102,0.633,0.158,0.945c0.125,0.685,0.264,1.358,0.403,2.033c0.065,0.313,0.128,0.63,0.195,0.941
	c0.148,0.68,0.309,1.35,0.473,2.019c0.071,0.291,0.143,0.582,0.217,0.871c0.175,0.679,0.356,1.351,0.547,2.017
	c0.028,0.099,0.053,0.2,0.081,0.299c-0.011,0.004-0.02,0.008-0.03,0.012c-1.071,0.396-2.114,0.818-3.137,1.259
	c-0.092,0.04-0.183,0.08-0.274,0.12c-2.081,0.91-4.058,1.912-5.923,3.002c-0.01,0.006-0.019,0.012-0.028,0.017
	C16.688,83.944,15.758,84.521,14.864,85.124z M17.496,88.192c0.278-0.184,0.563-0.362,0.847-0.542
	c0.312-0.196,0.625-0.392,0.944-0.582c0.378-0.227,0.758-0.451,1.146-0.669c0.504-0.283,1.019-0.559,1.54-0.828
	c0.441-0.229,0.891-0.45,1.345-0.669c0.476-0.23,0.957-0.456,1.446-0.676c0.341-0.152,0.683-0.303,1.029-0.45
	c0.722-0.307,1.454-0.604,2.202-0.887c0.084-0.031,0.167-0.062,0.25-0.094c0.023,0.065,0.049,0.126,0.072,0.191
	c0.327,0.927,0.667,1.832,1.021,2.713c0.042,0.104,0.085,0.206,0.127,0.31c0.356,0.874,0.726,1.727,1.107,2.554
	c0.046,0.101,0.093,0.198,0.14,0.297c0.384,0.82,0.779,1.619,1.188,2.392c0.05,0.095,0.101,0.187,0.15,0.28
	c0.41,0.766,0.832,1.51,1.265,2.228c0.054,0.089,0.108,0.175,0.162,0.264c0.436,0.71,0.881,1.396,1.337,2.057
	c0.058,0.083,0.115,0.164,0.174,0.247c0.458,0.652,0.925,1.28,1.403,1.882c0.062,0.078,0.123,0.153,0.186,0.23
	c0.479,0.594,0.967,1.162,1.465,1.703c0.065,0.072,0.132,0.142,0.198,0.213c0.498,0.533,1.006,1.041,1.521,1.521
	c0.031,0.029,0.061,0.062,0.092,0.092C31.384,99.476,23.651,94.754,17.496,88.192z M51.958,103.835
	c-0.358-0.054-0.715-0.123-1.071-0.205c-0.12-0.027-0.241-0.043-0.36-0.074c-0.532-0.137-1.062-0.306-1.586-0.505
	c-0.111-0.042-0.221-0.099-0.332-0.144c-0.41-0.166-0.818-0.344-1.223-0.547c-0.178-0.089-0.354-0.193-0.529-0.29
	c-0.336-0.183-0.671-0.371-1.002-0.579c-0.192-0.121-0.384-0.254-0.575-0.384c-0.312-0.211-0.622-0.43-0.929-0.663
	c-0.194-0.147-0.387-0.3-0.579-0.456c-0.302-0.245-0.601-0.501-0.897-0.768c-0.188-0.168-0.374-0.336-0.559-0.512
	c-0.303-0.287-0.601-0.59-0.896-0.899c-0.171-0.178-0.343-0.353-0.512-0.538c-0.321-0.352-0.636-0.724-0.948-1.101
	c-0.137-0.165-0.276-0.32-0.411-0.49c-0.435-0.544-0.861-1.11-1.279-1.703c-0.009-0.014-0.02-0.025-0.029-0.039
	c-0.431-0.613-0.851-1.254-1.262-1.917c-0.113-0.182-0.222-0.376-0.333-0.562c-0.291-0.484-0.579-0.975-0.859-1.483
	c-0.14-0.253-0.274-0.517-0.411-0.775c-0.244-0.463-0.485-0.931-0.721-1.412c-0.142-0.291-0.28-0.59-0.419-0.888
	c-0.221-0.474-0.438-0.954-0.648-1.443c-0.137-0.315-0.271-0.634-0.403-0.956c-0.205-0.5-0.404-1.009-0.6-1.524
	c-0.125-0.328-0.25-0.654-0.37-0.989c-0.056-0.152-0.106-0.313-0.161-0.468c0.161-0.049,0.317-0.102,0.479-0.149
	c0.322-0.095,0.647-0.186,0.974-0.275c0.558-0.156,1.12-0.306,1.688-0.448c0.34-0.085,0.68-0.169,1.022-0.25
	c0.589-0.139,1.185-0.269,1.781-0.393c0.315-0.066,0.628-0.136,0.945-0.197c0.783-0.153,1.573-0.293,2.368-0.422
	c0.132-0.021,0.261-0.048,0.392-0.068c0.92-0.144,1.849-0.27,2.78-0.381c0.305-0.037,0.611-0.064,0.917-0.098
	c0.641-0.069,1.283-0.135,1.929-0.188c0.362-0.03,0.727-0.055,1.09-0.08c0.603-0.042,1.205-0.077,1.81-0.105
	c0.37-0.018,0.739-0.033,1.108-0.046c0.208-0.007,0.416-0.007,0.623-0.012V103.835z M51.958,74.392
	c-0.251,0.006-0.5,0.022-0.751,0.03c-0.372,0.012-0.744,0.027-1.115,0.045c-0.659,0.03-1.315,0.069-1.972,0.115
	c-0.365,0.025-0.731,0.05-1.097,0.08c-0.706,0.059-1.408,0.13-2.109,0.207c-0.3,0.032-0.601,0.06-0.899,0.095
	c-0.99,0.119-1.977,0.253-2.954,0.406c-0.144,0.022-0.285,0.052-0.429,0.075c-0.836,0.136-1.666,0.282-2.489,0.443
	c-0.328,0.064-0.651,0.137-0.978,0.204c-0.64,0.134-1.276,0.272-1.907,0.421c-0.355,0.084-0.707,0.172-1.06,0.261
	c-0.604,0.152-1.205,0.312-1.8,0.478c-0.343,0.095-0.685,0.19-1.022,0.29c-0.178,0.052-0.359,0.099-0.535,0.151
	c-0.085-0.294-0.178-0.58-0.26-0.877c-0.009-0.033-0.018-0.067-0.027-0.102c-0.245-0.897-0.474-1.809-0.689-2.729
	c-0.021-0.088-0.04-0.176-0.061-0.264c-0.201-0.877-0.389-1.764-0.562-2.659c-0.022-0.111-0.045-0.222-0.066-0.333
	c-0.171-0.902-0.328-1.812-0.472-2.73c-0.015-0.092-0.017-0.182-0.032-0.273c-0.311-2.036-0.713-4.107-0.713-6.201
	c0-0.005,0-0.01,0-0.015c0-0.984-0.156-1.975-0.205-2.968c-0.016-0.325-0.03-0.652-0.043-0.979c-0.02-0.509-0.041-1.019-0.052-1.528
	h24.3V74.392z M51.958,52.035H27.989c0.005-0.29,0.006-0.582,0.014-0.869c0.011-0.409,0.023-0.815,0.039-1.22
	c0.025-0.688,0.061-1.37,0.1-2.047c0.021-0.373,0.041-0.747,0.067-1.117c0.054-0.771,0.119-1.533,0.19-2.291
	c0.024-0.261,0.044-0.525,0.07-0.784c0.104-1.011,0.223-2.01,0.358-2.996c0.028-0.204,0.063-0.403,0.093-0.606
	c0.112-0.774,0.232-1.543,0.364-2.301c0.059-0.337,0.124-0.668,0.187-1.001c0.116-0.617,0.236-1.231,0.365-1.837
	c0.077-0.36,0.157-0.717,0.239-1.073c0.132-0.576,0.27-1.145,0.414-1.708c0.089-0.35,0.178-0.701,0.272-1.046
	c0.04-0.15,0.086-0.295,0.128-0.444c6.568,1.992,13.768,3.125,21.067,3.301V52.035z M51.958,29.962
	c-0.201-0.005-0.403-0.005-0.604-0.012c-0.398-0.013-0.795-0.03-1.192-0.049c-0.553-0.026-1.103-0.058-1.651-0.096
	c-0.418-0.029-0.836-0.058-1.252-0.092c-0.59-0.05-1.177-0.109-1.763-0.172c-0.333-0.036-0.668-0.067-1-0.107
	c-4.323-0.523-8.514-1.42-12.544-2.666c0.049-0.141,0.095-0.287,0.144-0.426c0.128-0.361,0.261-0.714,0.394-1.067
	c0.186-0.498,0.376-0.99,0.57-1.472c0.142-0.35,0.285-0.695,0.431-1.037c0.2-0.47,0.405-0.93,0.613-1.385
	c0.15-0.327,0.3-0.655,0.454-0.974c0.22-0.456,0.446-0.898,0.675-1.337c0.152-0.294,0.302-0.592,0.458-0.878
	c0.256-0.469,0.52-0.92,0.784-1.369c0.138-0.232,0.271-0.474,0.41-0.701c0.404-0.658,0.817-1.294,1.24-1.904
	c0.077-0.111,0.158-0.21,0.235-0.319c0.353-0.497,0.71-0.983,1.075-1.445c0.165-0.21,0.336-0.404,0.504-0.606
	c0.283-0.343,0.568-0.685,0.858-1.006c0.191-0.212,0.386-0.411,0.579-0.614c0.276-0.289,0.553-0.573,0.834-0.843
	c0.203-0.196,0.408-0.382,0.614-0.568c0.28-0.252,0.562-0.496,0.847-0.729c0.209-0.172,0.42-0.34,0.631-0.502
	c0.291-0.222,0.585-0.431,0.881-0.633c0.209-0.143,0.417-0.288,0.628-0.421c0.312-0.198,0.63-0.376,0.946-0.552
	c0.197-0.109,0.394-0.226,0.592-0.326c0.372-0.188,0.748-0.35,1.125-0.506c0.146-0.061,0.292-0.135,0.439-0.191
	c0.524-0.2,1.052-0.369,1.583-0.507c0.13-0.034,0.261-0.051,0.391-0.081c0.355-0.082,0.712-0.152,1.07-0.206V29.962z M68.5,6.177
	c0.714,0.217,1.422,0.446,2.124,0.694c0.336,0.119,0.671,0.244,1.004,0.37c0.661,0.25,1.316,0.516,1.966,0.793
	c0.311,0.133,0.622,0.262,0.93,0.401c0.796,0.36,1.583,0.742,2.359,1.143c0.137,0.071,0.276,0.133,0.413,0.205
	c0.907,0.48,1.799,0.992,2.676,1.528c0.247,0.15,0.487,0.312,0.732,0.468c0.632,0.401,1.257,0.813,1.871,1.244
	c0.29,0.203,0.577,0.411,0.863,0.62c0.579,0.424,1.148,0.862,1.711,1.312c0.26,0.208,0.522,0.413,0.779,0.626
	c0.696,0.58,1.378,1.181,2.045,1.801c0.098,0.091,0.2,0.175,0.297,0.267c0.756,0.714,1.488,1.458,2.203,2.223
	c0.053,0.056,0.102,0.116,0.154,0.172c-0.298,0.197-0.603,0.39-0.91,0.583c-0.204,0.13-0.41,0.259-0.618,0.386
	c-2.775,1.678-5.928,3.19-9.336,4.471c-0.02-0.056-0.041-0.107-0.061-0.163c-0.323-0.923-0.659-1.826-1.011-2.706
	c-0.052-0.128-0.104-0.253-0.155-0.381c-0.351-0.86-0.714-1.701-1.09-2.519c-0.061-0.131-0.122-0.26-0.183-0.39
	c-0.376-0.801-0.765-1.582-1.165-2.339c-0.068-0.13-0.138-0.258-0.207-0.387c-0.4-0.743-0.812-1.465-1.235-2.164
	c-0.076-0.126-0.153-0.252-0.23-0.377c-0.424-0.686-0.858-1.349-1.303-1.99c-0.084-0.121-0.167-0.241-0.252-0.36
	c-0.445-0.628-0.9-1.233-1.364-1.815c-0.09-0.113-0.18-0.226-0.271-0.337c-0.466-0.57-0.94-1.116-1.424-1.64
	c-0.096-0.104-0.191-0.208-0.288-0.311c-0.485-0.513-0.979-0.999-1.479-1.463c-0.053-0.048-0.104-0.105-0.156-0.154
	C68.095,6.049,68.297,6.116,68.5,6.177z M55.958,4.164c0.359,0.054,0.718,0.125,1.074,0.207C57.161,4.4,57.29,4.417,57.418,4.45
	c0.532,0.138,1.061,0.308,1.586,0.508c0.142,0.054,0.28,0.125,0.422,0.183c0.383,0.159,0.765,0.324,1.144,0.515
	c0.193,0.098,0.386,0.212,0.578,0.319c0.322,0.178,0.644,0.359,0.961,0.56c0.207,0.13,0.411,0.272,0.615,0.413
	c0.301,0.206,0.599,0.417,0.895,0.643c0.207,0.159,0.413,0.323,0.618,0.491c0.29,0.238,0.577,0.486,0.862,0.743
	c0.201,0.181,0.401,0.363,0.6,0.553c0.287,0.276,0.571,0.568,0.854,0.864c0.188,0.196,0.375,0.389,0.561,0.593
	c0.299,0.332,0.593,0.684,0.886,1.038c0.159,0.192,0.32,0.376,0.478,0.575c0.383,0.485,0.758,0.993,1.127,1.516
	c0.061,0.085,0.124,0.163,0.184,0.25c0.427,0.613,0.842,1.254,1.249,1.916c0.131,0.212,0.255,0.439,0.384,0.656
	c0.273,0.463,0.547,0.93,0.811,1.415c0.15,0.276,0.296,0.565,0.443,0.849c0.233,0.449,0.465,0.9,0.689,1.366
	c0.15,0.312,0.297,0.632,0.443,0.952c0.212,0.462,0.421,0.931,0.625,1.41c0.143,0.334,0.282,0.672,0.421,1.014
	c0.198,0.491,0.392,0.992,0.581,1.499c0.129,0.345,0.259,0.69,0.384,1.043c0.051,0.143,0.098,0.292,0.147,0.436
	c-4.028,1.245-8.216,2.141-12.537,2.665c-0.344,0.041-0.689,0.074-1.035,0.11c-0.572,0.062-1.146,0.12-1.724,0.168
	c-0.425,0.036-0.851,0.065-1.276,0.095c-0.542,0.037-1.085,0.069-1.63,0.094c-0.4,0.019-0.801,0.037-1.202,0.05
	c-0.199,0.006-0.401,0.007-0.602,0.012V4.164z M55.958,33.996c7.3-0.175,14.499-1.309,21.067-3.301
	c0.042,0.15,0.088,0.295,0.129,0.446c0.094,0.345,0.183,0.695,0.271,1.044c0.144,0.562,0.282,1.13,0.413,1.704
	c0.082,0.359,0.163,0.719,0.241,1.083c0.128,0.604,0.248,1.215,0.363,1.831c0.062,0.334,0.129,0.666,0.188,1.003
	c0.136,0.778,0.259,1.566,0.373,2.361c0.026,0.181,0.058,0.357,0.082,0.54c0.138,0.995,0.258,2.005,0.362,3.027
	c0.022,0.219,0.038,0.442,0.06,0.662c0.076,0.804,0.146,1.615,0.202,2.435c0.023,0.331,0.04,0.665,0.061,0.998
	c0.042,0.722,0.078,1.448,0.105,2.182c0.015,0.375,0.026,0.751,0.036,1.128c0.008,0.296,0.009,0.598,0.015,0.896H55.958V33.996z
	 M55.958,56.035h24.301c-0.011,0.48-0.024,0.961-0.043,1.44c-0.014,0.375-0.022,0.752-0.041,1.126
	c-0.039,0.786-0.093,1.568-0.151,2.35c-0.017,0.222-0.026,0.445-0.045,0.667c-0.082,0.995-0.182,1.984-0.295,2.968
	c-0.035,0.299-0.079,0.593-0.116,0.891c-0.087,0.688-0.176,1.374-0.278,2.054c-0.057,0.375-0.121,0.745-0.182,1.117
	c-0.098,0.598-0.198,1.193-0.308,1.783c-0.073,0.393-0.152,0.781-0.23,1.171c-0.113,0.564-0.231,1.125-0.355,1.682
	c-0.087,0.39-0.177,0.776-0.269,1.161c-0.133,0.553-0.271,1.101-0.415,1.645c-0.098,0.372-0.195,0.743-0.299,1.111
	c-0.047,0.167-0.099,0.33-0.146,0.496c-0.18-0.055-0.365-0.102-0.547-0.155c-0.337-0.1-0.678-0.193-1.019-0.289
	c-0.597-0.166-1.197-0.325-1.803-0.478c-0.353-0.089-0.704-0.177-1.059-0.26c-0.632-0.149-1.27-0.288-1.909-0.422
	c-0.325-0.068-0.648-0.14-0.976-0.204c-0.824-0.161-1.654-0.308-2.49-0.443c-0.144-0.023-0.284-0.053-0.429-0.075
	c-0.978-0.153-1.963-0.287-2.953-0.406c-0.299-0.035-0.6-0.062-0.899-0.095c-0.701-0.077-1.404-0.148-2.11-0.207
	c-0.364-0.03-0.73-0.055-1.097-0.08c-0.655-0.046-1.312-0.085-1.972-0.115c-0.371-0.018-0.742-0.032-1.114-0.045
	c-0.251-0.008-0.5-0.024-0.751-0.03V56.035z M67.011,97.271c-0.171,0.187-0.344,0.362-0.517,0.542
	c-0.295,0.308-0.592,0.609-0.893,0.896c-0.186,0.177-0.373,0.346-0.561,0.514c-0.296,0.266-0.595,0.521-0.896,0.767
	c-0.192,0.155-0.385,0.309-0.579,0.456c-0.307,0.233-0.617,0.452-0.929,0.663c-0.191,0.13-0.383,0.263-0.575,0.384
	c-0.331,0.208-0.666,0.396-1.002,0.579c-0.176,0.097-0.352,0.201-0.529,0.29c-0.404,0.203-0.812,0.381-1.223,0.547
	c-0.111,0.045-0.221,0.102-0.332,0.144c-0.524,0.199-1.054,0.368-1.586,0.505c-0.119,0.031-0.24,0.047-0.36,0.074
	c-0.356,0.082-0.713,0.151-1.071,0.205V78.407c0.207,0.005,0.415,0.005,0.623,0.012c0.369,0.013,0.738,0.028,1.107,0.046
	c0.604,0.028,1.208,0.063,1.811,0.105c0.363,0.025,0.727,0.05,1.09,0.08c0.645,0.054,1.287,0.119,1.928,0.188
	c0.306,0.033,0.613,0.061,0.917,0.098c0.933,0.111,1.859,0.236,2.779,0.381c0.134,0.021,0.265,0.048,0.398,0.069
	c0.792,0.129,1.58,0.268,2.36,0.42c0.32,0.062,0.636,0.133,0.953,0.199c0.594,0.124,1.186,0.253,1.772,0.391
	c0.346,0.081,0.688,0.167,1.031,0.253c0.562,0.142,1.119,0.289,1.673,0.443c0.331,0.092,0.662,0.184,0.99,0.28
	c0.159,0.047,0.314,0.1,0.473,0.147c-0.052,0.145-0.099,0.295-0.15,0.438c-0.13,0.359-0.264,0.711-0.397,1.062
	c-0.188,0.491-0.377,0.977-0.572,1.452c-0.14,0.341-0.281,0.677-0.425,1.01c-0.204,0.472-0.413,0.935-0.625,1.391
	c-0.146,0.312-0.291,0.625-0.439,0.931c-0.229,0.467-0.463,0.92-0.699,1.369c-0.144,0.271-0.284,0.547-0.43,0.812
	c-0.273,0.496-0.555,0.973-0.837,1.444c-0.119,0.197-0.233,0.403-0.354,0.597c-0.409,0.66-0.828,1.299-1.257,1.909
	c-0.019,0.026-0.038,0.05-0.057,0.075c-0.409,0.58-0.827,1.135-1.252,1.668c-0.138,0.173-0.279,0.332-0.419,0.499
	C67.641,96.552,67.328,96.922,67.011,97.271z M68.062,101.969c0.031-0.029,0.061-0.062,0.092-0.092
	c0.516-0.48,1.023-0.988,1.521-1.521c0.066-0.071,0.133-0.141,0.198-0.213c0.498-0.541,0.986-1.109,1.465-1.703
	c0.062-0.077,0.124-0.152,0.186-0.23c0.479-0.602,0.945-1.229,1.403-1.882c0.059-0.083,0.116-0.164,0.174-0.247
	c0.456-0.66,0.901-1.347,1.337-2.057c0.054-0.089,0.108-0.175,0.162-0.264c0.433-0.718,0.854-1.462,1.265-2.228
	c0.05-0.094,0.101-0.186,0.15-0.28c0.408-0.772,0.804-1.571,1.188-2.392c0.047-0.099,0.094-0.196,0.14-0.297
	c0.382-0.827,0.751-1.68,1.107-2.554c0.042-0.104,0.085-0.205,0.127-0.31c0.354-0.881,0.694-1.786,1.021-2.713
	c0.023-0.066,0.05-0.128,0.073-0.194c0.021,0.008,0.043,0.015,0.063,0.022c0.873,0.326,1.723,0.673,2.56,1.03
	c0.213,0.091,0.424,0.185,0.636,0.278c0.729,0.322,1.447,0.655,2.148,1.002c0.114,0.057,0.232,0.11,0.346,0.167
	c0.789,0.397,1.555,0.812,2.306,1.239c0.185,0.105,0.366,0.214,0.549,0.32c0.646,0.379,1.278,0.769,1.894,1.169
	c0.084,0.055,0.171,0.107,0.254,0.163C84.271,94.75,76.536,99.475,68.062,101.969z M93.067,85.132
	c-0.017-0.012-0.035-0.021-0.053-0.033c-0.794-0.535-1.618-1.049-2.46-1.548c-0.191-0.114-0.385-0.227-0.578-0.339
	c-0.856-0.493-1.728-0.975-2.63-1.431c-0.042-0.021-0.087-0.042-0.13-0.063c-0.872-0.438-1.771-0.854-2.684-1.258
	c-0.207-0.092-0.413-0.184-0.622-0.273c-0.947-0.405-1.911-0.795-2.9-1.162c-0.04-0.016-0.078-0.033-0.118-0.048
	c0.07-0.241,0.131-0.491,0.199-0.734c0.102-0.366,0.201-0.734,0.299-1.104c0.166-0.631,0.324-1.269,0.477-1.91
	c0.09-0.375,0.179-0.748,0.264-1.127c0.151-0.682,0.292-1.37,0.428-2.062c0.067-0.34,0.139-0.677,0.201-1.02
	c0.173-0.934,0.33-1.876,0.474-2.826c0.016-0.102,0.034-0.201,0.05-0.303c0.155-1.052,0.29-2.114,0.41-3.182
	c0.037-0.331,0.064-0.666,0.099-0.998c0.075-0.743,0.146-1.487,0.204-2.235c0.032-0.407,0.057-0.815,0.083-1.225
	c0.044-0.685,0.083-1.37,0.113-2.059c0.019-0.429,0.033-0.857,0.047-1.287c0.008-0.29,0.025-0.579,0.031-0.869h19.646
	C103.483,66.629,99.681,76.831,93.067,85.132z M83.941,52.035c-0.006-0.327-0.022-0.646-0.03-0.971
	c-0.012-0.428-0.024-0.855-0.04-1.279c-0.027-0.713-0.063-1.419-0.104-2.122c-0.023-0.403-0.045-0.807-0.073-1.206
	c-0.054-0.775-0.121-1.541-0.193-2.303c-0.028-0.309-0.052-0.622-0.083-0.928c-0.109-1.058-0.234-2.103-0.377-3.134
	c-0.027-0.198-0.062-0.39-0.091-0.586c-0.121-0.833-0.25-1.659-0.393-2.474c-0.062-0.354-0.133-0.7-0.198-1.05
	c-0.124-0.654-0.251-1.304-0.389-1.945c-0.08-0.375-0.166-0.746-0.251-1.117c-0.141-0.613-0.288-1.221-0.442-1.822
	c-0.093-0.36-0.186-0.72-0.283-1.076c-0.056-0.203-0.104-0.412-0.161-0.614c4.607-1.697,8.775-3.807,12.427-6.302
	c6.508,8.271,10.245,18.416,10.66,28.93H83.941z"/>
</svg>
