<?xml version="1.0" encoding="utf-8"?>
<!-- Generator: Adobe Illustrator 16.0.0, SVG Export Plug-In . SVG Version: 6.00 Build 0)  -->
<!DOCTYPE svg PUBLIC "-//W3C//DTD SVG 1.1//EN" "http://www.w3.org/Graphics/SVG/1.1/DTD/svg11.dtd">
<svg version="1.1" id="Layer_1" xmlns="http://www.w3.org/2000/svg" xmlns:xlink="http://www.w3.org/1999/xlink" x="0px" y="0px"
	 width="92px" height="92px" viewBox="0 0 92 92" enable-background="new 0 0 92 92" xml:space="preserve">
<g>
	<path fill="none" d="M20.501,31h31.358C52.856,31,54,32.108,54,33.105v9.964l11.074-11.392C65.42,31.336,65.706,31,66.187,31h6.271
		C73.042,31,74,30.823,74,30.24V4.451C74,3.867,73.042,3,72.458,3H20.501C19.918,3,19,3.868,19,4.452v25.789
		C19,30.824,19.918,31,20.501,31z M56.336,20.326l3.872-2.692l-3.872-2.692l-0.772-0.537c-0.612-0.427-0.765-1.271-0.34-1.883
		c0.411-0.591,1.289-0.751,1.883-0.34l7.842,5.452l-7.84,5.451c-0.229,0.159-0.496,0.243-0.772,0.243
		c-0.442,0-0.858-0.217-1.111-0.58c-0.426-0.614-0.274-1.459,0.339-1.885L56.336,20.326z M56,20.326v-5.385l3.872,2.692L56,20.326z
		 M42.761,24.865l6.464-15.44c0.28-0.668,1.094-1.01,1.769-0.725c0.688,0.289,1.015,1.083,0.727,1.77l-6.464,15.44
		c-0.211,0.504-0.7,0.83-1.248,0.83c-0.178,0-0.354-0.035-0.521-0.104c-0.335-0.14-0.594-0.401-0.73-0.735
		C42.619,25.565,42.621,25.198,42.761,24.865z M36.662,12.183c0.594-0.412,1.47-0.253,1.883,0.338
		c0.425,0.614,0.272,1.458-0.338,1.884l-0.773,0.538L37,15.244v4.781l0.434,0.302l0.772,0.537c0.611,0.424,0.765,1.269,0.34,1.882
		c-0.255,0.365-0.671,0.582-1.113,0.582c-0.275,0-0.542-0.084-0.771-0.242l-7.84-5.452L36.662,12.183z"/>
	<polygon fill="none" points="84.063,89 88.937,84 56.907,84 54.041,86 38.216,86 35.352,84 4.055,84 8.192,89 	"/>
	<path fill="#FAD64E" d="M85.562,92L92,85.433V80l-6,0.386V37.789C86,34.423,82.448,31,79.082,31H79v4h0.082
		C80.455,35,82,36.03,82,37.403V80H55.409l-2.866,3H39.714l-2.867-3H11V37.403C11,36.03,11.803,35,13.177,35H14v-4h-0.823
		C9.81,31,7,34.037,7,37.403V80H0v5.433L6.697,92H85.562z M35.352,84l2.864,2h15.825l2.866-2h32.029l-4.873,5H8.192l-4.138-5H35.352
		z"/>
	<path fill="#FAD64E" d="M20.339,35H50v12.433c0,0.735,0.465,1.391,1.141,1.669c0.219,0.092,0.466,0.139,0.706,0.139
		c0.481,0,0.941-0.145,1.285-0.486L66.936,35h4.981C74.494,35,77,32.816,77,30.24V4.451C77,1.874,74.494,0,71.917,0H20.339
		C17.763,0,16,1.874,16,4.451V30.24C16,32.816,17.763,35,20.339,35z M20,5.001C20,4.417,20.542,4,21.125,4h50.583
		C72.292,4,73,4.416,73,5v25.24c0,0.583-0.708,0.76-1.292,0.76h-5.521c-0.48,0-0.767,0.336-1.112,0.678L54,43.069v-9.964
		C54,32.108,52.856,31,51.859,31l-30.734,0.001c-0.583,0-1.125-0.177-1.125-0.76V5.001z"/>
	<path fill="#FAD64E" d="M47,47h-2.896l-0.005-0.006L44.091,47H18.692l-0.008-0.006L18.68,47H16v25h31V47z M40.23,50l-8.839,6.868
		L22.553,50H40.23z M19,51.697l9.514,7.393L19,66.482V51.697z M21.727,69l9.665-7.51L41.057,69H21.727z M44,66.745l-9.852-7.655
		L44,51.435V66.745z"/>
	<rect x="63" y="47" fill="#FAD64E" width="15" height="3"/>
	<rect x="55" y="53" fill="#FAD64E" width="23" height="3"/>
	<rect x="63" y="59" fill="#FAD64E" width="15" height="3"/>
	<rect x="70" y="68" fill="#FAD64E" width="8" height="3"/>
	<path fill="#FAD64E" d="M37.433,23.328c0.442,0,0.858-0.217,1.113-0.582c0.425-0.613,0.271-1.458-0.34-1.882l-0.772-0.537
		L37,20.025l-3.438-2.392L37,15.244l0.434-0.302l0.773-0.538c0.61-0.426,0.763-1.27,0.338-1.884
		c-0.413-0.591-1.289-0.75-1.883-0.338l-7.841,5.451l7.84,5.452C36.891,23.244,37.157,23.328,37.433,23.328z"/>
	<path fill="#FAD64E" d="M55.225,22.748c0.253,0.363,0.669,0.58,1.111,0.58c0.276,0,0.543-0.084,0.772-0.243l7.84-5.451
		l-7.842-5.452c-0.594-0.411-1.472-0.251-1.883,0.34c-0.425,0.612-0.272,1.456,0.34,1.883l0.772,0.537l3.872,2.692l-3.872,2.692
		l-0.772,0.537C54.95,21.289,54.799,22.134,55.225,22.748z"/>
	<path fill="#FAD64E" d="M43.487,26.636c0.167,0.069,0.343,0.104,0.521,0.104c0.548,0,1.037-0.326,1.248-0.83l6.464-15.44
		c0.288-0.687-0.038-1.48-0.727-1.77c-0.675-0.285-1.488,0.057-1.769,0.725l-6.464,15.44c-0.14,0.333-0.142,0.7-0.004,1.035
		C42.894,26.234,43.152,26.496,43.487,26.636z"/>
</g>
</svg>
