<?xml version="1.0" encoding="utf-8"?>
<!-- Generator: Adobe Illustrator 16.0.0, SVG Export Plug-In . SVG Version: 6.00 Build 0)  -->
<!DOCTYPE svg PUBLIC "-//W3C//DTD SVG 1.1//EN" "http://www.w3.org/Graphics/SVG/1.1/DTD/svg11.dtd">
<svg version="1.1" id="Layer_1" xmlns="http://www.w3.org/2000/svg" xmlns:xlink="http://www.w3.org/1999/xlink" x="0px" y="0px"
	 width="82px" height="115px" viewBox="0 0 82 115" enable-background="new 0 0 82 115" xml:space="preserve">
<g>
	<path fill="none" d="M64,5H5v83.528v10.434V111h73V99.667v-5.643V19H64V5z M49,35h16v4H49V35z M27.765,14.938
		c9.408,0,17.062,7.654,17.062,17.062s-7.654,17.062-17.062,17.062S10.702,41.408,10.702,32S18.356,14.938,27.765,14.938z M11,78h29
		v5H11V78z M47,103h-0.558c-2.711,0-4.171-1.33-5.138-2.305c-0.84-0.846-1.143-0.967-1.933-0.967c-0.788,0-1.091,0.268-1.93,1.111
		c-0.967,0.977-2.429,2.455-5.142,2.455c-2.71,0-4.172-1.473-5.14-2.449c-0.84-0.843-1.144-1.102-1.931-1.102
		c-0.786,0-1.09,0.285-1.933,1.129c-0.964,0.975-2.423,2.485-5.139,2.485c-2.717,0-4.173-1.409-5.137-2.386
		c-0.84-0.842-1.145-0.973-1.934-0.973H11v-5h0.086c2.708,0,4.171,1.558,5.14,2.533c0.843,0.845,1.148,1.195,1.931,1.195
		c0.788,0,1.092-0.267,1.936-1.111c0.966-0.976,2.427-2.447,5.136-2.447c2.707,0,4.17,1.477,5.138,2.452
		c0.842,0.847,1.145,1.122,1.932,1.122c0.791,0,1.093-0.25,1.929-1.094c0.985-0.986,2.446-2.416,5.144-2.416
		c2.707,0,4.17,1.541,5.138,2.517C45.35,98.597,45.652,99,46.442,99H47V103z M72,72H11v-5h61V72z M72,62H11v-4h61V62z M73,27v4H49
		v-4H73z"/>
	<polygon fill="none" points="68,8.184 68,15 74.559,15 	"/>
	<path fill="#343434" d="M0,0v88.528v10.434V115h82V99.667v-5.643V15.976L66.826,0H0z M78,94.024v5.643V111H5V98.962V88.528V5h59v14
		h14V94.024z M68,8.184L74.559,15H68V8.184z"/>
	<path fill="#343434" d="M44.51,97.751c-0.968-0.976-2.432-2.517-5.138-2.517c-2.697,0-4.159,1.43-5.144,2.416
		c-0.836,0.844-1.139,1.094-1.929,1.094c-0.787,0-1.09-0.275-1.932-1.122c-0.968-0.976-2.432-2.452-5.138-2.452
		c-2.708,0-4.17,1.472-5.136,2.447c-0.844,0.845-1.148,1.111-1.936,1.111c-0.783,0-1.088-0.351-1.931-1.195
		C15.258,96.558,13.795,95,11.086,95H11v5h0.086c0.789,0,1.093,0.131,1.934,0.973c0.964,0.977,2.42,2.386,5.137,2.386
		c2.716,0,4.175-1.511,5.139-2.485c0.842-0.844,1.146-1.129,1.933-1.129c0.788,0,1.091,0.259,1.931,1.102
		c0.968,0.977,2.43,2.449,5.14,2.449c2.713,0,4.175-1.479,5.142-2.455c0.839-0.844,1.143-1.111,1.93-1.111
		c0.79,0,1.093,0.121,1.933,0.967c0.966,0.975,2.426,2.305,5.138,2.305H47v-4h-0.558C45.652,99,45.35,98.597,44.51,97.751z"/>
	<rect x="11" y="58" fill="#343434" width="61" height="4"/>
	<rect x="11" y="67" fill="#343434" width="61" height="5"/>
	<rect x="11" y="78" fill="#343434" width="29" height="5"/>
	<rect x="49" y="27" fill="#343434" width="24" height="4"/>
	<rect x="49" y="35" fill="#343434" width="16" height="4"/>
	<path fill="#343434" d="M27.765,49.062c9.408,0,17.062-7.654,17.062-17.062s-7.654-17.062-17.062-17.062S10.702,22.592,10.702,32
		S18.356,49.062,27.765,49.062z M27.765,18.938c7.203,0,13.062,5.859,13.062,13.062s-5.86,13.062-13.062,13.062
		S14.702,39.203,14.702,32S20.562,18.938,27.765,18.938z"/>
	<path fill="#343434" d="M23.765,29.575c1.792,0,3.25-1.458,3.25-3.25s-1.458-3.25-3.25-3.25s-3.25,1.458-3.25,3.25
		S21.973,29.575,23.765,29.575z M23.765,25.575c0.414,0,0.75,0.337,0.75,0.75s-0.336,0.75-0.75,0.75s-0.75-0.337-0.75-0.75
		S23.351,25.575,23.765,25.575z"/>
	<path fill="#343434" d="M31.765,29.575c1.792,0,3.25-1.458,3.25-3.25s-1.458-3.25-3.25-3.25s-3.25,1.458-3.25,3.25
		S29.973,29.575,31.765,29.575z M31.765,25.575c0.414,0,0.75,0.337,0.75,0.75s-0.336,0.75-0.75,0.75s-0.75-0.337-0.75-0.75
		S31.351,25.575,31.765,25.575z"/>
	<path fill="#343434" d="M27.765,42.117C33.408,42.117,38,37.525,38,31.883c0-1.104-0.896-2-2-2s-2,0.896-2,2
		c0,3.438-2.797,6.234-6.235,6.234s-6.235-2.797-6.235-6.234c0-1.104-0.896-2-2-2s-2,0.896-2,2
		C17.529,37.525,22.121,42.117,27.765,42.117z"/>
</g>
</svg>
