<?xml version="1.0" encoding="utf-8"?>
<!-- Generator: Adobe Illustrator 16.0.0, SVG Export Plug-In . SVG Version: 6.00 Build 0)  -->
<!DOCTYPE svg PUBLIC "-//W3C//DTD SVG 1.1//EN" "http://www.w3.org/Graphics/SVG/1.1/DTD/svg11.dtd">
<svg version="1.1" id="Layer_1" xmlns="http://www.w3.org/2000/svg" xmlns:xlink="http://www.w3.org/1999/xlink" x="0px" y="0px"
	 width="107.958px" height="108px" viewBox="0 0 107.958 108" enable-background="new 0 0 107.958 108" xml:space="preserve">
<g>
	<path fill="none" d="M17.678,83.365c1.862-1.088,3.835-2.088,5.912-2.996c0.094-0.041,0.187-0.082,0.28-0.123
		c1.019-0.439,2.059-0.859,3.125-1.254c0.014-0.005,0.025-0.011,0.039-0.016c-0.028-0.097-0.052-0.196-0.079-0.293
		c-0.192-0.67-0.375-1.347-0.55-2.029c-0.073-0.284-0.144-0.569-0.214-0.855c-0.165-0.673-0.326-1.348-0.476-2.032
		c-0.066-0.306-0.128-0.616-0.191-0.924c-0.141-0.681-0.281-1.359-0.406-2.05c-0.055-0.302-0.101-0.608-0.153-0.912
		c-0.193-1.137-0.366-2.283-0.519-3.439c-0.071-0.543-0.147-1.084-0.21-1.631c-0.055-0.478-0.096-0.959-0.143-1.438
		c-0.061-0.609-0.12-1.219-0.168-1.832c-0.036-0.459-0.064-0.92-0.094-1.38c-0.041-0.647-0.078-1.296-0.106-1.946
		c-0.02-0.439-0.035-0.879-0.049-1.32c-0.009-0.287-0.025-0.572-0.031-0.859H4.041c0.432,10.604,4.226,20.803,10.823,29.089
		c0.892-0.603,1.819-1.177,2.771-1.733C17.648,83.382,17.663,83.373,17.678,83.365z"/>
	<path fill="none" d="M24.005,51.104c0.012-0.442,0.025-0.883,0.042-1.321c0.026-0.707,0.062-1.408,0.103-2.105
		c0.023-0.406,0.045-0.814,0.073-1.217c0.055-0.777,0.122-1.544,0.193-2.308c0.029-0.308,0.052-0.619,0.084-0.925
		c0.109-1.061,0.234-2.111,0.378-3.146c0.023-0.173,0.054-0.341,0.079-0.513c0.124-0.858,0.257-1.709,0.404-2.549
		c0.061-0.346,0.129-0.686,0.194-1.028c0.124-0.661,0.253-1.317,0.392-1.966c0.08-0.371,0.164-0.737,0.249-1.104
		c0.142-0.617,0.289-1.228,0.444-1.832c0.092-0.359,0.186-0.717,0.282-1.072c0.055-0.203,0.104-0.41,0.161-0.612
		c-4.584-1.688-8.734-3.785-12.372-6.263C8.198,31.434,4.456,41.562,4.039,52.035h19.937C23.981,51.722,23.997,51.416,24.005,51.104
		z"/>
	<path fill="none" d="M28.256,25.205c0.302-0.855,0.613-1.696,0.939-2.516c0.075-0.188,0.152-0.373,0.229-0.561
		c0.326-0.796,0.662-1.576,1.011-2.336c0.088-0.189,0.176-0.377,0.265-0.564c0.349-0.738,0.707-1.461,1.077-2.162
		c0.098-0.188,0.197-0.371,0.297-0.555c0.371-0.685,0.751-1.352,1.141-1.998c0.107-0.179,0.216-0.355,0.325-0.531
		c0.393-0.633,0.794-1.246,1.205-1.841c0.114-0.167,0.229-0.331,0.347-0.495c0.414-0.582,0.837-1.145,1.269-1.688
		c0.12-0.152,0.24-0.303,0.362-0.451c0.437-0.533,0.881-1.045,1.333-1.536c0.124-0.135,0.247-0.271,0.372-0.401
		c0.46-0.484,0.928-0.945,1.401-1.387c0.066-0.062,0.13-0.133,0.196-0.193c-0.201,0.058-0.399,0.123-0.6,0.185
		c-0.718,0.218-1.431,0.448-2.136,0.698c-0.335,0.118-0.667,0.242-0.999,0.368c-0.663,0.251-1.32,0.517-1.972,0.796
		c-0.309,0.132-0.619,0.26-0.925,0.398c-0.797,0.36-1.583,0.742-2.359,1.143c-0.137,0.071-0.278,0.135-0.415,0.207
		c-0.907,0.479-1.798,0.991-2.675,1.527c-0.248,0.15-0.489,0.314-0.735,0.47c-0.63,0.4-1.254,0.812-1.867,1.24
		c-0.291,0.204-0.579,0.413-0.866,0.622c-0.578,0.424-1.146,0.86-1.707,1.309c-0.261,0.209-0.524,0.415-0.782,0.63
		c-0.695,0.579-1.375,1.178-2.04,1.796c-0.1,0.093-0.203,0.178-0.302,0.271c-0.756,0.713-1.487,1.457-2.202,2.222
		c-0.042,0.046-0.082,0.095-0.125,0.14c3.147,2.097,6.828,3.959,10.835,5.471C28.186,25.388,28.223,25.3,28.256,25.205z"/>
	<path fill="none" d="M69.525,7.606c0.097,0.103,0.192,0.207,0.288,0.312c0.483,0.523,0.958,1.068,1.424,1.639
		c0.091,0.111,0.181,0.225,0.271,0.338c0.464,0.582,0.919,1.188,1.364,1.814c0.085,0.119,0.168,0.24,0.252,0.36
		c0.444,0.641,0.879,1.304,1.303,1.989c0.077,0.125,0.154,0.251,0.23,0.377c0.423,0.699,0.835,1.421,1.235,2.164
		c0.069,0.129,0.139,0.257,0.207,0.387c0.4,0.758,0.789,1.538,1.165,2.339c0.061,0.13,0.122,0.259,0.183,0.39
		c0.376,0.817,0.739,1.658,1.09,2.519c0.052,0.128,0.104,0.253,0.155,0.381c0.352,0.88,0.688,1.783,1.011,2.706
		c0.02,0.056,0.041,0.107,0.061,0.163c3.408-1.28,6.561-2.793,9.336-4.471c0.208-0.128,0.414-0.257,0.618-0.386
		c0.308-0.193,0.612-0.387,0.91-0.583c-0.053-0.056-0.102-0.116-0.154-0.172c-0.715-0.765-1.447-1.509-2.203-2.223
		c-0.097-0.092-0.199-0.176-0.297-0.267c-0.667-0.62-1.349-1.221-2.045-1.801c-0.257-0.214-0.52-0.418-0.779-0.627
		c-0.562-0.449-1.132-0.888-1.711-1.312c-0.286-0.209-0.573-0.417-0.863-0.62c-0.614-0.43-1.239-0.842-1.871-1.243
		c-0.245-0.155-0.485-0.317-0.732-0.468c-0.877-0.536-1.769-1.049-2.676-1.528c-0.137-0.071-0.276-0.134-0.413-0.205
		c-0.776-0.401-1.563-0.783-2.359-1.144c-0.308-0.139-0.619-0.268-0.93-0.4c-0.649-0.277-1.305-0.543-1.966-0.793
		c-0.333-0.127-0.668-0.252-1.004-0.371c-0.702-0.248-1.41-0.477-2.124-0.693c-0.203-0.062-0.405-0.129-0.609-0.188
		c0.053,0.048,0.104,0.105,0.156,0.153C68.547,6.607,69.04,7.094,69.525,7.606z"/>
	<path fill="none" d="M88.268,86.846c-0.176-0.104-0.351-0.207-0.528-0.309c-0.756-0.43-1.527-0.848-2.322-1.248
		c-0.103-0.051-0.209-0.1-0.312-0.15c-0.713-0.354-1.443-0.692-2.187-1.021c-0.204-0.09-0.407-0.181-0.613-0.269
		c-0.843-0.36-1.698-0.709-2.577-1.037c-0.019-0.008-0.037-0.014-0.056-0.02c-0.022,0.063-0.048,0.123-0.07,0.187
		c-0.329,0.931-0.67,1.84-1.026,2.725c-0.04,0.101-0.082,0.2-0.123,0.301c-0.357,0.876-0.728,1.731-1.11,2.562
		c-0.045,0.098-0.091,0.193-0.136,0.289c-0.386,0.823-0.782,1.623-1.191,2.398c-0.049,0.094-0.099,0.184-0.148,0.276
		c-0.411,0.767-0.832,1.511-1.266,2.229c-0.054,0.089-0.108,0.176-0.162,0.264c-0.436,0.709-0.88,1.396-1.336,2.057
		c-0.059,0.083-0.117,0.165-0.176,0.248c-0.457,0.651-0.924,1.279-1.4,1.879c-0.062,0.08-0.126,0.156-0.189,0.234
		c-0.478,0.593-0.965,1.16-1.462,1.701c-0.066,0.072-0.133,0.143-0.199,0.213c-0.499,0.533-1.006,1.041-1.521,1.521
		c-0.031,0.029-0.061,0.062-0.092,0.092c8.474-2.494,16.209-7.219,22.364-13.785c-0.08-0.053-0.164-0.104-0.246-0.157
		C89.56,87.621,88.921,87.229,88.268,86.846z"/>
	<path fill="none" d="M84.239,56.904c-0.014,0.43-0.028,0.857-0.047,1.287c-0.03,0.688-0.069,1.375-0.113,2.06
		c-0.026,0.408-0.051,0.816-0.083,1.223c-0.058,0.75-0.129,1.495-0.204,2.239c-0.034,0.331-0.062,0.664-0.099,0.994
		c-0.12,1.068-0.255,2.131-0.41,3.184c-0.015,0.098-0.033,0.193-0.048,0.292c-0.145,0.953-0.303,1.899-0.476,2.837
		c-0.062,0.342-0.135,0.679-0.201,1.02c-0.136,0.691-0.276,1.379-0.428,2.061c-0.085,0.38-0.175,0.756-0.265,1.133
		c-0.151,0.638-0.309,1.271-0.474,1.897c-0.1,0.376-0.2,0.749-0.304,1.122c-0.067,0.239-0.127,0.486-0.196,0.725
		c0.047,0.017,0.09,0.037,0.137,0.055c0.979,0.363,1.934,0.75,2.872,1.151c0.216,0.093,0.428,0.187,0.641,0.281
		c0.912,0.402,1.808,0.817,2.679,1.256c0.041,0.021,0.084,0.04,0.126,0.062c0.902,0.457,1.775,0.938,2.633,1.434
		c0.192,0.109,0.383,0.221,0.572,0.334c0.843,0.5,1.668,1.014,2.463,1.551c0.018,0.011,0.036,0.021,0.053,0.032
		c6.613-8.301,10.416-18.503,10.849-29.097H84.271C84.265,56.326,84.247,56.614,84.239,56.904z"/>
	<path fill="none" d="M69.641,93.986c0.012-0.018,0.024-0.032,0.036-0.049c0.43-0.612,0.85-1.252,1.261-1.914
		c0.117-0.188,0.229-0.389,0.344-0.581c0.286-0.478,0.57-0.959,0.847-1.46c0.144-0.261,0.282-0.532,0.423-0.799
		c0.238-0.454,0.476-0.912,0.706-1.385c0.147-0.301,0.29-0.608,0.434-0.916c0.215-0.462,0.426-0.93,0.632-1.407
		c0.142-0.328,0.281-0.659,0.419-0.995c0.197-0.48,0.39-0.973,0.578-1.469c0.133-0.348,0.265-0.693,0.393-1.048
		c0.052-0.146,0.101-0.297,0.152-0.443c-0.156-0.048-0.309-0.099-0.465-0.146c-0.332-0.098-0.668-0.19-1.004-0.284
		c-0.552-0.153-1.108-0.302-1.669-0.442c-0.341-0.085-0.681-0.17-1.024-0.251c-0.595-0.14-1.195-0.271-1.799-0.396
		c-0.307-0.063-0.612-0.132-0.922-0.192c-0.811-0.158-1.628-0.304-2.451-0.436c-0.103-0.018-0.204-0.037-0.307-0.054
		c-0.928-0.146-1.864-0.272-2.804-0.385c-0.282-0.034-0.567-0.06-0.851-0.091c-0.666-0.072-1.332-0.14-2.002-0.195
		c-0.345-0.028-0.689-0.052-1.035-0.076c-0.623-0.043-1.247-0.08-1.873-0.109c-0.352-0.016-0.704-0.031-1.056-0.043
		c-0.215-0.008-0.431-0.008-0.646-0.013v25.428c0.348-0.052,0.693-0.12,1.038-0.198c0.133-0.03,0.267-0.049,0.398-0.082
		c0.529-0.137,1.055-0.305,1.577-0.502c0.123-0.047,0.245-0.109,0.368-0.16c0.397-0.162,0.794-0.333,1.187-0.53
		c0.184-0.093,0.364-0.2,0.547-0.3c0.329-0.18,0.658-0.364,0.984-0.568c0.196-0.124,0.391-0.259,0.586-0.391
		c0.308-0.209,0.615-0.426,0.919-0.656c0.196-0.149,0.391-0.305,0.585-0.462c0.3-0.243,0.597-0.497,0.892-0.762
		c0.188-0.169,0.377-0.339,0.564-0.518c0.3-0.285,0.596-0.586,0.89-0.893c0.173-0.181,0.347-0.356,0.518-0.543
		c0.318-0.351,0.631-0.72,0.941-1.095c0.139-0.166,0.28-0.324,0.417-0.496C68.801,95.139,69.226,94.575,69.641,93.986z"/>
	<path fill="none" d="M38.24,100.355c-0.066-0.07-0.133-0.141-0.199-0.213c-0.497-0.541-0.984-1.108-1.462-1.701
		c-0.063-0.078-0.127-0.154-0.189-0.234c-0.477-0.6-0.943-1.228-1.4-1.879c-0.059-0.083-0.117-0.165-0.176-0.248
		c-0.456-0.66-0.9-1.348-1.336-2.057c-0.054-0.088-0.108-0.175-0.162-0.264c-0.434-0.719-0.854-1.463-1.266-2.229
		c-0.05-0.093-0.1-0.183-0.148-0.276c-0.409-0.775-0.806-1.575-1.191-2.398c-0.045-0.096-0.091-0.191-0.136-0.289
		c-0.383-0.83-0.753-1.686-1.11-2.562c-0.041-0.101-0.083-0.2-0.123-0.301c-0.356-0.885-0.697-1.794-1.026-2.725
		c-0.022-0.062-0.047-0.12-0.069-0.184c-0.058,0.021-0.117,0.042-0.176,0.063c-0.779,0.293-1.539,0.604-2.289,0.922
		c-0.338,0.144-0.671,0.291-1.002,0.439c-0.503,0.225-0.996,0.456-1.484,0.691c-0.427,0.207-0.851,0.415-1.267,0.63
		c-0.542,0.28-1.075,0.565-1.599,0.859c-0.387,0.218-0.767,0.441-1.143,0.667c-0.315,0.188-0.624,0.381-0.932,0.575
		c-0.288,0.182-0.576,0.362-0.857,0.549c6.154,6.562,13.887,11.282,22.356,13.776c-0.031-0.029-0.061-0.062-0.092-0.092
		C39.246,101.396,38.739,100.889,38.24,100.355z"/>
	<path fill="none" d="M80.832,29.407c0.057,0.202,0.105,0.411,0.161,0.614c0.098,0.355,0.19,0.715,0.283,1.075
		c0.154,0.602,0.302,1.209,0.442,1.822c0.085,0.371,0.171,0.741,0.251,1.116c0.138,0.642,0.265,1.292,0.389,1.945
		c0.065,0.351,0.136,0.697,0.198,1.051c0.143,0.814,0.271,1.642,0.393,2.475c0.028,0.196,0.063,0.389,0.091,0.586
		c0.143,1.031,0.268,2.076,0.377,3.135c0.031,0.306,0.055,0.619,0.083,0.928c0.072,0.762,0.14,1.527,0.193,2.303
		c0.028,0.398,0.05,0.803,0.073,1.206c0.041,0.702,0.077,1.409,0.104,2.122c0.016,0.424,0.028,0.852,0.04,1.279
		c0.008,0.324,0.024,0.645,0.03,0.971h19.978c-0.415-10.514-4.152-20.658-10.66-28.93C89.607,25.6,85.439,27.711,80.832,29.407z"/>
	<path fill="none" d="M57.842,74.468c0.648,0.03,1.295,0.069,1.94,0.114c0.372,0.025,0.743,0.05,1.114,0.081
		c0.701,0.058,1.399,0.129,2.097,0.204c0.303,0.033,0.607,0.061,0.91,0.098c0.988,0.118,1.973,0.252,2.949,0.405
		c0.15,0.023,0.297,0.054,0.446,0.077c0.829,0.135,1.652,0.281,2.47,0.441c0.334,0.064,0.664,0.139,0.996,0.207
		c0.632,0.133,1.261,0.27,1.884,0.416c0.362,0.086,0.721,0.176,1.08,0.266c0.598,0.15,1.19,0.308,1.779,0.472
		c0.348,0.097,0.694,0.193,1.038,0.295c0.179,0.053,0.361,0.099,0.539,0.153c0.049-0.17,0.102-0.334,0.149-0.504
		c0.101-0.362,0.197-0.729,0.294-1.096c0.145-0.549,0.284-1.101,0.418-1.658c0.092-0.382,0.181-0.766,0.267-1.152
		c0.125-0.559,0.243-1.123,0.357-1.689c0.078-0.387,0.156-0.773,0.229-1.164c0.11-0.594,0.211-1.191,0.31-1.791
		c0.061-0.37,0.124-0.738,0.181-1.11c0.103-0.684,0.192-1.374,0.279-2.064c0.037-0.294,0.081-0.585,0.115-0.881
		c0.113-0.983,0.213-1.974,0.295-2.97c0.019-0.219,0.028-0.44,0.045-0.66c0.059-0.783,0.112-1.567,0.151-2.355
		c0.019-0.374,0.027-0.75,0.041-1.125c0.019-0.479,0.032-0.96,0.043-1.441H55.958v18.357c0.244,0.006,0.487,0.021,0.73,0.029
		C57.073,74.434,57.458,74.45,57.842,74.468z"/>
	<path fill="none" d="M79.912,51.14c-0.01-0.378-0.021-0.754-0.036-1.128c-0.027-0.734-0.063-1.461-0.105-2.183
		c-0.021-0.333-0.037-0.667-0.061-0.998c-0.057-0.82-0.126-1.631-0.202-2.435c-0.021-0.221-0.037-0.443-0.06-0.662
		c-0.104-1.022-0.225-2.032-0.362-3.027c-0.024-0.182-0.056-0.358-0.082-0.539c-0.114-0.796-0.237-1.584-0.373-2.361
		c-0.059-0.338-0.125-0.67-0.188-1.004c-0.115-0.615-0.235-1.227-0.363-1.83c-0.078-0.363-0.159-0.724-0.241-1.083
		c-0.131-0.573-0.27-1.142-0.413-1.704c-0.089-0.35-0.178-0.699-0.271-1.045c-0.041-0.15-0.087-0.295-0.129-0.445
		c-6.568,1.992-13.768,3.126-21.067,3.301v18.039h23.969C79.921,51.737,79.92,51.436,79.912,51.14z"/>
	<path fill="none" d="M50.497,4.45c-0.531,0.138-1.059,0.308-1.583,0.507c-0.147,0.057-0.293,0.13-0.439,0.191
		c-0.377,0.156-0.753,0.318-1.125,0.506c-0.198,0.1-0.395,0.217-0.592,0.325c-0.316,0.176-0.634,0.354-0.946,0.552
		c-0.211,0.133-0.419,0.277-0.628,0.421c-0.296,0.202-0.59,0.411-0.881,0.633c-0.211,0.161-0.422,0.33-0.631,0.502
		c-0.284,0.233-0.566,0.477-0.847,0.729c-0.206,0.186-0.411,0.371-0.614,0.567c-0.281,0.271-0.558,0.554-0.834,0.843
		c-0.193,0.203-0.388,0.402-0.579,0.614c-0.29,0.321-0.575,0.663-0.858,1.007c-0.168,0.202-0.339,0.396-0.504,0.605
		c-0.365,0.463-0.723,0.949-1.075,1.445c-0.077,0.109-0.158,0.209-0.235,0.32c-0.423,0.609-0.836,1.246-1.24,1.903
		c-0.14,0.227-0.272,0.468-0.41,0.7c-0.265,0.449-0.528,0.9-0.784,1.369c-0.156,0.286-0.306,0.584-0.458,0.878
		c-0.229,0.438-0.455,0.882-0.675,1.337c-0.154,0.319-0.304,0.646-0.454,0.975c-0.208,0.454-0.413,0.914-0.613,1.385
		c-0.146,0.341-0.289,0.687-0.431,1.036c-0.194,0.482-0.385,0.975-0.57,1.472c-0.133,0.354-0.266,0.707-0.394,1.068
		c-0.049,0.139-0.095,0.285-0.144,0.426c4.03,1.246,8.221,2.143,12.544,2.666c0.332,0.039,0.667,0.071,1,0.107
		c0.586,0.062,1.173,0.122,1.763,0.172c0.416,0.035,0.834,0.063,1.252,0.092c0.549,0.038,1.099,0.07,1.651,0.096
		c0.397,0.02,0.794,0.037,1.192,0.05c0.2,0.007,0.402,0.007,0.604,0.012V4.164c-0.358,0.054-0.715,0.124-1.07,0.205
		C50.758,4.399,50.627,4.416,50.497,4.45z"/>
	<path fill="none" d="M27.71,57.564c0.013,0.326,0.027,0.652,0.043,0.977c0.049,0.996,0.205,1.988,0.205,2.975
		c0,0.004,0,0.006,0,0.008c0,2.096,0.402,4.166,0.715,6.203c0.014,0.09,0.016,0.179,0.029,0.27c0.145,0.918,0.301,1.83,0.474,2.734
		c0.021,0.11,0.043,0.221,0.064,0.331c0.175,0.896,0.362,1.784,0.563,2.661c0.021,0.088,0.04,0.174,0.061,0.262
		c0.216,0.922,0.445,1.834,0.69,2.733c0.009,0.032,0.017,0.064,0.026,0.097c0.081,0.298,0.175,0.584,0.26,0.879
		c0.179-0.054,0.363-0.101,0.544-0.154c0.332-0.098,0.666-0.19,1.001-0.284c0.604-0.168,1.21-0.329,1.822-0.483
		c0.347-0.087,0.692-0.174,1.042-0.256c0.64-0.15,1.285-0.291,1.934-0.427c0.317-0.065,0.632-0.136,0.952-0.198
		c0.839-0.165,1.686-0.314,2.537-0.453c0.128-0.021,0.254-0.047,0.383-0.066c0.98-0.154,1.969-0.289,2.962-0.408
		c0.295-0.035,0.593-0.062,0.889-0.094c0.703-0.076,1.407-0.147,2.115-0.207c0.368-0.03,0.738-0.055,1.108-0.08
		c0.647-0.045,1.296-0.084,1.946-0.114c0.383-0.018,0.767-0.034,1.15-0.046c0.244-0.008,0.487-0.023,0.731-0.029V56.035h-24.3
		C27.669,56.546,27.69,57.056,27.71,57.564z"/>
	<path fill="none" d="M50.256,78.463c-0.625,0.029-1.249,0.066-1.872,0.109c-0.346,0.024-0.691,0.048-1.035,0.076
		c-0.672,0.057-1.34,0.123-2.006,0.195c-0.282,0.031-0.564,0.057-0.846,0.09c-0.941,0.113-1.878,0.24-2.808,0.386
		c-0.096,0.015-0.189,0.034-0.285,0.05c-0.831,0.134-1.656,0.28-2.476,0.44c-0.302,0.06-0.601,0.126-0.901,0.188
		c-0.612,0.127-1.222,0.26-1.826,0.402c-0.333,0.078-0.663,0.16-0.993,0.243c-0.577,0.146-1.149,0.297-1.718,0.456
		c-0.318,0.088-0.637,0.176-0.951,0.269c-0.164,0.048-0.323,0.103-0.487,0.152c0.055,0.154,0.105,0.314,0.161,0.468
		c0.12,0.334,0.245,0.66,0.369,0.988c0.196,0.516,0.396,1.025,0.602,1.525c0.132,0.322,0.266,0.639,0.401,0.953
		c0.212,0.492,0.429,0.974,0.65,1.448c0.138,0.297,0.276,0.594,0.418,0.884c0.235,0.483,0.479,0.953,0.723,1.417
		c0.136,0.257,0.27,0.52,0.408,0.771c0.281,0.511,0.571,1.003,0.863,1.489c0.11,0.184,0.217,0.375,0.329,0.556
		c0.412,0.663,0.832,1.306,1.264,1.919c0.007,0.009,0.013,0.017,0.02,0.025c0.42,0.598,0.851,1.167,1.288,1.715
		c0.136,0.171,0.275,0.328,0.413,0.493c0.312,0.376,0.626,0.747,0.945,1.099c0.17,0.186,0.343,0.361,0.515,0.541
		c0.295,0.307,0.592,0.608,0.893,0.895c0.187,0.178,0.375,0.348,0.563,0.516c0.295,0.265,0.592,0.52,0.892,0.763
		c0.194,0.157,0.389,0.312,0.585,0.462c0.304,0.23,0.611,0.447,0.919,0.656c0.195,0.132,0.39,0.267,0.586,0.391
		c0.326,0.204,0.655,0.389,0.984,0.568c0.183,0.1,0.363,0.207,0.547,0.3c0.393,0.197,0.789,0.368,1.187,0.53
		c0.123,0.051,0.245,0.113,0.368,0.16c0.522,0.197,1.048,0.365,1.577,0.502c0.132,0.033,0.266,0.052,0.398,0.082
		c0.345,0.078,0.69,0.146,1.038,0.198V78.407c-0.215,0.005-0.431,0.005-0.645,0.013C50.96,78.432,50.608,78.447,50.256,78.463z"/>
	<path fill="none" d="M57.762,29.9c0.545-0.025,1.088-0.058,1.63-0.094c0.426-0.029,0.852-0.059,1.276-0.096
		c0.577-0.048,1.151-0.106,1.724-0.168c0.346-0.037,0.691-0.069,1.035-0.11c4.321-0.523,8.509-1.42,12.537-2.665
		c-0.05-0.144-0.097-0.293-0.147-0.436c-0.125-0.353-0.255-0.697-0.384-1.043c-0.189-0.507-0.383-1.008-0.581-1.498
		c-0.139-0.342-0.278-0.681-0.421-1.015c-0.204-0.479-0.413-0.947-0.625-1.409c-0.146-0.32-0.293-0.641-0.443-0.953
		c-0.225-0.465-0.456-0.917-0.689-1.365c-0.147-0.284-0.293-0.572-0.443-0.85c-0.264-0.484-0.537-0.951-0.811-1.414
		c-0.129-0.218-0.253-0.444-0.384-0.656c-0.407-0.662-0.822-1.303-1.249-1.916c-0.06-0.086-0.123-0.164-0.184-0.25
		c-0.369-0.522-0.744-1.031-1.127-1.516c-0.157-0.199-0.318-0.383-0.478-0.575c-0.293-0.354-0.587-0.706-0.886-1.038
		c-0.186-0.205-0.373-0.396-0.561-0.594c-0.282-0.295-0.566-0.587-0.854-0.863c-0.198-0.19-0.398-0.373-0.6-0.553
		c-0.285-0.258-0.572-0.506-0.862-0.744c-0.205-0.168-0.411-0.332-0.618-0.49c-0.296-0.227-0.594-0.438-0.895-0.644
		c-0.204-0.14-0.408-0.282-0.615-0.413c-0.317-0.2-0.639-0.381-0.961-0.559c-0.192-0.107-0.385-0.221-0.578-0.319
		c-0.379-0.19-0.761-0.356-1.144-0.515c-0.142-0.059-0.28-0.129-0.422-0.184c-0.525-0.199-1.054-0.369-1.586-0.508
		C57.29,4.416,57.161,4.4,57.032,4.371c-0.356-0.082-0.715-0.153-1.074-0.207v25.798c0.2-0.005,0.402-0.005,0.602-0.012
		C56.961,29.938,57.361,29.92,57.762,29.9z"/>
	<path fill="none" d="M30.763,31.139c-0.095,0.346-0.184,0.695-0.272,1.046c-0.145,0.563-0.282,1.133-0.414,1.708
		c-0.082,0.355-0.162,0.713-0.239,1.073c-0.129,0.605-0.249,1.22-0.365,1.837c-0.062,0.334-0.128,0.664-0.187,1.002
		c-0.132,0.758-0.252,1.526-0.364,2.301c-0.029,0.203-0.064,0.402-0.093,0.606c-0.136,0.985-0.255,1.984-0.358,2.995
		c-0.026,0.259-0.046,0.523-0.07,0.784c-0.071,0.757-0.137,1.519-0.19,2.29c-0.026,0.37-0.046,0.744-0.067,1.117
		c-0.039,0.678-0.074,1.359-0.1,2.047c-0.016,0.405-0.028,0.812-0.039,1.221c-0.008,0.287-0.009,0.58-0.014,0.869h23.969V33.996
		c-7.3-0.177-14.499-1.31-21.067-3.301C30.849,30.844,30.803,30.988,30.763,31.139z"/>
	<path fill="#343434" d="M95.146,19.096C84.853,6.96,69.84,0,53.958,0C38.074,0,23.061,6.961,12.767,19.1
		c-0.09,0.105-0.167,0.219-0.231,0.337c-0.007,0.013-0.011,0.028-0.018,0.042c-0.011,0.021-0.018,0.043-0.027,0.064
		C4.437,29.244,0,41.453,0,54c0,12.821,4.564,25.229,12.853,34.967c0.039,0.057,0.072,0.116,0.117,0.168
		C23.256,101.124,38.196,108,53.958,108s30.702-6.876,40.988-18.865c8.391-9.779,13.012-22.258,13.012-35.135
		c0-12.768-4.549-25.163-12.809-34.901C95.148,19.098,95.147,19.097,95.146,19.096z M17.442,19.872
		c0.715-0.765,1.446-1.509,2.202-2.222c0.099-0.094,0.202-0.179,0.302-0.271c0.665-0.618,1.345-1.217,2.04-1.796
		c0.258-0.215,0.521-0.421,0.782-0.63c0.562-0.448,1.129-0.885,1.707-1.309c0.287-0.209,0.575-0.418,0.866-0.622
		c0.613-0.429,1.237-0.84,1.867-1.24c0.246-0.155,0.487-0.319,0.735-0.47c0.877-0.536,1.768-1.048,2.675-1.527
		c0.137-0.072,0.278-0.136,0.415-0.207c0.776-0.4,1.562-0.782,2.359-1.143c0.306-0.139,0.616-0.267,0.925-0.398
		c0.651-0.279,1.309-0.545,1.972-0.796c0.332-0.126,0.664-0.25,0.999-0.368c0.705-0.25,1.418-0.48,2.136-0.698
		c0.2-0.062,0.398-0.127,0.6-0.185c-0.066,0.061-0.13,0.132-0.196,0.193c-0.474,0.441-0.941,0.902-1.401,1.387
		c-0.125,0.131-0.248,0.267-0.372,0.401c-0.452,0.491-0.896,1.003-1.333,1.536c-0.122,0.148-0.242,0.299-0.362,0.451
		c-0.432,0.543-0.854,1.105-1.269,1.688c-0.117,0.164-0.232,0.328-0.347,0.495c-0.411,0.595-0.812,1.208-1.205,1.841
		c-0.109,0.176-0.218,0.353-0.325,0.531c-0.39,0.646-0.77,1.313-1.141,1.998c-0.1,0.184-0.199,0.367-0.297,0.555
		c-0.37,0.701-0.729,1.424-1.077,2.162c-0.089,0.188-0.177,0.375-0.265,0.564c-0.349,0.76-0.685,1.54-1.011,2.336
		c-0.076,0.188-0.153,0.372-0.229,0.561c-0.326,0.819-0.638,1.66-0.939,2.516c-0.033,0.095-0.07,0.183-0.104,0.277
		c-4.007-1.512-7.688-3.374-10.835-5.471C17.36,19.967,17.4,19.918,17.442,19.872z M14.712,23.145
		c3.638,2.478,7.788,4.574,12.372,6.263c-0.057,0.202-0.106,0.409-0.161,0.612c-0.097,0.355-0.19,0.713-0.282,1.072
		c-0.155,0.604-0.303,1.215-0.444,1.832c-0.085,0.366-0.169,0.732-0.249,1.104c-0.139,0.648-0.268,1.305-0.392,1.966
		c-0.065,0.343-0.134,0.683-0.194,1.028c-0.147,0.84-0.28,1.69-0.404,2.549c-0.025,0.172-0.056,0.34-0.079,0.513
		c-0.144,1.034-0.269,2.085-0.378,3.146c-0.032,0.306-0.055,0.617-0.084,0.925c-0.071,0.764-0.139,1.53-0.193,2.308
		c-0.028,0.402-0.05,0.811-0.073,1.217c-0.04,0.697-0.076,1.398-0.103,2.105c-0.017,0.438-0.03,0.879-0.042,1.321
		c-0.008,0.312-0.023,0.617-0.029,0.931H4.039C4.456,41.562,8.198,31.434,14.712,23.145z M14.864,85.124
		C8.267,76.838,4.473,66.639,4.041,56.035h19.604c0.006,0.287,0.022,0.572,0.031,0.859c0.014,0.441,0.029,0.881,0.049,1.32
		c0.028,0.65,0.065,1.299,0.106,1.946c0.029,0.46,0.058,0.921,0.094,1.38c0.048,0.613,0.107,1.223,0.168,1.832
		c0.047,0.479,0.088,0.96,0.143,1.438c0.062,0.547,0.139,1.088,0.21,1.631c0.152,1.156,0.325,2.303,0.519,3.439
		c0.053,0.304,0.099,0.61,0.153,0.912c0.125,0.69,0.266,1.369,0.406,2.05c0.063,0.308,0.125,0.618,0.191,0.924
		c0.149,0.685,0.311,1.359,0.476,2.032c0.07,0.286,0.141,0.571,0.214,0.855c0.175,0.683,0.357,1.359,0.55,2.029
		c0.027,0.097,0.051,0.196,0.079,0.293c-0.014,0.005-0.025,0.011-0.039,0.016c-1.066,0.395-2.106,0.814-3.125,1.254
		c-0.094,0.041-0.187,0.082-0.28,0.123c-2.077,0.908-4.05,1.908-5.912,2.996c-0.015,0.008-0.029,0.017-0.043,0.025
		C16.684,83.947,15.756,84.521,14.864,85.124z M17.497,88.192c0.281-0.187,0.569-0.367,0.857-0.549
		c0.308-0.194,0.616-0.387,0.932-0.575c0.376-0.226,0.756-0.449,1.143-0.667c0.523-0.294,1.057-0.579,1.599-0.859
		c0.416-0.215,0.84-0.423,1.267-0.63c0.488-0.235,0.981-0.467,1.484-0.691c0.331-0.148,0.664-0.296,1.002-0.439
		c0.75-0.318,1.51-0.629,2.289-0.922c0.059-0.021,0.118-0.042,0.176-0.063c0.022,0.063,0.047,0.121,0.069,0.184
		c0.329,0.931,0.67,1.84,1.026,2.725c0.04,0.101,0.082,0.2,0.123,0.301c0.357,0.876,0.728,1.731,1.11,2.562
		c0.045,0.098,0.091,0.193,0.136,0.289c0.386,0.823,0.782,1.623,1.191,2.398C31.95,91.348,32,91.438,32.05,91.53
		c0.411,0.767,0.832,1.511,1.266,2.229c0.054,0.089,0.108,0.176,0.162,0.264c0.436,0.709,0.88,1.396,1.336,2.057
		c0.059,0.083,0.117,0.165,0.176,0.248c0.457,0.651,0.924,1.279,1.4,1.879c0.062,0.08,0.126,0.156,0.189,0.234
		c0.478,0.593,0.965,1.16,1.462,1.701c0.066,0.072,0.133,0.143,0.199,0.213c0.499,0.533,1.006,1.041,1.521,1.521
		c0.031,0.029,0.061,0.062,0.092,0.092C31.384,99.475,23.651,94.754,17.497,88.192z M51.958,103.835
		c-0.348-0.052-0.693-0.12-1.038-0.198c-0.133-0.03-0.267-0.049-0.398-0.082c-0.529-0.137-1.055-0.305-1.577-0.502
		c-0.123-0.047-0.245-0.109-0.368-0.16c-0.397-0.162-0.794-0.333-1.187-0.53c-0.184-0.093-0.364-0.2-0.547-0.3
		c-0.329-0.18-0.658-0.364-0.984-0.568c-0.196-0.124-0.391-0.259-0.586-0.391c-0.308-0.209-0.615-0.426-0.919-0.656
		c-0.196-0.149-0.391-0.305-0.585-0.462c-0.3-0.243-0.597-0.498-0.892-0.763c-0.188-0.168-0.377-0.338-0.563-0.516
		c-0.301-0.286-0.598-0.588-0.893-0.895c-0.172-0.18-0.345-0.355-0.515-0.541c-0.319-0.352-0.634-0.723-0.945-1.099
		c-0.138-0.165-0.277-0.322-0.413-0.493c-0.438-0.548-0.868-1.117-1.288-1.715c-0.007-0.009-0.013-0.017-0.02-0.025
		c-0.432-0.613-0.852-1.256-1.264-1.919c-0.112-0.181-0.219-0.372-0.329-0.556c-0.292-0.486-0.582-0.979-0.863-1.489
		c-0.139-0.252-0.272-0.515-0.408-0.771c-0.244-0.464-0.487-0.934-0.723-1.417c-0.142-0.29-0.28-0.587-0.418-0.884
		c-0.222-0.475-0.438-0.956-0.65-1.448c-0.136-0.314-0.27-0.631-0.401-0.953c-0.206-0.5-0.405-1.01-0.602-1.525
		c-0.124-0.328-0.249-0.654-0.369-0.988c-0.056-0.153-0.106-0.313-0.161-0.468c0.164-0.05,0.323-0.104,0.487-0.152
		c0.314-0.093,0.633-0.181,0.951-0.269c0.568-0.159,1.141-0.311,1.718-0.456c0.33-0.083,0.66-0.165,0.993-0.243
		c0.604-0.143,1.214-0.275,1.826-0.402c0.301-0.062,0.6-0.129,0.901-0.188c0.819-0.16,1.645-0.307,2.476-0.44
		c0.096-0.016,0.189-0.035,0.285-0.05c0.93-0.146,1.866-0.272,2.808-0.386c0.281-0.033,0.563-0.059,0.846-0.09
		c0.666-0.072,1.334-0.139,2.006-0.195c0.344-0.028,0.689-0.052,1.035-0.076c0.623-0.043,1.247-0.08,1.872-0.109
		c0.353-0.016,0.704-0.031,1.058-0.043c0.214-0.008,0.43-0.008,0.645-0.013V103.835z M51.958,74.393
		c-0.244,0.006-0.487,0.021-0.731,0.029c-0.384,0.012-0.768,0.028-1.15,0.046c-0.65,0.03-1.299,0.069-1.946,0.114
		c-0.37,0.025-0.74,0.05-1.108,0.08c-0.708,0.06-1.412,0.131-2.115,0.207c-0.296,0.032-0.594,0.059-0.889,0.094
		c-0.993,0.119-1.981,0.254-2.962,0.408c-0.129,0.02-0.255,0.045-0.383,0.066c-0.852,0.139-1.698,0.288-2.537,0.453
		c-0.32,0.062-0.635,0.133-0.952,0.198c-0.648,0.136-1.294,0.276-1.934,0.427c-0.35,0.082-0.695,0.169-1.042,0.256
		c-0.612,0.154-1.219,0.315-1.822,0.483c-0.335,0.094-0.669,0.187-1.001,0.284c-0.181,0.054-0.365,0.101-0.544,0.154
		c-0.085-0.295-0.179-0.581-0.26-0.879c-0.01-0.032-0.018-0.064-0.026-0.097c-0.245-0.899-0.475-1.812-0.69-2.733
		c-0.021-0.088-0.04-0.174-0.061-0.262c-0.201-0.877-0.389-1.766-0.563-2.661c-0.021-0.11-0.044-0.221-0.064-0.331
		c-0.173-0.904-0.329-1.816-0.474-2.734c-0.014-0.091-0.016-0.18-0.029-0.27c-0.312-2.037-0.715-4.107-0.715-6.203
		c0-0.002,0-0.004,0-0.008c0-0.986-0.156-1.979-0.205-2.975c-0.016-0.324-0.03-0.65-0.043-0.977
		c-0.02-0.509-0.041-1.019-0.052-1.529h24.3V74.393z M51.958,52.035H27.989c0.005-0.289,0.006-0.582,0.014-0.869
		c0.011-0.408,0.023-0.815,0.039-1.221c0.025-0.688,0.061-1.369,0.1-2.047c0.021-0.373,0.041-0.747,0.067-1.117
		c0.054-0.771,0.119-1.533,0.19-2.29c0.024-0.261,0.044-0.525,0.07-0.784c0.104-1.011,0.223-2.01,0.358-2.995
		c0.028-0.204,0.063-0.403,0.093-0.606c0.112-0.774,0.232-1.543,0.364-2.301c0.059-0.338,0.124-0.668,0.187-1.002
		c0.116-0.617,0.236-1.231,0.365-1.837c0.077-0.36,0.157-0.718,0.239-1.073c0.132-0.575,0.27-1.145,0.414-1.708
		c0.089-0.351,0.178-0.7,0.272-1.046c0.04-0.15,0.086-0.295,0.128-0.443c6.568,1.991,13.768,3.124,21.067,3.301V52.035z
		 M51.958,29.962c-0.201-0.005-0.403-0.005-0.604-0.012c-0.398-0.013-0.795-0.03-1.192-0.05c-0.553-0.025-1.103-0.058-1.651-0.096
		c-0.418-0.028-0.836-0.057-1.252-0.092c-0.59-0.05-1.177-0.109-1.763-0.172c-0.333-0.036-0.668-0.068-1-0.107
		c-4.323-0.523-8.514-1.42-12.544-2.666c0.049-0.141,0.095-0.287,0.144-0.426c0.128-0.361,0.261-0.715,0.394-1.068
		c0.186-0.497,0.376-0.989,0.57-1.472c0.142-0.35,0.285-0.695,0.431-1.036c0.2-0.471,0.405-0.931,0.613-1.385
		c0.15-0.328,0.3-0.655,0.454-0.975c0.22-0.455,0.446-0.898,0.675-1.337c0.152-0.294,0.302-0.592,0.458-0.878
		c0.256-0.469,0.52-0.92,0.784-1.369c0.138-0.232,0.271-0.474,0.41-0.7c0.404-0.657,0.817-1.294,1.24-1.903
		c0.077-0.111,0.158-0.211,0.235-0.32c0.353-0.496,0.71-0.982,1.075-1.445c0.165-0.209,0.336-0.403,0.504-0.605
		c0.283-0.344,0.568-0.686,0.858-1.007c0.191-0.212,0.386-0.411,0.579-0.614c0.276-0.289,0.553-0.572,0.834-0.843
		c0.203-0.196,0.408-0.382,0.614-0.567c0.28-0.253,0.562-0.496,0.847-0.729c0.209-0.172,0.42-0.341,0.631-0.502
		c0.291-0.222,0.585-0.431,0.881-0.633c0.209-0.144,0.417-0.288,0.628-0.421c0.312-0.197,0.63-0.376,0.946-0.552
		c0.197-0.108,0.394-0.226,0.592-0.325c0.372-0.188,0.748-0.35,1.125-0.506c0.146-0.062,0.292-0.135,0.439-0.191
		c0.524-0.199,1.052-0.369,1.583-0.507c0.13-0.034,0.261-0.051,0.391-0.081c0.355-0.081,0.712-0.151,1.07-0.205V29.962z M68.5,6.178
		c0.714,0.217,1.422,0.445,2.124,0.693c0.336,0.119,0.671,0.244,1.004,0.371c0.661,0.25,1.316,0.516,1.966,0.793
		c0.311,0.133,0.622,0.262,0.93,0.4c0.796,0.36,1.583,0.742,2.359,1.144c0.137,0.071,0.276,0.134,0.413,0.205
		c0.907,0.479,1.799,0.992,2.676,1.528c0.247,0.15,0.487,0.312,0.732,0.468c0.632,0.401,1.257,0.813,1.871,1.243
		c0.29,0.203,0.577,0.411,0.863,0.62c0.579,0.424,1.148,0.862,1.711,1.312c0.26,0.209,0.522,0.413,0.779,0.627
		c0.696,0.58,1.378,1.181,2.045,1.801c0.098,0.091,0.2,0.175,0.297,0.267c0.756,0.714,1.488,1.458,2.203,2.223
		c0.053,0.056,0.102,0.116,0.154,0.172c-0.298,0.196-0.603,0.39-0.91,0.583c-0.204,0.129-0.41,0.258-0.618,0.386
		c-2.775,1.678-5.928,3.19-9.336,4.471c-0.02-0.056-0.041-0.107-0.061-0.163c-0.323-0.923-0.659-1.826-1.011-2.706
		c-0.052-0.128-0.104-0.253-0.155-0.381c-0.351-0.86-0.714-1.701-1.09-2.519c-0.061-0.131-0.122-0.26-0.183-0.39
		c-0.376-0.801-0.765-1.581-1.165-2.339c-0.068-0.13-0.138-0.258-0.207-0.387c-0.4-0.743-0.812-1.465-1.235-2.164
		c-0.076-0.126-0.153-0.252-0.23-0.377c-0.424-0.686-0.858-1.349-1.303-1.989c-0.084-0.12-0.167-0.241-0.252-0.36
		c-0.445-0.627-0.9-1.232-1.364-1.814c-0.09-0.113-0.18-0.227-0.271-0.338c-0.466-0.57-0.94-1.115-1.424-1.639
		c-0.096-0.104-0.191-0.209-0.288-0.312c-0.485-0.513-0.979-0.999-1.479-1.464c-0.053-0.048-0.104-0.105-0.156-0.153
		C68.095,6.049,68.297,6.115,68.5,6.178z M55.958,4.164c0.359,0.054,0.718,0.125,1.074,0.207c0.129,0.029,0.258,0.045,0.386,0.078
		c0.532,0.139,1.061,0.309,1.586,0.508c0.142,0.055,0.28,0.125,0.422,0.184c0.383,0.158,0.765,0.324,1.144,0.515
		c0.193,0.099,0.386,0.212,0.578,0.319c0.322,0.178,0.644,0.358,0.961,0.559c0.207,0.131,0.411,0.273,0.615,0.413
		c0.301,0.206,0.599,0.417,0.895,0.644c0.207,0.158,0.413,0.322,0.618,0.49c0.29,0.238,0.577,0.486,0.862,0.744
		c0.201,0.18,0.401,0.362,0.6,0.553c0.287,0.276,0.571,0.568,0.854,0.863c0.188,0.197,0.375,0.389,0.561,0.594
		c0.299,0.332,0.593,0.684,0.886,1.038c0.159,0.192,0.32,0.376,0.478,0.575c0.383,0.484,0.758,0.993,1.127,1.516
		c0.061,0.086,0.124,0.164,0.184,0.25c0.427,0.613,0.842,1.254,1.249,1.916c0.131,0.212,0.255,0.438,0.384,0.656
		c0.273,0.463,0.547,0.93,0.811,1.414c0.15,0.277,0.296,0.565,0.443,0.85c0.233,0.448,0.465,0.9,0.689,1.365
		c0.15,0.312,0.297,0.633,0.443,0.953c0.212,0.462,0.421,0.931,0.625,1.409c0.143,0.334,0.282,0.673,0.421,1.015
		c0.198,0.49,0.392,0.991,0.581,1.498c0.129,0.346,0.259,0.69,0.384,1.043c0.051,0.143,0.098,0.292,0.147,0.436
		c-4.028,1.245-8.216,2.142-12.537,2.665c-0.344,0.041-0.689,0.073-1.035,0.11c-0.572,0.062-1.146,0.12-1.724,0.168
		c-0.425,0.037-0.851,0.066-1.276,0.096c-0.542,0.036-1.085,0.068-1.63,0.094c-0.4,0.02-0.801,0.037-1.202,0.05
		c-0.199,0.007-0.401,0.007-0.602,0.012V4.164z M55.958,33.996c7.3-0.175,14.499-1.309,21.067-3.301
		c0.042,0.15,0.088,0.295,0.129,0.445c0.094,0.346,0.183,0.695,0.271,1.045c0.144,0.562,0.282,1.131,0.413,1.704
		c0.082,0.359,0.163,0.72,0.241,1.083c0.128,0.604,0.248,1.215,0.363,1.83c0.062,0.334,0.129,0.666,0.188,1.004
		c0.136,0.777,0.259,1.565,0.373,2.361c0.026,0.181,0.058,0.357,0.082,0.539c0.138,0.995,0.258,2.005,0.362,3.027
		c0.022,0.219,0.038,0.441,0.06,0.662c0.076,0.804,0.146,1.614,0.202,2.435c0.023,0.331,0.04,0.665,0.061,0.998
		c0.042,0.722,0.078,1.448,0.105,2.183c0.015,0.374,0.026,0.75,0.036,1.128c0.008,0.296,0.009,0.598,0.015,0.896H55.958V33.996z
		 M55.958,56.035h24.301c-0.011,0.481-0.024,0.962-0.043,1.441c-0.014,0.375-0.022,0.751-0.041,1.125
		c-0.039,0.788-0.093,1.572-0.151,2.355c-0.017,0.22-0.026,0.441-0.045,0.66c-0.082,0.996-0.182,1.986-0.295,2.97
		c-0.034,0.296-0.078,0.587-0.115,0.881c-0.087,0.69-0.177,1.381-0.279,2.064c-0.057,0.372-0.12,0.74-0.181,1.11
		c-0.099,0.6-0.199,1.197-0.31,1.791c-0.072,0.391-0.15,0.777-0.229,1.164c-0.114,0.566-0.232,1.131-0.357,1.689
		c-0.086,0.387-0.175,0.771-0.267,1.152c-0.134,0.558-0.273,1.109-0.418,1.658c-0.097,0.367-0.193,0.733-0.294,1.096
		c-0.048,0.17-0.101,0.334-0.149,0.504c-0.178-0.055-0.36-0.101-0.539-0.153c-0.344-0.102-0.69-0.198-1.038-0.295
		c-0.589-0.164-1.182-0.321-1.779-0.472c-0.359-0.09-0.718-0.18-1.08-0.266c-0.623-0.146-1.252-0.283-1.884-0.416
		c-0.332-0.068-0.662-0.143-0.996-0.207c-0.817-0.16-1.641-0.307-2.47-0.441c-0.149-0.023-0.296-0.054-0.446-0.077
		c-0.977-0.153-1.961-0.287-2.949-0.405c-0.303-0.037-0.607-0.064-0.91-0.098c-0.697-0.075-1.396-0.146-2.097-0.204
		c-0.371-0.031-0.742-0.056-1.114-0.081c-0.646-0.045-1.292-0.084-1.94-0.114c-0.384-0.018-0.769-0.034-1.153-0.046
		c-0.243-0.008-0.486-0.023-0.73-0.029V56.035z M67.011,97.271c-0.171,0.187-0.345,0.362-0.518,0.543
		c-0.294,0.307-0.59,0.607-0.89,0.893c-0.188,0.179-0.376,0.349-0.564,0.518c-0.295,0.265-0.592,0.519-0.892,0.762
		c-0.194,0.157-0.389,0.312-0.585,0.462c-0.304,0.23-0.611,0.447-0.919,0.656c-0.195,0.132-0.39,0.267-0.586,0.391
		c-0.326,0.204-0.655,0.389-0.984,0.568c-0.183,0.1-0.363,0.207-0.547,0.3c-0.393,0.197-0.789,0.368-1.187,0.53
		c-0.123,0.051-0.245,0.113-0.368,0.16c-0.522,0.197-1.048,0.365-1.577,0.502c-0.132,0.033-0.266,0.052-0.398,0.082
		c-0.345,0.078-0.69,0.146-1.038,0.198V78.407c0.215,0.005,0.431,0.005,0.646,0.013c0.352,0.012,0.704,0.027,1.056,0.043
		c0.626,0.029,1.25,0.066,1.873,0.109c0.346,0.024,0.69,0.048,1.035,0.076c0.67,0.056,1.336,0.123,2.002,0.195
		c0.283,0.031,0.568,0.057,0.851,0.091c0.939,0.112,1.876,0.239,2.804,0.385c0.103,0.017,0.204,0.036,0.307,0.054
		c0.823,0.132,1.641,0.277,2.451,0.436c0.31,0.061,0.615,0.129,0.922,0.192c0.604,0.126,1.204,0.257,1.799,0.396
		c0.344,0.081,0.684,0.166,1.024,0.251c0.561,0.141,1.117,0.289,1.669,0.442c0.336,0.094,0.672,0.187,1.004,0.284
		c0.156,0.047,0.309,0.098,0.465,0.146c-0.052,0.146-0.101,0.298-0.152,0.443c-0.128,0.354-0.26,0.7-0.393,1.048
		c-0.188,0.496-0.381,0.988-0.578,1.469c-0.138,0.336-0.277,0.667-0.419,0.995c-0.206,0.478-0.417,0.945-0.632,1.407
		c-0.144,0.308-0.286,0.615-0.434,0.916c-0.23,0.473-0.468,0.931-0.706,1.385c-0.141,0.267-0.279,0.538-0.423,0.799
		c-0.276,0.501-0.561,0.982-0.847,1.46c-0.115,0.192-0.227,0.394-0.344,0.581c-0.411,0.662-0.831,1.302-1.261,1.914
		c-0.012,0.017-0.024,0.031-0.036,0.049c-0.415,0.589-0.84,1.152-1.271,1.693c-0.137,0.172-0.278,0.33-0.417,0.496
		C67.642,96.551,67.329,96.92,67.011,97.271z M68.062,101.969c0.031-0.029,0.061-0.062,0.092-0.092
		c0.516-0.48,1.022-0.988,1.521-1.521c0.066-0.07,0.133-0.141,0.199-0.213c0.497-0.541,0.984-1.108,1.462-1.701
		c0.063-0.078,0.127-0.154,0.189-0.234c0.477-0.6,0.943-1.228,1.4-1.879c0.059-0.083,0.117-0.165,0.176-0.248
		c0.456-0.66,0.9-1.348,1.336-2.057c0.054-0.088,0.108-0.175,0.162-0.264c0.434-0.719,0.854-1.463,1.266-2.229
		c0.05-0.093,0.1-0.183,0.148-0.276c0.409-0.775,0.806-1.575,1.191-2.398c0.045-0.096,0.091-0.191,0.136-0.289
		c0.383-0.83,0.753-1.686,1.11-2.562c0.041-0.101,0.083-0.2,0.123-0.301c0.356-0.885,0.697-1.794,1.026-2.725
		c0.022-0.063,0.048-0.123,0.07-0.187c0.019,0.006,0.037,0.012,0.056,0.02c0.879,0.328,1.734,0.677,2.577,1.037
		c0.206,0.088,0.409,0.179,0.613,0.269c0.743,0.328,1.474,0.667,2.187,1.021c0.104,0.051,0.21,0.1,0.312,0.15
		c0.795,0.4,1.566,0.818,2.322,1.248c0.178,0.102,0.353,0.205,0.528,0.309c0.653,0.383,1.292,0.775,1.913,1.181
		c0.082,0.054,0.166,0.104,0.246,0.157C84.271,94.75,76.536,99.475,68.062,101.969z M93.067,85.132
		c-0.017-0.011-0.035-0.021-0.053-0.032c-0.795-0.537-1.62-1.051-2.463-1.551c-0.189-0.113-0.38-0.225-0.572-0.334
		c-0.857-0.495-1.73-0.977-2.633-1.434c-0.042-0.021-0.085-0.041-0.126-0.062c-0.871-0.438-1.767-0.854-2.679-1.256
		c-0.213-0.095-0.425-0.188-0.641-0.281c-0.938-0.401-1.894-0.788-2.872-1.151c-0.047-0.018-0.09-0.038-0.137-0.055
		c0.069-0.238,0.129-0.485,0.196-0.725c0.104-0.373,0.204-0.746,0.304-1.122c0.165-0.627,0.322-1.26,0.474-1.897
		c0.09-0.377,0.18-0.753,0.265-1.133c0.151-0.682,0.292-1.369,0.428-2.061c0.066-0.341,0.139-0.678,0.201-1.02
		c0.173-0.938,0.331-1.884,0.476-2.837c0.015-0.099,0.033-0.194,0.048-0.292c0.155-1.053,0.29-2.115,0.41-3.184
		c0.037-0.33,0.064-0.663,0.099-0.994c0.075-0.744,0.146-1.489,0.204-2.239c0.032-0.406,0.057-0.814,0.083-1.223
		c0.044-0.685,0.083-1.371,0.113-2.06c0.019-0.43,0.033-0.857,0.047-1.287c0.008-0.29,0.025-0.578,0.031-0.869h19.646
		C103.483,66.629,99.681,76.831,93.067,85.132z M83.941,52.035c-0.006-0.326-0.022-0.646-0.03-0.971
		c-0.012-0.428-0.024-0.855-0.04-1.279c-0.027-0.713-0.063-1.42-0.104-2.122c-0.023-0.403-0.045-0.808-0.073-1.206
		c-0.054-0.775-0.121-1.541-0.193-2.303c-0.028-0.309-0.052-0.622-0.083-0.928c-0.109-1.059-0.234-2.104-0.377-3.135
		c-0.027-0.197-0.062-0.39-0.091-0.586c-0.121-0.833-0.25-1.66-0.393-2.475c-0.062-0.354-0.133-0.7-0.198-1.051
		c-0.124-0.653-0.251-1.304-0.389-1.945c-0.08-0.375-0.166-0.745-0.251-1.116c-0.141-0.613-0.288-1.221-0.442-1.822
		c-0.093-0.36-0.186-0.72-0.283-1.075c-0.056-0.203-0.104-0.412-0.161-0.614c4.607-1.696,8.775-3.808,12.427-6.302
		c6.508,8.271,10.245,18.416,10.66,28.93H83.941z"/>
</g>
</svg>
