<?xml version="1.0" encoding="utf-8"?>
<!-- Generator: Adobe Illustrator 16.0.0, SVG Export Plug-In . SVG Version: 6.00 Build 0)  -->
<!DOCTYPE svg PUBLIC "-//W3C//DTD SVG 1.1//EN" "http://www.w3.org/Graphics/SVG/1.1/DTD/svg11.dtd">
<svg version="1.1" id="Layer_1" xmlns="http://www.w3.org/2000/svg" xmlns:xlink="http://www.w3.org/1999/xlink" x="0px" y="0px"
	 width="94.214px" height="89.779px" viewBox="0 0 94.214 89.779" enable-background="new 0 0 94.214 89.779" xml:space="preserve">
<g>
	<path fill="none" d="M77.84,4.654l10.807,11.998c0.375-3.11,0.849-9.711,0.992-11.76c-1.847-0.063-7.392-0.246-10.765-0.246
		C78.489,4.646,78.144,4.649,77.84,4.654z"/>
	<path fill="none" d="M31.375,46.799L41.879,58.46c21.585-1.216,39.865-15.913,45.643-36.69L72.609,5.213
		C51.363,8.807,34.846,25.461,31.375,46.799z M79.306,24.955c-0.156,3.023-1.477,5.802-3.72,7.822
		c-2.081,1.873-4.768,2.905-7.567,2.905c0,0,0,0,0,0c-3.204,0-6.269-1.363-8.41-3.741c-2.021-2.244-3.048-5.143-2.891-8.16
		c0.158-3.02,1.48-5.795,3.725-7.816c2.081-1.874,4.769-2.906,7.568-2.906c3.204,0,6.269,1.363,8.41,3.74
		C78.437,19.038,79.462,21.935,79.306,24.955z"/>
	<path fill="none" d="M63.294,19.131c-2.889,2.603-3.122,7.07-0.52,9.96c1.332,1.478,3.244,2.326,5.246,2.326
		c1.748,0,3.422-0.642,4.714-1.806c2.89-2.603,3.123-7.07,0.521-9.961c-1.332-1.479-3.243-2.326-5.245-2.326
		C66.261,17.324,64.587,17.966,63.294,19.131z"/>
	<path fill="none" d="M52.566,78.684c3.44-2.983,9.512-9.815,10.121-21.216c-2.836,1.349-5.812,2.459-8.868,3.307
		C54.986,66.718,54.542,72.979,52.566,78.684z"/>
	<path fill="none" d="M32.643,26.141c-10.157,0-17.05,4.974-20.234,7.912c2.533-0.591,5.133-0.889,7.757-0.889
		c3.44,0,6.852,0.511,10.149,1.52c1.162-2.95,2.578-5.799,4.22-8.486C33.9,26.159,33.267,26.141,32.643,26.141z"/>
	<path fill="#343434" d="M94.046,0.921l-0.429-0.089C93.454,0.798,89.544,0,83.517,0c-11.135,0-31.901,2.891-46.25,22.188
		c-1.694-0.232-3.38-0.35-5.018-0.35c-21.578,0-31.261,20.338-31.356,20.543L0,44.308l1.77-1.174
		c0.087-0.058,8.828-5.779,19.042-5.779c2.844,0,5.562,0.444,8.091,1.323c-1.242,3.704-1.963,8.977-1.995,9.211l-0.037,0.275
		l13.178,14.631l0.273-0.005c0.226-0.003,5.331-0.09,9.337-1.01c2.134,12.658-3.176,20.507-6.37,25.228
		c-0.326,0.481-0.626,0.926-0.891,1.334l-0.93,1.438l1.624-0.542c0.243-0.081,24.203-8.382,23.871-34.074
		C97.441,36.673,94.129,1.709,94.092,1.356L94.046,0.921z M20.166,33.164c-2.624,0-5.225,0.298-7.757,0.889
		c3.184-2.938,10.077-7.912,20.234-7.912c0.625,0,1.258,0.019,1.893,0.057c-1.643,2.688-3.059,5.536-4.22,8.486
		C27.018,33.675,23.606,33.164,20.166,33.164z M52.566,78.684c1.975-5.705,2.42-11.966,1.253-17.909
		c3.056-0.848,6.032-1.958,8.868-3.307C62.078,68.868,56.006,75.7,52.566,78.684z M41.879,58.46L31.375,46.799
		C34.846,25.461,51.363,8.807,72.609,5.213L87.521,21.77C81.744,42.547,63.464,57.244,41.879,58.46z M88.647,16.652L77.84,4.654
		c0.304-0.005,0.648-0.008,1.033-0.008c3.373,0,8.918,0.183,10.765,0.246C89.496,6.941,89.022,13.542,88.647,16.652z"/>
	<path fill="#343434" d="M60.442,15.965c-2.245,2.021-3.567,4.797-3.725,7.816c-0.158,3.018,0.869,5.916,2.891,8.16
		c2.141,2.378,5.206,3.741,8.41,3.741c0,0,0,0,0,0c2.799,0,5.486-1.032,7.567-2.905c2.243-2.021,3.564-4.799,3.72-7.822
		c0.156-3.021-0.869-5.917-2.885-8.156c-2.141-2.377-5.206-3.74-8.41-3.74C65.211,13.059,62.523,14.091,60.442,15.965z
		 M72.734,29.611c-1.292,1.164-2.967,1.806-4.714,1.806c-2.002,0-3.914-0.849-5.246-2.326c-2.602-2.89-2.369-7.357,0.52-9.96
		c1.293-1.165,2.967-1.807,4.715-1.807c2.002,0,3.914,0.848,5.245,2.326C75.857,22.541,75.624,27.009,72.734,29.611z"/>
	<polygon fill="#343434" points="30.642,55.133 1.708,83.368 4.561,86.534 33.494,58.299 	"/>
	
		<rect x="15.64" y="54.44" transform="matrix(0.743 -0.6693 0.6693 0.743 -32.5087 28.4814)" fill="#343434" width="10.383" height="4.261"/>
	<polygon fill="#343434" points="15.75,79.901 18.603,83.067 36.345,66.037 33.493,62.871 	"/>
</g>
</svg>
