<?xml version="1.0" encoding="utf-8"?>
<!-- Generator: Adobe Illustrator 16.0.0, SVG Export Plug-In . SVG Version: 6.00 Build 0)  -->
<!DOCTYPE svg PUBLIC "-//W3C//DTD SVG 1.1//EN" "http://www.w3.org/Graphics/SVG/1.1/DTD/svg11.dtd">
<svg version="1.1" id="Layer_1" xmlns="http://www.w3.org/2000/svg" xmlns:xlink="http://www.w3.org/1999/xlink" x="0px" y="0px"
	 width="101px" height="95px" viewBox="0 0 101 95" enable-background="new 0 0 101 95" xml:space="preserve">
<g>
	<path fill="#FAD64E" d="M0,95h101V0H0V95z M5,5h91v11H5V5z M5,21h91v69H5V21z"/>
	<path fill="#FAD64E" d="M12.527,7.14c-2.068,0-3.75,1.683-3.75,3.75s1.682,3.75,3.75,3.75s3.75-1.683,3.75-3.75
		S14.595,7.14,12.527,7.14z M12.277,10.89c0-0.138,0.112-0.25,0.25-0.25s0.25,0.112,0.25,0.25
		C12.777,11.165,12.277,11.165,12.277,10.89z"/>
	<path fill="#FAD64E" d="M20.527,7.14c-2.068,0-3.75,1.683-3.75,3.75s1.682,3.75,3.75,3.75s3.75-1.683,3.75-3.75
		S22.595,7.14,20.527,7.14z M20.277,10.89c0-0.138,0.112-0.25,0.25-0.25s0.25,0.112,0.25,0.25
		C20.777,11.165,20.277,11.165,20.277,10.89z"/>
	<path fill="#FAD64E" d="M28.527,7.14c-2.068,0-3.75,1.683-3.75,3.75s1.682,3.75,3.75,3.75s3.75-1.683,3.75-3.75
		S30.595,7.14,28.527,7.14z M28.277,10.89c0-0.138,0.112-0.25,0.25-0.25s0.25,0.112,0.25,0.25
		C28.777,11.165,28.277,11.165,28.277,10.89z"/>
	<path fill="#FAD64E" d="M38.482,65.194c0.381-0.548,0.526-1.212,0.408-1.869s-0.485-1.229-1.033-1.609L26.17,53.588l11.687-8.125
		c1.131-0.786,1.412-2.348,0.625-3.479c-0.758-1.09-2.382-1.388-3.48-0.626l-17.591,12.23l17.59,12.231
		c0.421,0.293,0.915,0.448,1.426,0.448C37.247,66.268,38.015,65.866,38.482,65.194z"/>
	<path fill="#FAD64E" d="M61.879,63.325c-0.118,0.657,0.027,1.321,0.408,1.869c0.467,0.672,1.235,1.073,2.055,1.073
		c0.511,0,1.004-0.155,1.426-0.448l17.59-12.231L65.766,41.356c-1.097-0.759-2.721-0.463-3.479,0.627
		c-0.787,1.132-0.506,2.693,0.625,3.479l11.687,8.125l-11.686,8.127C62.365,62.096,61.998,62.668,61.879,63.325z"/>
	<path fill="#FAD64E" d="M59.938,34.617c-0.253-0.618-0.732-1.101-1.349-1.358c-1.247-0.522-2.752,0.103-3.271,1.34L40.161,70.805
		c-0.258,0.616-0.261,1.296-0.008,1.913c0.253,0.618,0.732,1.101,1.348,1.358c0.31,0.13,0.634,0.195,0.964,0.195
		c1.011,0,1.917-0.603,2.307-1.535L59.93,36.53C60.188,35.914,60.19,35.234,59.938,34.617z"/>
	<path fill="#FAD64E" d="M11.597,30.959C11.727,30.986,11.862,31,12,31h30c0.138,0,0.273-0.014,0.403-0.041
		C43.589,30.765,44.5,29.74,44.5,28.5c0-1.379-1.122-2.5-2.5-2.5H12c-1.378,0-2.5,1.121-2.5,2.5
		C9.5,29.74,10.411,30.765,11.597,30.959z"/>
	<path fill="#FAD64E" d="M11.597,38.959C11.727,38.986,11.862,39,12,39h15c0.138,0,0.273-0.014,0.403-0.041
		C28.589,38.765,29.5,37.74,29.5,36.5c0-1.379-1.122-2.5-2.5-2.5H12c-1.378,0-2.5,1.121-2.5,2.5
		C9.5,37.74,10.411,38.765,11.597,38.959z"/>
	<path fill="#FAD64E" d="M16,78h-4c-1.378,0-2.5,1.121-2.5,2.5c0,1.24,0.911,2.265,2.097,2.459C11.727,82.986,11.862,83,12,83h4
		c0.138,0,0.273-0.014,0.403-0.041C17.589,82.765,18.5,81.74,18.5,80.5C18.5,79.121,17.378,78,16,78z"/>
	<path fill="#FAD64E" d="M29,78h-4c-1.378,0-2.5,1.121-2.5,2.5c0,1.24,0.911,2.265,2.097,2.459C24.727,82.986,24.862,83,25,83h4
		c0.138,0,0.273-0.014,0.403-0.041C30.589,82.765,31.5,81.74,31.5,80.5C31.5,79.121,30.378,78,29,78z"/>
	<path fill="#FAD64E" d="M42,78h-4c-1.378,0-2.5,1.121-2.5,2.5c0,1.24,0.911,2.265,2.097,2.459C37.727,82.986,37.862,83,38,83h4
		c0.138,0,0.273-0.014,0.403-0.041C43.589,82.765,44.5,81.74,44.5,80.5C44.5,79.121,43.378,78,42,78z"/>
	<path fill="#FAD64E" d="M86,78H55c-1.378,0-2.5,1.121-2.5,2.5c0,1.24,0.911,2.265,2.097,2.459C54.727,82.986,54.862,83,55,83h31
		c0.138,0,0.273-0.014,0.403-0.041C87.589,82.765,88.5,81.74,88.5,80.5C88.5,79.121,87.378,78,86,78z"/>
	<path fill="#FAD64E" d="M86,70H71c-1.378,0-2.5,1.121-2.5,2.5c0,1.24,0.911,2.265,2.097,2.459C70.727,74.986,70.862,75,71,75h15
		c0.138,0,0.273-0.014,0.403-0.041C87.589,74.765,88.5,73.74,88.5,72.5C88.5,71.121,87.378,70,86,70z"/>
	<path fill="#FAD64E" d="M86,26H71c-1.378,0-2.5,1.121-2.5,2.5c0,1.24,0.911,2.265,2.097,2.459C70.727,30.986,70.862,31,71,31h15
		c0.138,0,0.273-0.014,0.403-0.041C87.589,30.765,88.5,29.74,88.5,28.5C88.5,27.121,87.378,26,86,26z"/>
</g>
</svg>
