<?xml version="1.0" encoding="utf-8"?>
<!-- Generator: Adobe Illustrator 16.0.0, SVG Export Plug-In . SVG Version: 6.00 Build 0)  -->
<!DOCTYPE svg PUBLIC "-//W3C//DTD SVG 1.1//EN" "http://www.w3.org/Graphics/SVG/1.1/DTD/svg11.dtd">
<svg version="1.1" id="Layer_1" xmlns="http://www.w3.org/2000/svg" xmlns:xlink="http://www.w3.org/1999/xlink" x="0px" y="0px"
	 width="118px" height="117px" viewBox="0 0 118 117" enable-background="new 0 0 118 117" xml:space="preserve">
<g>
	<path fill="none" d="M42.728,74.105c4.389,0,6.757-4.883,6.757-9.478c0-5.874-1.579-7.664-6.757-7.664s-6.757,1.79-6.757,7.664
		C35.971,69.223,38.339,74.105,42.728,74.105z"/>
	<path fill="none" d="M26.399,40h39.913C67.588,40,69,40.674,69,41.95v12.556l14.006-14.01C83.441,40.059,83.836,40,84.454,40h7.257
		C92.436,40,93,39.046,93,38.321V5.665C93,4.941,92.436,4,91.711,4H26.399C25.675,4,25,4.941,25,5.665v32.656
		C25,39.046,25.675,40,26.399,40z M64,20h5v4h-5V20z M57,20h4v4h-4V20z M49,20h5v4h-5V20z"/>
	<path fill="none" d="M28.4,88.623l29.063-0.003C57.75,88.546,59,87.421,59,85.491v-2.286l-10.734-6.006
		c-1.57,0.98-3.592,1.535-5.538,1.535c-1.947,0-3.694-0.555-5.267-1.535L27,83.205v2.286C27,87.421,28.088,88.546,28.4,88.623z"/>
	<polygon fill="none" points="69.084,110 49.025,110 45.397,106 5,106 5,106.304 11.029,112 107.081,112 113,106.304 113,106 
		72.713,106 	"/>
	<path fill="#343434" d="M109,101V47.393c0-4.277-3.94-7.393-8.218-7.393H100v4h0.782c1.726,0,3.218,1.668,3.218,3.393V101H70.797
		l-3.629,4H50.942l-3.629-4H14V47.393C14,45.668,15.603,44,17.328,44H18v-4h-0.672C13.051,40,10,43.115,10,47.393V101H0v7.22
		L9.113,117h99.884l9.003-8.78V101H109z M113,106.304L107.081,112H11.029L5,106.304V106h40.397l3.628,4h20.059l3.629-4H113V106.304z
		"/>
	<path fill="#343434" d="M22,85.491C22,89.695,24.992,93,28.213,93h29.028C60.462,93,63,89.695,63,85.491v-4.971l-11.608-6.687
		c1.652-2.437,2.675-5.622,2.675-9.206c0-5.277-1.156-12.293-11.361-12.293S31.33,59.351,31.33,64.628
		c0,3.584,0.848,6.771,2.5,9.207L22,80.521V85.491z M42.728,56.964c5.178,0,6.757,1.79,6.757,7.664c0,4.595-2.368,9.478-6.757,9.478
		s-6.757-4.883-6.757-9.478C35.971,58.754,37.55,56.964,42.728,56.964z M27,83.205l10.461-6.006c1.572,0.98,3.319,1.535,5.267,1.535
		c1.946,0,3.968-0.555,5.538-1.535L59,83.205v2.286c0,1.93-1.25,3.055-1.536,3.129L28.4,88.623c-0.312-0.077-1.4-1.202-1.4-3.132
		V83.205z"/>
	<path fill="#343434" d="M26.399,44H64v16.092c0,0.94,0.56,1.78,1.427,2.139c0.28,0.117,0.579,0.176,0.886,0.176
		c0.609,0,1.205-0.379,1.636-0.81L85.412,44h6.299C94.988,44,98,41.598,98,38.321V5.665C98,2.389,94.988,0,91.711,0H26.399
		C23.122,0,20,2.389,20,5.665v32.656C20,41.598,23.122,44,26.399,44z M25,5.665C25,4.941,25.675,4,26.399,4h65.312
		C92.436,4,93,4.941,93,5.665v32.656C93,39.046,92.436,40,91.711,40h-7.257c-0.618,0-1.013,0.059-1.448,0.496L69,54.506V41.95
		c0-1.276-1.412-1.95-2.688-1.95H26.399C25.675,40,25,39.046,25,38.321V5.665z"/>
	<rect x="57" y="20" fill="#343434" width="4" height="4"/>
	<rect x="64" y="20" fill="#343434" width="5" height="4"/>
	<rect x="49" y="20" fill="#343434" width="5" height="4"/>
	<rect x="71" y="67" fill="#343434" width="27" height="4"/>
	
		<rect x="71.255" y="74.106" transform="matrix(0.9998 0.0199 -0.0199 0.9998 1.5376 -1.6656)" fill="#343434" width="26.4" height="4.628"/>
	<rect x="71" y="81" fill="#343434" width="18" height="5"/>
</g>
</svg>
