<?xml version="1.0" encoding="utf-8"?>
<!-- Generator: Adobe Illustrator 16.0.0, SVG Export Plug-In . SVG Version: 6.00 Build 0)  -->
<!DOCTYPE svg PUBLIC "-//W3C//DTD SVG 1.1//EN" "http://www.w3.org/Graphics/SVG/1.1/DTD/svg11.dtd">
<svg version="1.1" id="Layer_1" xmlns="http://www.w3.org/2000/svg" xmlns:xlink="http://www.w3.org/1999/xlink" x="0px" y="0px"
	 width="124px" height="117px" viewBox="0 0 124 117" enable-background="new 0 0 124 117" xml:space="preserve">
<rect x="4" y="102" fill="none" width="91" height="11"/>
<path fill="none" d="M4,54h91V43H4V54z M27.909,45.465c1.792,0,3.25,1.458,3.25,3.25s-1.458,3.25-3.25,3.25s-3.25-1.458-3.25-3.25
	S26.117,45.465,27.909,45.465z M19.909,45.465c1.792,0,3.25,1.458,3.25,3.25s-1.458,3.25-3.25,3.25s-3.25-1.458-3.25-3.25
	S18.117,45.465,19.909,45.465z M11.909,45.465c1.792,0,3.25,1.458,3.25,3.25s-1.458,3.25-3.25,3.25s-3.25-1.458-3.25-3.25
	S10.117,45.465,11.909,45.465z"/>
<path fill="none" d="M4,98h91V58H4V98z M58,90H42v-4h16V90z M35,70h29v4H35V70z M22,77h55v4H22V77z"/>
<circle fill="none" cx="36.581" cy="9.688" r="0.75"/>
<path fill="none" d="M55.944,24.667c9.059,0,16.719,5.333,19.17,14.333h13.863l8.799-15.605l0.057,0.098l10.528,18.254l4.596,7.968
	l-0.038,0.02L111,50.715V53H99v21h21V19H29v20h7.774C39.225,30,46.885,24.667,55.944,24.667z"/>
<circle fill="none" cx="44.581" cy="9.688" r="0.75"/>
<polygon fill="none" points="99,49 107.986,49 97.888,31.537 93.596,39 99,39 "/>
<path fill="none" d="M55.944,28.667C49.119,28.667,43.294,33,41,39h29.888C68.593,33,62.769,28.667,55.944,28.667z"/>
<circle fill="none" cx="11.909" cy="48.715" r="0.75"/>
<circle fill="none" cx="19.909" cy="48.715" r="0.75"/>
<path fill="none" d="M120,4H29v11h91V4z M36.581,12.938c-1.792,0-3.25-1.458-3.25-3.25s1.458-3.25,3.25-3.25s3.25,1.458,3.25,3.25
	S38.373,12.938,36.581,12.938z M44.581,12.938c-1.792,0-3.25-1.458-3.25-3.25s1.458-3.25,3.25-3.25s3.25,1.458,3.25,3.25
	S46.373,12.938,44.581,12.938z M52.581,12.938c-1.792,0-3.25-1.458-3.25-3.25s1.458-3.25,3.25-3.25s3.25,1.458,3.25,3.25
	S54.373,12.938,52.581,12.938z"/>
<circle fill="none" cx="27.909" cy="48.715" r="0.75"/>
<circle fill="none" cx="52.581" cy="9.688" r="0.75"/>
<path fill="#343434" d="M25,39H0v78h99V78h25V0H25V39z M95,113H4v-11h91V113z M95,98H4V58h91V98z M95,54H4V43h91V54z M41,39
	c2.294-6,8.119-10.333,14.944-10.333S68.593,33,70.888,39H41z M93.596,39l4.292-7.463L107.986,49H99V39H93.596z M29,4h91v11H29V4z
	 M29,19h91v55H99V53h12v-2.285l1.919-0.98l0.038-0.02l-4.596-7.968L97.833,23.492l-0.057-0.098L88.977,39H75.114
	c-2.451-9-10.111-14.333-19.17-14.333S39.225,30,36.774,39H29V19z"/>
<path fill="#343434" d="M36.581,6.438c-1.792,0-3.25,1.458-3.25,3.25s1.458,3.25,3.25,3.25s3.25-1.458,3.25-3.25
	S38.373,6.438,36.581,6.438z"/>
<path fill="#343434" d="M44.581,6.438c-1.792,0-3.25,1.458-3.25,3.25s1.458,3.25,3.25,3.25s3.25-1.458,3.25-3.25
	S46.373,6.438,44.581,6.438z"/>
<path fill="#343434" d="M52.581,6.438c-1.792,0-3.25,1.458-3.25,3.25s1.458,3.25,3.25,3.25s3.25-1.458,3.25-3.25
	S54.373,6.438,52.581,6.438z"/>
<path fill="#343434" d="M11.909,51.965c1.792,0,3.25-1.458,3.25-3.25s-1.458-3.25-3.25-3.25s-3.25,1.458-3.25,3.25
	S10.117,51.965,11.909,51.965z"/>
<path fill="#343434" d="M19.909,51.965c1.792,0,3.25-1.458,3.25-3.25s-1.458-3.25-3.25-3.25s-3.25,1.458-3.25,3.25
	S18.117,51.965,19.909,51.965z"/>
<path fill="#343434" d="M27.909,51.965c1.792,0,3.25-1.458,3.25-3.25s-1.458-3.25-3.25-3.25s-3.25,1.458-3.25,3.25
	S26.117,51.965,27.909,51.965z"/>
<rect x="35" y="70" fill="#343434" width="29" height="4"/>
<rect x="42" y="86" fill="#343434" width="16" height="4"/>
<rect x="22" y="77" fill="#343434" width="55" height="4"/>
</svg>
