<?xml version="1.0" encoding="utf-8"?>
<!-- Generator: Adobe Illustrator 16.0.0, SVG Export Plug-In . SVG Version: 6.00 Build 0)  -->
<!DOCTYPE svg PUBLIC "-//W3C//DTD SVG 1.1//EN" "http://www.w3.org/Graphics/SVG/1.1/DTD/svg11.dtd">
<svg version="1.1" id="Layer_1" xmlns="http://www.w3.org/2000/svg" xmlns:xlink="http://www.w3.org/1999/xlink" x="0px" y="0px"
	 width="91px" height="120px" viewBox="0 0 91 120" enable-background="new 0 0 91 120" xml:space="preserve">
<g>
	<path fill="#FAD64E" d="M4.587,107H48v8.331c0,2.757,2.214,4.669,4.971,4.669h33.238c2.757,0,4.791-1.912,4.791-4.669V54.456
		C91,51.699,88.966,49,86.209,49H75V4.713C75,1.956,73.244,0,70.487,0h-65.9C1.83,0,0,1.956,0,4.713v97.618
		C0,105.088,1.83,107,4.587,107z M48,54.456V91H12.05C11.508,91,11,90.063,11,89.521V18.478C11,17.936,11.508,17,12.05,17h51.9
		c0.542,0,1.05,0.936,1.05,1.478V49H52.971C50.214,49,48,51.699,48,54.456z M87,115.331c0,0.542-0.249,0.669-0.791,0.669H52.971
		c-0.542,0-0.971-0.127-0.971-0.669V107h35V115.331z M87,103H52V66h35V103z M86.209,53C86.751,53,87,53.914,87,54.456V62H52v-7.544
		C52,53.914,52.429,53,52.971,53H86.209z M4,4.713C4,4.171,4.045,4,4.587,4h65.9C71.029,4,71,4.171,71,4.713V49h-2V18.478
		c0-1.479-0.683-2.796-1.707-3.712C66.375,13.694,65.005,13,63.487,13h-51.9C8.83,13,7,15.243,7,18v71.044
		c0,1.479,0.451,3.035,1.475,3.951C9.393,94.066,10.532,95,12.05,95H48v8H4.587C4.045,103,4,102.873,4,102.331V4.713z"/>
	<path fill="#FAD64E" d="M37.537,102.167c1.746,0,3.167-1.421,3.167-3.167s-1.421-3.167-3.167-3.167S34.37,97.254,34.37,99
		S35.791,102.167,37.537,102.167z"/>
	<path fill="#FAD64E" d="M69.537,115.167c1.746,0,3.167-1.421,3.167-3.167s-1.421-3.167-3.167-3.167S66.37,110.254,66.37,112
		S67.791,115.167,69.537,115.167z"/>
	<path fill="#FAD64E" d="M65,61h9c1.104,0,2-0.804,2-2s-0.896-2-2-2h-9c-1.104,0-2,0.804-2,2S63.896,61,65,61z"/>
	<path fill="#FAD64E" d="M60,21h-2.561l-0.051-0.096L57.209,21H17.791l-0.179-0.096L17.561,21H15v26h45V21z M49.747,25L37.5,31.564
		L25.253,25H49.747z M19,26.187l14.267,7.647L19,41.48V26.187z M24.632,43L37.5,36.103L50.368,43H24.632z M56,41.48l-14.267-7.646
		L56,26.187V41.48z"/>
	<path fill="#FAD64E" d="M83,70H56v29h27V70z M76.422,74l-6.934,7.544L62.555,74H76.422z M60,77.132l6.771,7.368L60,91.868V77.132z
		 M62.555,95l6.934-7.544L76.422,95H62.555z M79,91.894L72.205,84.5L79,77.106V91.894z"/>
	<rect x="15" y="52" fill="#FAD64E" width="23" height="4"/>
	<rect x="15" y="59" fill="#FAD64E" width="23" height="4"/>
	<rect x="15" y="66" fill="#FAD64E" width="23" height="4"/>
	<rect x="15" y="73" fill="#FAD64E" width="23" height="4"/>
</g>
</svg>
