<?xml version="1.0" encoding="utf-8"?>
<!-- Generator: Adobe Illustrator 16.0.0, SVG Export Plug-In . SVG Version: 6.00 Build 0)  -->
<!DOCTYPE svg PUBLIC "-//W3C//DTD SVG 1.1//EN" "http://www.w3.org/Graphics/SVG/1.1/DTD/svg11.dtd">
<svg version="1.1" id="Layer_1" xmlns="http://www.w3.org/2000/svg" xmlns:xlink="http://www.w3.org/1999/xlink" x="0px" y="0px"
	 width="107px" height="97px" viewBox="0 0 107 97" enable-background="new 0 0 107 97" xml:space="preserve">
<g>
	<path fill="none" d="M103,73.035V6.965C103,5.327,101.673,4,100.036,4H6.964C5.327,4,4,5.327,4,6.965v66.07
		C4,74.673,5.327,76,6.964,76h93.071C101.673,76,103,74.673,103,73.035z M56,74h-4v-4h4V74z M9.008,67C7.899,67,7,66.102,7,64.993
		V9.007C7,7.898,7.899,7,9.008,7h89.983C100.101,7,101,7.898,101,9.007v55.986c0,1.108-0.899,2.007-2.008,2.007H9.008z"/>
	<polygon fill="none" points="45.315,80 41.546,93 65.984,93 62.215,80 	"/>
	<path fill="none" d="M11,63h86V11H11V63z M92,55H71v-4h21V55z M92,49H71v-4h21V49z M42.049,37.437
		c0.537,0.061,1.026,0.336,1.357,0.764l7.836,10.129L77.306,23H75c-1.104,0-2-0.896-2-2s0.896-2,2-2h7c1.104,0,2,0.896,2,2v7
		c0,1.104-0.896,2-2,2s-2-0.896-2-2v-2.039L52.425,52.759c-0.408,0.396-0.962,0.599-1.535,0.561
		c-0.568-0.04-1.092-0.321-1.441-0.771l-7.948-10.273L26.325,54.714c-0.372,0.305-0.821,0.453-1.267,0.453
		c-0.579,0-1.152-0.25-1.548-0.732c-0.7-0.854-0.575-2.114,0.279-2.814l16.767-13.743C40.975,37.535,41.512,37.375,42.049,37.437z
		 M16,14h10v4H16V14z M16,20h5v4h-5V20z"/>
	<path fill="#FAD64E" d="M37.356,93H32v4h44v-4h-5.824l-3.768-13h33.764c3.849,0,6.829-2.758,6.829-6.606V7.101
		C107,3.252,104.02,0,100.171,0H7.36C3.512,0,0,3.252,0,7.101v66.293C0,77.242,3.512,80,7.36,80h33.765L37.356,93z M41.546,93
		l3.769-13h16.9l3.769,13H41.546z M6.964,76C5.327,76,4,74.673,4,73.035V6.965C4,5.327,5.327,4,6.964,4h93.071
		C101.673,4,103,5.327,103,6.965v66.07c0,1.638-1.327,2.965-2.964,2.965H6.964z"/>
	<rect x="52" y="70" fill="#FAD64E" width="4" height="4"/>
	<path fill="#FAD64E" d="M101,64.993V9.007C101,7.898,100.101,7,98.992,7H9.008C7.899,7,7,7.898,7,9.007v55.986
		C7,66.102,7.899,67,9.008,67h89.983C100.101,67,101,66.102,101,64.993z M97,63H11V11h86V63z"/>
	<path fill="#FAD64E" d="M23.51,54.435c0.396,0.482,0.969,0.732,1.548,0.732c0.446,0,0.895-0.148,1.267-0.453l15.176-12.439
		l7.948,10.273c0.349,0.45,0.873,0.731,1.441,0.771c0.573,0.038,1.127-0.164,1.535-0.561L80,25.961V28c0,1.104,0.896,2,2,2
		s2-0.896,2-2v-7c0-1.104-0.896-2-2-2h-7c-1.104,0-2,0.896-2,2s0.896,2,2,2h2.306L51.243,48.329L43.406,38.2
		c-0.331-0.428-0.82-0.703-1.357-0.764c-0.538-0.062-1.075,0.099-1.493,0.44L23.789,51.62C22.935,52.32,22.81,53.58,23.51,54.435z"
		/>
	<rect x="71" y="51" fill="#FAD64E" width="21" height="4"/>
	<rect x="71" y="45" fill="#FAD64E" width="21" height="4"/>
	<rect x="16" y="14" fill="#FAD64E" width="10" height="4"/>
	<rect x="16" y="20" fill="#FAD64E" width="5" height="4"/>
</g>
</svg>
