<?xml version="1.0" encoding="utf-8"?>
<!-- Generator: Adobe Illustrator 16.0.0, SVG Export Plug-In . SVG Version: 6.00 Build 0)  -->
<!DOCTYPE svg PUBLIC "-//W3C//DTD SVG 1.1//EN" "http://www.w3.org/Graphics/SVG/1.1/DTD/svg11.dtd">
<svg version="1.1" id="Layer_1" xmlns="http://www.w3.org/2000/svg" xmlns:xlink="http://www.w3.org/1999/xlink" x="0px" y="0px"
	 width="99px" height="93px" viewBox="0 0 99 93" enable-background="new 0 0 99 93" xml:space="preserve">
<g>
	<path fill="#FAD64E" d="M0,93h99V0H0V93z M4,4h91v11H4V4z M4,19h91v70H4V19z"/>
	<path fill="#FAD64E" d="M10,55h79V24H10V55z M23.138,51l26.174-9.376L75.486,51H23.138z M85,49.66L55.242,39L85,28.341V49.66z
		 M75.486,28l-26.174,9.376L23.138,28H75.486z M14,28.341L43.758,39L14,49.66V28.341z"/>
	<path fill="#FAD64E" d="M11.527,6.64c-1.792,0-3.25,1.458-3.25,3.25s1.458,3.25,3.25,3.25s3.25-1.458,3.25-3.25
		S13.319,6.64,11.527,6.64z M11.527,10.64c-0.414,0-0.75-0.337-0.75-0.75s0.336-0.75,0.75-0.75s0.75,0.337,0.75,0.75
		S11.941,10.64,11.527,10.64z"/>
	<path fill="#FAD64E" d="M19.527,6.64c-1.792,0-3.25,1.458-3.25,3.25s1.458,3.25,3.25,3.25s3.25-1.458,3.25-3.25
		S21.319,6.64,19.527,6.64z M19.527,10.64c-0.414,0-0.75-0.337-0.75-0.75s0.336-0.75,0.75-0.75s0.75,0.337,0.75,0.75
		S19.941,10.64,19.527,10.64z"/>
	<path fill="#FAD64E" d="M27.527,6.64c-1.792,0-3.25,1.458-3.25,3.25s1.458,3.25,3.25,3.25s3.25-1.458,3.25-3.25
		S29.319,6.64,27.527,6.64z M27.527,10.64c-0.414,0-0.75-0.337-0.75-0.75s0.336-0.75,0.75-0.75s0.75,0.337,0.75,0.75
		S27.941,10.64,27.527,10.64z"/>
	<path fill="#FAD64E" d="M86.045,61.992L86.031,62H57.593l-0.014-0.008L57.574,62H55v20h34V62h-2.95L86.045,61.992z M78.667,66
		l-6.855,3.725L64.957,66H78.667z M59,66.965l8.81,4.785L59,76.536V66.965z M64.036,78l7.776-4.224L79.588,78H64.036z M85,76.74
		l-9.186-4.99L85,66.761V76.74z"/>
	<rect x="12" y="62" fill="#FAD64E" width="38" height="4"/>
	<rect x="12" y="70" fill="#FAD64E" width="38" height="4"/>
	<rect x="12" y="78" fill="#FAD64E" width="38" height="4"/>
</g>
</svg>
