<?xml version="1.0" encoding="utf-8"?>
<!-- Generator: Adobe Illustrator 16.0.0, SVG Export Plug-In . SVG Version: 6.00 Build 0)  -->
<!DOCTYPE svg PUBLIC "-//W3C//DTD SVG 1.1//EN" "http://www.w3.org/Graphics/SVG/1.1/DTD/svg11.dtd">
<svg version="1.1" id="Layer_1" xmlns="http://www.w3.org/2000/svg" xmlns:xlink="http://www.w3.org/1999/xlink" x="0px" y="0px"
	 width="116px" height="116px" viewBox="0 0 116 116" enable-background="new 0 0 116 116" xml:space="preserve">
<g>
	<path fill="none" d="M25.399,40h39.913C66.314,40,67,40.947,67,41.95v13.763l15.109-15.114c0.34-0.34,0.863-0.599,1.345-0.599
		h7.257C91.712,40,93,39.322,93,38.321V5.665C93,4.664,91.712,4,90.711,4H25.399C24.4,4,24,4.664,24,5.665v32.656
		C24,39.322,24.4,40,25.399,40z M63,20h4v4h-4V20z M56,20h4v4h-4V20z M49,20h4v4h-4V20z"/>
	<path fill="none" d="M27.213,89h29.028C56.779,89,58,87.711,58,85.491v-2.576l-11.044-6.298c-1.553,1.036-3.376,1.617-5.328,1.617
		c-1.953,0-3.854-0.581-5.407-1.617L25,82.915v2.576C25,87.711,26.675,89,27.213,89z"/>
	<path fill="none" d="M41.728,74.605c4.712,0,7.257-5.141,7.257-9.978c0-6.18-1.765-8.164-7.257-8.164
		c-5.493,0-7.257,1.984-7.257,8.164C34.471,69.465,37.015,74.605,41.728,74.605z"/>
	<polygon fill="none" points="67.877,109 48.232,109 44.604,105 4,105 4,106.511 9.822,113 106.288,113 112,106.511 112,105 
		71.506,105 	"/>
	<path fill="#343434" d="M107,102V47.393c0-4.002-3-7.257-7-7.257v3.628c2,0,3,1.629,3,3.629V102H70.004l-3.629,3h-16.64l-3.629-3
		H13V47.393c0-2,1-3.629,3-3.629v-3.628c-4,0-7,3.255-7,7.257V102H0v6.013L8.32,116h99.47l8.21-7.987V102H107z M112,106.511
		L106.288,113H9.822L4,106.511V105h40.604l3.628,4h19.645l3.629-4H112V106.511z"/>
	<path fill="#343434" d="M22,85.491C22,89.425,24.264,93,27.213,93h29.028C59.19,93,62,89.425,62,85.491v-4.681l-12.093-6.82
		c1.789-2.404,2.784-5.661,2.784-9.362c0-5.491-1.275-11.793-10.924-11.793c-9.65,0-10.906,6.302-10.906,11.793
		c0,3.701,1.18,6.958,2.969,9.363L22,80.811V85.491z M41.728,56.464c5.492,0,7.257,1.984,7.257,8.164
		c0,4.837-2.545,9.978-7.257,9.978c-4.713,0-7.257-5.141-7.257-9.978C34.471,58.448,36.234,56.464,41.728,56.464z M25,82.915
		l11.221-6.298c1.553,1.036,3.454,1.617,5.407,1.617c1.952,0,3.775-0.581,5.328-1.617L58,82.915v2.576
		C58,87.711,56.779,89,56.241,89H27.213C26.675,89,25,87.711,25,85.491V82.915z"/>
	<path fill="#343434" d="M25.399,44H63v16.092c0,0.733,0.69,1.396,1.368,1.677c0.226,0.094,0.585,0.138,0.819,0.138
		c0.471,0,0.998-0.066,1.345-0.413L84.205,44h6.506C93.713,44,96,41.322,96,38.321V5.665C96,2.664,93.713,0,90.711,0H25.399
		C22.397,0,20,2.664,20,5.665v32.656C20,41.322,22.397,44,25.399,44z M24,5.665C24,4.664,24.4,4,25.399,4h65.312
		C91.712,4,93,4.664,93,5.665v32.656C93,39.322,91.712,40,90.711,40h-7.257c-0.481,0-1.005,0.259-1.345,0.599L67,55.713V41.95
		c0-1.003-0.686-1.95-1.688-1.95H25.399C24.4,40,24,39.322,24,38.321V5.665z"/>
	<rect x="56" y="20" fill="#343434" width="4" height="4"/>
	<rect x="63" y="20" fill="#343434" width="4" height="4"/>
	<rect x="49" y="20" fill="#343434" width="4" height="4"/>
	<rect x="71" y="67" fill="#343434" width="25" height="4"/>
	
		<rect x="70.755" y="74.606" transform="matrix(0.9998 0.0199 -0.0199 0.9998 1.5355 -1.6438)" fill="#343434" width="25.4" height="3.629"/>
	<rect x="71" y="82" fill="#343434" width="16" height="3"/>
</g>
</svg>
