<?xml version="1.0" encoding="utf-8"?>
<!-- Generator: Adobe Illustrator 16.0.0, SVG Export Plug-In . SVG Version: 6.00 Build 0)  -->
<!DOCTYPE svg PUBLIC "-//W3C//DTD SVG 1.1//EN" "http://www.w3.org/Graphics/SVG/1.1/DTD/svg11.dtd">
<svg version="1.1" id="Layer_1" xmlns="http://www.w3.org/2000/svg" xmlns:xlink="http://www.w3.org/1999/xlink" x="0px" y="0px"
	 width="103.175px" height="91px" viewBox="0 0 103.175 91" enable-background="new 0 0 103.175 91" xml:space="preserve">
<g>
	<path fill="none" d="M47.997,39.141c0.798-4.291,4.57-7.322,9.088-7.322c0.528,0,1.045,0.056,1.558,0.144
		c-0.727-2.221-2.794-3.841-5.251-3.841c-1.023,0-1.853-0.829-1.853-1.85c0-3.059-2.489-5.546-5.546-5.546
		c-1.112,0-2.188,0.327-3.105,0.949c-0.478,0.321-1.074,0.405-1.618,0.224c-0.545-0.182-0.973-0.604-1.164-1.143
		c-0.78-2.233-2.874-3.731-5.207-3.731c-2.336,0-4.43,1.498-5.213,3.731c-0.188,0.539-0.617,0.961-1.162,1.143
		c-0.544,0.182-1.144,0.098-1.62-0.224c-0.917-0.622-1.986-0.949-3.101-0.949c-3.062,0-5.55,2.487-5.554,5.429
		c0.012,0.064,0.029,0.249,0.031,0.312c0.026,0.586-0.234,1.15-0.689,1.518c-0.459,0.363-1.062,0.492-1.63,0.344
		c-0.542-0.142-0.988-0.207-1.407-0.207c-3.06,0-5.548,2.486-5.548,5.548c0,0.448,0.071,0.927,0.237,1.508
		c0.141,0.493,0.065,1.022-0.202,1.458c-0.262,0.439-0.712,0.75-1.213,0.855c-2.55,0.539-4.427,2.819-4.427,5.423
		c0,3.06,2.435,5.547,5.496,5.547c1.019,0,1.734,0.83,1.734,1.853V56h2.075c3.056,0,5.546-2.79,5.546-5.847
		c0-1.022,0.829-2.153,1.853-2.153h20.341C40.446,44,43.706,39.939,47.997,39.141z"/>
	<path fill="none" d="M95.226,52.285c-0.499-0.108-0.934-0.417-1.199-0.854c-0.264-0.438-0.332-0.967-0.194-1.462
		c0.163-0.579,0.239-1.056,0.239-1.509c0-3.057-2.487-5.547-5.547-5.547c-0.42,0-0.863,0.067-1.403,0.211
		c-0.567,0.152-1.17,0.021-1.631-0.347c-0.456-0.366-0.71-0.928-0.688-1.513c0.005-0.115,0.014-0.211,0.025-0.201
		c0-3.056-2.49-5.545-5.55-5.545c-1.111,0-2.186,0.327-3.104,0.946c-0.479,0.322-1.075,0.407-1.618,0.221
		c-0.546-0.177-0.978-0.605-1.167-1.146c-0.779-2.23-2.871-3.74-5.208-3.74c-2.06,0-3.93,1.151-4.877,2.96
		c2.923,1.582,4.877,4.628,4.877,8.074c0,5.099-4.147,9.167-9.243,9.167H43.271c-0.095,0-0.177,0.118-0.282,0.142
		c-2.546,0.538-4.395,2.837-4.395,5.438c0,3.061,2.488,5.42,5.549,5.42h38.835c1.021,0,1.85,1.132,1.85,2.153
		c0,3.057,2.487,5.847,5.546,5.847h2.258v-5.894c0-1.021,0.623-1.852,1.643-1.852c3.062,0,5.448-2.487,5.448-5.547
		C99.723,55.105,97.773,52.823,95.226,52.285z"/>
	<path fill="none" d="M51.539,40.949c0,1.022-0.826,1.734-1.849,1.734c-3.057,0-5.547,2.316-5.547,5.316h14.795
		c3.059,0,5.548-2.258,5.548-5.316c0-2.604-1.85-4.654-4.395-5.193c-0.501-0.105-0.936-0.416-1.201-0.855
		c-0.164-0.271-0.224-0.605-0.237-0.92c-0.503-0.146-1.028-0.253-1.568-0.253C54.03,35.462,51.539,37.894,51.539,40.949z"/>
	<path fill="#FAD64E" d="M97.736,49.222c0.021-0.257,0.034-0.509,0.034-0.762c0-5.155-4.287-9.343-9.43-9.24
		c-0.859-4.219-4.596-7.401-9.062-7.401c-1.143,0-2.26,0.21-3.31,0.614c-1.667-2.642-4.591-4.312-7.787-4.312
		c-2.308,0-4.461,0.881-6.116,2.357c-1.114-3.018-3.861-5.3-7.087-5.9c-0.688-3.689-2.347-6.603-6.347-7.353V9.63
		c0-3.062,2.698-5.63,5.76-5.63h34.133c3.06,0,5.107,2.568,5.107,5.63v21.425l-2.167-2.391l-2.507,2.614l5.604,5.545
		c0.356,0.362,0.859,0.542,1.332,0.542c0.476,0,0.961-0.18,1.321-0.542l5.557-5.545l-2.684-2.614l-2.457,2.391V9.63
		c0-5.1-4.009-9.63-9.107-9.63H53.392c-5.101,0-8.76,4.53-8.76,9.63v7.596c-1,0.101-1.231,0.229-1.706,0.412
		c-1.666-2.641-4.712-4.312-7.905-4.312c-3.198,0-6.18,1.671-7.848,4.312c-1.049-0.404-2.198-0.613-3.34-0.613
		c-4.466,0-8.22,3.184-9.078,7.399c-5.188-0.088-9.439,4.085-9.439,9.245c0,0.251,0.009,0.502,0.034,0.759
		C2.028,35.868,0,39.193,0,42.913c0,4.464,2.632,8.204,7.632,9.061v5.734C7.632,58.73,7.987,60,9.01,60h3.697
		c4.464,0,8.199-4,9.057-8H36.79c-1.181,2-1.892,3.593-1.892,5.651c0,5.099,4.147,9.349,9.245,9.349h25.488v14.747
		c0,3.062-2.089,5.253-5.146,5.253H33.049c-3.061,0-5.417-2.191-5.417-5.253V62.174l2.326,2.391l2.582-2.615l-5.563-5.547
		c-0.726-0.724-1.901-0.724-2.628,0L18.8,61.949l2.529,2.615l2.303-2.391v19.573c0,5.101,4.316,9.253,9.417,9.253h31.438
		c5.098,0,9.146-4.152,9.146-9.253V67h7.683c0.858,4,4.595,7,9.06,7h3.697c1.022,0,1.561-0.478,1.561-1.496v-5.735
		c5-0.86,7.543-4.593,7.543-9.061C103.175,53.987,101.057,50.662,97.736,49.222z M58.891,36.635c0.266,0.439,0.7,0.75,1.201,0.855
		c2.545,0.539,4.395,2.59,4.395,5.193c0,3.059-2.489,5.316-5.548,5.316H44.144c0-3,2.49-5.316,5.547-5.316
		c1.022,0,1.849-0.712,1.849-1.734c0-3.056,2.491-5.487,5.546-5.487c0.54,0,1.065,0.106,1.568,0.253
		C58.667,36.029,58.727,36.363,58.891,36.635z M20.105,48c-1.023,0-1.853,1.131-1.853,2.153c0,3.057-2.49,5.847-5.546,5.847h-2.075
		v-5.688c0-1.022-0.716-1.853-1.734-1.853c-3.062,0-5.496-2.487-5.496-5.547c0-2.604,1.877-4.884,4.427-5.423
		c0.501-0.105,0.951-0.416,1.213-0.855c0.268-0.436,0.343-0.965,0.202-1.458c-0.166-0.581-0.237-1.06-0.237-1.508
		c0-3.062,2.488-5.548,5.548-5.548c0.419,0,0.865,0.065,1.407,0.207c0.568,0.148,1.171,0.02,1.63-0.344
		c0.455-0.367,0.716-0.932,0.689-1.518c-0.002-0.063-0.02-0.248-0.031-0.312c0.004-2.941,2.492-5.429,5.554-5.429
		c1.114,0,2.184,0.327,3.101,0.949c0.477,0.321,1.076,0.405,1.62,0.224c0.545-0.182,0.974-0.604,1.162-1.143
		c0.783-2.233,2.877-3.731,5.213-3.731c2.333,0,4.427,1.498,5.207,3.731c0.191,0.539,0.619,0.961,1.164,1.143
		c0.544,0.182,1.141,0.098,1.618-0.224c0.918-0.622,1.993-0.949,3.105-0.949c3.057,0,5.546,2.487,5.546,5.546
		c0,1.021,0.829,1.85,1.853,1.85c2.457,0,4.524,1.62,5.251,3.841c-0.513-0.088-1.029-0.144-1.558-0.144
		c-4.518,0-8.29,3.031-9.088,7.322C43.706,39.939,40.446,44,40.446,48H20.105z M94.274,63.255c-1.02,0-1.643,0.83-1.643,1.852V71
		h-2.258c-3.059,0-5.546-2.79-5.546-5.847c0-1.021-0.829-2.153-1.85-2.153H44.144c-3.061,0-5.549-2.359-5.549-5.42
		c0-2.602,1.849-4.9,4.395-5.438C43.095,52.118,43.177,52,43.271,52h15.667c5.096,0,9.243-4.068,9.243-9.167
		c0-3.446-1.954-6.492-4.877-8.074c0.947-1.809,2.817-2.96,4.877-2.96c2.337,0,4.429,1.51,5.208,3.74
		c0.189,0.541,0.621,0.97,1.167,1.146c0.543,0.187,1.14,0.102,1.618-0.221c0.918-0.619,1.992-0.946,3.104-0.946
		c3.06,0,5.55,2.489,5.55,5.545c-0.012-0.01-0.021,0.086-0.025,0.201c-0.022,0.585,0.231,1.146,0.688,1.513
		c0.461,0.367,1.063,0.499,1.631,0.347c0.54-0.144,0.983-0.211,1.403-0.211c3.06,0,5.547,2.49,5.547,5.547
		c0,0.453-0.076,0.93-0.239,1.509c-0.138,0.495-0.069,1.023,0.194,1.462c0.266,0.438,0.7,0.746,1.199,0.854
		c2.548,0.538,4.497,2.82,4.497,5.423C99.723,60.768,97.337,63.255,94.274,63.255z"/>
</g>
</svg>
