<?xml version="1.0" encoding="utf-8"?>
<!-- Generator: Adobe Illustrator 16.0.0, SVG Export Plug-In . SVG Version: 6.00 Build 0)  -->
<!DOCTYPE svg PUBLIC "-//W3C//DTD SVG 1.1//EN" "http://www.w3.org/Graphics/SVG/1.1/DTD/svg11.dtd">
<svg version="1.1" id="Layer_1" xmlns="http://www.w3.org/2000/svg" xmlns:xlink="http://www.w3.org/1999/xlink" x="0px" y="0px"
	 width="124px" height="117px" viewBox="0 0 124 117" enable-background="new 0 0 124 117" xml:space="preserve">
<g>
	<polygon fill="none" points="112.919,49.734 111,50.715 112.957,49.801 	"/>
	<polygon fill="none" points="97.833,23.492 108.361,41.746 97.888,23.395 	"/>
	<path fill="#343434" d="M25,39H0v78h99V78h25V0H25V39z M95,113H4v-11h91V113z M95,98H4V58h91V98z M95,54H4V43h91V54z M41,39
		c2.294-6,8.119-10.333,14.944-10.333S68.593,33,70.888,39H41z M93.596,39l4.292-7.463L107.986,49H99V39H93.596z M29,4h91v11H29V4z
		 M29,19h91v55H99V53h12h3.75l-1.831-3.266l0.038-0.02l-4.596-7.969L97.833,23.492l-0.057-0.098L88.977,39H75.114
		c-2.451-9-10.111-14.333-19.17-14.333S39.225,30,36.774,39H29V19z"/>
	<path fill="#343434" d="M36.581,6.438c-1.792,0-3.25,1.458-3.25,3.25s1.458,3.25,3.25,3.25s3.25-1.458,3.25-3.25
		S38.373,6.438,36.581,6.438z M36.581,10.438c-0.414,0-0.75-0.336-0.75-0.75s0.336-0.75,0.75-0.75s0.75,0.336,0.75,0.75
		S36.994,10.438,36.581,10.438z"/>
	<path fill="#343434" d="M44.581,6.438c-1.792,0-3.25,1.458-3.25,3.25s1.458,3.25,3.25,3.25s3.25-1.458,3.25-3.25
		S46.373,6.438,44.581,6.438z M44.581,10.438c-0.414,0-0.75-0.336-0.75-0.75s0.336-0.75,0.75-0.75s0.75,0.336,0.75,0.75
		S44.994,10.438,44.581,10.438z"/>
	<path fill="#343434" d="M52.581,6.438c-1.792,0-3.25,1.458-3.25,3.25s1.458,3.25,3.25,3.25s3.25-1.458,3.25-3.25
		S54.373,6.438,52.581,6.438z M52.581,10.438c-0.414,0-0.75-0.336-0.75-0.75s0.336-0.75,0.75-0.75s0.75,0.336,0.75,0.75
		S52.994,10.438,52.581,10.438z"/>
	<path fill="#343434" d="M11.909,51.965c1.792,0,3.25-1.458,3.25-3.25s-1.458-3.25-3.25-3.25s-3.25,1.458-3.25,3.25
		S10.117,51.965,11.909,51.965z M11.909,47.965c0.414,0,0.75,0.336,0.75,0.75s-0.336,0.75-0.75,0.75s-0.75-0.336-0.75-0.75
		S11.495,47.965,11.909,47.965z"/>
	<path fill="#343434" d="M19.909,51.965c1.792,0,3.25-1.458,3.25-3.25s-1.458-3.25-3.25-3.25s-3.25,1.458-3.25,3.25
		S18.117,51.965,19.909,51.965z M19.909,47.965c0.414,0,0.75,0.336,0.75,0.75s-0.336,0.75-0.75,0.75s-0.75-0.336-0.75-0.75
		S19.495,47.965,19.909,47.965z"/>
	<path fill="#343434" d="M27.909,51.965c1.792,0,3.25-1.458,3.25-3.25s-1.458-3.25-3.25-3.25s-3.25,1.458-3.25,3.25
		S26.117,51.965,27.909,51.965z M27.909,47.965c0.414,0,0.75,0.336,0.75,0.75s-0.336,0.75-0.75,0.75s-0.75-0.336-0.75-0.75
		S27.495,47.965,27.909,47.965z"/>
	<rect x="35" y="70" fill="#343434" width="29" height="4"/>
	<rect x="42" y="86" fill="#343434" width="16" height="4"/>
	<rect x="22" y="77" fill="#343434" width="55" height="4"/>
</g>
</svg>
