<?xml version="1.0" encoding="utf-8"?>
<!-- Generator: Adobe Illustrator 16.0.0, SVG Export Plug-In . SVG Version: 6.00 Build 0)  -->
<!DOCTYPE svg PUBLIC "-//W3C//DTD SVG 1.1//EN" "http://www.w3.org/Graphics/SVG/1.1/DTD/svg11.dtd">
<svg version="1.1" id="Layer_1" xmlns="http://www.w3.org/2000/svg" xmlns:xlink="http://www.w3.org/1999/xlink" x="0px" y="0px"
	 width="86.373px" height="81.222px" viewBox="0 0 86.373 81.222" enable-background="new 0 0 86.373 81.222" xml:space="preserve">
<g>
	<path fill="none" d="M71.083,70.303h-0.037c-1.407,0-2.711-0.398-3.863-1.077l-7.397,4.268l0.008,1.504
		c0.005,1.16,0.568,1.86,0.774,2.004l21.094-0.098c0.204-0.146,0.76-0.85,0.754-2.01l-0.007-1.507l-7.437-4.198
		C73.796,69.896,72.477,70.303,71.083,70.303z"/>
	<path fill="none" d="M42.935,38.513c-3.014,0.016-5.762,1.206-7.89,3.354c-2.129,2.148-3.314,4.993-3.299,8.009
		c0.029,6.207,5.082,11.258,11.289,11.259c6.289-0.03,11.298-5.128,11.269-11.365C54.274,43.57,48.924,38.526,42.935,38.513z
		 M35.792,51.837l-0.016-3.183l3.182-0.016l0.016,3.183L35.792,51.837z M41.558,51.81l-0.016-3.183l3.182-0.016l0.016,3.183
		L41.558,51.81z M47.822,51.78l-0.016-3.183l3.183-0.016l0.016,3.183L47.822,51.78z"/>
	<path fill="none" d="M71.023,66.318c1.748-0.008,2.799-1.116,3.395-2.045c0.794-1.237,1.201-2.927,1.193-4.636
		c-0.02-4.165-0.701-5.308-4.696-5.309v0.001c-3.662,0.017-4.578,1.167-4.559,5.352C66.372,62.898,68.006,66.318,71.023,66.318z"/>
	<path fill="none" d="M15.138,66.581c3.051-0.015,4.583-3.453,4.567-6.682c-0.02-4.143-0.789-5.294-4.728-5.308
		c-3.651,0.021-4.492,1.173-4.472,5.353C10.521,63.161,12.12,66.581,15.138,66.581z"/>
	<path fill="none" d="M4.75,77.255l21.092-0.105c0.205-0.146,0.761-0.866,0.756-2.026l-0.008-1.541l-7.434-4.26
		c-1.156,0.693-2.471,0.98-3.893,0.98h-0.037c-1.406,0-2.71-0.268-3.861-0.947l-7.397,4.392l0.008,1.508
		C3.98,76.415,4.544,77.111,4.75,77.255z"/>
	<path fill="none" d="M32.421,26.643l21.094-0.087c0.205-0.146,0.76-0.825,0.754-1.986l-0.007-1.461l-7.434-4.103
		c-1.156,0.693-2.47,1.297-3.892,1.297h-0.037c-1.407,0-2.712-0.582-3.864-1.261l-7.396,4.077l0.008,1.513
		C31.652,25.793,32.215,26.499,32.421,26.643z"/>
	<path fill="none" d="M42.895,15.947c1.748-0.008,2.818-1.116,3.414-2.044c0.795-1.238,1.238-2.928,1.23-4.637
		C47.52,5.1,46.91,3.958,42.91,3.958V3.311l-0.063,0.648c-1.886,0.008-3.006,0.345-3.663,1.091c-0.677,0.77-0.976,2.083-0.965,4.261
		C38.233,12.527,39.876,15.947,42.895,15.947z"/>
	<path fill="#FAD64E" d="M62.841,13.196l-4.967,0.024l0.02,3.957l4.993-0.023c3.291,0,5.979,2.677,5.994,5.967l0.109,22.901
		l3.958-0.02l-0.108-22.9C72.814,17.641,68.35,13.196,62.841,13.196z"/>
	<path fill="#FAD64E" d="M22.97,13.384c-5.488,0.026-9.932,4.513-9.906,10l0.108,22.901l3.958-0.02l-0.107-22.9
		c-0.016-3.306,2.661-6.008,5.966-6.023l4.967-0.024l-0.02-3.957L22.97,13.384z"/>
	
		<rect x="33.603" y="77.082" transform="matrix(-1 0.0048 -0.0048 -1 86.8058 157.9148)" fill="#FAD64E" width="19.222" height="3.958"/>
	
		<rect x="41.549" y="48.62" transform="matrix(-0.0049 -1 1 -0.0049 -6.8574 93.5971)" fill="#FAD64E" width="3.183" height="3.182"/>
	
		<rect x="35.784" y="48.647" transform="matrix(-0.0049 -1 1 -0.0049 -12.6787 87.859)" fill="#FAD64E" width="3.183" height="3.182"/>
	
		<rect x="47.814" y="48.59" transform="matrix(-0.0049 -1 1 -0.0049 -0.5322 99.8327)" fill="#FAD64E" width="3.183" height="3.183"/>
	<path fill="#FAD64E" d="M27.688,24.645c0.016,3.222,2.145,5.944,4.648,5.944l21.282-0.1c2.514-0.013,4.623-2.755,4.608-5.988
		l-0.019-3.806l-8.477-4.791c1.131-1.802,1.79-4.094,1.778-6.656C51.491,5.278,50.58,0,42.843,0
		c-3.385,0.017-5.795,1.07-7.163,3.134c-1.288,1.941-1.426,4.466-1.418,6.195c0.012,2.56,0.693,4.847,1.842,6.638l-8.432,4.872
		L27.688,24.645z M39.184,5.05c0.657-0.746,1.777-1.083,3.663-1.091l0.063-0.648v0.647c4,0,4.609,1.142,4.629,5.309
		c0.008,1.709-0.436,3.398-1.23,4.637c-0.596,0.928-1.666,2.036-3.414,2.044c-3.019,0-4.661-3.42-4.676-6.637
		C38.208,7.133,38.507,5.819,39.184,5.05z M39.035,19.042c1.152,0.679,2.457,1.261,3.864,1.261h0.037
		c1.422,0,2.735-0.604,3.892-1.297l7.434,4.103l0.007,1.461c0.006,1.161-0.549,1.84-0.754,1.986l-21.094,0.087
		c-0.206-0.144-0.769-0.85-0.773-2.011l-0.008-1.513L39.035,19.042z"/>
	<path fill="#FAD64E" d="M0.018,75.277c0.016,3.222,2.144,5.944,4.647,5.944l21.281-0.1c2.515-0.013,4.625-2.755,4.61-5.988
		l-0.018-3.807l-8.479-4.79c1.131-1.801,1.79-4.094,1.778-6.655c-0.019-3.971-0.929-9.249-8.668-9.249
		c-7.729,0.037-8.598,5.342-8.58,9.329c0.013,2.56,0.693,4.847,1.842,6.638L0,71.471L0.018,75.277z M14.978,54.592
		c3.938,0.014,4.708,1.165,4.728,5.308c0.016,3.229-1.517,6.667-4.567,6.682c-3.018,0-4.617-3.42-4.632-6.637
		C10.485,55.765,11.326,54.612,14.978,54.592z M11.365,69.355c1.151,0.68,2.455,0.947,3.861,0.947h0.037
		c1.422,0,2.736-0.287,3.893-0.98l7.434,4.26l0.008,1.541c0.005,1.16-0.551,1.88-0.756,2.026L4.75,77.255
		c-0.206-0.144-0.77-0.84-0.774-2l-0.008-1.508L11.365,69.355z"/>
	<path fill="#FAD64E" d="M70.989,50.371c-3.385,0.017-5.795,1.07-7.163,3.133c-1.287,1.942-1.425,4.467-1.417,6.196
		c0.012,2.56,0.693,4.847,1.842,6.638l-8.433,4.871l0.017,3.807c0.016,3.222,2.145,5.943,4.648,5.943l21.281-0.1
		c1.236-0.006,2.444-0.682,3.314-1.854c0.842-1.133,1.301-2.601,1.294-4.134l-0.019-3.807l-8.476-4.79
		c1.161-1.85,1.789-4.17,1.777-6.656C79.638,55.649,78.728,50.371,70.989,50.371z M70.915,54.33L70.915,54.33
		c3.995,0,4.677,1.143,4.696,5.308c0.008,1.709-0.399,3.398-1.193,4.636c-0.596,0.929-1.646,2.037-3.395,2.045
		c-3.018,0-4.651-3.42-4.667-6.637C66.337,55.497,67.253,54.347,70.915,54.33z M82.408,73.387l0.007,1.507
		c0.006,1.16-0.55,1.863-0.754,2.01l-21.094,0.098c-0.206-0.144-0.77-0.844-0.774-2.004l-0.008-1.504l7.397-4.268
		c1.152,0.679,2.456,1.077,3.863,1.077h0.037c1.394,0,2.713-0.407,3.889-1.114L82.408,73.387z"/>
	<path fill="#FAD64E" d="M58.347,49.855c-0.04-8.379-6.89-15.249-15.342-15.249c-8.419,0.04-15.236,7-15.197,15.419
		c0.04,8.38,6.889,15.277,15.268,15.277h0.073C51.567,65.303,58.385,58.275,58.347,49.855z M43.035,61.135
		c-6.207-0.001-11.26-5.052-11.289-11.259c-0.016-3.016,1.17-5.86,3.299-8.009c2.128-2.148,4.876-3.339,7.89-3.354
		c5.989,0.014,11.34,5.058,11.369,11.257C54.333,56.007,49.324,61.104,43.035,61.135z"/>
</g>
</svg>
