<?xml version="1.0" encoding="utf-8"?>
<!-- Generator: Adobe Illustrator 16.0.0, SVG Export Plug-In . SVG Version: 6.00 Build 0)  -->
<!DOCTYPE svg PUBLIC "-//W3C//DTD SVG 1.1//EN" "http://www.w3.org/Graphics/SVG/1.1/DTD/svg11.dtd">
<svg version="1.1" id="Layer_1" xmlns="http://www.w3.org/2000/svg" xmlns:xlink="http://www.w3.org/1999/xlink" x="0px" y="0px"
	 width="89px" height="89.221px" viewBox="0 0 89 89.221" enable-background="new 0 0 89 89.221" xml:space="preserve">
<g>
	<path fill="none" d="M73.851,74.682c3.333,0,5.131-3.713,5.131-7.206c0-4.518-1.15-5.823-5.131-5.823
		c-3.981,0-5.132,1.306-5.132,5.823C68.719,70.969,70.517,74.682,73.851,74.682z"/>
	<path fill="none" d="M44.808,74.682c3.334,0,5.132-3.713,5.132-7.206c0-4.518-1.15-5.823-5.132-5.823s-5.132,1.306-5.132,5.823
		C39.676,70.969,41.474,74.682,44.808,74.682z"/>
	<path fill="none" d="M17.148,3.567c-2.83,0-5.133,2.302-5.133,5.131c0,2.83,2.303,5.132,5.133,5.132
		c2.829,0,5.131-2.302,5.131-5.132C22.279,5.869,19.978,3.567,17.148,3.567z"/>
	<path fill="none" d="M4.891,85.748l80.076-0.003c0.21-0.06,1.033-0.92,1.033-2.365v-1.731l-8.02-4.567
		c-1.198,0.746-2.597,1.168-4.081,1.168s-2.806-0.422-4.005-1.168L62,81.649v2.571h-4v-2.505l-9.256-4.663
		c-1.209,0.765-2.527,1.196-4.031,1.196s-2.988-0.432-4.197-1.196L31,81.717v2.504h-3v-2.572l-8.088-4.567
		c-1.197,0.746-2.663,1.168-4.147,1.168s-2.715-0.422-3.913-1.168L4,81.648v1.731C4,84.825,4.656,85.686,4.891,85.748z"/>
	<path fill="none" d="M15.765,74.682c3.334,0,5.132-3.713,5.132-7.206c0-4.518-1.15-5.823-5.132-5.823
		c-3.98,0-5.131,1.306-5.131,5.823C10.634,70.969,12.432,74.682,15.765,74.682z"/>
	<path fill="#FAD64E" d="M17.148,0c-4.797,0-8.699,3.902-8.699,8.698s3.902,8.698,8.699,8.698c4.796,0,8.697-3.902,8.697-8.698
		S21.944,0,17.148,0z M17.148,13.83c-2.83,0-5.133-2.302-5.133-5.132c0-2.829,2.303-5.131,5.133-5.131
		c2.829,0,5.131,2.302,5.131,5.131C22.279,11.528,19.978,13.83,17.148,13.83z"/>
	<path fill="#FAD64E" d="M89,5.221H32v4h53v40H29v-18h22v-12H11.615C5.294,19.221,0,24.505,0,30.826v22.395h12v-14H8v11H4V30.826
		c0-4.354,3.261-7.605,7.615-7.605H47v4H25v26h64V5.221z"/>
	<path fill="#FAD64E" d="M4.7,89.221h80.215c2.466,0,4.085-2.625,4.085-5.841v-3.801l-8.678-5.091
		c1.254-1.858,2.11-4.285,2.11-7.013c0-4.03-0.844-9.39-8.64-9.39c-7.797,0-8.671,5.359-8.671,9.39c0,2.728,0.756,5.154,2.01,7.013
		l-7.175,4.104l-8.385-4.194c1.216-1.847,1.932-4.24,1.932-6.923c0-4.03-0.901-9.39-8.697-9.39s-8.697,5.359-8.697,9.39
		c0,2.683,0.714,5.076,1.93,6.923l-8.389,4.194l-7.182-4.104c1.254-1.858,1.995-4.285,1.995-7.013c0-4.03-0.902-9.39-8.699-9.39
		c-7.796,0-8.698,5.359-8.698,9.39c0,2.728,0.664,5.154,1.918,7.013L0,79.579v3.801C0,86.596,2.234,89.221,4.7,89.221z
		 M73.851,61.652c3.98,0,5.131,1.306,5.131,5.823c0,3.493-1.798,7.206-5.131,7.206c-3.334,0-5.132-3.713-5.132-7.206
		C68.719,62.958,69.869,61.652,73.851,61.652z M44.808,61.652c3.981,0,5.132,1.306,5.132,5.823c0,3.493-1.798,7.206-5.132,7.206
		s-5.132-3.713-5.132-7.206C39.676,62.958,40.826,61.652,44.808,61.652z M15.765,61.652c3.981,0,5.132,1.306,5.132,5.823
		c0,3.493-1.798,7.206-5.132,7.206c-3.333,0-5.131-3.713-5.131-7.206C10.634,62.958,11.784,61.652,15.765,61.652z M4,81.648
		l7.852-4.567c1.198,0.746,2.429,1.168,3.913,1.168s2.95-0.422,4.147-1.168L28,81.648v2.572h3v-2.504l9.516-4.664
		c1.209,0.765,2.693,1.196,4.197,1.196s2.822-0.432,4.031-1.196L58,81.716v2.505h4v-2.571l7.895-4.568
		c1.199,0.746,2.521,1.168,4.005,1.168s2.883-0.422,4.081-1.168L86,81.648v1.731c0,1.445-0.823,2.306-1.033,2.365L4.891,85.748
		C4.656,85.686,4,84.825,4,83.38V81.648z"/>
	<rect x="15" y="27.221" fill="#FAD64E" width="4" height="3"/>
	<rect x="15" y="32.221" fill="#FAD64E" width="4" height="4"/>
</g>
</svg>
