<?xml version="1.0" encoding="utf-8"?>
<!-- Generator: Adobe Illustrator 16.0.0, SVG Export Plug-In . SVG Version: 6.00 Build 0)  -->
<!DOCTYPE svg PUBLIC "-//W3C//DTD SVG 1.1//EN" "http://www.w3.org/Graphics/SVG/1.1/DTD/svg11.dtd">
<svg version="1.1" id="Layer_1" xmlns="http://www.w3.org/2000/svg" xmlns:xlink="http://www.w3.org/1999/xlink" x="0px" y="0px"
	 width="64px" height="64px" viewBox="0 0 64 64" enable-background="new 0 0 64 64" xml:space="preserve">
<g>
	<path fill="#363F40" d="M32,49.938c-0.225,0-0.449-0.075-0.633-0.226C30.902,49.331,20,40.314,20,31.938c0-6.617,5.383-12,12-12
		s12,5.383,12,12c0,8.377-10.902,17.394-11.367,17.774C32.449,49.862,32.225,49.938,32,49.938 M32,21.938c-5.514,0-10,4.486-10,10
		c0,6.358,7.71,13.654,10,15.68c2.29-2.025,10-9.321,10-15.68C42,26.424,37.514,21.938,32,21.938"/>
	<path fill="#363F40" d="M32,37.938c-3.309,0-6-2.691-6-6s2.691-6,6-6s6,2.691,6,6S35.309,37.938,32,37.938 M32,27.938
		c-2.206,0-4,1.794-4,4s1.794,4,4,4s4-1.794,4-4S34.206,27.938,32,27.938"/>
</g>
</svg>
