<?xml version="1.0" encoding="utf-8"?>
<!-- Generator: Adobe Illustrator 21.0.0, SVG Export Plug-In . SVG Version: 6.00 Build 0)  -->
<svg version="1.1" id="Слой_1" xmlns="http://www.w3.org/2000/svg" xmlns:xlink="http://www.w3.org/1999/xlink" x="0px" y="0px"
	 viewBox="0 0 15.4 9.8" enable-background="new 0 0 15.4 9.8" xml:space="preserve">
<path fill="#FED540" d="M10.2,0.2C10.1,0.1,9.9,0,9.7,0S9.3,0.1,9.2,0.2C9.1,0.3,9,0.5,9,0.7c0,0.2,0.1,0.4,0.2,0.5l3.1,2.9H0.8
	C0.3,4.1,0,4.5,0,4.9c0,0.4,0.3,0.8,0.8,0.8h11.5L9.2,8.6C9.1,8.7,9,8.9,9,9.1s0.1,0.4,0.2,0.5c0.1,0.1,0.3,0.2,0.5,0.2
	s0.4-0.1,0.5-0.2l5.2-4.7L10.2,0.2z"/>
</svg>
