<?xml version="1.0" encoding="utf-8"?>
<!-- Generator: Adobe Illustrator 19.1.0, SVG Export Plug-In . SVG Version: 6.00 Build 0)  -->
<svg version="1.1" id="Layer_1" xmlns="http://www.w3.org/2000/svg" xmlns:xlink="http://www.w3.org/1999/xlink" x="0px" y="0px"
	 viewBox="0 0 10 16.8" style="enable-background:new 0 0 10 16.8;" xml:space="preserve">
<style type="text/css">
	.st0{fill:#FFFFFF;}
</style>
<g>
	<path class="st0" d="M0,11.9V6.2c0,0,0,0,0-0.1C0.1,5.5,0.6,5,1.2,5c0.3,0,0.5,0.1,0.7,0.2V2.4c0,0,0,0,0-0.1
		C2,1.7,2.5,1.2,3.1,1.2c0.3,0,0.5,0.1,0.7,0.2V1.1c0,0,0,0,0-0.1C3.9,0.5,4.4,0,5,0c0.6,0,1.1,0.5,1.2,1.1c0,0,0,0,0,0.1v0.3
		c0.2-0.1,0.4-0.2,0.7-0.2c0.6,0,1.1,0.5,1.2,1.1c0,0,0,0,0,0.1v1c0.2-0.1,0.4-0.2,0.7-0.2c0.6,0,1.1,0.5,1.2,1.1c0,0,0,0,0,0.1v7.7
		c0,2.7-2.2,4.9-5,4.9C2.2,16.8,0,14.6,0,11.9z M9.5,4.3c0-0.4-0.3-0.6-0.7-0.6S8.1,3.9,8.1,4.3c0,0,0,0,0,0v4.1
		c0,0.1-0.1,0.3-0.3,0.3S7.6,8.5,7.6,8.4v-6c0,0,0,0,0,0c0-0.4-0.3-0.6-0.7-0.6S6.2,2,6.2,2.4c0,0,0,0,0,0v6c0,0.1-0.1,0.3-0.3,0.3
		c-0.1,0-0.3-0.1-0.3-0.3V1.2c0,0,0,0,0,0c0-0.4-0.3-0.6-0.7-0.6S4.3,0.8,4.3,1.1c0,0,0,0,0,0v7.2c0,0.1-0.1,0.3-0.3,0.3
		S3.8,8.5,3.8,8.4v-6c0,0,0,0,0,0c0-0.4-0.3-0.6-0.7-0.6C2.7,1.8,2.4,2,2.4,2.4c0,0,0,0,0,0v3.7c0,0,0,0,0,0c0,0,0,0,0,0v2.2
		c0,0.1-0.1,0.3-0.3,0.3C2,8.6,1.9,8.5,1.9,8.4V6.2c0,0,0,0,0,0c0-0.4-0.3-0.6-0.7-0.6S0.5,5.8,0.5,6.2c0,0,0,0,0,0v5.7
		c0,2.4,2,4.4,4.5,4.4s4.5-2,4.5-4.4L9.5,4.3C9.5,4.3,9.5,4.3,9.5,4.3z"/>
</g>
</svg>
