<?xml version="1.0" encoding="utf-8"?>
<!-- Generator: Adobe Illustrator 16.0.0, SVG Export Plug-In . SVG Version: 6.00 Build 0)  -->
<!DOCTYPE svg PUBLIC "-//W3C//DTD SVG 1.1//EN" "http://www.w3.org/Graphics/SVG/1.1/DTD/svg11.dtd">
<svg version="1.1" id="Layer_1" xmlns="http://www.w3.org/2000/svg" xmlns:xlink="http://www.w3.org/1999/xlink" x="0px" y="0px"
	 width="10px" height="16.818px" viewBox="363.811 333.426 10 16.818" enable-background="new 363.811 333.426 10 16.818"
	 xml:space="preserve">
<g>
	<path fill="#343434" d="M363.811,345.326v-5.738c0-0.025,0.004-0.05,0.011-0.073c0.066-0.596,0.581-1.055,1.196-1.055
		c0.255,0,0.493,0.08,0.689,0.216v-2.881c0-0.021,0.003-0.042,0.008-0.062c0.065-0.599,0.584-1.062,1.2-1.062
		c0.255,0,0.493,0.079,0.689,0.215v-0.332c0-0.023,0.003-0.045,0.009-0.066c0.065-0.599,0.582-1.061,1.197-1.061
		c0.617,0,1.134,0.462,1.198,1.062c0.005,0.021,0.009,0.043,0.009,0.065v0.332c0.196-0.136,0.435-0.216,0.69-0.216
		c0.614,0,1.13,0.46,1.196,1.057c0.007,0.022,0.01,0.045,0.01,0.069v0.954c0.196-0.136,0.436-0.216,0.691-0.216
		c0.617,0,1.135,0.465,1.198,1.067c0.004,0.019,0.007,0.04,0.007,0.06v7.666c0,2.712-2.243,4.918-4.999,4.918
		C366.054,350.244,363.812,348.038,363.811,345.326z M373.293,337.678c-0.024-0.353-0.326-0.629-0.688-0.629
		c-0.362,0-0.665,0.276-0.688,0.629c-0.001,0.007-0.001,0.014-0.003,0.021v4.093c0,0.143-0.115,0.258-0.258,0.258
		s-0.258-0.116-0.258-0.258v-5.951c-0.002-0.009-0.003-0.019-0.004-0.028c-0.023-0.352-0.325-0.627-0.687-0.627
		s-0.664,0.276-0.688,0.627c-0.001,0.006-0.001,0.012-0.002,0.017v5.961c0,0.143-0.116,0.258-0.258,0.258
		c-0.143,0-0.259-0.116-0.259-0.258v-7.195c-0.001-0.008-0.002-0.017-0.003-0.026c-0.022-0.353-0.325-0.628-0.687-0.628
		c-0.362,0-0.664,0.276-0.688,0.628c-0.001,0.01-0.002,0.019-0.004,0.028v7.193c0,0.143-0.115,0.258-0.258,0.258
		s-0.258-0.116-0.258-0.258v-5.961c-0.001-0.005-0.001-0.011-0.002-0.017c-0.025-0.352-0.327-0.627-0.687-0.627
		c-0.362,0-0.666,0.276-0.69,0.627c0,0.008-0.001,0.015-0.003,0.022v3.687c0,0.011,0,0.022-0.002,0.033
		c0.002,0.011,0.002,0.021,0.002,0.033v2.204c0,0.143-0.115,0.258-0.258,0.258c-0.142,0-0.258-0.116-0.258-0.258v-2.166
		c-0.001-0.007-0.002-0.014-0.002-0.021c-0.024-0.353-0.326-0.629-0.688-0.629c-0.362,0-0.664,0.275-0.687,0.628
		c0,0.012-0.002,0.023-0.004,0.035v5.688c0,2.427,2.011,4.402,4.483,4.402s4.483-1.975,4.483-4.402v-7.628
		C373.294,337.691,373.293,337.685,373.293,337.678z"/>
</g>
<text transform="matrix(1 0 0 1 2.441406e-04 733.4688)" font-family="'HelveticaNeue-Bold'" font-size="29.764">Created by Rafa Goicoechea</text>
<text transform="matrix(1 0 0 1 2.441406e-04 763.2305)" font-family="'HelveticaNeue-Bold'" font-size="29.764">from the Noun Project</text>
</svg>
