<?xml version="1.0" encoding="utf-8"?>
<!-- Generator: Adobe Illustrator 19.1.0, SVG Export Plug-In . SVG Version: 6.00 Build 0)  -->
<svg version="1.1" id="Layer_1" xmlns="http://www.w3.org/2000/svg" xmlns:xlink="http://www.w3.org/1999/xlink" x="0px" y="0px"
	 viewBox="20 19.9 24 30" style="enable-background:new 20 19.9 24 30;" xml:space="preserve">
<style type="text/css">
	.st0{fill:#FFC20E;}
</style>
<g>
	<path class="st0" d="M32,49.9c-0.2,0-0.4-0.1-0.6-0.2C30.9,49.3,20,40.3,20,31.9c0-6.6,5.4-12,12-12c6.6,0,12,5.4,12,12
		c0,8.4-10.9,17.4-11.4,17.8C32.4,49.9,32.2,49.9,32,49.9 M32,21.9c-5.5,0-10,4.5-10,10c0,6.4,7.7,13.7,10,15.7
		c2.3-2,10-9.3,10-15.7C42,26.4,37.5,21.9,32,21.9"/>
	<path class="st0" d="M32,37.9c-3.3,0-6-2.7-6-6c0-3.3,2.7-6,6-6c3.3,0,6,2.7,6,6C38,35.2,35.3,37.9,32,37.9 M32,27.9
		c-2.2,0-4,1.8-4,4c0,2.2,1.8,4,4,4c2.2,0,4-1.8,4-4C36,29.7,34.2,27.9,32,27.9"/>
</g>
</svg>
