<?xml version="1.0" encoding="utf-8"?>
<!-- Generator: Adobe Illustrator 19.1.0, SVG Export Plug-In . SVG Version: 6.00 Build 0)  -->
<svg version="1.1" id="Layer_1" xmlns="http://www.w3.org/2000/svg" xmlns:xlink="http://www.w3.org/1999/xlink" x="0px" y="0px"
	 viewBox="0 0 108.5 100.1" style="enable-background:new 0 0 108.5 100.1;" xml:space="preserve">
<g>
	<path d="M107.2,26.3l-25-25C81.4,0.4,80.4,0,79.3,0c-0.5,0-1.1,0.1-1.6,0.3c-1.7,0.7-2.5,2-2.5,3.8v12.5H64.7
		c-4.6,0-8.9,0.2-12.8,0.7c-3.9,0.5-7.4,1.1-10.4,2c-3,0.8-5.7,1.9-8.1,3.2c-2.4,1.3-4.5,2.6-6.2,4c-1.7,1.4-3.2,3-4.5,4.8
		c-1.3,1.8-2.3,3.6-3.1,5.3c-0.8,1.7-1.4,3.7-1.8,5.7c-0.5,2.1-0.8,4-0.9,5.9c-0.2,1.8-0.2,3.8-0.2,5.9c0,2.4,0.4,5.1,1.1,7.9
		c0.8,2.9,1.6,5.3,2.5,7.4c0.9,2.1,2,4.2,3.2,6.5c1.2,2.2,2.1,3.7,2.6,4.5c0.5,0.7,0.9,1.4,1.4,2c0.4,0.6,1,0.8,1.7,0.8
		c0.2,0,0.4,0,0.8-0.1c1-0.5,1.4-1.2,1.3-2.2c-2-14.6-0.3-24.9,4.8-30.8c5-5.7,14.5-8.5,28.5-8.5h10.4v12.5c0,1.8,0.8,3.1,2.5,3.8
		c0.6,0.2,1.1,0.3,1.6,0.3c1.2,0,2.1-0.4,2.9-1.2l25-25c0.8-0.8,1.2-1.8,1.2-2.9S108,27.1,107.2,26.3L107.2,26.3z M107.2,26.3"/>
	<path d="M90.4,62.6c-0.8-0.3-1.6-0.2-2.3,0.5c-1.1,1-2.3,1.8-3.5,2.4c-0.8,0.4-1.2,1.1-1.2,1.9v13.9c0,2.9-1,5.3-3.1,7.4
		c-2,2-4.5,3.1-7.4,3.1H18.8c-2.9,0-5.3-1-7.4-3.1c-2-2-3.1-4.5-3.1-7.4V27.1c0-2.9,1-5.3,3.1-7.4c2-2,4.5-3.1,7.4-3.1h7.3
		c0.3,0,0.6-0.1,1-0.3c2.4-1.5,5.3-2.8,8.7-3.9c1.1-0.2,1.7-0.9,1.7-2.1c0-0.6-0.2-1.1-0.6-1.5c-0.4-0.4-0.9-0.6-1.5-0.6H18.8
		c-5.2,0-9.6,1.8-13.3,5.5C1.8,17.5,0,21.9,0,27.1v54.2c0,5.2,1.8,9.6,5.5,13.3c3.7,3.7,8.1,5.5,13.3,5.5H73c5.2,0,9.6-1.8,13.3-5.5
		c3.7-3.7,5.5-8.1,5.5-13.3V64.5C91.8,63.6,91.3,63,90.4,62.6L90.4,62.6z M90.4,62.6"/>
</g>
</svg>
