<?xml version="1.0" encoding="utf-8"?>
<!-- Generator: Adobe Illustrator 19.1.0, SVG Export Plug-In . SVG Version: 6.00 Build 0)  -->
<svg version="1.1" id="Layer_1" xmlns="http://www.w3.org/2000/svg" xmlns:xlink="http://www.w3.org/1999/xlink" x="0px" y="0px"
	 viewBox="0 0 83.4 100.1" style="enable-background:new 0 0 83.4 100.1;" xml:space="preserve">
<g>
	<path d="M82.1,29.7c-0.9-2.1-1.9-3.7-3.1-5L58.7,4.4c-1.2-1.2-2.9-2.3-5-3.1C51.6,0.4,49.7,0,48,0H6.3C4.5,0,3,0.6,1.8,1.8
		C0.6,3,0,4.5,0,6.3v87.6c0,1.7,0.6,3.2,1.8,4.4c1.2,1.2,2.7,1.8,4.4,1.8h70.9c1.7,0,3.2-0.6,4.4-1.8c1.2-1.2,1.8-2.7,1.8-4.4V35.5
		C83.4,33.7,83,31.8,82.1,29.7L82.1,29.7z M50.1,8.9c1.3,0.4,2.1,0.9,2.7,1.4l20.4,20.4c0.5,0.5,1,1.4,1.4,2.7H50.1V8.9z M75.1,91.8
		H8.3V8.3h33.4v27.1c0,1.7,0.6,3.2,1.8,4.4c1.2,1.2,2.7,1.8,4.4,1.8h27.1V91.8z M75.1,91.8"/>
</g>
</svg>
