<?xml version="1.0" encoding="utf-8"?>
<!-- Generator: Adobe Illustrator 19.1.0, SVG Export Plug-In . SVG Version: 6.00 Build 0)  -->
<svg version="1.1" id="Layer_1" xmlns="http://www.w3.org/2000/svg" xmlns:xlink="http://www.w3.org/1999/xlink" x="0px" y="0px"
	 viewBox="0 0 68 68" style="enable-background:new 0 0 68 68;" xml:space="preserve">
<g>
	<g>
		<path d="M24,49.8V18.4l27.2,15.7L24,49.8z M25.9,21.6v25.1l21.7-12.5L25.9,21.6z"/>
	</g>
	<g>
		<path d="M34.1,68.1c-18.8,0-34-15.3-34-34c0-18.8,15.3-34,34-34s34,15.3,34,34C68.1,52.8,52.8,68.1,34.1,68.1z M34.1,1.9
			C16.4,1.9,1.9,16.4,1.9,34.1c0,17.7,14.4,32.2,32.2,32.2s32.2-14.4,32.2-32.2C66.3,16.4,51.8,1.9,34.1,1.9z"/>
	</g>
</g>
</svg>
