<?xml version="1.0" encoding="utf-8"?>
<!-- Generator: Adobe Illustrator 19.1.0, SVG Export Plug-In . SVG Version: 6.00 Build 0)  -->
<svg version="1.1" id="Layer_4" xmlns="http://www.w3.org/2000/svg" xmlns:xlink="http://www.w3.org/1999/xlink" x="0px" y="0px"
	 viewBox="0 0 745.7 335" style="enable-background:new 0 0 745.7 335;" xml:space="preserve">
<style type="text/css">
	.st0{fill:none;}
	.st1{fill:#2A2A2A;}
</style>
<polygon class="st0" points="245,17.5 245,119 345,119 345,20.4 296.3,76.4 "/>
<path class="st0" d="M396.9,14H361v105h35.8c1.1,0,14.6-0.5,27.7-7.3c17.4-9.1,26.2-24.7,26.2-46.3C450.7,15.2,399.1,14,396.9,14z"
	/>
<polygon class="st0" points="551.7,119 498.3,30.8 447,119 "/>
<path class="st1" d="M434,61.4C431.7,13.7,389.2,1,366.3,0h-53.8l-47.4,54.6L217.6,0H200v133h166.3h25.9h12.1h141.4L467.5,3.7
	L434,61.4z M314,119H214V17.5l51.3,59l48.7-56V119z M393.9,111.7c-13.1,6.9-26.6,7.3-27.7,7.3H330V14h36.3c2.2,0,53.9,1.2,53.9,51.4
	C420.1,86.9,411.3,102.6,393.9,111.7z M521.1,119H416.4l51.3-88.2L521.1,119z"/>
<g>
	<path class="st0" d="M454,210.2c-9.7,0-16.5,7.4-16.5,16c0,9.1,6.8,16,16.5,16c9.1,0.6,16.5-6.3,16.5-16
		C470.5,217,463.7,210.2,454,210.2z"/>
	<path class="st0" d="M295,226.1c0-9.1-6.8-16-16.5-16c-9.7,0-16.5,7.4-16.5,16c0,9.1,6.8,16,16.5,16
		C288.1,242.7,295,235.8,295,226.1z"/>
	<polygon class="st1" points="209.5,229.9 193,202 183,202 183,251 193,251 193,219.9 206.1,242 212.9,242 226,219.9 226,251 
		237,251 237,202 226,202 	"/>
	<path class="st1" d="M278.5,251.2c16,0,27.9-10.3,27.9-25.1c0-14.8-12-25.1-27.9-25.1c-16.5,0-27.9,10.3-27.9,25.1
		C250.5,241,261.9,251.8,278.5,251.2z M261.9,226.1c0-8.5,6.8-16,16.5-16c9.7,0,16.5,6.8,16.5,16c0,9.7-6.8,16.5-16.5,16
		C268.8,242.1,261.9,235.3,261.9,226.1z"/>
	<path class="st1" d="M338.3,222.2c-6.3-2.3-9.1-4-9.1-6.8c0.6-3.4,2.9-5.1,6.8-5.1c3.4,0,7.4,1.1,12,4.6l6.3-7.4
		c-5.1-4-11.4-6.3-18.2-6.3c-9.7,0.6-17.7,6.3-17.7,14.2c0,9.1,8.5,12.5,16.5,15.4c6.8,1.7,9.7,3.4,9.7,6.8c0,2.8-2.8,5.1-8,5.1
		c-4.6,0-9.7-2.3-13.7-6.3l-6.3,7.4c5.7,5.1,12.5,8,19.4,8.5c9.1,0,19.4-4.6,19.4-15.4C355.4,227.8,348,225.6,338.3,222.2z"/>
	<path class="st1" d="M394.1,251.8c9.7,0,17.1-4.6,21.7-8.5l-8-6.3c-2.9,3.4-8,6.3-13.7,6.3c-9.7,0-16.5-6.8-16.5-16
		c0-9.7,6.8-16,16.5-16c5.7,0,10.3,2.9,13.7,6.3l8-6.3c-5.7-6.8-14.2-9.7-21.7-9.7c-17.7,0-27.9,10.8-27.9,25.1
		C366.2,243.2,379.3,251.8,394.1,251.8z"/>
	<path class="st1" d="M481.9,226.1c0-14.8-12-25.1-27.9-25.1c-16.5,0-27.9,10.3-27.9,25.1c0,14.8,11.4,25.6,27.9,25.1
		C469.9,251.2,481.9,241,481.9,226.1z M454,242.1c-9.7,0-16.5-6.8-16.5-16c0-8.5,6.8-16,16.5-16c9.7,0,16.5,6.8,16.5,16
		C470.5,235.8,463.1,242.7,454,242.1z"/>
	<polygon class="st1" points="546.3,251 563.4,202 551.4,202 540.6,235.1 530.9,202 519.5,202 509.8,235.1 499,202 487.6,202 
		504.7,251 514.9,251 525.8,216.2 536,251 	"/>
</g>
<g>
	<polygon class="st0" points="235.1,316 249.9,316 242.5,296.6 	"/>
	<path class="st0" d="M18.5,294H10v31h8c10.8,0,17.7-6.4,17.7-15.5S28.8,294,18.5,294z"/>
	<polygon class="st0" points="364.4,316 379.2,316 371.8,296.6 	"/>
	<path class="st0" d="M540.5,294H532v31h7.9c10.8,0,17.7-6.4,17.7-15.5S550.8,294,540.5,294z"/>
	<polygon class="st0" points="478.4,316 493.2,316 485.8,296.6 	"/>
	<path class="st1" d="M18.5,285H0v49h19.1c17.1,0,27.9-10.3,27.9-24.5S35.6,285,18.5,285z M18,325h-8v-31h8.5
		c10.3,0,17.1,6.4,17.1,15.5S28.8,325,18,325z"/>
	<rect x="60" y="285" class="st1" width="11" height="49"/>
	<path class="st1" d="M112,316h12v7c-4,2.3-6.6,2.9-10.6,2.9c-10.3,0-16.4-6.8-16.4-16c0-9.7,6.9-16,16-16c6.3,0,10.8,2.3,14.3,5.1
		l7.4-5.7c-5.7-5.7-13.7-8.5-21.6-8.5c-17.1,0-27.3,10.8-27.3,25.1c0,16,12.1,25.1,28,25.1c8.5,0,15.2-2.8,21.2-6.8V307h-23V316z"/>
	<rect x="149" y="285" class="st1" width="12" height="49"/>
	<polygon class="st1" points="173,294 188,294 188,334 198,334 198,294 215,294 215,285 173,285 	"/>
	<path class="st1" d="M236.8,285l-20,49h11.4l4-9h21.1l2.8,9h11.4L247,285H236.8z M235.1,316l7.4-19.4l7.4,19.4H235.1z"/>
	<polygon class="st1" points="289,285 279,285 279,334 315,334 315,325 289,325 	"/>
	<path class="st1" d="M365.6,285l-19.9,49H357l4-9h21.1l2.8,9h11.4l-20.5-49H365.6z M364.4,316l7.4-19.4l7.4,19.4H364.4z"/>
	<path class="st1" d="M431.1,294.5c5.7,0,10.3,2.8,13.7,6.3l8-6.3c-5.7-6.8-14.2-9.7-21.7-9.7c-17.7,0-27.9,10.8-27.9,25.1
		c0,16.5,13.1,25.1,27.9,25.1c9.7,0,17.1-4,21.7-8.5l-8-6.3c-2.8,3.4-8,6.3-13.7,6.3c-9.7,0-16.5-6.8-16.5-16
		C414.6,300.8,421.4,294.5,431.1,294.5z"/>
	<path class="st1" d="M480.1,285l-19.9,49h11.4l4-9h21.1l2.8,9h11.4l-20.5-49H480.1z M478.4,316l7.4-19.4l7.4,19.4H478.4z"/>
	<path class="st1" d="M540.5,285H522v49h19.1c17.1,0,27.9-10.3,27.9-24.5S557.6,285,540.5,285z M539.9,325H532v-31h8.5
		c10.3,0,17.1,6.4,17.1,15.5S550.8,325,539.9,325z"/>
	<polygon class="st1" points="592,314 613,314 613,305 592,305 592,294 617,294 617,285 581,285 581,334 618,334 618,325 592,325 	
		"/>
	<polygon class="st1" points="660.2,312.9 643.7,285 633,285 633,334 643,334 643,303.6 656.8,325 664.2,325 676,303.6 676,334 
		687,334 687,285 676.7,285 	"/>
	<polygon class="st1" points="732.5,285 721.7,302.7 710.9,285 698.4,285 716,312.8 716,334 726,334 726,312.8 745.7,285 	"/>
</g>
</svg>
