<?xml version="1.0" encoding="utf-8"?>
<!-- Generator: Adobe Illustrator 16.0.0, SVG Export Plug-In . SVG Version: 6.00 Build 0)  -->
<!DOCTYPE svg PUBLIC "-//W3C//DTD SVG 1.1//EN" "http://www.w3.org/Graphics/SVG/1.1/DTD/svg11.dtd">
<svg version="1.1" id="Layer_1" xmlns="http://www.w3.org/2000/svg" xmlns:xlink="http://www.w3.org/1999/xlink" x="0px" y="0px"
	 width="352.14px" height="78px" viewBox="0 380.445 352.14 78" enable-background="new 0 380.445 352.14 78" xml:space="preserve">
<g>
	<polygon fill="none" points="46.615,406.93 46.615,431.93 70.532,431.93 70.532,407.525 58.765,420.992 	"/>
	<polygon fill="none" points="220.19,430.534 223.602,430.534 221.896,426.072 	"/>
	<path fill="none" d="M82.25,406.83h-8.732v25.1h9.251c0.942-0.064,3.812-0.391,6.607-2.029c3.78-2.216,5.697-5.844,5.697-10.783
		C95.073,407.088,82.774,406.835,82.25,406.83z"/>
	<path fill="none" d="M199.061,406.125c-2.23,0-3.806,1.706-3.806,3.675c0,2.1,1.575,3.675,3.806,3.675
		c2.1,0.131,3.806-1.444,3.806-3.675C202.866,407.7,201.292,406.125,199.061,406.125z"/>
	<polygon fill="none" points="118.792,432.061 105.65,410.381 93.181,432.061 	"/>
	<path fill="none" d="M140.531,425.416h-1.706v7.35h1.574c2.494,0,4.068-1.575,4.068-3.675S142.893,425.416,140.531,425.416z"/>
	<polygon fill="none" points="190.4,430.534 193.812,430.534 192.106,426.072 	"/>
	<path fill="none" d="M162.447,409.8c0-2.1-1.575-3.675-3.806-3.675c-2.231,0-3.806,1.706-3.806,3.675
		c0,2.1,1.574,3.675,3.806,3.675C160.871,413.605,162.447,412.03,162.447,409.8z"/>
	<polygon fill="none" points="246.437,430.534 249.849,430.534 248.143,426.072 	"/>
	<path fill="none" d="M260.741,425.416h-1.706v7.35h1.574c2.494,0,4.068-1.575,4.068-3.675S263.104,425.416,260.741,425.416z"/>
	<path fill="#FACF4E" d="M97.529,419.566c0.004-0.148,0.005-0.298,0.005-0.449c0-7.551-4.194-11.175-7.713-12.885
		c-3.717-1.807-7.393-1.861-7.559-1.862H70.024l-11.248,12.872L47.654,404.37h-3.499v30.019h38.03
		c0.023,0.003,0.052,0.002,0.077,0.005v0.126h6.666h2.127h32.105l-17.566-28.976L97.529,419.566z M70.532,431.93H46.615v-25
		l12.15,14.062l11.768-13.467V431.93z M89.376,429.9c-2.796,1.639-5.665,1.965-6.607,2.029h-9.251v-25.1h8.732
		c0.523,0.005,12.823,0.258,12.823,12.287C95.073,424.057,93.156,427.685,89.376,429.9z M118.792,432.061H93.181l12.469-21.68
		L118.792,432.061z"/>
	<polygon fill="#2A2A2A" points="142.761,410.587 138.955,404.156 136.462,404.156 136.462,415.442 138.955,415.442 
		138.955,408.356 141.974,413.212 143.549,413.212 146.567,408.356 146.567,415.442 149.061,415.442 149.061,404.156 
		146.567,404.156 	"/>
	<path fill="#2A2A2A" d="M165.072,409.8c0-3.412-2.756-5.774-6.431-5.774c-3.806,0-6.431,2.362-6.431,5.774s2.625,5.905,6.431,5.774
		C162.316,415.574,165.072,413.212,165.072,409.8z M154.835,409.8c0-1.969,1.574-3.675,3.806-3.675c2.23,0,3.806,1.575,3.806,3.675
		c0,2.23-1.575,3.806-3.806,3.675C156.409,413.475,154.835,411.899,154.835,409.8z"/>
	<path fill="#2A2A2A" d="M172.42,408.881c-1.443-0.524-2.1-0.919-2.1-1.575c0.131-0.787,0.656-1.181,1.575-1.181
		c0.787,0,1.706,0.263,2.756,1.05l1.443-1.706c-1.182-0.919-2.625-1.443-4.199-1.443c-2.231,0.131-4.068,1.443-4.068,3.28
		c0,2.101,1.968,2.888,3.806,3.544c1.574,0.394,2.23,0.787,2.23,1.574c0,0.656-0.656,1.182-1.837,1.182
		c-1.05,0-2.231-0.525-3.149-1.443l-1.443,1.706c1.312,1.181,2.887,1.837,4.462,1.968c2.1,0,4.462-1.05,4.462-3.543
		C176.358,410.193,174.652,409.668,172.42,408.881z"/>
	<path fill="#2A2A2A" d="M185.281,415.705c2.23,0,3.937-1.05,4.986-1.969l-1.837-1.443c-0.656,0.787-1.837,1.443-3.149,1.443
		c-2.231,0-3.806-1.574-3.806-3.674c0-2.231,1.574-3.675,3.806-3.675c1.312,0,2.362,0.656,3.149,1.443l1.837-1.443
		c-1.312-1.575-3.28-2.231-4.986-2.231c-4.068,0-6.431,2.494-6.431,5.774C178.851,413.736,181.869,415.705,185.281,415.705z"/>
	<path fill="#2A2A2A" d="M205.491,409.8c0-3.412-2.756-5.774-6.431-5.774c-3.806,0-6.431,2.362-6.431,5.774s2.625,5.905,6.431,5.774
		C202.736,415.574,205.491,413.212,205.491,409.8z M199.061,413.475c-2.23,0-3.806-1.575-3.806-3.675
		c0-1.969,1.575-3.675,3.806-3.675c2.231,0,3.806,1.575,3.806,3.675C202.866,412.03,201.16,413.605,199.061,413.475z"/>
	<polygon fill="#2A2A2A" points="220.321,415.442 224.258,404.156 221.502,404.156 219.009,411.769 216.778,404.156 
		214.153,404.156 211.922,411.769 209.429,404.156 206.804,404.156 210.74,415.442 213.103,415.442 215.597,407.438 
		217.958,415.442 	"/>
	<path fill="#2A2A2A" d="M140.531,423.447h-4.2l0.132,11.287h4.199c3.938,0,6.431-2.362,6.431-5.644
		S144.467,423.447,140.531,423.447z M140.399,432.766h-1.574v-7.35h1.706c2.362,0,3.937,1.575,3.937,3.675
		S142.893,432.766,140.399,432.766z"/>
	<rect x="150.241" y="423.447" fill="#2A2A2A" width="2.494" height="11.287"/>
	<path fill="#2A2A2A" d="M162.316,425.416c1.443,0,2.493,0.525,3.28,1.182l1.706-1.312c-1.312-1.312-3.149-1.969-4.986-1.969
		c-3.938,0-6.3,2.493-6.3,5.774c0,3.675,2.756,5.774,6.431,5.774c1.969,0,3.806-0.656,4.855-1.575v-4.855h-5.249v1.969h2.887v1.706
		c-0.787,0.524-1.574,0.656-2.493,0.656c-2.362,0-3.806-1.575-3.806-3.675C158.641,426.859,160.215,425.416,162.316,425.416z"/>
	<rect x="170.846" y="423.447" fill="#2A2A2A" width="2.493" height="11.287"/>
	<polygon fill="#2A2A2A" points="176.226,425.416 179.638,425.416 179.638,434.734 182.132,434.734 182.132,425.416 
		185.675,425.416 185.675,423.447 176.226,423.447 	"/>
	<path fill="#2A2A2A" d="M190.793,423.447l-4.593,11.287h2.624l0.919-2.231h4.855l0.656,2.231h2.625l-4.725-11.287H190.793z
		 M190.4,430.534l1.706-4.462l1.706,4.462H190.4z"/>
	<polygon fill="#2A2A2A" points="203.129,423.447 200.636,423.447 200.636,434.734 208.773,434.734 208.773,432.766 
		203.129,432.766 	"/>
	<path fill="#2A2A2A" d="M220.452,423.447l-4.594,11.287h2.625l0.919-2.231h4.855l0.656,2.231h2.625l-4.725-11.287H220.452z
		 M220.19,430.534l1.706-4.462l1.706,4.462H220.19z"/>
	<path fill="#2A2A2A" d="M235.544,425.548c1.312,0,2.362,0.656,3.149,1.443l1.838-1.443c-1.312-1.575-3.281-2.231-4.987-2.231
		c-4.068,0-6.431,2.493-6.431,5.774c0,3.806,3.019,5.774,6.431,5.774c2.231,0,3.938-0.919,4.987-1.969l-1.838-1.443
		c-0.656,0.787-1.837,1.443-3.149,1.443c-2.231,0-3.806-1.574-3.806-3.675C231.739,426.991,233.313,425.548,235.544,425.548z"/>
	<path fill="#2A2A2A" d="M246.83,423.447l-4.593,11.287h2.624l0.919-2.231h4.855l0.656,2.231h2.625l-4.725-11.287H246.83z
		 M246.437,430.534l1.706-4.462l1.706,4.462H246.437z"/>
	<path fill="#2A2A2A" d="M260.741,423.447h-4.068v11.287h4.199c3.938,0,6.431-2.362,6.431-5.644S264.678,423.447,260.741,423.447z
		 M260.61,432.766h-1.574v-7.35h1.706c2.362,0,3.937,1.575,3.937,3.675S263.104,432.766,260.61,432.766z"/>
	<polygon fill="#2A2A2A" points="272.815,430.141 277.277,430.141 277.277,428.172 272.815,428.172 272.815,425.416 
		278.458,425.416 278.458,423.447 270.452,423.447 270.452,434.734 278.72,434.734 278.72,432.766 272.815,432.766 	"/>
	<polygon fill="#2A2A2A" points="288.3,429.878 284.494,423.447 282.001,423.447 282.001,434.734 284.494,434.734 284.494,427.647 
		287.513,432.503 289.219,432.503 292.238,427.647 292.238,434.734 294.731,434.734 294.731,423.447 292.106,423.447 	"/>
	<polygon fill="#2A2A2A" points="304.967,423.447 302.474,427.516 299.98,423.448 297.093,423.448 301.292,429.747 301.292,434.734 
		303.786,434.734 303.786,429.747 307.986,423.447 	"/>
</g>
</svg>
