<?xml version="1.0" encoding="utf-8"?>
<!-- Generator: Adobe Illustrator 19.2.1, SVG Export Plug-In . SVG Version: 6.00 Build 0)  -->
<svg version="1.1" id="Layer_1" xmlns="http://www.w3.org/2000/svg" xmlns:xlink="http://www.w3.org/1999/xlink" x="0px" y="0px"
	 viewBox="0 0 24 30" style="enable-background:new 0 0 24 30;" xml:space="preserve">
<style type="text/css">
	.st0{fill:#363F40;}
</style>
<g>
	<path class="st0" d="M12,30c-0.2,0-0.4-0.1-0.6-0.2C10.9,29.4,0,20.4,0,12C0,5.4,5.4,0,12,0s12,5.4,12,12
		c0,8.4-10.9,17.4-11.4,17.8C12.4,29.9,12.2,30,12,30 M12,2C6.5,2,2,6.5,2,12c0,6.4,7.7,13.7,10,15.7c2.3-2,10-9.3,10-15.7
		C22,6.5,17.5,2,12,2"/>
	<path class="st0" d="M12,18c-3.3,0-6-2.7-6-6s2.7-6,6-6s6,2.7,6,6S15.3,18,12,18 M12,8c-2.2,0-4,1.8-4,4s1.8,4,4,4s4-1.8,4-4
		S14.2,8,12,8"/>
</g>
</svg>
