<?xml version="1.0" encoding="utf-8"?>
<!-- Generator: Adobe Illustrator 16.0.0, SVG Export Plug-In . SVG Version: 6.00 Build 0)  -->
<!DOCTYPE svg PUBLIC "-//W3C//DTD SVG 1.1//EN" "http://www.w3.org/Graphics/SVG/1.1/DTD/svg11.dtd">
<svg version="1.1" id="Layer_1" xmlns="http://www.w3.org/2000/svg" xmlns:xlink="http://www.w3.org/1999/xlink" x="0px" y="0px"
	 width="50px" height="50.384px" viewBox="0 0 50 50.384" enable-background="new 0 0 50 50.384" xml:space="preserve">
<circle fill="#FAD64E" cx="25" cy="25.192" r="16.833"/>
<g>
	<polygon fill="#343434" stroke="#343434" stroke-width="0.5" stroke-miterlimit="10" points="42.016,8.044 35.055,8.044 
		35.055,1.029 36.602,1.029 36.602,6.485 42.016,6.485 	"/>
	<polygon fill="#343434" stroke="#343434" stroke-width="0.5" stroke-miterlimit="10" points="7.211,0.25 7.211,25.442 
		8.758,25.442 8.758,1.809 35.508,1.809 41.242,7.587 41.242,25.751 42.789,25.751 42.789,6.942 36.148,0.25 	"/>
	<polygon fill="#343434" stroke="#343434" stroke-width="0.5" stroke-miterlimit="10" points="7.211,38.817 7.211,50.134 
		42.789,50.134 42.789,41.222 41.242,41.222 41.242,48.575 8.758,48.575 8.758,38.817 	"/>
	
		<rect x="7.984" y="32.986" fill="#343434" stroke="#343434" stroke-width="0.5" stroke-miterlimit="10" width="37.125" height="1.559"/>
	
		<rect x="7.984" y="28.31" fill="#343434" stroke="#343434" stroke-width="0.5" stroke-miterlimit="10" width="37.125" height="1.559"/>
	<path fill="#343434" stroke="#343434" stroke-width="0.5" stroke-miterlimit="10" d="M45.883,29.869h2.32v3.118h-2.32V29.869z
		 M44.336,34.545h5.414V28.31h-5.414V34.545z"/>
	<path fill="#343434" stroke="#343434" stroke-width="0.5" stroke-miterlimit="10" d="M7.984,34.545H6.438
		c-0.104,0-0.208-0.021-0.305-0.063l-5.414-2.338C0.435,32.021,0.25,31.74,0.25,31.427c0-0.312,0.185-0.593,0.468-0.716l5.414-2.338
		c0.097-0.042,0.201-0.063,0.305-0.063h1.547c0.428,0,0.773,0.349,0.773,0.779v4.677C8.758,34.197,8.412,34.545,7.984,34.545
		 M6.596,32.986h0.615v-3.118H6.596l-3.609,1.559L6.596,32.986z"/>
	
		<rect x="16.492" y="29.089" fill="#343434" stroke="#343434" stroke-width="0.5" stroke-miterlimit="10" width="1.547" height="4.677"/>
	<polygon fill="#343434" stroke="#343434" stroke-width="0.5" stroke-miterlimit="10" points="42.789,38.663 30.414,38.663 
		30.414,37.104 41.242,37.104 41.242,29.089 42.789,29.089 	"/>
	<path fill="#343434" stroke="#343434" stroke-width="0.5" stroke-miterlimit="10" d="M27.32,44.839
		c-1.095,0-1.672-0.582-2.094-1.008c-0.379-0.382-0.564-0.551-1-0.551s-0.621,0.169-1,0.551c-0.422,0.426-0.999,1.008-2.094,1.008
		c-1.094,0-1.672-0.582-2.094-1.008c-0.38-0.382-0.565-0.551-1-0.551c-0.434,0-0.62,0.169-1.001,0.551
		c-0.421,0.426-1,1.008-2.093,1.008s-1.672-0.582-2.093-1.008c-0.381-0.382-0.567-0.551-1.001-0.551v-1.559
		c1.093,0,1.672,0.583,2.093,1.008c0.381,0.382,0.567,0.551,1.001,0.551c0.435,0,0.62-0.169,1.001-0.551
		c0.421-0.425,1-1.008,2.093-1.008c1.094,0,1.672,0.583,2.094,1.008c0.38,0.382,0.564,0.551,1,0.551s0.621-0.169,1-0.551
		c0.422-0.425,0.999-1.008,2.094-1.008s1.672,0.583,2.094,1.008c0.379,0.382,0.564,0.551,1,0.551V44.839z"/>
	
		<rect x="11.852" y="6.485" fill="#343434" stroke="#343434" stroke-width="0.5" stroke-miterlimit="10" width="1.547" height="1.559"/>
	
		<rect x="14.945" y="6.485" fill="#343434" stroke="#343434" stroke-width="0.5" stroke-miterlimit="10" width="1.547" height="1.559"/>
	
		<rect x="18.039" y="6.485" fill="#343434" stroke="#343434" stroke-width="0.5" stroke-miterlimit="10" width="1.547" height="1.559"/>
	
		<rect x="11.852" y="12.162" fill="#343434" stroke="#343434" stroke-width="0.5" stroke-miterlimit="10" width="26.297" height="1.559"/>
	
		<rect x="11.852" y="16.397" fill="#343434" stroke="#343434" stroke-width="0.5" stroke-miterlimit="10" width="26.297" height="1.559"/>
	
		<rect x="11.852" y="21.133" fill="#343434" stroke="#343434" stroke-width="0.5" stroke-miterlimit="10" width="12.375" height="1.559"/>
</g>
</svg>
