<?xml version="1.0" encoding="utf-8"?>
<!-- Generator: Adobe Illustrator 16.0.0, SVG Export Plug-In . SVG Version: 6.00 Build 0)  -->
<!DOCTYPE svg PUBLIC "-//W3C//DTD SVG 1.1//EN" "http://www.w3.org/Graphics/SVG/1.1/DTD/svg11.dtd">
<svg version="1.1" id="Layer_1" xmlns="http://www.w3.org/2000/svg" xmlns:xlink="http://www.w3.org/1999/xlink" x="0px" y="0px"
	 width="56.623px" height="51.928px" viewBox="0 0 56.623 51.928" enable-background="new 0 0 56.623 51.928" xml:space="preserve">
<circle fill="#FAD64E" cx="28.312" cy="26.189" r="16.833"/>
<g>
	
		<path fill-rule="evenodd" clip-rule="evenodd" fill="#343434" stroke="#343434" stroke-width="0.5" stroke-linecap="round" stroke-linejoin="round" stroke-miterlimit="10" d="
		M16.707,25.947c-3.579,0-7.157,0-10.736,0c-0.279,0-0.537-0.063-0.785-0.199c-0.411-0.224-0.824-0.451-1.254-0.634
		c-0.245-0.104-0.527-0.17-0.793-0.174c-0.636-0.01-1.274,0.033-1.911,0.045c-0.164,0.004-0.331-0.017-0.494-0.043
		c-0.36-0.058-0.531-0.303-0.47-0.659c0.089-0.516,0.384-0.767,0.931-0.768c0.472-0.001,0.943,0.022,1.415,0.027
		c0.337,0.005,0.675,0.006,1.012-0.005c0.35-0.013,0.649,0.122,0.934,0.292c0.519,0.308,1.065,0.476,1.682,0.474
		c3.565-0.01,7.131-0.005,10.697-0.004c0.185,0,0.37,0.013,0.554,0.007c0.339-0.012,0.54-0.207,0.524-0.538
		c-0.015-0.323-0.061-0.646-0.101-0.968c-0.05-0.405,0.046-0.782,0.161-1.171c0.141-0.48,0.425-0.858,0.712-1.247
		c0.221-0.298,0.234-0.599,0.01-0.9c-0.105-0.141-0.219-0.275-0.329-0.413c-0.168-0.208-0.287-0.435-0.339-0.702
		c-0.048-0.243-0.157-0.474-0.207-0.717c-0.084-0.409-0.016-0.807,0.163-1.186c0.018-0.04,0.045-0.08,0.05-0.121
		c0.042-0.37,0.273-0.637,0.506-0.903c0.049-0.056,0.095-0.117,0.133-0.181c0.232-0.384,0.205-0.695-0.07-1.059
		c-0.196-0.261-0.402-0.519-0.559-0.803c-0.377-0.682-0.33-1.393-0.062-2.098c0.142-0.372,0.316-0.732,0.46-1.103
		c0.129-0.332,0.123-0.675,0.016-1.012c-0.1-0.314-0.206-0.627-0.327-0.934c-0.15-0.383-0.485-0.489-0.863-0.501
		c-0.312-0.01-0.624-0.007-0.936-0.002c-0.458,0.006-0.917,0.023-1.376,0.027c-0.376,0.002-0.583-0.156-0.669-0.513
		c-0.036-0.15-0.055-0.311-0.042-0.463c0.03-0.343,0.244-0.526,0.593-0.522c0.631,0.007,1.262,0.026,1.893,0.031
		c0.19,0.001,0.384-0.011,0.571-0.044c0.255-0.045,0.428-0.203,0.464-0.458c0.028-0.196,0.042-0.398,0.025-0.594
		c-0.037-0.424,0.117-0.623,0.547-0.66c0.044-0.004,0.089-0.01,0.133-0.014c0.587-0.044,0.959,0.233,1.003,0.804
		c0.039,0.502,0.016,1.009,0.031,1.514c0.017,0.545,0.128,1.063,0.332,1.583c0.274,0.699,0.719,1.253,1.267,1.748
		c0.49,0.441,1.479,0.385,1.791-0.132c0.135-0.224,0.196-0.52,0.202-0.785c0.018-0.854-0.01-1.708-0.013-2.563
		c-0.002-0.743-0.002-1.484,0.009-2.227c0.013-0.854-0.347-1.528-0.994-2.077c-0.317-0.27-0.67-0.489-1.075-0.59
		c-0.273-0.068-0.567-0.08-0.853-0.08c-1.658-0.003-3.316,0.006-4.975,0.01c-0.932,0.001-1.863,0.001-2.794,0
		c-0.299,0-0.599-0.003-0.898-0.013c-0.439-0.014-0.733,0.235-1.018,0.516c-0.484,0.478-0.977,0.947-1.462,1.423
		C8.843,3.945,8.568,4.229,8.285,4.507C7.762,5.02,7.233,5.524,6.714,6.04c-0.321,0.32-0.623,0.659-0.943,0.98
		C5.563,7.231,5.356,7.45,5.117,7.622C4.664,7.946,4.508,8.398,4.502,8.909c-0.006,0.51,0.025,3.021,0.051,3.532
		c0.017,0.333-0.157,0.679-0.415,0.783c-0.333,0.136-0.75,0.064-0.953-0.175c-0.198-0.234-0.202-0.515-0.176-0.8
		c0.02-0.224,0.042-2.448,0.038-2.672c-0.01-0.72-0.256-0.947-0.995-0.939C1.659,8.641,1.264,8.644,0.87,8.647
		C0.535,8.649,0.24,8.138,0.25,7.828c0.012-0.369,0.226-0.625,0.63-0.643c0.501-0.022,1.006-0.018,1.506,0.019
		C3.012,7.251,3.538,7.133,3.994,6.66c0.848-0.88,1.739-1.721,2.61-2.58c0.854-0.841,1.703-1.686,2.558-2.525
		C9.468,1.254,9.791,0.97,10.097,0.67c0.311-0.305,0.666-0.436,1.116-0.419c1.013,0.036,2.027,0.036,3.041,0.042
		c1.084,0.006,2.169,0.001,3.253,0.001c0.95,0,1.899-0.002,2.849,0c0.559,0,1.114,0.057,1.63,0.271
		c0.621,0.257,1.175,0.621,1.606,1.141c0.176,0.212,0.363,0.42,0.506,0.653c0.196,0.319,0.359,0.658,0.53,0.992
		c0.099,0.193,0.252,0.292,0.465,0.35c0.38,0.101,0.73,0.065,1.102-0.067c0.432-0.152,0.882-0.154,1.325,0.027
		c0.179,0.074,0.379,0.096,0.567,0.147c0.195,0.054,0.392,0.109,0.582,0.178c0.798,0.294,1.453,0.769,1.811,1.541
		c0.263,0.567,0.57,1.147,0.387,1.81C30.732,7.82,30.68,8.335,30.348,8.75c-0.113,0.143-0.231,0.281-0.341,0.426
		c-0.212,0.281-0.22,0.523-0.03,0.815c0.048,0.074,0.089,0.155,0.151,0.216c0.365,0.357,0.504,0.833,0.677,1.283
		c0.183,0.473,0.106,0.952-0.029,1.434c-0.149,0.528-0.419,0.984-0.755,1.412c-0.22,0.278-0.202,0.566-0.02,0.854
		c0.08,0.127,0.165,0.253,0.259,0.371c0.333,0.418,0.498,0.909,0.615,1.414c0.09,0.385,0.009,0.763-0.116,1.139
		c-0.136,0.412-0.276,0.815-0.563,1.154c-0.077,0.091-0.142,0.191-0.216,0.285c-0.184,0.232-0.178,0.472-0.03,0.715
		c0.056,0.091,0.118,0.179,0.184,0.262c0.381,0.484,0.602,1.04,0.738,1.626c0.097,0.417,0.015,0.827-0.132,1.23
		c-0.112,0.306-0.223,0.603-0.403,0.881c-0.323,0.497-0.749,0.88-1.28,1.145c-0.322,0.161-0.657,0.301-0.998,0.417
		c-0.207,0.07-0.435,0.108-0.654,0.108c-3.565,0.007-7.131,0.005-10.697,0.005V25.947z M24.367,24.299v-0.003
		c0.912,0,1.824,0.003,2.736-0.002c0.292-0.002,0.588-0.002,0.877-0.041c0.381-0.053,0.679-0.26,0.914-0.56
		c0.369-0.469,0.371-1.008,0.309-1.555c-0.061-0.522-0.337-0.911-0.799-1.187c-0.317-0.189-0.667-0.206-1.016-0.207
		c-1.601-0.007-3.201-0.004-4.802,0c-0.522,0.002-1.046-0.004-1.566,0.029c-0.769,0.05-1.327,0.585-1.398,1.339
		c-0.03,0.321-0.012,0.647,0.012,0.968c0.028,0.371,0.254,0.64,0.529,0.879c0.353,0.307,0.781,0.337,1.22,0.337
		C22.377,24.299,23.373,24.299,24.367,24.299 M24.417,19.125v-0.002c1.001,0,2.002-0.004,3.003,0.001
		c0.62,0.003,1.147-0.17,1.528-0.685c0.323-0.438,0.289-0.927,0.259-1.42c-0.025-0.427-0.188-0.79-0.541-1.049
		c-0.415-0.308-0.883-0.451-1.409-0.434c-0.599,0.02-1.198,0.025-1.797,0.024c-1.326-0.003-2.652-0.009-3.978-0.02
		c-0.635-0.006-1.179,0.182-1.582,0.679c-0.096,0.12-0.18,0.263-0.218,0.408c-0.109,0.42-0.128,0.85-0.05,1.281
		c0.071,0.39,0.284,0.682,0.602,0.92c0.366,0.273,0.791,0.294,1.219,0.296C22.441,19.13,23.429,19.125,24.417,19.125 M24.397,13.93
		L24.397,13.93c1.014,0,2.028,0.003,3.042-0.003c0.209-0.001,0.423-0.018,0.626-0.064c0.335-0.076,0.626-0.239,0.844-0.511
		c0.38-0.476,0.362-1.025,0.279-1.575c-0.033-0.221-0.116-0.454-0.243-0.638c-0.368-0.534-0.904-0.78-1.564-0.779
		c-0.637,0.001-1.275-0.005-1.913-0.02c-0.558-0.013-0.969,0.208-1.238,0.689c-0.048,0.086-0.11,0.168-0.182,0.238
		c-0.363,0.354-0.795,0.601-1.282,0.75c-0.582,0.18-1.143,0.152-1.672-0.176c-0.167-0.104-0.338-0.208-0.522-0.272
		C20.391,11.505,20.191,11.46,20,11.46c-0.295,0.001-0.531,0.206-0.559,0.473c-0.069,0.672,0.146,1.239,0.703,1.665
		c0.387,0.295,0.845,0.328,1.307,0.33C22.433,13.933,23.415,13.93,24.397,13.93 M26.545,5.187v0.002
		c-0.325,0-0.65-0.008-0.975,0.003c-0.163,0.005-0.33,0.029-0.487,0.073c-0.224,0.063-0.376,0.207-0.392,0.452
		c-0.012,0.192-0.025,0.385-0.026,0.579c-0.003,0.542,0.02,1.083-0.005,1.624c-0.026,0.562,0.209,0.736,0.76,0.822
		c0.1,0.016,0.204,0.005,0.305,0.003c0.465-0.005,0.93-0.006,1.395-0.018c0.305-0.006,0.611-0.013,0.913-0.047
		c0.373-0.041,0.667-0.233,0.884-0.531c0.353-0.483,0.325-1.027,0.275-1.582c-0.064-0.715-0.962-1.42-1.711-1.383
		C27.17,5.199,26.858,5.187,26.545,5.187"/>
	<path fill="none" stroke="#343434" stroke-width="0.5" stroke-linecap="round" stroke-linejoin="round" stroke-miterlimit="10" d="
		M0.881,7.186c0.501-0.022,1.006-0.018,1.506,0.019C3.012,7.251,3.538,7.133,3.994,6.66c0.848-0.88,1.739-1.721,2.61-2.58
		c0.854-0.841,1.703-1.686,2.558-2.525C9.468,1.254,9.791,0.97,10.097,0.67c0.311-0.305,0.666-0.436,1.116-0.419
		c1.013,0.036,2.027,0.036,3.041,0.042c1.084,0.006,2.169,0.001,3.253,0.001c0.95,0,1.899-0.002,2.849,0
		c0.559,0,1.114,0.057,1.63,0.271c0.621,0.257,1.175,0.621,1.606,1.141c0.176,0.212,0.363,0.42,0.506,0.653
		c0.196,0.319,0.359,0.658,0.53,0.992c0.099,0.193,0.252,0.292,0.465,0.35c0.38,0.101,0.73,0.065,1.102-0.067
		c0.432-0.152,0.882-0.154,1.325,0.027c0.179,0.074,0.379,0.096,0.567,0.147c0.195,0.054,0.392,0.109,0.582,0.178
		c0.798,0.294,1.453,0.769,1.811,1.541c0.263,0.567,0.57,1.147,0.387,1.81C30.732,7.82,30.68,8.335,30.348,8.75
		c-0.113,0.143-0.231,0.281-0.341,0.426c-0.212,0.281-0.22,0.523-0.03,0.815c0.048,0.074,0.089,0.155,0.151,0.216
		c0.365,0.357,0.504,0.833,0.677,1.283c0.183,0.473,0.106,0.952-0.029,1.434c-0.149,0.528-0.419,0.984-0.755,1.412
		c-0.22,0.278-0.202,0.566-0.02,0.854c0.08,0.127,0.165,0.253,0.259,0.371c0.333,0.418,0.498,0.909,0.615,1.414
		c0.09,0.385,0.009,0.763-0.116,1.139c-0.136,0.412-0.276,0.815-0.563,1.154c-0.077,0.091-0.142,0.191-0.216,0.285
		c-0.184,0.232-0.178,0.472-0.03,0.715c0.056,0.091,0.118,0.179,0.184,0.262c0.381,0.484,0.602,1.04,0.738,1.626
		c0.097,0.417,0.015,0.827-0.132,1.23c-0.112,0.306-0.223,0.603-0.403,0.881c-0.323,0.497-0.749,0.88-1.28,1.145
		c-0.322,0.161-0.657,0.301-0.998,0.417c-0.207,0.07-0.435,0.108-0.654,0.108c-3.565,0.007-7.131,0.005-10.697,0.005v0.006
		c-3.579,0-7.157,0-10.736,0c-0.279,0-0.537-0.063-0.785-0.199c-0.411-0.224-0.824-0.451-1.254-0.634
		c-0.245-0.104-0.527-0.17-0.793-0.174c-0.636-0.01-1.274,0.033-1.911,0.045c-0.164,0.004-0.331-0.017-0.494-0.043
		c-0.36-0.058-0.531-0.303-0.47-0.659c0.089-0.516,0.384-0.767,0.931-0.768c0.472-0.001,0.943,0.022,1.415,0.027
		c0.337,0.005,0.675,0.006,1.012-0.005c0.35-0.013,0.649,0.122,0.934,0.292c0.519,0.308,1.065,0.476,1.682,0.474
		c3.565-0.01,7.131-0.005,10.697-0.004c0.185,0,0.37,0.013,0.554,0.007c0.339-0.012,0.54-0.207,0.524-0.538
		c-0.015-0.323-0.061-0.646-0.101-0.968c-0.05-0.405,0.046-0.782,0.161-1.171c0.141-0.48,0.425-0.858,0.712-1.247
		c0.221-0.298,0.234-0.599,0.01-0.9c-0.105-0.141-0.219-0.275-0.329-0.413c-0.168-0.208-0.287-0.435-0.339-0.702
		c-0.048-0.243-0.157-0.474-0.207-0.717c-0.084-0.409-0.016-0.807,0.163-1.186c0.018-0.04,0.045-0.08,0.05-0.121
		c0.042-0.37,0.273-0.637,0.506-0.903c0.049-0.056,0.095-0.117,0.133-0.181c0.232-0.384,0.205-0.695-0.07-1.059
		c-0.196-0.261-0.402-0.519-0.559-0.803c-0.377-0.682-0.33-1.393-0.062-2.098c0.142-0.372,0.316-0.732,0.46-1.103
		c0.129-0.332,0.123-0.675,0.016-1.012c-0.1-0.314-0.206-0.627-0.327-0.934c-0.15-0.383-0.485-0.489-0.863-0.501
		c-0.312-0.01-0.624-0.007-0.936-0.002c-0.458,0.006-0.917,0.023-1.376,0.027c-0.376,0.002-0.583-0.156-0.669-0.513
		c-0.036-0.15-0.055-0.311-0.042-0.463c0.03-0.343,0.244-0.526,0.593-0.522c0.631,0.007,1.262,0.026,1.893,0.031
		c0.19,0.001,0.384-0.011,0.571-0.044c0.255-0.045,0.428-0.203,0.464-0.458c0.028-0.196,0.042-0.398,0.025-0.594
		c-0.037-0.424,0.117-0.623,0.547-0.66c0.044-0.004,0.089-0.01,0.133-0.014c0.587-0.044,0.959,0.233,1.003,0.804
		c0.039,0.502,0.016,1.009,0.031,1.514c0.017,0.545,0.128,1.063,0.332,1.583c0.274,0.699,0.719,1.253,1.267,1.748
		c0.49,0.441,1.479,0.385,1.791-0.132c0.135-0.224,0.196-0.52,0.202-0.785c0.018-0.854-0.01-1.708-0.013-2.563
		c-0.002-0.743-0.002-1.484,0.009-2.227c0.013-0.854-0.347-1.528-0.994-2.077c-0.317-0.27-0.67-0.489-1.075-0.59
		c-0.273-0.068-0.567-0.08-0.853-0.08c-1.658-0.003-3.316,0.006-4.975,0.01c-0.932,0.001-1.863,0.001-2.794,0
		c-0.299,0-0.599-0.003-0.898-0.013c-0.439-0.014-0.733,0.235-1.018,0.516c-0.484,0.478-0.977,0.947-1.462,1.423
		C8.843,3.945,8.568,4.229,8.285,4.507C7.762,5.02,7.233,5.524,6.714,6.04c-0.321,0.32-0.623,0.659-0.943,0.98
		C5.563,7.231,5.356,7.45,5.117,7.622C4.664,7.946,4.508,8.398,4.502,8.909c-0.006,0.51,0.025,3.021,0.051,3.532
		c0.017,0.333-0.157,0.679-0.415,0.783c-0.333,0.136-0.75,0.064-0.953-0.175c-0.198-0.234-0.202-0.515-0.176-0.8
		c0.02-0.224,0.042-2.448,0.038-2.672c-0.01-0.72-0.256-0.947-0.995-0.939C1.659,8.641,1.264,8.644,0.87,8.647 M24.367,24.299
		v-0.003c0.912,0,1.824,0.003,2.736-0.002c0.292-0.002,0.588-0.002,0.877-0.041c0.381-0.053,0.679-0.26,0.914-0.56
		c0.369-0.469,0.371-1.008,0.309-1.555c-0.061-0.522-0.337-0.911-0.799-1.187c-0.317-0.189-0.667-0.206-1.016-0.207
		c-1.601-0.007-3.201-0.004-4.802,0c-0.522,0.002-1.046-0.004-1.566,0.029c-0.769,0.05-1.327,0.585-1.398,1.339
		c-0.03,0.321-0.012,0.647,0.012,0.968c0.028,0.371,0.254,0.64,0.529,0.879c0.353,0.307,0.781,0.337,1.22,0.337
		C22.377,24.299,23.373,24.299,24.367,24.299z M24.417,19.125v-0.002c1.001,0,2.002-0.004,3.003,0.001
		c0.62,0.003,1.147-0.17,1.528-0.685c0.323-0.438,0.289-0.927,0.259-1.42c-0.025-0.427-0.188-0.79-0.541-1.049
		c-0.415-0.308-0.883-0.451-1.409-0.434c-0.599,0.02-1.198,0.025-1.797,0.024c-1.326-0.003-2.652-0.009-3.978-0.02
		c-0.635-0.006-1.179,0.182-1.582,0.679c-0.096,0.12-0.18,0.263-0.218,0.408c-0.109,0.42-0.128,0.85-0.05,1.281
		c0.071,0.39,0.284,0.682,0.602,0.92c0.366,0.273,0.791,0.294,1.219,0.296C22.441,19.13,23.429,19.125,24.417,19.125z M24.397,13.93
		L24.397,13.93c1.014,0,2.028,0.003,3.042-0.003c0.209-0.001,0.423-0.018,0.626-0.064c0.335-0.076,0.626-0.239,0.844-0.511
		c0.38-0.476,0.362-1.025,0.279-1.575c-0.033-0.221-0.116-0.454-0.243-0.638c-0.368-0.534-0.904-0.78-1.564-0.779
		c-0.637,0.001-1.275-0.005-1.913-0.02c-0.558-0.013-0.969,0.208-1.238,0.689c-0.048,0.086-0.11,0.168-0.182,0.238
		c-0.363,0.354-0.795,0.601-1.282,0.75c-0.582,0.18-1.143,0.152-1.672-0.176c-0.167-0.104-0.338-0.208-0.522-0.272
		C20.391,11.505,20.191,11.46,20,11.46c-0.295,0.001-0.531,0.206-0.559,0.473c-0.069,0.672,0.146,1.239,0.703,1.665
		c0.387,0.295,0.845,0.328,1.307,0.33C22.433,13.933,23.415,13.93,24.397,13.93z M26.545,5.187v0.002
		c-0.325,0-0.65-0.008-0.975,0.003c-0.163,0.005-0.33,0.029-0.487,0.073c-0.224,0.063-0.376,0.207-0.392,0.452
		c-0.012,0.192-0.025,0.385-0.026,0.579c-0.003,0.542,0.02,1.083-0.005,1.624c-0.026,0.562,0.209,0.736,0.76,0.822
		c0.1,0.016,0.204,0.005,0.305,0.003c0.465-0.005,0.93-0.006,1.395-0.018c0.305-0.006,0.611-0.013,0.913-0.047
		c0.373-0.041,0.667-0.233,0.884-0.531c0.353-0.483,0.325-1.027,0.275-1.582c-0.064-0.715-0.962-1.42-1.711-1.383
		C27.17,5.199,26.858,5.187,26.545,5.187z"/>
	
		<path fill-rule="evenodd" clip-rule="evenodd" fill="#343434" stroke="#343434" stroke-width="0.5" stroke-linecap="round" stroke-linejoin="round" stroke-miterlimit="10" d="
		M44.872,50.215c1.868,0,3.737-0.003,5.606,0.003c0.519,0.002,0.964-0.209,1.409-0.423c0.2-0.095,0.383-0.224,0.576-0.332
		c0.054-0.031,0.116-0.05,0.178-0.066c0.905-0.218,1.827-0.21,2.75-0.196c0.793,0.013,1.044,0.555,0.969,1.201
		c-0.032,0.279-0.219,0.436-0.509,0.438c-0.625,0.005-1.25-0.001-1.875-0.014c-0.423-0.007-0.846-0.013-1.245,0.141
		c-0.266,0.102-0.533,0.215-0.772,0.365c-0.469,0.295-0.972,0.386-1.516,0.329c-0.151-0.016-0.305-0.02-0.457-0.02
		c-3.872-0.001-7.744-0.001-11.615-0.001c-2.354,0-4.706-0.002-7.06,0.001c-0.751,0.001-1.503,0.027-2.255,0.017
		c-0.518-0.007-1.007-0.147-1.439-0.44c-0.245-0.167-0.495-0.329-0.727-0.511c-0.526-0.414-0.789-0.985-0.939-1.608
		c-0.138-0.569-0.129-1.139,0.047-1.702c0.115-0.367,0.275-0.709,0.525-1.009c0.33-0.396,0.327-0.752,0.052-1.186
		c-0.214-0.337-0.435-0.682-0.574-1.051c-0.204-0.541-0.203-1.113-0.082-1.68c0.104-0.485,0.326-0.913,0.646-1.298
		c0.28-0.336,0.279-0.708,0.027-1.072c-0.352-0.51-0.66-1.04-0.716-1.67c-0.076-0.855,0.087-1.652,0.624-2.351
		c0.357-0.465,0.371-0.759,0.03-1.238c-0.568-0.799-0.812-1.677-0.626-2.641c0.107-0.557,0.323-1.071,0.75-1.487
		c0.309-0.3,0.607-0.611,1.012-0.783c0.528-0.226,1.037-0.505,1.65-0.467c0.553,0.033,1.108,0.027,1.663,0.031
		c0.203,0.001,0.409-0.009,0.61-0.038c0.27-0.041,0.423-0.234,0.549-0.453c0.278-0.482,0.53-0.982,0.849-1.438
		c0.175-0.249,0.436-0.465,0.703-0.623c0.477-0.282,0.975-0.518,1.509-0.704c0.633-0.222,1.261-0.212,1.902-0.212
		c2.724,0,5.447,0.003,8.171-0.007c0.477-0.002,0.895,0.129,1.255,0.42c0.23,0.186,0.435,0.403,0.644,0.612
		c0.441,0.44,0.874,0.891,1.32,1.326c0.297,0.291,0.616,0.56,0.918,0.846c0.215,0.204,0.418,0.419,0.626,0.63
		c0.466,0.469,0.931,0.938,1.399,1.406c0.4,0.399,0.816,0.787,1.205,1.198c0.349,0.368,0.771,0.505,1.269,0.492
		c0.593-0.015,1.186-0.023,1.779-0.028c0.508-0.005,0.726,0.238,0.678,0.74c-0.064,0.663-0.379,0.938-1.064,0.926
		c-0.249-0.005-0.497-0.029-0.745-0.02c-0.17,0.005-0.344,0.031-0.506,0.081c-0.302,0.094-0.422,0.264-0.417,0.573
		c0.005,0.368,0.017,3.736,0.038,4.103c0.023,0.415-0.135,0.638-0.552,0.718c-0.147,0.028-0.305,0.031-0.456,0.02
		c-0.332-0.026-0.559-0.302-0.545-0.631c0.022-0.56,0.043-4.121,0.057-4.682c0.013-0.489-0.169-0.892-0.535-1.234
		c-0.553-0.516-1.084-1.056-1.627-1.583c-0.498-0.483-1.002-0.961-1.501-1.443c-0.177-0.171-0.339-0.356-0.516-0.527
		c-0.675-0.654-1.354-1.303-2.03-1.956c-0.254-0.246-0.557-0.364-0.913-0.363c-1.855,0.007-3.712,0.012-5.567,0.017
		c-1.205,0.003-2.411,0-3.616,0.012c-0.591,0.005-1.091,0.241-1.489,0.663c-0.212,0.224-0.413,0.461-0.591,0.711
		c-0.29,0.411-0.351,0.896-0.354,1.376c-0.006,1.072,0.019,2.146,0.021,3.218c0.001,0.492-0.043,0.986-0.021,1.478
		c0.014,0.274,0.077,0.564,0.197,0.811c0.161,0.332,0.513,0.433,0.865,0.465c0.517,0.049,0.872-0.243,1.21-0.573
		c0.44-0.43,0.769-0.929,0.999-1.492c0.033-0.08,0.051-0.166,0.078-0.249c0.061-0.189,0.094-0.395,0.19-0.567
		c0.315-0.562,0.329-1.167,0.297-1.782c-0.011-0.2-0.033-0.398-0.043-0.597c-0.022-0.459,0.311-0.812,0.76-0.809
		c0.448,0.003,0.765,0.357,0.76,0.812c-0.003,0.226,0.02,0.462,0.09,0.674c0.04,0.121,0.186,0.257,0.31,0.29
		c0.24,0.062,0.5,0.072,0.752,0.074c0.388,0.004,0.776-0.014,1.165-0.027c0.165-0.005,0.33-0.023,0.494-0.042
		c0.282-0.034,0.487,0.051,0.589,0.307c0.077,0.192,0.14,0.409,0.129,0.61c-0.021,0.376-0.279,0.573-0.666,0.567
		c-0.765-0.011-1.53-0.036-2.295-0.028c-0.2,0.002-0.417,0.069-0.593,0.165c-0.13,0.07-0.232,0.224-0.3,0.362
		c-0.133,0.275-0.241,0.564-0.346,0.852c-0.157,0.432-0.141,0.854,0.093,1.264c0.14,0.245,0.279,0.492,0.388,0.75
		c0.198,0.475,0.158,0.978,0.144,1.479c-0.015,0.506-0.201,0.933-0.498,1.346c-0.378,0.524-0.414,1.083-0.015,1.637
		c0.467,0.649,0.6,1.381,0.505,2.156c-0.034,0.276-0.082,0.553-0.157,0.82c-0.041,0.144-0.144,0.277-0.237,0.401
		c-0.357,0.476-0.592,1.089-0.081,1.807c0.503,0.708,0.607,1.533,0.433,2.386c-0.044,0.218-0.081,0.446-0.069,0.667
		c0.021,0.413,0.218,0.57,0.643,0.57c1.882-0.001,3.764,0,5.646,0V50.215z M32.196,50.212V50.21c0.484,0,0.969-0.001,1.453,0
		c0.491,0,0.982,0.007,1.473,0c0.364-0.004,0.716-0.043,1.056-0.21c0.885-0.436,1.476-1.604,0.737-2.584
		c-0.386-0.511-0.839-0.893-1.519-0.914c-0.4-0.013-0.802-0.002-1.202-0.002c-1.575-0.001-3.149,0.011-4.724-0.011
		c-0.445-0.006-0.82,0.113-1.188,0.331c-0.605,0.359-0.924,0.863-0.912,1.57c0.017,0.97,0.871,1.819,1.861,1.821
		C30.219,50.213,31.208,50.212,32.196,50.212 M32.405,41.489v0.007c-0.529,0-1.059,0.001-1.588,0c-0.535-0.001-1.071-0.014-1.606,0
		c-0.348,0.01-0.708,0.014-1.019,0.202c-0.631,0.384-0.89,0.96-0.824,1.669c0.069,0.746,0.845,1.694,1.89,1.668
		c0.4-0.008,0.802-0.021,1.203-0.022c1.689-0.003,3.379-0.003,5.068-0.009c0.118,0,0.247-0.012,0.354-0.058
		c0.589-0.252,1.031-0.616,1.286-1.244c0.347-0.854-0.39-2.085-1.344-2.174c-0.222-0.021-0.445-0.037-0.668-0.038
		C34.241,41.487,33.322,41.489,32.405,41.489 M32.202,39.866c0-0.006,0-0.011,0-0.017c0.542,0,1.084,0,1.626,0
		c0.541-0.001,1.082,0.002,1.623-0.005c0.974-0.013,1.792-0.859,1.809-1.868c0.002-0.147-0.02-0.3-0.06-0.442
		c-0.07-0.248-0.282-0.407-0.543-0.385c-0.152,0.013-0.306,0.078-0.446,0.146c-0.284,0.138-0.549,0.321-0.842,0.435
		c-0.536,0.207-1.104,0.245-1.646,0.049c-0.518-0.188-0.964-0.501-1.296-0.95c-0.271-0.366-0.617-0.576-1.104-0.546
		c-0.471,0.028-0.942,0.019-1.414,0.024c-0.286,0.002-0.575-0.019-0.859,0.006c-0.257,0.023-0.543,0.038-0.758,0.157
		c-0.726,0.404-1.155,1.293-0.835,2.138c0.213,0.564,0.905,1.289,1.859,1.265C30.277,39.846,31.24,39.866,32.202,39.866
		 M30.144,34.669v0.012c0.269,0,0.536,0.004,0.804-0.002c0.178-0.005,0.358-0.01,0.532-0.042c0.338-0.062,0.495-0.248,0.501-0.583
		c0.014-0.722,0.021-1.444,0.031-2.168c0.008-0.522-0.141-0.692-0.671-0.766c-0.07-0.01-0.141-0.018-0.21-0.018
		c-0.695,0.001-1.39-0.002-2.085,0.009c-0.889,0.014-1.415,0.594-1.615,1.282c-0.204,0.698,0.008,1.317,0.56,1.816
		c0.35,0.316,0.761,0.467,1.235,0.46C29.533,34.667,29.838,34.669,30.144,34.669"/>
	
		<path fill-rule="evenodd" clip-rule="evenodd" fill="#343434" stroke="#343434" stroke-width="0.5" stroke-linecap="round" stroke-linejoin="round" stroke-miterlimit="10" d="
		M6.747,17.883c0-0.005,0-0.012,0-0.018c0.003-0.651,0.214-0.92,0.926-0.915c0.493,0.004,0.958-0.124,1.426-0.298
		c0.812-0.302,1.435-0.848,2.038-1.414c0.535-0.501,0.927-1.113,1.237-1.782c0.207-0.447,0.396-0.889,0.439-1.38
		c0.013-0.143,0.014-0.287,0.02-0.429c0.012-0.317,0.194-0.54,0.514-0.578c0.199-0.023,0.408-0.021,0.605,0.012
		c0.353,0.061,0.516,0.294,0.477,0.65c-0.021,0.192-0.047,0.386-0.102,0.57c-0.189,0.634-0.341,1.285-0.606,1.888
		c-0.208,0.472-0.546,0.894-0.858,1.316c-0.245,0.332-0.514,0.653-0.814,0.936c-0.462,0.437-0.977,0.81-1.537,1.131
		c-0.484,0.278-1.004,0.454-1.518,0.646c-0.466,0.174-0.954,0.294-1.438,0.413c-0.22,0.054-0.44,0.012-0.619-0.162
		C6.765,18.303,6.741,18.1,6.747,17.883"/>
	
		<path fill-rule="evenodd" clip-rule="evenodd" fill="#343434" stroke="#343434" stroke-width="0.5" stroke-linecap="round" stroke-linejoin="round" stroke-miterlimit="10" d="
		M50.437,43.321c-0.011,0.063-0.023,0.181-0.054,0.296c-0.062,0.236-0.222,0.376-0.468,0.407c-0.106,0.013-0.223,0.025-0.323-0.002
		c-0.682-0.18-1.392-0.3-2.033-0.572c-0.829-0.354-1.638-0.767-2.284-1.429c-0.48-0.492-0.996-0.958-1.348-1.547
		c-0.266-0.443-0.455-0.932-0.672-1.402c-0.074-0.159-0.151-0.319-0.191-0.487c-0.104-0.437-0.205-0.875-0.275-1.317
		c-0.058-0.367,0.146-0.66,0.473-0.761c0.388-0.12,0.702-0.01,0.894,0.337c0.079,0.145,0.157,0.31,0.168,0.47
		c0.033,0.502,0.229,0.949,0.412,1.409c0.249,0.626,0.638,1.163,1.027,1.699c0.167,0.23,0.397,0.426,0.627,0.599
		c0.362,0.274,0.723,0.573,1.132,0.762c0.653,0.303,1.272,0.726,2.053,0.699c0.176-0.006,0.362,0.072,0.529,0.142
		C50.385,42.745,50.436,42.997,50.437,43.321"/>
	
		<path fill-rule="evenodd" clip-rule="evenodd" fill="#343434" stroke="#343434" stroke-width="0.5" stroke-linecap="round" stroke-linejoin="round" stroke-miterlimit="10" d="
		M20.899,37.255c-0.277-0.049-0.598-0.208-0.848-0.478c-0.132-0.143-0.103-0.331-0.041-0.5c0.041-0.11,0.11-0.209,0.165-0.314
		c0.336-0.641,0.673-1.282,1.008-1.924c0.243-0.465,0.486-0.932,0.726-1.399c0.063-0.122,0.119-0.248,0.173-0.374
		c0.133-0.307,0.403-0.434,0.712-0.298c0.206,0.091,0.401,0.216,0.581,0.352c0.212,0.16,0.248,0.384,0.12,0.62
		c-0.156,0.286-0.332,0.561-0.487,0.846c-0.119,0.22-0.217,0.45-0.329,0.673c-0.42,0.839-0.843,1.675-1.26,2.515
		C21.33,37.152,21.208,37.268,20.899,37.255"/>
	<g>
		<path fill="#343434" d="M22.555,31.915c0.076,0,0.156,0.018,0.24,0.054c0.206,0.091,0.401,0.216,0.581,0.352
			c0.212,0.16,0.248,0.384,0.12,0.62c-0.156,0.286-0.332,0.561-0.487,0.846c-0.119,0.22-0.217,0.45-0.329,0.673
			c-0.42,0.839-0.843,1.675-1.26,2.515c-0.084,0.17-0.199,0.283-0.476,0.283c-0.014,0-0.028,0-0.043-0.001
			c-0.277-0.049-0.598-0.208-0.848-0.478c-0.132-0.143-0.103-0.331-0.041-0.5c0.041-0.11,0.11-0.209,0.165-0.314
			c0.336-0.641,0.673-1.282,1.008-1.924c0.243-0.465,0.486-0.932,0.726-1.399c0.063-0.122,0.119-0.248,0.173-0.374
			C22.179,32.043,22.35,31.915,22.555,31.915 M22.555,31.415L22.555,31.415c-0.406,0-0.754,0.244-0.931,0.653
			c-0.05,0.116-0.101,0.231-0.159,0.343c-0.24,0.468-0.482,0.933-0.725,1.397l-0.999,1.906l-0.058,0.104
			c-0.054,0.093-0.105,0.188-0.142,0.287c-0.188,0.506-0.026,0.83,0.143,1.012c0.304,0.328,0.715,0.558,1.128,0.631
			c0.022,0.004,0.045,0.006,0.067,0.007c0.006,0,0.057,0.001,0.063,0.001c0.428,0,0.739-0.188,0.924-0.56
			c0.252-0.507,0.506-1.012,0.76-1.518l0.5-0.996c0.046-0.092,0.091-0.187,0.135-0.281c0.06-0.127,0.119-0.254,0.187-0.378
			c0.075-0.138,0.156-0.274,0.236-0.411c0.085-0.144,0.169-0.287,0.25-0.434c0.25-0.458,0.149-0.953-0.257-1.259
			c-0.235-0.177-0.458-0.312-0.68-0.41C22.85,31.447,22.701,31.415,22.555,31.415L22.555,31.415z"/>
	</g>
	
		<path fill-rule="evenodd" clip-rule="evenodd" fill="#343434" stroke="#343434" stroke-width="0.5" stroke-linecap="round" stroke-linejoin="round" stroke-miterlimit="10" d="
		M36.738,15.417c-0.052,0.147-0.08,0.271-0.137,0.38c-0.237,0.455-0.491,0.9-0.724,1.357c-0.312,0.612-0.604,1.234-0.913,1.847
		c-0.132,0.263-0.277,0.519-0.432,0.77c-0.179,0.289-0.501,0.373-0.792,0.194c-0.176-0.109-0.335-0.249-0.482-0.393
		c-0.153-0.152-0.175-0.343-0.066-0.535c0.274-0.49,0.559-0.977,0.827-1.47c0.141-0.257,0.252-0.529,0.385-0.792
		c0.292-0.58,0.586-1.16,0.887-1.735c0.182-0.348,0.48-0.439,0.827-0.249c0.159,0.087,0.312,0.196,0.443,0.32
		C36.645,15.191,36.683,15.317,36.738,15.417"/>
	<g>
		<path fill="#343434" d="M35.781,14.693c0.105,0,0.218,0.032,0.337,0.097c0.159,0.087,0.312,0.196,0.443,0.32
			c0.084,0.082,0.122,0.208,0.177,0.307c-0.052,0.147-0.08,0.271-0.137,0.38c-0.237,0.455-0.491,0.9-0.724,1.357
			c-0.312,0.612-0.604,1.234-0.913,1.847c-0.132,0.263-0.277,0.519-0.432,0.77c-0.115,0.187-0.291,0.288-0.479,0.288
			c-0.104,0-0.21-0.03-0.313-0.094c-0.176-0.109-0.335-0.249-0.482-0.393c-0.153-0.152-0.175-0.343-0.066-0.535
			c0.274-0.49,0.559-0.977,0.827-1.47c0.141-0.257,0.252-0.529,0.385-0.792c0.292-0.58,0.586-1.16,0.887-1.735
			C35.41,14.811,35.58,14.693,35.781,14.693 M35.781,14.192L35.781,14.192c-0.389,0-0.729,0.225-0.934,0.615
			c-0.302,0.578-0.597,1.16-0.89,1.742c-0.057,0.114-0.111,0.23-0.166,0.347c-0.067,0.145-0.134,0.29-0.211,0.43
			c-0.167,0.308-0.34,0.612-0.514,0.916l-0.311,0.55c-0.219,0.389-0.162,0.824,0.15,1.134c0.207,0.202,0.387,0.349,0.571,0.463
			c0.181,0.111,0.38,0.169,0.578,0.169c0.363,0,0.701-0.196,0.904-0.524c0.175-0.285,0.323-0.548,0.453-0.809
			c0.148-0.292,0.292-0.589,0.437-0.885c0.157-0.321,0.313-0.642,0.475-0.96c0.128-0.253,0.264-0.502,0.399-0.752
			c0.108-0.2,0.217-0.399,0.322-0.6c0.051-0.1,0.087-0.205,0.125-0.324l0.04-0.122c0.047-0.134,0.035-0.282-0.034-0.407
			c-0.011-0.02-0.021-0.042-0.031-0.064c-0.046-0.101-0.11-0.238-0.235-0.36c-0.162-0.153-0.351-0.29-0.552-0.4
			C36.166,14.246,35.972,14.192,35.781,14.192L35.781,14.192z"/>
	</g>
	
		<path fill-rule="evenodd" clip-rule="evenodd" fill="#343434" stroke="#343434" stroke-width="0.5" stroke-linecap="round" stroke-linejoin="round" stroke-miterlimit="10" d="
		M36.966,23.002c-0.32-0.033-0.637-0.301-0.759-0.663c-0.096-0.282-0.017-0.545,0.271-0.731c0.26-0.166,0.543-0.298,0.819-0.436
		c0.567-0.283,1.14-0.553,1.705-0.839c0.479-0.242,0.952-0.498,1.427-0.749c0.342-0.183,0.62-0.125,0.849,0.186
		c0.096,0.132,0.192,0.267,0.264,0.411c0.126,0.257,0.075,0.449-0.152,0.628c-0.083,0.066-0.178,0.121-0.274,0.167
		c-0.498,0.233-1.003,0.454-1.498,0.693c-0.428,0.208-0.846,0.43-1.266,0.652c-0.323,0.17-0.638,0.355-0.963,0.523
		C37.256,22.912,37.108,22.95,36.966,23.002"/>
	<g>
		<path fill="#343434" d="M40.789,19.481c0.185,0,0.346,0.095,0.489,0.29c0.096,0.132,0.192,0.267,0.264,0.411
			c0.126,0.257,0.075,0.449-0.152,0.628c-0.083,0.066-0.178,0.121-0.274,0.167c-0.498,0.233-1.003,0.454-1.498,0.693
			c-0.428,0.208-0.846,0.43-1.266,0.652c-0.323,0.17-0.638,0.355-0.963,0.523c-0.132,0.068-0.28,0.106-0.422,0.158
			c-0.32-0.033-0.637-0.301-0.759-0.663c-0.096-0.282-0.017-0.545,0.271-0.731c0.26-0.166,0.543-0.298,0.819-0.436
			c0.567-0.283,1.14-0.553,1.705-0.839c0.479-0.242,0.952-0.498,1.427-0.749C40.558,19.516,40.678,19.481,40.789,19.481
			 M40.789,18.981L40.789,18.981c-0.193,0-0.394,0.055-0.596,0.163l-0.368,0.196c-0.348,0.185-0.696,0.371-1.048,0.548
			c-0.318,0.161-0.638,0.316-0.957,0.472c-0.249,0.121-0.498,0.242-0.746,0.366l-0.126,0.062c-0.244,0.12-0.496,0.244-0.739,0.399
			c-0.467,0.302-0.648,0.804-0.475,1.313c0.184,0.543,0.658,0.946,1.181,1c0.018,0.001,0.035,0.002,0.052,0.002
			c0.059,0,0.118-0.01,0.173-0.031l0.121-0.042c0.123-0.041,0.244-0.083,0.357-0.142c0.182-0.094,0.361-0.193,0.54-0.292
			c0.142-0.079,0.284-0.157,0.427-0.233l0.114-0.06c0.376-0.199,0.752-0.398,1.137-0.584c0.296-0.143,0.596-0.28,0.895-0.416
			c0.199-0.091,0.398-0.182,0.597-0.274c0.141-0.066,0.266-0.143,0.374-0.228c0.411-0.323,0.518-0.775,0.291-1.239
			c-0.093-0.187-0.212-0.352-0.308-0.484C41.382,19.066,41.031,18.981,40.789,18.981L40.789,18.981z"/>
	</g>
	
		<path fill-rule="evenodd" clip-rule="evenodd" fill="#343434" stroke="#343434" stroke-width="0.5" stroke-linecap="round" stroke-linejoin="round" stroke-miterlimit="10" d="
		M19.739,28.971c0.089,0.007,0.121,0.007,0.152,0.013c0.204,0.037,0.593,0.495,0.639,0.751c0.052,0.292-0.104,0.482-0.343,0.609
		c-0.38,0.202-0.77,0.387-1.155,0.579c-0.674,0.336-1.349,0.671-2.022,1.011c-0.298,0.151-0.589,0.318-0.888,0.467
		c-0.233,0.116-0.409,0.089-0.589-0.096c-0.113-0.116-0.223-0.243-0.304-0.381c-0.232-0.396-0.136-0.7,0.281-0.913
		c0.35-0.179,0.706-0.348,1.058-0.523c0.324-0.159,0.646-0.323,0.969-0.483c0.625-0.31,1.249-0.62,1.876-0.925
		C19.531,29.023,19.663,28.996,19.739,28.971"/>
	<g>
		<path fill="#343434" d="M19.739,28.971c0.089,0.007,0.121,0.007,0.152,0.013c0.204,0.037,0.593,0.495,0.639,0.751
			c0.052,0.292-0.104,0.482-0.343,0.609c-0.38,0.202-0.77,0.387-1.155,0.579c-0.674,0.336-1.349,0.671-2.022,1.011
			c-0.298,0.151-0.589,0.318-0.888,0.467c-0.093,0.046-0.176,0.07-0.254,0.07c-0.119,0-0.226-0.054-0.334-0.166
			c-0.113-0.116-0.223-0.243-0.304-0.381c-0.232-0.396-0.136-0.7,0.281-0.913c0.35-0.179,0.706-0.348,1.058-0.523
			c0.324-0.159,0.646-0.323,0.969-0.483c0.625-0.31,1.249-0.62,1.876-0.925C19.531,29.023,19.663,28.996,19.739,28.971
			 M19.739,28.471c-0.053,0-0.105,0.008-0.155,0.025l-0.056,0.016c-0.097,0.027-0.219,0.063-0.331,0.117
			c-0.524,0.255-1.042,0.512-1.561,0.769l-0.322,0.159l-0.39,0.195l-0.578,0.288l-0.415,0.205c-0.217,0.106-0.434,0.212-0.649,0.322
			c-0.338,0.173-0.553,0.408-0.638,0.699c-0.084,0.287-0.032,0.594,0.153,0.911c0.092,0.157,0.212,0.309,0.378,0.479
			c0.205,0.209,0.437,0.316,0.692,0.316c0.156,0,0.312-0.04,0.477-0.122c0.162-0.081,0.321-0.166,0.479-0.251
			c0.137-0.074,0.273-0.147,0.412-0.217c0.487-0.247,0.976-0.49,1.464-0.733l0.556-0.277l0.335-0.166
			c0.278-0.137,0.557-0.274,0.831-0.419c0.467-0.248,0.686-0.663,0.601-1.139c-0.076-0.426-0.604-1.075-1.041-1.155
			c-0.034-0.006-0.07-0.011-0.135-0.015l-0.069-0.005C19.765,28.471,19.752,28.471,19.739,28.471L19.739,28.471z"/>
	</g>
</g>
</svg>
