<?xml version="1.0" encoding="utf-8"?>
<!-- Generator: Adobe Illustrator 16.0.0, SVG Export Plug-In . SVG Version: 6.00 Build 0)  -->
<!DOCTYPE svg PUBLIC "-//W3C//DTD SVG 1.1//EN" "http://www.w3.org/Graphics/SVG/1.1/DTD/svg11.dtd">
<svg version="1.1" id="Layer_1" xmlns="http://www.w3.org/2000/svg" xmlns:xlink="http://www.w3.org/1999/xlink" x="0px" y="0px"
	 width="64px" height="64px" viewBox="0 0 64 64" enable-background="new 0 0 64 64" xml:space="preserve">
<circle fill="#FAD64E" cx="31.5" cy="32" r="16.833"/>
<g>
	<defs>
		<rect id="SVGID_1_" y="6" width="64" height="52"/>
	</defs>
	<clipPath id="SVGID_2_">
		<use xlink:href="#SVGID_1_"  overflow="visible"/>
	</clipPath>
	<path clip-path="url(#SVGID_2_)" fill="#343434" d="M53,33c-3.42,0-6-3.225-6-7.5c0-3.026,0.682-6.5,6-6.5s6,3.474,6,6.5
		C59,29.775,56.42,33,53,33 M53,21c-3.028,0-4,1.094-4,4.5c0,2.666,1.402,5.5,4,5.5s4-2.834,4-5.5C57,22.094,56.028,21,53,21"/>
	
		<rect x="46.5" y="29.585" transform="matrix(0.5146 0.8574 -0.8574 0.5146 50.9203 -24.9526)" clip-path="url(#SVGID_2_)" fill="#343434" width="2" height="5.831"/>
	<path clip-path="url(#SVGID_2_)" fill="#343434" d="M61,41h-6v-2h6c0.297,0,1-0.776,1-2v-1.42l-6.496-3.712l0.992-1.736L64,34.42
		V37C64,39.168,62.626,41,61,41"/>
	<path clip-path="url(#SVGID_2_)" fill="#343434" d="M11,33c-3.42,0-6-3.225-6-7.5c0-3.026,0.682-6.5,6-6.5s6,3.474,6,6.5
		C17,29.775,14.42,33,11,33 M11,21c-3.028,0-4,1.094-4,4.5c0,2.666,1.402,5.5,4,5.5s4-2.834,4-5.5C15,22.094,14.028,21,11,21"/>
	
		<rect x="13.584" y="31.5" transform="matrix(0.8575 0.5145 -0.5145 0.8575 19.0724 -3.8576)" clip-path="url(#SVGID_2_)" fill="#343434" width="5.831" height="2"/>
	<path clip-path="url(#SVGID_2_)" fill="#343434" d="M9,41H3c-1.626,0-3-1.832-3-4v-2.58l7.504-4.288l0.992,1.736L2,35.58V37
		c0,1.224,0.703,2,1,2h6V41z"/>
	<path clip-path="url(#SVGID_2_)" fill="#343434" d="M11,58H9v-9c0-8.01,4.446-9.7,9.152-11.488c1.743-0.662,3.544-1.347,5.352-2.38
		l0.992,1.736c-1.943,1.11-3.904,1.855-5.633,2.513C14.128,41.181,11,42.369,11,49V58z"/>
	<path clip-path="url(#SVGID_2_)" fill="#343434" d="M55,58h-2v-9c0-6.631-3.128-7.819-7.863-9.619
		c-1.729-0.657-3.689-1.402-5.633-2.513l0.992-1.736c1.808,1.033,3.609,1.718,5.352,2.38C50.554,39.3,55,40.99,55,49V58z"/>
	<path clip-path="url(#SVGID_2_)" fill="#343434" d="M36.197,41.217L32,39.118l-4.197,2.099l-5.09-5.09l2.813-4.22L32,32.985
		l6.474-1.079l2.813,4.22L36.197,41.217z M32,36.882l3.803,1.901l2.91-2.91l-1.187-1.78L32,35.014l-5.526-0.921l-1.187,1.78
		l2.91,2.91L32,36.882z"/>
	<rect x="36" y="29" clip-path="url(#SVGID_2_)" fill="#343434" width="2" height="4"/>
	<rect x="26" y="29" clip-path="url(#SVGID_2_)" fill="#343434" width="2" height="4"/>
	<rect x="31" y="46" clip-path="url(#SVGID_2_)" fill="#343434" width="2" height="2"/>
	<rect x="31" y="42" clip-path="url(#SVGID_2_)" fill="#343434" width="2" height="2"/>
	<path clip-path="url(#SVGID_2_)" fill="#343434" d="M32,31c-0.132,0-3.261-0.012-5.447-1.105l-0.108-0.063
		c-0.137-0.091-3.384-2.333-4.435-9.69L22,20v-4c0-6.635,3.364-10,10-10c6.636,0,10,3.365,10,10l-0.01,4.142
		c-1.051,7.357-4.298,9.599-4.436,9.69l-0.107,0.063C35.261,30.988,32.132,31,32,31 M27.519,28.141C29.27,28.98,31.941,29,32,29
		c0.059,0,2.728-0.019,4.479-0.858c0.313-0.25,2.661-2.305,3.521-8.213V16c0-5.532-2.467-8-8-8s-8,2.468-8,8v3.929
		C24.861,25.846,27.201,27.889,27.519,28.141"/>
	<polygon clip-path="url(#SVGID_2_)" fill="#343434" points="37.045,19.096 27.045,15.096 23.447,16.895 22.552,15.105 
		26.955,12.905 36.954,16.905 40.553,15.105 41.447,16.895 	"/>
	<rect x="17" y="50" clip-path="url(#SVGID_2_)" fill="#343434" width="2" height="8"/>
	<rect x="45" y="50" clip-path="url(#SVGID_2_)" fill="#343434" width="2" height="8"/>
</g>
</svg>
