<?xml version="1.0" encoding="utf-8"?>
<!-- Generator: Adobe Illustrator 16.0.0, SVG Export Plug-In . SVG Version: 6.00 Build 0)  -->
<!DOCTYPE svg PUBLIC "-//W3C//DTD SVG 1.1//EN" "http://www.w3.org/Graphics/SVG/1.1/DTD/svg11.dtd">
<svg version="1.1" id="Layer_1" xmlns="http://www.w3.org/2000/svg" xmlns:xlink="http://www.w3.org/1999/xlink" x="0px" y="0px"
	 width="52.208px" height="52.208px" viewBox="0 0 52.208 52.208" enable-background="new 0 0 52.208 52.208" xml:space="preserve">
<g>
	<circle fill="#FAD64E" cx="26.104" cy="26.104" r="16.833"/>
	<g>
		<path fill="#343434" stroke="#343434" stroke-width="0.5" stroke-miterlimit="10" d="M26.104,51.958
			c-14.257,0-25.854-11.599-25.854-25.854C0.25,11.849,11.847,0.25,26.104,0.25c14.255,0,25.854,11.599,25.854,25.854
			C51.958,40.359,40.359,51.958,26.104,51.958 M26.104,1.866c-13.365,0-24.237,10.872-24.237,24.237s10.872,24.237,24.237,24.237
			c13.364,0,24.236-10.872,24.236-24.237S39.468,1.866,26.104,1.866"/>
		<path fill="none" stroke="#343434" stroke-width="0.5" stroke-miterlimit="10" d="M26.104,51.958
			c-14.257,0-25.854-11.599-25.854-25.854C0.25,11.849,11.847,0.25,26.104,0.25c14.255,0,25.854,11.599,25.854,25.854
			C51.958,40.359,40.359,51.958,26.104,51.958 M26.104,1.866c-13.365,0-24.237,10.872-24.237,24.237s10.872,24.237,24.237,24.237
			c13.364,0,24.236-10.872,24.236-24.237S39.468,1.866,26.104,1.866"/>
		<path fill="#343434" stroke="#343434" stroke-width="0.5" stroke-miterlimit="10" d="M26.104,47.11
			c-11.583,0-21.006-9.424-21.006-21.007c0-11.583,9.422-21.006,21.006-21.006c11.584,0,21.006,9.423,21.006,21.006
			C47.11,37.686,37.688,47.11,26.104,47.11 M26.104,6.714c-10.69,0-19.39,8.697-19.39,19.39s8.7,19.39,19.39,19.39
			c10.691,0,19.39-8.698,19.39-19.39S36.795,6.714,26.104,6.714"/>
		<path fill="none" stroke="#343434" stroke-width="0.5" stroke-miterlimit="10" d="M26.104,47.11
			c-11.583,0-21.006-9.424-21.006-21.007c0-11.583,9.422-21.006,21.006-21.006c11.584,0,21.006,9.423,21.006,21.006
			C47.11,37.686,37.688,47.11,26.104,47.11 M26.104,6.714c-10.69,0-19.39,8.697-19.39,19.39s8.7,19.39,19.39,19.39
			c10.691,0,19.39-8.698,19.39-19.39S36.795,6.714,26.104,6.714"/>
		<path fill="#343434" stroke="#343434" stroke-width="0.5" stroke-miterlimit="10" d="M14.793,38.221
			c-0.209,0-0.415-0.081-0.573-0.237c-0.253-0.254-0.309-0.647-0.132-0.961l8.078-14.544c0.122-0.222,0.344-0.372,0.595-0.407
			c0.249-0.035,0.502,0.048,0.682,0.229l6.464,6.463c0.18,0.178,0.266,0.432,0.229,0.683c-0.035,0.25-0.188,0.471-0.409,0.593
			L15.186,38.12C15.063,38.189,14.927,38.221,14.793,38.221 M23.057,24.201l-6.184,11.135l11.134-6.187L23.057,24.201z"/>
		<path fill="none" stroke="#343434" stroke-width="0.5" stroke-miterlimit="10" d="M14.793,38.221
			c-0.209,0-0.415-0.081-0.573-0.237c-0.253-0.254-0.309-0.647-0.132-0.961l8.078-14.544c0.122-0.222,0.344-0.372,0.595-0.407
			c0.249-0.035,0.502,0.048,0.682,0.229l6.464,6.463c0.18,0.178,0.266,0.432,0.229,0.683c-0.035,0.25-0.188,0.471-0.409,0.593
			L15.186,38.12C15.063,38.189,14.927,38.221,14.793,38.221 M23.057,24.201l-6.184,11.135l11.134-6.187L23.057,24.201z"/>
		<path fill="#343434" stroke="#343434" stroke-width="0.5" stroke-miterlimit="10" d="M30.042,29.727l-1.412-0.785l6.704-12.07
			l-12.069,6.706l-0.785-1.412l14.544-8.08c0.314-0.176,0.707-0.12,0.962,0.135c0.255,0.255,0.311,0.648,0.136,0.964L30.042,29.727z
			"/>
		<path fill="none" stroke="#343434" stroke-width="0.5" stroke-miterlimit="10" d="M30.042,29.727l-1.412-0.785l6.704-12.07
			l-12.069,6.706l-0.785-1.412l14.544-8.08c0.314-0.176,0.707-0.12,0.962,0.135c0.255,0.255,0.311,0.648,0.136,0.964L30.042,29.727z
			"/>
		
			<rect x="40.647" y="25.296" fill="#343434" stroke="#343434" stroke-width="0.5" stroke-miterlimit="10" width="1.615" height="1.615"/>
		
			<rect x="40.647" y="25.296" fill="none" stroke="#343434" stroke-width="0.5" stroke-miterlimit="10" width="1.615" height="1.615"/>
		
			<rect x="9.946" y="25.296" fill="#343434" stroke="#343434" stroke-width="0.5" stroke-miterlimit="10" width="1.614" height="1.615"/>
		
			<rect x="9.946" y="25.296" fill="none" stroke="#343434" stroke-width="0.5" stroke-miterlimit="10" width="1.614" height="1.615"/>
		
			<rect x="25.296" y="9.945" fill="#343434" stroke="#343434" stroke-width="0.5" stroke-miterlimit="10" width="1.615" height="1.616"/>
		
			<rect x="25.296" y="9.945" fill="none" stroke="#343434" stroke-width="0.5" stroke-miterlimit="10" width="1.615" height="1.616"/>
		
			<rect x="25.296" y="40.647" fill="#343434" stroke="#343434" stroke-width="0.5" stroke-miterlimit="10" width="1.615" height="1.615"/>
		
			<rect x="25.296" y="40.647" fill="none" stroke="#343434" stroke-width="0.5" stroke-miterlimit="10" width="1.615" height="1.615"/>
		<path fill="#343434" stroke="#343434" stroke-width="0.5" stroke-miterlimit="10" d="M26.104,37.414
			c-2.166,0-4.273-0.615-6.09-1.779c-0.377-0.24-0.486-0.739-0.244-1.114c0.239-0.376,0.74-0.486,1.115-0.246
			c1.555,0.997,3.361,1.524,5.219,1.524c5.346,0,9.695-4.351,9.695-9.696c0-1.857-0.526-3.662-1.523-5.219
			c-0.24-0.376-0.13-0.876,0.245-1.116c0.376-0.242,0.876-0.13,1.116,0.245c1.162,1.817,1.778,3.923,1.778,6.09
			C37.416,32.34,32.341,37.414,26.104,37.414"/>
		<path fill="none" stroke="#343434" stroke-width="0.5" stroke-miterlimit="10" d="M26.104,37.414c-2.166,0-4.273-0.615-6.09-1.779
			c-0.377-0.24-0.486-0.739-0.244-1.114c0.239-0.376,0.74-0.486,1.115-0.246c1.555,0.997,3.361,1.524,5.219,1.524
			c5.346,0,9.695-4.351,9.695-9.696c0-1.857-0.526-3.662-1.523-5.219c-0.24-0.376-0.13-0.876,0.245-1.116
			c0.376-0.242,0.876-0.13,1.116,0.245c1.162,1.817,1.778,3.923,1.778,6.09C37.416,32.34,32.341,37.414,26.104,37.414"/>
		<path fill="#343434" stroke="#343434" stroke-width="0.5" stroke-miterlimit="10" d="M17.251,32.564
			c-0.267,0-0.526-0.132-0.68-0.373c-1.164-1.816-1.777-3.922-1.777-6.088c0-6.237,5.072-11.311,11.311-11.311
			c2.165,0,4.271,0.613,6.089,1.777c0.375,0.239,0.485,0.739,0.244,1.114c-0.241,0.375-0.741,0.486-1.116,0.246
			c-1.555-0.996-3.359-1.521-5.217-1.521c-5.346,0-9.695,4.349-9.695,9.695c0,1.856,0.526,3.661,1.521,5.216
			c0.241,0.375,0.131,0.876-0.246,1.116C17.551,32.523,17.401,32.564,17.251,32.564"/>
		<path fill="none" stroke="#343434" stroke-width="0.5" stroke-miterlimit="10" d="M17.251,32.564c-0.267,0-0.526-0.132-0.68-0.373
			c-1.164-1.816-1.777-3.922-1.777-6.088c0-6.237,5.072-11.311,11.311-11.311c2.165,0,4.271,0.613,6.089,1.777
			c0.375,0.239,0.485,0.739,0.244,1.114c-0.241,0.375-0.741,0.486-1.116,0.246c-1.555-0.996-3.359-1.521-5.217-1.521
			c-5.346,0-9.695,4.349-9.695,9.695c0,1.856,0.526,3.661,1.521,5.216c0.241,0.375,0.131,0.876-0.246,1.116
			C17.551,32.523,17.401,32.564,17.251,32.564"/>
		
			<rect x="25.296" y="1.058" fill="#343434" stroke="#343434" stroke-width="0.5" stroke-miterlimit="10" width="1.615" height="4.847"/>
		
			<rect x="25.296" y="1.058" fill="none" stroke="#343434" stroke-width="0.5" stroke-miterlimit="10" width="1.615" height="4.847"/>
		
			<rect x="46.302" y="25.296" fill="#343434" stroke="#343434" stroke-width="0.5" stroke-miterlimit="10" width="4.848" height="1.615"/>
		
			<rect x="46.302" y="25.296" fill="none" stroke="#343434" stroke-width="0.5" stroke-miterlimit="10" width="4.848" height="1.615"/>
		
			<rect x="25.296" y="46.302" fill="#343434" stroke="#343434" stroke-width="0.5" stroke-miterlimit="10" width="1.615" height="4.848"/>
		
			<rect x="25.296" y="46.302" fill="none" stroke="#343434" stroke-width="0.5" stroke-miterlimit="10" width="1.615" height="4.848"/>
		
			<rect x="1.059" y="25.296" fill="#343434" stroke="#343434" stroke-width="0.5" stroke-miterlimit="10" width="4.847" height="1.615"/>
		
			<rect x="1.059" y="25.296" fill="none" stroke="#343434" stroke-width="0.5" stroke-miterlimit="10" width="4.847" height="1.615"/>
	</g>
</g>
</svg>
