<?xml version="1.0" encoding="utf-8"?>
<!-- Generator: Adobe Illustrator 16.0.0, SVG Export Plug-In . SVG Version: 6.00 Build 0)  -->
<!DOCTYPE svg PUBLIC "-//W3C//DTD SVG 1.1//EN" "http://www.w3.org/Graphics/SVG/1.1/DTD/svg11.dtd">
<svg version="1.1" id="Layer_1" xmlns="http://www.w3.org/2000/svg" xmlns:xlink="http://www.w3.org/1999/xlink" x="0px" y="0px"
	 width="24px" height="18px" viewBox="0 0 24 18" enable-background="new 0 0 24 18" xml:space="preserve">
<g>
	<defs>
		<rect id="SVGID_1_" width="24" height="18"/>
	</defs>
	<clipPath id="SVGID_2_">
		<use xlink:href="#SVGID_1_"  overflow="visible"/>
	</clipPath>
	<path clip-path="url(#SVGID_2_)" fill="#FAD64E" d="M13.5,8C13.776,8,14,8.224,14,8.5v7c0,0.276-0.224,0.5-0.5,0.5h-11
		C2.224,16,2,15.776,2,15.5v-7C2,8.224,2.224,8,2.5,8H13.5z M16,8c0-1.105-0.895-2-2-2H2C0.895,6,0,6.895,0,8v8c0,1.105,0.895,2,2,2
		h12c1.105,0,2-0.895,2-2V8z M12,11H4v-1h8V11z M8.243,1H11v2H8.898c-0.887,0-1.245,0.423-1.85,1H4l2.121-2.121
		C6.684,1.316,7.447,1,8.243,1 M18.06,2c0,1.104-0.896,2-2,2H12V0h4.06C17.164,0,18.06,0.895,18.06,2 M22,10.236v3.527l-2-1v-1.527
		L22,10.236z M24,7l-6,3v4l6,3V7z"/>
</g>
</svg>
