<?xml version="1.0" encoding="utf-8"?>
<!-- Generator: Adobe Illustrator 16.0.0, SVG Export Plug-In . SVG Version: 6.00 Build 0)  -->
<!DOCTYPE svg PUBLIC "-//W3C//DTD SVG 1.1//EN" "http://www.w3.org/Graphics/SVG/1.1/DTD/svg11.dtd">
<svg version="1.1" id="Layer_1" xmlns="http://www.w3.org/2000/svg" xmlns:xlink="http://www.w3.org/1999/xlink" x="0px" y="0px"
	 width="24.25px" height="24.25px" viewBox="0 0 24.25 24.25" enable-background="new 0 0 24.25 24.25" xml:space="preserve">
<g>
	<path fill="#FBD73D" d="M12.125,2C17.708,2,22.25,6.542,22.25,12.125S17.708,22.25,12.125,22.25S2,17.708,2,12.125
		S6.542,2,12.125,2 M12.125,0C5.429,0,0,5.429,0,12.125S5.429,24.25,12.125,24.25S24.25,18.821,24.25,12.125S18.821,0,12.125,0
		L12.125,0z"/>
	<polygon fill="#434343" points="13.375,11.125 13.375,3.25 11.5,3.25 11.5,11.125 11.5,13 13.375,13 18.75,13 18.75,11.125 	"/>
</g>
</svg>
