<?xml version="1.0" encoding="utf-8"?>
<!-- Generator: Adobe Illustrator 16.0.0, SVG Export Plug-In . SVG Version: 6.00 Build 0)  -->
<!DOCTYPE svg PUBLIC "-//W3C//DTD SVG 1.1//EN" "http://www.w3.org/Graphics/SVG/1.1/DTD/svg11.dtd">
<svg version="1.1" id="Layer_1" xmlns="http://www.w3.org/2000/svg" xmlns:xlink="http://www.w3.org/1999/xlink" x="0px" y="0px"
	 width="27.583px" height="20px" viewBox="-7.25 0 27.583 20" enable-background="new -7.25 0 27.583 20" xml:space="preserve">
<text transform="matrix(1 0 0 1 0 733.4688)" font-family="'HelveticaNeue-Bold'" font-size="29.764">Created by Rafa Goicoechea</text>
<text transform="matrix(1 0 0 1 0 763.2305)" font-family="'HelveticaNeue-Bold'" font-size="29.764">from the Noun Project</text>
<g>
	<path fill="#FFFFFF" d="M11.505,9.843c-0.146-0.729-0.502-1.119-1.055-1.162c-0.184-0.015-0.367,0.008-0.557,0.06l-0.117,0.03
		L9.744,8.654C9.595,8.115,9.128,7.753,8.587,7.753c-0.248,0-0.49,0.079-0.703,0.229l-0.1,0.071l-0.07-0.1
		C7.492,7.641,7.128,7.454,6.744,7.454c-0.182,0-0.334,0.032-0.465,0.097L6.102,7.64V3.758c0-0.661-0.538-1.199-1.199-1.199
		s-1.2,0.538-1.2,1.199v5.65L2.621,9.701c-0.729,0.188-1.248,0.854-1.264,1.614c-0.016,0.704,0,1.249,0.047,1.62
		c0.137,1.396,0.956,2.51,1.555,3.32l0.027,0.037c0.363,0.488,0.635,0.869,0.701,1.148H4.27c-0.056-0.461-0.403-0.92-0.836-1.49
		c-0.606-0.82-1.343-1.816-1.472-3.068c-0.035-0.371-0.045-0.938-0.03-1.558c0-0.497,0.349-0.951,0.829-1.076l0.926-0.245v2.539
		h0.574V3.758c0-0.349,0.293-0.643,0.642-0.643s0.642,0.294,0.642,0.643v6.614h0.574V8.669c0-0.348,0.293-0.643,0.641-0.643
		c0.354,0,0.644,0.288,0.644,0.643v1.703h0.575V8.969c0-0.354,0.287-0.643,0.641-0.643c0.35,0,0.643,0.294,0.643,0.643v1.719h0.574
		V9.417l0.061-0.035c0.096-0.053,0.295-0.142,0.561-0.126c0.211,0.031,0.426,0.135,0.535,0.697c0.576,2.784-0.158,5.229-0.554,6.544
		c-0.126,0.412-0.215,0.719-0.239,0.945h0.579c0.026-0.15,0.095-0.396,0.212-0.777l0.068-0.258
		C11.438,14.98,12.076,12.596,11.505,9.843z"/>
</g>
<path fill="#FFFFFF" d="M1.197,4.825l-5.699,0.001l1.372-1.372c0.117-0.117,0.117-0.307,0-0.424c-0.117-0.117-0.307-0.117-0.424,0
	l-1.852,1.852c-0.004,0.004-0.002,0.011-0.006,0.016C-5.485,4.952-5.54,5.027-5.54,5.126c0,0.095,0.05,0.17,0.118,0.225
	c0.001,0,0,0.001,0.001,0.002l1.852,1.852c0.059,0.059,0.135,0.088,0.212,0.088s0.153-0.029,0.212-0.088
	c0.117-0.117,0.117-0.307,0-0.424L-4.5,5.426l5.697-0.001c0.166,0,0.3-0.134,0.3-0.3S1.363,4.825,1.197,4.825z"/>
<path fill="#FFFFFF" d="M9.719,5.409l5.699-0.001L14.045,6.78c-0.117,0.116-0.117,0.307,0,0.424s0.307,0.117,0.424,0l1.852-1.852
	c0.006-0.005,0.004-0.011,0.008-0.016c0.072-0.055,0.127-0.13,0.127-0.229c0-0.095-0.049-0.17-0.117-0.225
	c-0.002-0.001,0-0.002-0.002-0.002L14.485,3.03c-0.059-0.059-0.135-0.088-0.211-0.088S14.12,2.972,14.061,3.03
	c-0.117,0.116-0.117,0.307,0,0.424l1.355,1.354L9.719,4.81c-0.166,0-0.299,0.134-0.299,0.3C9.42,5.274,9.553,5.409,9.719,5.409z"/>
</svg>
