<?xml version="1.0" encoding="utf-8"?>
<!-- Generator: Adobe Illustrator 16.0.0, SVG Export Plug-In . SVG Version: 6.00 Build 0)  -->
<!DOCTYPE svg PUBLIC "-//W3C//DTD SVG 1.1//EN" "http://www.w3.org/Graphics/SVG/1.1/DTD/svg11.dtd">
<svg version="1.1" id="Layer_1" xmlns="http://www.w3.org/2000/svg" xmlns:xlink="http://www.w3.org/1999/xlink" x="0px" y="0px"
	 width="14.333px" height="20px" viewBox="27.25 -2.091 14.333 20" enable-background="new 27.25 -2.091 14.333 20"
	 xml:space="preserve">
<text transform="matrix(1 0 0 1 4.882812e-04 733.4685)" font-family="'HelveticaNeue-Bold'" font-size="29.764">Created by Rafa Goicoechea</text>
<text transform="matrix(1 0 0 1 4.882812e-04 763.2302)" font-family="'HelveticaNeue-Bold'" font-size="29.764">from the Noun Project</text>
<g>
	<path fill="#343434" d="M39.379,7.752c-0.146-0.729-0.501-1.119-1.054-1.162c-0.184-0.015-0.367,0.008-0.557,0.06L37.651,6.68
		l-0.033-0.117c-0.149-0.539-0.616-0.901-1.157-0.901c-0.248,0-0.49,0.079-0.702,0.229l-0.1,0.071l-0.07-0.1
		c-0.223-0.312-0.586-0.499-0.971-0.499c-0.182,0-0.334,0.032-0.465,0.097l-0.177,0.089V1.667c0-0.661-0.538-1.199-1.199-1.199
		s-1.2,0.538-1.2,1.199v5.65L30.495,7.61c-0.729,0.188-1.248,0.853-1.264,1.614c-0.016,0.704,0,1.249,0.047,1.62
		c0.136,1.396,0.956,2.509,1.555,3.321l0.027,0.037c0.363,0.488,0.634,0.869,0.701,1.147h0.583c-0.055-0.46-0.403-0.919-0.836-1.489
		c-0.607-0.821-1.343-1.817-1.472-3.068c-0.034-0.371-0.045-0.938-0.03-1.558c0-0.497,0.349-0.951,0.83-1.076l0.925-0.245v2.539
		h0.574V1.667c0-0.349,0.293-0.643,0.642-0.643s0.642,0.294,0.642,0.643v6.614h0.573V6.578c0-0.348,0.293-0.643,0.642-0.643
		c0.354,0,0.643,0.288,0.643,0.643v1.703h0.575V6.878c0-0.354,0.287-0.643,0.641-0.643c0.349,0,0.642,0.294,0.642,0.643v1.719h0.574
		V7.325l0.061-0.035c0.095-0.053,0.295-0.142,0.56-0.126c0.212,0.031,0.427,0.135,0.536,0.697c0.576,2.783-0.158,5.23-0.554,6.544
		c-0.126,0.412-0.215,0.718-0.239,0.945h0.579c0.026-0.151,0.095-0.397,0.212-0.778l0.068-0.258
		C39.312,12.888,39.95,10.504,39.379,7.752z"/>
</g>
</svg>
