<?xml version="1.0" encoding="utf-8"?>
<!-- Generator: Adobe Illustrator 16.0.0, SVG Export Plug-In . SVG Version: 6.00 Build 0)  -->
<!DOCTYPE svg PUBLIC "-//W3C//DTD SVG 1.1//EN" "http://www.w3.org/Graphics/SVG/1.1/DTD/svg11.dtd">
<svg version="1.1" id="Layer_1" xmlns="http://www.w3.org/2000/svg" xmlns:xlink="http://www.w3.org/1999/xlink" x="0px" y="0px"
	 width="67.582px" height="14.031px" viewBox="0 0 67.582 14.031" enable-background="new 0 0 67.582 14.031" xml:space="preserve">
<g>
	<path fill="none" d="M2.859,7.327H2.105v4.365h0.793c0.103,0,0.193-0.02,0.271-0.059c0.567-0.051,0.944-0.275,1.131-0.672
		s0.28-0.893,0.28-1.49c0-0.74-0.125-1.283-0.377-1.627S3.503,7.327,2.859,7.327z"/>
	<path fill="none" d="M42.151,3.254c-0.131,0.936-0.267,1.868-0.41,2.796c-0.143,0.929-0.299,1.874-0.467,2.835h1.852l-0.877-5.632
		H42.151z"/>
	<path fill="none" d="M64.307,1.968c-0.246,0-0.447,0.055-0.604,0.166s-0.276,0.247-0.361,0.409
		c-0.084,0.163-0.143,0.345-0.175,0.546c-0.032,0.202-0.049,0.387-0.049,0.555v6.821c0,0.35,0.088,0.666,0.263,0.944
		c0.176,0.28,0.479,0.419,0.906,0.419c0.43,0,0.734-0.146,0.916-0.438c0.182-0.293,0.273-0.646,0.273-1.062V3.43
		c0-0.376-0.082-0.714-0.244-1.013S64.762,1.968,64.307,1.968z"/>
	<path fill="#434343" d="M5.84,6.448c-0.278-0.35-0.647-0.619-1.106-0.807S3.696,5.359,2.998,5.359H2.105V2.085h3.839V0.117H0V13.68
		h3.021c1.221,0,2.124-0.354,2.708-1.06s0.877-1.766,0.877-3.179c0-0.635-0.059-1.205-0.175-1.711
		C6.315,7.226,6.118,6.798,5.84,6.448z M4.299,10.961c-0.187,0.396-0.564,0.621-1.131,0.672C3.091,11.672,3,11.692,2.898,11.692
		H2.105V7.327h0.754c0.645,0,1.092,0.172,1.344,0.517S4.58,8.731,4.58,9.471C4.58,10.069,4.486,10.565,4.299,10.961z"/>
	<polygon fill="#434343" points="7.756,13.68 13.778,13.68 13.778,11.711 9.861,11.711 9.861,7.795 13.271,7.795 13.271,5.788 
		9.861,5.788 9.861,2.085 13.778,2.085 13.778,0.117 7.756,0.117 	"/>
	<path fill="#434343" d="M16.905,3.052c0.032-0.188,0.09-0.364,0.174-0.527s0.203-0.296,0.358-0.4
		c0.154-0.104,0.354-0.156,0.599-0.156c0.412,0,0.711,0.156,0.898,0.468c0.187,0.312,0.28,0.714,0.28,1.208l2.046-0.526
		c0-0.455-0.062-0.873-0.185-1.254c-0.124-0.381-0.319-0.709-0.585-0.986c-0.266-0.276-0.601-0.492-1.003-0.646
		C19.084,0.077,18.604,0,18.045,0c-0.611,0-1.127,0.097-1.549,0.292c-0.422,0.195-0.764,0.461-1.023,0.799
		c-0.26,0.338-0.445,0.731-0.556,1.179c-0.11,0.448-0.166,0.926-0.166,1.433v6.763c0,1.091,0.266,1.919,0.799,2.484
		c0.533,0.564,1.357,0.848,2.475,0.848c1.052,0,1.848-0.299,2.387-0.896c0.539-0.598,0.821-1.41,0.848-2.436
		c-0.351-0.053-0.702-0.102-1.052-0.146c-0.351-0.045-0.702-0.101-1.052-0.166c-0.013,1.117-0.406,1.676-1.179,1.676
		c-0.232,0-0.422-0.045-0.57-0.137c-0.148-0.091-0.264-0.205-0.348-0.342c-0.084-0.137-0.139-0.282-0.165-0.438
		s-0.039-0.3-0.039-0.431V3.589C16.856,3.42,16.873,3.241,16.905,3.052z"/>
	<polygon fill="#434343" points="22.488,13.68 24.593,13.68 24.593,2.144 26.736,2.144 26.736,13.68 28.841,13.68 28.841,0.117 
		22.488,0.117 	"/>
	<path fill="#434343" d="M31.335,7.912c0,0.727-0.023,1.334-0.068,1.822s-0.133,0.899-0.263,1.237s-0.302,0.624-0.516,0.857
		c-0.214,0.234-0.491,0.448-0.828,0.644l0.799,1.559c0.559-0.247,1.013-0.53,1.364-0.849c0.351-0.318,0.63-0.732,0.838-1.24
		c0.208-0.507,0.351-1.131,0.429-1.873c0.078-0.742,0.117-1.659,0.117-2.752V2.085h2.046V13.68h2.104V0.117h-6.021V7.912z"/>
	<path fill="#434343" d="M41.04,0.117c-0.455,2.274-0.909,4.534-1.363,6.782c-0.455,2.249-0.91,4.508-1.365,6.782h2.145
		c0.078-0.468,0.158-0.938,0.243-1.412c0.085-0.475,0.172-0.945,0.263-1.414h2.494l0.527,2.826h2.143L43.378,0.117H41.04z
		 M41.274,8.886c0.168-0.961,0.324-1.906,0.467-2.835c0.144-0.929,0.279-1.861,0.41-2.796h0.098l0.877,5.632H41.274z"/>
	<polygon fill="#434343" points="45.502,2.085 47.685,2.085 47.685,13.68 49.79,13.68 49.79,2.085 51.972,2.085 51.972,0.117 
		45.502,0.117 	"/>
	<polygon fill="#434343" points="57.312,5.788 54.895,5.788 54.895,0.117 52.791,0.117 52.791,13.68 54.895,13.68 54.895,7.756 
		57.312,7.756 57.312,13.68 59.417,13.68 59.417,0.117 57.312,0.117 	"/>
	<path fill="#434343" d="M67.417,2.085c-0.111-0.441-0.292-0.818-0.545-1.13c-0.252-0.312-0.589-0.549-1.01-0.711S64.919,0,64.297,0
		c-0.582,0-1.084,0.088-1.506,0.263c-0.42,0.175-0.761,0.422-1.02,0.74c-0.26,0.319-0.45,0.699-0.573,1.14
		c-0.123,0.442-0.185,0.929-0.185,1.461v6.821c0,1.091,0.259,1.926,0.777,2.504c0.518,0.578,1.347,0.867,2.486,0.867
		c1.141,0,1.977-0.303,2.507-0.906c0.531-0.604,0.797-1.498,0.797-2.68V3.585C67.582,3.027,67.526,2.527,67.417,2.085z
		 M65.477,10.329c0,0.416-0.092,0.77-0.273,1.062c-0.182,0.291-0.486,0.438-0.916,0.438c-0.428,0-0.73-0.139-0.906-0.419
		c-0.175-0.278-0.263-0.595-0.263-0.944V3.644c0-0.168,0.017-0.354,0.049-0.555c0.032-0.201,0.091-0.383,0.175-0.546
		c0.085-0.162,0.205-0.299,0.361-0.409s0.357-0.166,0.604-0.166c0.455,0,0.764,0.149,0.926,0.448s0.244,0.637,0.244,1.013V10.329z"
		/>
</g>
</svg>
