<?xml version="1.0" encoding="utf-8"?>
<!-- Generator: Adobe Illustrator 16.0.0, SVG Export Plug-In . SVG Version: 6.00 Build 0)  -->
<!DOCTYPE svg PUBLIC "-//W3C//DTD SVG 1.1//EN" "http://www.w3.org/Graphics/SVG/1.1/DTD/svg11.dtd">
<svg version="1.1" id="Layer_1" xmlns="http://www.w3.org/2000/svg" xmlns:xlink="http://www.w3.org/1999/xlink" x="0px" y="0px"
	 width="200px" height="200px" viewBox="0 0 200 200" enable-background="new 0 0 200 200" xml:space="preserve">
<path fill-rule="evenodd" clip-rule="evenodd" fill="#DE3428" d="M100,200c55.229,0,100-44.771,100-100C200,44.771,155.229,0,100,0
	S0,44.771,0,100C0,155.228,44.771,200,100,200L100,200z M100,200"/>
<g>
	<path fill-rule="evenodd" clip-rule="evenodd" fill="#FFFFFF" d="M121.251,55.931v34.016c5.181-6.172,11.384-9.282,18.584-9.282
		c3.694,0,7.035,0.706,10.023,2.114c2.973,1.396,5.208,3.188,6.71,5.361c1.518,2.196,2.545,4.6,3.095,7.251
		c0.553,2.635,0.827,6.741,0.827,12.306v36.372h-16.074v-32.757c0-6.502-0.303-10.62-0.918-12.369
		c-0.611-1.761-1.683-3.145-3.235-4.165c-1.533-1.047-3.479-1.565-5.808-1.565c-2.663,0-5.055,0.671-7.138,1.992
		c-2.098,1.333-3.631,3.326-4.611,5.988c-0.965,2.667-1.455,6.604-1.455,11.816v31.059h-16.074V55.931H121.251"/>
	<path fill-rule="evenodd" clip-rule="evenodd" fill="#FFFFFF" d="M55.584,55.931v34.016c5.181-6.172,11.384-9.282,18.584-9.282
		c3.694,0,7.035,0.706,10.023,2.114c2.973,1.396,5.208,3.188,6.71,5.361c1.518,2.196,2.545,4.6,3.095,7.251
		c0.553,2.635,0.827,6.741,0.827,12.306v36.372H78.749v-32.757c0-6.502-0.303-10.62-0.918-12.369
		c-0.611-1.761-1.683-3.145-3.235-4.165c-1.533-1.047-3.479-1.565-5.808-1.565c-2.663,0-5.055,0.671-7.138,1.992
		c-2.098,1.333-3.631,3.326-4.611,5.988c-0.965,2.667-1.455,6.604-1.455,11.816v31.059H39.51V55.931H55.584"/>
</g>
</svg>
