<?xml version="1.0" encoding="utf-8"?>
<!-- Generator: Adobe Illustrator 16.0.0, SVG Export Plug-In . SVG Version: 6.00 Build 0)  -->
<!DOCTYPE svg PUBLIC "-//W3C//DTD SVG 1.1//EN" "http://www.w3.org/Graphics/SVG/1.1/DTD/svg11.dtd">
<svg version="1.1" id="Layer_1" xmlns="http://www.w3.org/2000/svg" xmlns:xlink="http://www.w3.org/1999/xlink" x="0px" y="0px"
	 width="72.375px" height="72.376px" viewBox="0 0 72.375 72.376" enable-background="new 0 0 72.375 72.376" xml:space="preserve">
<g>
	<path fill="none" d="M59.723,63.41c-1.202,0-2.312-0.341-3.283-0.946l-6.479,3.703v2.847h-2.89v-2.793l-7.56-3.78
		c-0.979,0.62-2.104,0.969-3.323,0.969s-2.345-0.35-3.324-0.969l-7.56,3.78v2.793h-2.89v-2.848l-6.479-3.702
		c-0.971,0.604-2.082,0.946-3.284,0.946s-2.313-0.341-3.284-0.946L2.89,66.165v1.404c0,1.171,0.626,1.868,0.815,1.919l64.984-0.001
		c0.17-0.049,0.795-0.747,0.795-1.917v-1.404l-6.478-3.701C62.036,63.069,60.926,63.41,59.723,63.41z"/>
	<path fill="none" d="M13.773,11.208c2.293,0,4.158-1.866,4.158-4.16c0-2.293-1.865-4.158-4.158-4.158
		c-2.295,0-4.16,1.865-4.16,4.158C9.613,9.342,11.479,11.208,13.773,11.208z"/>
	<path fill="none" d="M12.651,60.521c2.702,0,4.159-3.009,4.159-5.84c0-3.661-0.934-4.719-4.159-4.719S8.493,51.02,8.493,54.68
		C8.493,57.511,9.95,60.521,12.651,60.521z"/>
	<path fill="none" d="M36.188,60.521c2.701,0,4.158-3.009,4.158-5.84c0-3.661-0.933-4.719-4.158-4.719
		c-3.227,0-4.16,1.059-4.16,4.719C32.027,57.511,33.486,60.521,36.188,60.521z"/>
	<path fill="none" d="M59.723,60.521c2.701,0,4.158-3.009,4.158-5.84c0-3.661-0.933-4.719-4.158-4.719
		c-3.227,0-4.158,1.059-4.158,4.719C55.564,57.511,57.021,60.521,59.723,60.521z"/>
	<path fill="#FAD64D" d="M13.773,14.097c3.885,0,7.047-3.162,7.047-7.049C20.82,3.162,17.658,0,13.773,0
		c-3.887,0-7.05,3.162-7.05,7.048C6.724,10.935,9.887,14.097,13.773,14.097z M13.773,2.891c2.293,0,4.158,1.865,4.158,4.158
		c0,2.294-1.865,4.16-4.158,4.16c-2.295,0-4.16-1.866-4.16-4.16C9.613,4.755,11.479,2.891,13.773,2.891z"/>
	<path fill="#FAD64D" d="M25.656,7.373h43.828v32.975H23.062V25.305h17.932V15.69H9.289C4.166,15.69,0,19.858,0,24.98v18.256h9.613
		V31.381h-2.89v8.966H2.89V24.98c0-3.529,2.87-6.4,6.399-6.4h28.814v3.835H20.172v20.821h52.203V4.483H25.656V7.373z"/>
	<path fill="#FAD64D" d="M66.771,54.68c0-3.266-0.73-7.608-7.049-7.608s-7.049,4.342-7.049,7.608c0,2.211,0.6,4.177,1.617,5.684
		l-5.82,3.325l-6.799-3.399c0.986-1.496,1.563-3.436,1.563-5.61c0-3.266-0.729-7.608-7.048-7.608s-7.049,4.342-7.049,7.608
		c0,2.174,0.578,4.114,1.564,5.61l-6.799,3.399l-5.82-3.325c1.017-1.506,1.617-3.473,1.617-5.684c0-3.266-0.731-7.608-7.05-7.608
		c-6.317,0-7.048,4.342-7.048,7.608c0,2.21,0.6,4.177,1.615,5.683L0,64.489v3.08c0,2.606,1.688,4.807,3.686,4.807h65.004
		c1.998,0,3.686-2.201,3.686-4.807v-3.08l-7.221-4.126C66.172,58.857,66.771,56.891,66.771,54.68z M69.484,67.569
		c0,1.171-0.625,1.868-0.795,1.917L3.705,69.488C3.516,69.437,2.89,68.74,2.89,67.569v-1.404l6.478-3.701
		c0.971,0.604,2.082,0.946,3.284,0.946s2.313-0.341,3.284-0.946l6.479,3.702v3.848h2.89v-3.793l7.56-3.78
		c0.979,0.62,2.105,0.969,3.324,0.969s2.344-0.35,3.323-0.969l7.56,3.78v3.793h2.89v-3.847l6.479-3.703
		c0.971,0.604,2.081,0.946,3.283,0.946c1.203,0,2.313-0.341,3.284-0.946l6.478,3.701V67.569z M12.651,49.961
		c3.226,0,4.159,1.059,4.159,4.719c0,2.831-1.457,5.84-4.159,5.84c-2.701,0-4.158-3.009-4.158-5.84
		C8.493,51.02,9.426,49.961,12.651,49.961z M36.188,49.961c3.226,0,4.158,1.059,4.158,4.719c0,2.831-1.457,5.84-4.158,5.84
		s-4.16-3.009-4.16-5.84C32.027,51.02,32.961,49.961,36.188,49.961z M59.723,49.961c3.226,0,4.158,1.059,4.158,4.719
		c0,2.831-1.457,5.84-4.158,5.84s-4.158-3.009-4.158-5.84C55.564,51.02,56.496,49.961,59.723,49.961z"/>
	<rect x="12.327" y="20.173" fill="#FAD64D" width="2.89" height="2.89"/>
	<rect x="12.327" y="24.657" fill="#FAD64D" width="2.89" height="2.889"/>
</g>
</svg>
