<?xml version="1.0" encoding="utf-8"?>
<!-- Generator: Adobe Illustrator 16.0.0, SVG Export Plug-In . SVG Version: 6.00 Build 0)  -->
<!DOCTYPE svg PUBLIC "-//W3C//DTD SVG 1.1//EN" "http://www.w3.org/Graphics/SVG/1.1/DTD/svg11.dtd">
<svg version="1.1" id="Layer_1" xmlns="http://www.w3.org/2000/svg" xmlns:xlink="http://www.w3.org/1999/xlink" x="0px" y="0px"
	 width="94.479px" height="82.67px" viewBox="0 0 94.479 82.67" enable-background="new 0 0 94.479 82.67" xml:space="preserve">
<g>
	<path fill="none" d="M87.096,47.352c-0.457-0.097-0.854-0.379-1.096-0.779c-0.24-0.399-0.303-0.882-0.177-1.333
		c0.149-0.528,0.22-0.964,0.22-1.375c0-2.79-2.271-5.062-5.062-5.062c-0.381,0-0.787,0.061-1.28,0.192
		c-0.518,0.138-1.067,0.018-1.485-0.316s-0.65-0.847-0.63-1.381c0.004-0.103,0.015-0.19,0.022-0.181
		c0-2.791-2.271-5.061-5.061-5.061c-1.016,0-1.996,0.3-2.833,0.866c-0.437,0.294-0.981,0.374-1.478,0.205
		c-0.498-0.163-0.89-0.551-1.062-1.044c-0.711-2.035-2.619-3.402-4.752-3.402c-1.88,0-3.586,1.068-4.451,2.718
		c2.669,1.444,4.451,4.259,4.451,7.403c0,4.653-3.783,8.437-8.435,8.437h-14.29c-0.09,0.036-0.164,0.094-0.26,0.112
		c-2.323,0.492-4.009,2.574-4.009,4.948c0,2.792,2.271,5.062,5.062,5.062h35.43c0.932,0,1.688,0.757,1.688,1.688
		c0,2.79,2.271,5.062,5.062,5.062h1.687V59.05c0-0.932,0.756-1.688,1.688-1.688c2.791,0,5.062-2.27,5.062-5.062
		C91.105,49.926,89.418,47.844,87.096,47.352z"/>
	<path fill="none" d="M44.006,35.571c0.729-3.916,4.172-6.89,8.293-6.89c0.48,0,0.953,0.05,1.418,0.13
		c-0.661-2.026-2.547-3.503-4.79-3.503c-0.933,0-1.688-0.757-1.688-1.688c0-2.791-2.271-5.061-5.06-5.061
		c-1.017,0-1.996,0.299-2.835,0.867c-0.434,0.293-0.979,0.37-1.475,0.205c-0.498-0.165-0.889-0.551-1.064-1.044
		c-0.71-2.036-2.619-3.403-4.748-3.403c-2.133,0-4.043,1.367-4.755,3.403c-0.174,0.493-0.563,0.879-1.063,1.044
		c-0.495,0.165-1.041,0.088-1.477-0.205c-0.836-0.567-1.814-0.867-2.83-0.867c-2.79,0-5.062,2.27-5.065,4.955
		c0.011,0.059,0.026,0.228,0.028,0.284c0.021,0.535-0.213,1.05-0.629,1.384c-0.419,0.333-0.969,0.451-1.486,0.314
		c-0.494-0.128-0.9-0.188-1.283-0.188c-2.79,0-5.061,2.269-5.061,5.062c0,0.409,0.068,0.845,0.22,1.375
		c0.128,0.45,0.065,0.932-0.177,1.332c-0.241,0.4-0.637,0.683-1.095,0.78c-2.325,0.492-4.012,2.572-4.012,4.947
		c0,2.792,2.272,5.062,5.063,5.062c0.931,0,1.686,0.756,1.686,1.688v5.061h1.688c2.79,0,5.062-2.271,5.062-5.061
		c0-0.932,0.757-1.688,1.688-1.688h18.559C37.117,39.742,40.091,36.3,44.006,35.571z"/>
	<path fill="none" d="M47.238,37.117c0,0.931-0.755,1.686-1.688,1.686c-2.79,0-5.061,2.272-5.061,5.062h13.497
		c2.792,0,5.062-2.271,5.062-5.062c0-2.375-1.686-4.455-4.008-4.947c-0.457-0.098-0.854-0.38-1.096-0.78
		c-0.15-0.248-0.205-0.528-0.216-0.812c-0.46-0.136-0.94-0.208-1.431-0.208C49.51,32.056,47.238,34.327,47.238,37.117z"/>
	<path fill="#FAD64D" d="M89.385,44.559c0.021-0.235,0.033-0.463,0.033-0.693c0-4.706-3.914-8.525-8.605-8.433
		c-0.783-3.848-4.192-6.751-8.266-6.751c-1.044,0-2.064,0.191-3.021,0.559c-1.522-2.409-4.188-3.932-7.104-3.932
		c-2.105,0-4.072,0.802-5.58,2.151c-1.018-2.754-3.426-4.837-6.371-5.385c-0.625-3.364-3.261-6.022-6.605-6.707V8.436
		c0-2.791,2.27-5.062,5.062-5.062H80.98c2.791,0,5.062,2.271,5.062,5.062v19.547l-2.181-2.181l-2.388,2.385l5.064,5.061
		c0.327,0.33,0.76,0.495,1.189,0.495c0.434,0,0.865-0.165,1.195-0.495l5.062-5.061l-2.388-2.385l-2.181,2.181V8.436
		C89.418,3.784,85.633,0,80.98,0H48.927c-4.651,0-8.437,3.784-8.437,8.436v6.931c-0.453,0.093-0.9,0.21-1.334,0.376
		c-1.521-2.409-4.187-3.933-7.1-3.933c-2.918,0-5.582,1.524-7.105,3.933c-0.957-0.367-1.977-0.559-3.02-0.559
		c-4.074,0-7.483,2.903-8.267,6.75c-4.734-0.079-8.604,3.728-8.604,8.436c0,0.228,0.01,0.458,0.033,0.692
		C2.064,32.375,0,35.41,0,38.803c0,4.073,2.902,7.484,6.748,8.266V52.3c0,0.933,0.755,1.689,1.688,1.689h3.373
		c4.074,0,7.482-2.904,8.265-6.749h13.71c-1.078,1.427-1.727,3.181-1.727,5.06c0,4.653,3.783,8.438,8.434,8.438h23.619v13.496
		c0,2.792-2.27,5.063-5.061,5.063H30.368c-2.792,0-5.062-2.271-5.062-5.063V56.374l2.182,2.182l2.385-2.386l-5.061-5.061
		c-0.66-0.661-1.727-0.661-2.388,0l-5.06,5.061l2.385,2.386l2.182-2.182v17.859c0,4.653,3.783,8.437,8.437,8.437h28.681
		c4.652,0,8.437-3.784,8.437-8.437V60.737h6.919c0.782,3.845,4.19,6.749,8.265,6.749h3.374c0.932,0,1.686-0.757,1.686-1.687v-5.231
		c3.846-0.784,6.75-4.191,6.75-8.268C94.479,48.906,92.414,45.872,89.385,44.559z M53.945,33.076c0.242,0.4,0.639,0.682,1.096,0.78
		c2.322,0.492,4.008,2.572,4.008,4.947c0,2.792-2.27,5.062-5.062,5.062H40.49c0-2.79,2.271-5.062,5.061-5.062
		c0.933,0,1.688-0.754,1.688-1.686c0-2.791,2.271-5.061,5.061-5.061c0.49,0,0.971,0.071,1.431,0.208
		C53.74,32.548,53.795,32.829,53.945,33.076z M18.559,43.865c-0.932,0-1.688,0.756-1.688,1.688c0,2.79-2.271,5.061-5.062,5.061
		h-1.688v-5.061c0-0.932-0.755-1.688-1.686-1.688c-2.791,0-5.063-2.271-5.063-5.062c0-2.375,1.687-4.455,4.012-4.947
		c0.458-0.097,0.854-0.38,1.095-0.78c0.242-0.4,0.305-0.881,0.177-1.332c-0.151-0.53-0.22-0.966-0.22-1.375
		c0-2.792,2.271-5.062,5.061-5.062c0.383,0,0.789,0.06,1.283,0.188c0.518,0.137,1.067,0.019,1.486-0.314
		c0.416-0.334,0.65-0.849,0.629-1.384c-0.002-0.057-0.018-0.226-0.028-0.284c0.004-2.685,2.275-4.955,5.065-4.955
		c1.016,0,1.994,0.299,2.83,0.867c0.436,0.293,0.981,0.37,1.477,0.205c0.5-0.165,0.89-0.551,1.063-1.044
		c0.712-2.036,2.622-3.403,4.755-3.403c2.129,0,4.038,1.367,4.748,3.403c0.176,0.493,0.566,0.879,1.064,1.044
		c0.496,0.165,1.041,0.088,1.475-0.205c0.839-0.567,1.818-0.867,2.835-0.867c2.788,0,5.06,2.27,5.06,5.061
		c0,0.931,0.756,1.688,1.688,1.688c2.243,0,4.129,1.478,4.79,3.503c-0.465-0.08-0.938-0.13-1.418-0.13
		c-4.121,0-7.564,2.975-8.293,6.89c-3.915,0.729-6.889,4.17-6.889,8.294H18.559z M86.043,57.361c-0.932,0-1.688,0.757-1.688,1.688
		v5.062h-1.687c-2.79,0-5.062-2.271-5.062-5.062c0-0.932-0.756-1.688-1.688-1.688H40.49c-2.791,0-5.062-2.27-5.062-5.062
		c0-2.374,1.686-4.456,4.009-4.948c0.096-0.018,0.17-0.077,0.26-0.112h14.29c4.651,0,8.435-3.784,8.435-8.437
		c0-3.144-1.782-5.959-4.451-7.403c0.865-1.65,2.571-2.718,4.451-2.718c2.133,0,4.041,1.367,4.752,3.402
		c0.173,0.493,0.564,0.881,1.062,1.044c0.496,0.168,1.041,0.089,1.478-0.205c0.837-0.566,1.817-0.866,2.833-0.866
		c2.789,0,5.061,2.271,5.061,5.061c-0.008-0.01-0.019,0.078-0.022,0.181c-0.021,0.535,0.212,1.047,0.63,1.381
		s0.968,0.454,1.485,0.316c0.493-0.131,0.899-0.192,1.28-0.192c2.791,0,5.062,2.272,5.062,5.062c0,0.41-0.07,0.847-0.22,1.375
		c-0.126,0.451-0.063,0.934,0.177,1.333c0.242,0.4,0.639,0.682,1.096,0.779c2.322,0.492,4.01,2.574,4.01,4.948
		C91.105,55.092,88.834,57.361,86.043,57.361z"/>
</g>
</svg>
