<?xml version="1.0" encoding="utf-8"?>
<!-- Generator: Adobe Illustrator 16.0.0, SVG Export Plug-In . SVG Version: 6.00 Build 0)  -->
<!DOCTYPE svg PUBLIC "-//W3C//DTD SVG 1.1//EN" "http://www.w3.org/Graphics/SVG/1.1/DTD/svg11.dtd">
<svg version="1.1" id="Layer_1" xmlns="http://www.w3.org/2000/svg" xmlns:xlink="http://www.w3.org/1999/xlink" x="0px" y="0px"
	 width="91.661px" height="73.584px" viewBox="0 0 91.661 73.584" enable-background="new 0 0 91.661 73.584" xml:space="preserve">
<g>
	<path fill="none" d="M13.521,51.296h63.634c1.493,0,2.709-1.215,2.709-2.708V5.669c0-1.493-1.216-2.71-2.709-2.71H14.508
		c-1.493,0-2.71,1.217-2.71,2.71v43.905C11.798,50.524,12.57,51.296,13.521,51.296z M16.73,7.894H74.93v38.471H16.73V7.894z"/>
	<polygon fill="none" points="37.752,21.691 35.198,28.468 40.282,28.468 	"/>
	<path fill="none" d="M54.544,36.115c2.475,0,4.031-2.63,4.111-5.141c-3.44,0.004-6.938,0.357-6.938,2.885
		C51.718,34.946,52.603,36.115,54.544,36.115z"/>
	<path fill="none" d="M80.87,59.908c-0.387-0.387-0.902-0.598-1.451-0.598h-67.18c-0.541,0-1.069,0.217-1.447,0.597l-7.22,7.222
		c-0.606,0.606-0.774,1.441-0.444,2.232c0.327,0.792,1.033,1.266,1.893,1.266h81.621c0.855,0,1.564-0.476,1.891-1.266
		c0.33-0.793,0.164-1.626-0.443-2.232L80.87,59.908z M77.809,68.192H12.168c-0.895,0-1.62-0.726-1.62-1.621s0.726-1.621,1.62-1.621
		h65.641c0.896,0,1.621,0.726,1.621,1.621S78.704,68.192,77.809,68.192z"/>
	<path fill="none" d="M19.69,43.404H71.97V10.851H19.69V43.404z M55.563,24.827c-1.318,0-2.625,0.438-3.678,1.234
		c-0.219,0.166-0.496,0.237-0.767,0.193c-0.271-0.042-0.514-0.192-0.672-0.417l-0.72-1.02c-0.299-0.424-0.229-1.006,0.162-1.348
		c1.344-1.171,3.541-1.899,5.734-1.899c4.016,0,6.32,2.435,6.32,6.681v9.686c0,0.56-0.455,1.013-1.014,1.013h-1.26
		c-0.559,0-1.014-0.454-1.014-1.013v-0.134c-1.154,0.958-2.613,1.507-4.174,1.507c-3.036,0-6.111-1.842-6.111-5.361
		c0-6.141,7.684-6.171,10.271-6.171C58.518,25.717,57.576,24.827,55.563,24.827z M28.258,37.583l7.856-20.99
		c0.148-0.396,0.526-0.658,0.949-0.658h1.379c0.423,0,0.801,0.262,0.949,0.658l7.855,20.99c0.117,0.311,0.073,0.659-0.115,0.932
		c-0.19,0.273-0.502,0.436-0.834,0.436h-1.379c-0.422,0-0.799-0.262-0.947-0.657l-2.482-6.6h-7.5l-2.454,6.597
		c-0.147,0.396-0.525,0.66-0.949,0.66h-1.38c-0.331,0-0.643-0.163-0.832-0.436S28.142,37.894,28.258,37.583z"/>
	<path fill="#FAD64D" d="M74.93,7.894H16.73v38.471H74.93V7.894z M71.97,43.404H19.69V10.851H71.97V43.404z"/>
	<path fill="#FAD64D" d="M13.521,54.254h63.631c3.125,0,5.67-2.544,5.67-5.67V5.669c0-3.125-2.545-5.669-5.67-5.669H14.508
		c-3.124,0-5.669,2.544-5.669,5.669v43.903C8.839,52.154,10.938,54.254,13.521,54.254z M11.798,5.669c0-1.493,1.217-2.71,2.71-2.71
		h62.646c1.493,0,2.709,1.217,2.709,2.71v42.918c0,1.493-1.216,2.708-2.709,2.708H13.521c-0.95,0-1.723-0.771-1.723-1.722V5.669z"/>
	<path fill="#FAD64D" d="M90.181,65.034l-7.217-7.221c-0.947-0.946-2.203-1.466-3.543-1.466h-67.18
		c-1.322,0-2.613,0.535-3.541,1.466l-7.218,7.218c-1.46,1.46-1.878,3.55-1.09,5.46c0.79,1.907,2.565,3.092,4.63,3.092h81.619
		c2.062,0,3.837-1.186,4.625-3.092C92.058,68.583,91.642,66.495,90.181,65.034z M88.532,69.36c-0.326,0.791-1.035,1.266-1.891,1.266
		H5.021c-0.859,0-1.565-0.474-1.893-1.266c-0.33-0.792-0.162-1.626,0.444-2.232l7.22-7.222c0.378-0.38,0.906-0.597,1.447-0.597
		h67.18c0.549,0,1.064,0.211,1.451,0.598l7.219,7.22C88.696,67.734,88.862,68.567,88.532,69.36z"/>
	<path fill="#FAD64D" d="M29.206,38.951h1.38c0.424,0,0.802-0.264,0.949-0.66l2.454-6.597h7.5l2.482,6.6
		c0.148,0.395,0.525,0.657,0.947,0.657h1.379c0.332,0,0.644-0.163,0.834-0.436c0.188-0.273,0.232-0.621,0.115-0.932l-7.855-20.99
		c-0.148-0.396-0.526-0.658-0.949-0.658h-1.379c-0.423,0-0.801,0.262-0.949,0.658l-7.856,20.99
		c-0.116,0.311-0.073,0.659,0.116,0.932S28.875,38.951,29.206,38.951z M37.752,21.691l2.53,6.777h-5.084L37.752,21.691z"/>
	<path fill="#FAD64D" d="M48.372,33.95c0,3.519,3.075,5.361,6.111,5.361c1.561,0,3.02-0.549,4.174-1.507v0.134
		c0,0.56,0.455,1.013,1.014,1.013h1.26c0.559,0,1.014-0.454,1.014-1.013v-9.686c0-4.246-2.305-6.681-6.32-6.681
		c-2.193,0-4.391,0.728-5.734,1.899c-0.391,0.342-0.461,0.923-0.162,1.348l0.72,1.02c0.158,0.224,0.4,0.375,0.672,0.417
		c0.271,0.044,0.548-0.027,0.767-0.193c1.053-0.795,2.359-1.234,3.678-1.234c2.013,0,2.954,0.89,3.08,2.951
		C56.056,27.778,48.372,27.809,48.372,33.95z M58.655,30.974c-0.08,2.511-1.637,5.141-4.111,5.141c-1.941,0-2.826-1.169-2.826-2.255
		C51.718,31.331,55.215,30.978,58.655,30.974z"/>
	<path fill="#FAD64D" d="M77.809,64.95H12.168c-0.895,0-1.62,0.726-1.62,1.621s0.726,1.621,1.62,1.621h65.641
		c0.896,0,1.621-0.726,1.621-1.621S78.704,64.95,77.809,64.95z"/>
</g>
</svg>
