<?xml version="1.0" encoding="utf-8"?>
<!-- Generator: Adobe Illustrator 16.0.0, SVG Export Plug-In . SVG Version: 6.00 Build 0)  -->
<!DOCTYPE svg PUBLIC "-//W3C//DTD SVG 1.1//EN" "http://www.w3.org/Graphics/SVG/1.1/DTD/svg11.dtd">
<svg version="1.1" id="Layer_1" xmlns="http://www.w3.org/2000/svg" xmlns:xlink="http://www.w3.org/1999/xlink" x="0px" y="0px"
	 width="80.591px" height="75.5px" viewBox="0 0 80.591 75.5" enable-background="new 0 0 80.591 75.5" xml:space="preserve">
<g>
	<path fill="#FAD64D" d="M0,75.5h80.591V0H0V75.5z M3.241,15.644h74.109v56.615H3.241V15.644z M77.351,12.404H3.241V3.241h74.109
		V12.404z"/>
	<path fill="#FAD64D" d="M9.677,10.783c1.451,0,2.633-1.182,2.633-2.633c0-1.453-1.182-2.635-2.633-2.635
		c-1.453,0-2.635,1.182-2.635,2.635C7.042,9.601,8.224,10.783,9.677,10.783z"/>
	<path fill="#FAD64D" d="M16.159,10.783c1.451,0,2.633-1.182,2.633-2.633c0-1.453-1.182-2.635-2.633-2.635
		c-1.453,0-2.634,1.182-2.634,2.635C13.525,9.601,14.706,10.783,16.159,10.783z"/>
	<path fill="#FAD64D" d="M22.642,10.783c1.452,0,2.634-1.182,2.634-2.633c0-1.453-1.182-2.635-2.634-2.635
		c-1.451,0-2.633,1.182-2.633,2.635C20.009,9.601,21.19,10.783,22.642,10.783z"/>
	<path fill="#FAD64D" d="M30.376,51.925c0.512-0.734,0.33-1.744-0.405-2.256l-9.948-6.918l9.948-6.918
		c0.735-0.512,0.917-1.52,0.405-2.256c-0.51-0.732-1.521-0.914-2.256-0.404l-13.776,9.578l13.776,9.58
		c0.282,0.195,0.605,0.289,0.924,0.289C29.557,52.621,30.062,52.378,30.376,51.925z"/>
	<path fill="#FAD64D" d="M50.738,49.669c-0.735,0.512-0.917,1.521-0.405,2.256c0.314,0.453,0.819,0.695,1.332,0.695
		c0.319,0,0.642-0.094,0.924-0.289l13.776-9.58l-13.776-9.578c-0.735-0.51-1.745-0.33-2.256,0.404
		c-0.512,0.736-0.33,1.744,0.405,2.256l9.948,6.918L50.738,49.669z"/>
	<path fill="#FAD64D" d="M46.847,26.65c-0.826-0.344-1.775,0.043-2.121,0.869L32.443,56.861c-0.347,0.824,0.044,1.773,0.868,2.119
		c0.205,0.086,0.417,0.127,0.626,0.127c0.634,0,1.235-0.373,1.495-0.996l12.283-29.34C48.062,27.947,47.673,26.996,46.847,26.65z"/>
	<path fill="#FAD64D" d="M9.249,23.636H33.56c0.896,0,1.621-0.727,1.621-1.621s-0.726-1.621-1.621-1.621H9.249
		c-0.896,0-1.621,0.727-1.621,1.621S8.354,23.636,9.249,23.636z"/>
	<path fill="#FAD64D" d="M9.249,30.119h12.155c0.895,0,1.62-0.725,1.62-1.621c0-0.895-0.726-1.621-1.62-1.621H9.249
		c-0.896,0-1.621,0.727-1.621,1.621C7.628,29.394,8.354,30.119,9.249,30.119z"/>
	<path fill="#FAD64D" d="M12.489,62.535h-3.24c-0.896,0-1.621,0.725-1.621,1.621c0,0.895,0.726,1.619,1.621,1.619h3.24
		c0.896,0,1.621-0.725,1.621-1.619C14.11,63.259,13.386,62.535,12.489,62.535z"/>
	<path fill="#FAD64D" d="M23.024,62.535h-3.24c-0.896,0-1.621,0.725-1.621,1.621c0,0.895,0.725,1.619,1.621,1.619h3.24
		c0.896,0,1.621-0.725,1.621-1.619C24.646,63.259,23.92,62.535,23.024,62.535z"/>
	<path fill="#FAD64D" d="M33.56,62.535h-3.241c-0.896,0-1.621,0.725-1.621,1.621c0,0.895,0.726,1.619,1.621,1.619h3.241
		c0.896,0,1.621-0.725,1.621-1.619C35.181,63.259,34.455,62.535,33.56,62.535z"/>
	<path fill="#FAD64D" d="M69.216,62.535H44.095c-0.895,0-1.621,0.725-1.621,1.621c0,0.895,0.727,1.619,1.621,1.619h25.121
		c0.896,0,1.621-0.725,1.621-1.619C70.837,63.259,70.111,62.535,69.216,62.535z"/>
	<path fill="#FAD64D" d="M69.216,56.05H57.061c-0.896,0-1.62,0.727-1.62,1.621s0.725,1.621,1.62,1.621h12.155
		c0.896,0,1.621-0.727,1.621-1.621S70.111,56.05,69.216,56.05z"/>
	<path fill="#FAD64D" d="M69.216,20.394H57.061c-0.896,0-1.62,0.727-1.62,1.621s0.725,1.621,1.62,1.621h12.155
		c0.896,0,1.621-0.727,1.621-1.621S70.111,20.394,69.216,20.394z"/>
</g>
</svg>
