<?xml version="1.0" encoding="utf-8"?>
<!-- Generator: Adobe Illustrator 16.0.0, SVG Export Plug-In . SVG Version: 6.00 Build 0)  -->
<!DOCTYPE svg PUBLIC "-//W3C//DTD SVG 1.1//EN" "http://www.w3.org/Graphics/SVG/1.1/DTD/svg11.dtd">
<svg version="1.1" id="Layer_1" xmlns="http://www.w3.org/2000/svg" xmlns:xlink="http://www.w3.org/1999/xlink" x="0px" y="0px"
	 width="74.248px" height="97.746px" viewBox="0 0 74.248 97.746" enable-background="new 0 0 74.248 97.746" xml:space="preserve">
<g>
	<circle fill="#FAD64D" cx="30.753" cy="80.46" r="2.161"/>
	<path fill="#FAD64D" d="M70.195,40.311h-8.688V4.052C61.507,1.818,59.689,0,57.455,0H4.051C1.816,0,0,1.818,0,4.052v79.107
		c0,2.234,1.816,4.052,4.051,4.052h35.157v6.483c0,2.234,1.818,4.052,4.052,4.052h26.936c2.234,0,4.053-1.818,4.053-4.052V44.362
		C74.248,42.128,72.43,40.311,70.195,40.311z M70.195,94.504H43.26c-0.438,0-0.811-0.371-0.811-0.81v-6.751h28.557v6.751
		C71.006,94.133,70.635,94.504,70.195,94.504z M3.24,83.159V4.052c0-0.439,0.371-0.81,0.811-0.81h53.404
		c0.439,0,0.811,0.371,0.811,0.81v36.259h-2.057V15.207c0-1.198-0.533-2.265-1.362-3.008c-0.743-0.868-1.834-1.431-3.063-1.431
		H9.725c-2.234,0-4.053,1.818-4.053,4.052v57.572c0,1.199,0.533,2.265,1.363,3.008c0.744,0.869,1.834,1.431,3.063,1.431h29.109
		v7.139H4.051C3.611,83.97,3.24,83.598,3.24,83.159z M71.006,44.362v6.114H42.449v-6.114c0-0.439,0.372-0.81,0.811-0.81h26.936
		C70.635,43.552,71.006,43.923,71.006,44.362z M71.006,83.702H42.449V53.717h28.557V83.702z M39.208,44.362v29.227H10.099
		c-0.438,0-0.81-0.372-0.81-0.811V15.207c0-0.439,0.371-0.811,0.81-0.811h42.06c0.439,0,0.811,0.371,0.811,0.811v25.104H43.26
		C41.026,40.311,39.208,42.128,39.208,44.362z"/>
	<circle fill="#FAD64D" cx="56.686" cy="90.995" r="2.161"/>
	<path fill="#FAD64D" d="M60.302,45.614h-7.294c-0.895,0-1.62,0.726-1.62,1.621s0.726,1.621,1.62,1.621h7.294
		c0.896,0,1.62-0.726,1.62-1.621S61.197,45.614,60.302,45.614z"/>
	<path fill="#FAD64D" d="M48.957,17.25h-2.075l-0.042-0.078l-0.145,0.078H14.751l-0.146-0.078l-0.041,0.078H12.49v21.07h36.467
		V17.25z M30.723,29.489l10.429,5.589H20.295L30.723,29.489z M15.73,33.848V21.454l11.562,6.197L15.73,33.848z M34.154,27.65
		l11.561-6.197v12.394L34.154,27.65z M30.723,25.812l-9.924-5.32h19.85L30.723,25.812z"/>
	<path fill="#FAD64D" d="M45.715,56.959V80.46h21.881V56.959H45.715z M58.848,68.709l5.506-5.992v11.983L58.848,68.709z
		 M56.646,66.313L51.027,60.2h11.237L56.646,66.313z M54.443,68.709l-5.486,5.971V62.738L54.443,68.709z M56.646,71.105l5.619,6.114
		H51.027L56.646,71.105z"/>
	<rect x="12.49" y="42.373" fill="#FAD64D" width="18.639" height="3.241"/>
	<rect x="12.49" y="48.045" fill="#FAD64D" width="18.639" height="3.241"/>
	<rect x="12.49" y="53.717" fill="#FAD64D" width="18.639" height="3.242"/>
	<rect x="12.49" y="59.39" fill="#FAD64D" width="18.639" height="3.242"/>
</g>
</svg>
