<?xml version="1.0" encoding="utf-8"?>
<!-- Generator: Adobe Illustrator 19.2.1, SVG Export Plug-In . SVG Version: 6.00 Build 0)  -->
<svg version="1.1" id="Layer_1" xmlns="http://www.w3.org/2000/svg" xmlns:xlink="http://www.w3.org/1999/xlink" x="0px" y="0px"
	 viewBox="0 0 43 23" style="enable-background:new 0 0 43 23;" xml:space="preserve">
<style type="text/css">
	.st0{fill-rule:evenodd;clip-rule:evenodd;fill:#BF2026;}
	.st1{fill-rule:evenodd;clip-rule:evenodd;fill: #ffffff;}
	.st2{fill:#FFFFFF;}
	.st1{
		-moz-animation: fade 1s linear infinite;
		-webkit-animation: fade 1s linear infinite;
		animation: fade 1s linear infinite;
	}

	@keyframes fade {
		0%   {
			fill:#ffffff;
		}
		50%   {
			fill:#BF2026;
		}
		100% {
			fill:#ffffff;
		}
	}
	@-moz-keyframes fade {
		0%   {
			fill:#ffffff;
		}
		50%   {
			fill:#BF2026;
		}
		100% {
			fill:#ffffff;
		}
	}
	@-webkit-keyframes fade {
		0%   {
			fill:#ffffff;
		}
		50%   {
			fill:#BF2026;
		}
		100% {
			fill:#ffffff;
		}
	}

</style>
<g>
	<g>
		<path class="st0" d="M40,0H3C1.3,0,0,1.3,0,3v17c0,1.7,1.3,3,3,3h37c1.7,0,3-1.3,3-3V3C43,1.3,41.7,0,40,0z"/>
	</g>
</g>
<path class="st1" d="M7.5,5.8c1.6,0,2.9,1.3,2.9,2.9s-1.3,2.9-2.9,2.9s-2.9-1.3-2.9-2.9S5.9,5.8,7.5,5.8z" />
<path class="st2" d="M18.1,17.2v-1.6H15V5.8h-1.8v11.4H18.1z"/>
<path class="st2" d="M21.8,17.2V5.8H20v11.4H21.8z"/>
<path class="st2" d="M27.6,10.5l-0.5,3.6H27l-0.5-3.6l-0.8-4.7h-1.9L26,17.2h2.1l2.2-11.4h-1.8L27.6,10.5z"/>
<path class="st2" d="M37.3,17.2v-1.6H34v-3.3h2.8v-1.7H34V7.5h3.3V5.8h-5v11.4H37.3z"/>
</svg>
