<?xml version="1.0" encoding="utf-8"?>
<!-- Generator: Adobe Illustrator 16.0.0, SVG Export Plug-In . SVG Version: 6.00 Build 0)  -->
<!DOCTYPE svg PUBLIC "-//W3C//DTD SVG 1.1//EN" "http://www.w3.org/Graphics/SVG/1.1/DTD/svg11.dtd">
<svg version="1.1" id="Layer_1" xmlns="http://www.w3.org/2000/svg" xmlns:xlink="http://www.w3.org/1999/xlink" x="0px" y="0px"
	 width="120px" height="47px" viewBox="0 0 120 47" enable-background="new 0 0 120 47" xml:space="preserve">
<g>
	<polygon fill="none" points="4.832,6.288 4.832,41.725 39.525,41.725 39.525,7.298 22.617,26.742 	"/>
	<polygon fill="none" points="111.435,41.725 92.924,11.108 75.125,41.725 	"/>
	<path fill="none" d="M76.416,23.061c0-17.328-17.93-17.774-18.693-17.785H45.233v36.449h8.712l0,0h3.779
		C58.926,41.68,76.416,40.713,76.416,23.061z"/>
	<path fill="#FAD64D" d="M120.001,46.556L92.842,1.637L81.213,21.641C80.417,5.083,65.67,0.519,57.751,0.444H39.084L22.617,19.379
		L6.152,0.444H0v46.111h54.823h2.989h8.916l0,0H120.001z M92.924,11.108l18.511,30.616h-36.31L92.924,11.108z M39.525,41.725H4.832
		V6.288l17.785,20.454L39.525,7.298V41.725z M57.725,41.725h-3.779l0,0h-8.712V5.275h12.489c0.764,0.011,18.693,0.457,18.693,17.785
		C76.416,40.713,58.926,41.68,57.725,41.725z"/>
</g>
</svg>
