<?xml version="1.0" encoding="utf-8"?>
<!-- Generator: Adobe Illustrator 16.0.0, SVG Export Plug-In . SVG Version: 6.00 Build 0)  -->
<!DOCTYPE svg PUBLIC "-//W3C//DTD SVG 1.1//EN" "http://www.w3.org/Graphics/SVG/1.1/DTD/svg11.dtd">
<svg version="1.1" id="Layer_1" xmlns="http://www.w3.org/2000/svg" xmlns:xlink="http://www.w3.org/1999/xlink" x="0px" y="0px"
	 width="33.831px" height="33.83px" viewBox="0 0 33.831 33.83" enable-background="new 0 0 33.831 33.83" xml:space="preserve">
<g>
	<g>
		<g>
			<circle fill="#FBD63F" cx="16.916" cy="16.915" r="16.916"/>
		</g>
	</g>
	<g>
		<g>
			<g>
				<g>
					<path fill="#343434" d="M13.899,9.883c-1.203-1.202-2.929-1.222-4.104-0.047c-1.163,1.163-1.132,2.879,0.07,4.085
						c1.183,1.18,2.883,1.194,4.046,0.033C15.087,12.777,15.082,11.065,13.899,9.883z"/>
				</g>
			</g>
			<g>
				<g>
					<path fill="#343434" d="M23.941,19.926c-1.202-1.203-2.929-1.223-4.104-0.046c-1.163,1.161-1.131,2.878,0.069,4.08
						c1.185,1.184,2.885,1.199,4.046,0.036C25.13,22.819,25.126,21.108,23.941,19.926z"/>
				</g>
			</g>
		</g>
		<g>
			<path fill="#343434" d="M10.122,25.486c-0.384,0-0.768-0.146-1.061-0.439c-0.586-0.586-0.586-1.535,0-2.121L22.648,9.34
				c0.586-0.586,1.535-0.586,2.121,0s0.586,1.535,0,2.121L11.183,25.047C10.89,25.34,10.506,25.486,10.122,25.486z"/>
		</g>
	</g>
</g>
</svg>
