<?xml version="1.0" encoding="utf-8"?>
<!-- Generator: Adobe Illustrator 16.0.0, SVG Export Plug-In . SVG Version: 6.00 Build 0)  -->
<!DOCTYPE svg PUBLIC "-//W3C//DTD SVG 1.1//EN" "http://www.w3.org/Graphics/SVG/1.1/DTD/svg11.dtd">
<svg version="1.1" id="Layer_1" xmlns="http://www.w3.org/2000/svg" xmlns:xlink="http://www.w3.org/1999/xlink" x="0px" y="0px"
	 width="445px" height="445px" viewBox="0 0 445 445" enable-background="new 0 0 445 445" xml:space="preserve">
<path fill="#FAD64E" d="M219.453,302.826h16.974c0,0,5.126-0.564,7.747-3.386c2.409-2.592,2.332-7.456,2.332-7.456
	s-0.332-22.775,10.237-26.13c10.423-3.307,23.804,22.013,37.985,31.748c10.725,7.364,18.875,5.753,18.875,5.753l37.925-0.529
	c0,0,19.838-1.225,10.432-16.822c-0.771-1.273-5.479-11.538-28.199-32.626c-23.781-22.071-20.595-18.501,8.052-56.679
	c17.444-23.251,24.418-37.445,22.238-43.525c-2.076-5.792-14.907-4.262-14.907-4.262l-42.7,0.266c0,0-3.168-0.433-5.515,0.973
	c-2.295,1.373-3.768,4.581-3.768,4.581s-6.762,17.991-15.771,33.294c-19.014,32.286-26.617,33.994-29.726,31.987
	c-7.231-4.674-5.425-18.771-5.425-28.786c0-31.29,4.746-44.336-9.241-47.712c-4.642-1.121-8.061-1.862-19.932-1.982
	c-15.235-0.156-28.131,0.046-35.432,3.623c-4.859,2.38-8.606,7.679-6.322,7.985c2.822,0.376,9.213,1.725,12.603,6.335
	c4.377,5.955,4.223,19.322,4.223,19.322s2.516,36.832-5.872,41.407c-5.755,3.137-13.651-3.269-30.603-32.561
	c-8.685-15.003-15.242-31.591-15.242-31.591s-1.265-3.1-3.521-4.759c-2.735-2.01-6.56-2.646-6.56-2.646l-40.577,0.265
	c0,0-6.091,0.17-8.328,2.819c-1.991,2.357-0.159,7.229-0.159,7.229s31.768,74.322,67.737,111.775
	C182.002,305.08,219.453,302.826,219.453,302.826L219.453,302.826z"/>
</svg>
