<?xml version="1.0" encoding="utf-8"?>
<!-- Generator: Adobe Illustrator 16.0.0, SVG Export Plug-In . SVG Version: 6.00 Build 0)  -->
<!DOCTYPE svg PUBLIC "-//W3C//DTD SVG 1.1//EN" "http://www.w3.org/Graphics/SVG/1.1/DTD/svg11.dtd">
<svg version="1.1" id="Layer_1" xmlns="http://www.w3.org/2000/svg" xmlns:xlink="http://www.w3.org/1999/xlink" x="0px" y="0px"
	 width="24.25px" height="24.25px" viewBox="0 0 24.25 24.25" enable-background="new 0 0 24.25 24.25" xml:space="preserve">
<g>
	<path fill="none" d="M12.125,2C6.542,2,2,6.542,2,12.125S6.542,22.25,12.125,22.25c1.388,0,2.71-0.281,3.915-0.789
		c-0.098-0.39-0.165-0.791-0.165-1.211c0-2.762,2.238-5,5-5c0.289,0,0.568,0.038,0.845,0.085c0.339-1.01,0.53-2.087,0.53-3.21
		C22.25,6.542,17.708,2,12.125,2z M18.75,14h-5.375H11.5v-1.875V3.25h1.875v8.875h5.375V14z"/>
	<path fill="#343434" d="M12.125,22.25C6.542,22.25,2,17.708,2,12.125S6.542,2,12.125,2S22.25,6.542,22.25,12.125
		c0,1.123-0.191,2.2-0.53,3.21c0.679,0.116,1.31,0.362,1.865,0.723c0.424-1.235,0.665-2.555,0.665-3.933
		C24.25,5.429,18.821,0,12.125,0S0,5.429,0,12.125S5.429,24.25,12.125,24.25c1.7,0,3.316-0.353,4.785-0.984
		c-0.404-0.53-0.704-1.138-0.87-1.805C14.835,21.969,13.513,22.25,12.125,22.25z"/>
	<path fill="#FBD73D" d="M23.585,16.058c-0.556-0.36-1.187-0.606-1.865-0.723c-0.276-0.047-0.556-0.085-0.845-0.085
		c-2.762,0-5,2.238-5,5c0,0.42,0.067,0.821,0.165,1.211c0.166,0.667,0.466,1.274,0.87,1.805c0.913,1.198,2.342,1.984,3.965,1.984
		c2.762,0,5-2.238,5-5C25.875,18.489,24.961,16.948,23.585,16.058z M21.812,23.461v0.31h-1.875v-0.31v-1.465h1.875V23.461z
		 M21.812,20.813h-1.875v-0.712v-3.372h1.875v3.372V20.813z"/>
	<polygon fill="#434343" points="13.375,3.25 11.5,3.25 11.5,12.125 11.5,14 13.375,14 18.75,14 18.75,12.125 13.375,12.125 	"/>
	<polygon fill="#434343" points="21.812,16.729 19.938,16.729 19.938,20.102 19.938,20.813 21.812,20.813 21.812,20.102 	"/>
	<polygon fill="#434343" points="19.938,23.461 19.938,23.771 21.812,23.771 21.812,23.461 21.812,21.996 19.938,21.996 	"/>
</g>
</svg>
