<?xml version="1.0" encoding="utf-8"?>
<!-- Generator: Adobe Illustrator 19.1.0, SVG Export Plug-In . SVG Version: 6.00 Build 0)  -->
<svg version="1.1" id="Layer_1" xmlns="http://www.w3.org/2000/svg" xmlns:xlink="http://www.w3.org/1999/xlink" x="0px" y="0px"
	 viewBox="56.8 0 24.3 23.6" style="enable-background:new 56.8 0 24.3 23.6;" xml:space="preserve">
<style type="text/css">
	.st0{fill:none;}
	.st1{fill:#343434;}
	.st2{fill:#FBD73D;}
	.st3{fill:#434343;}
</style>
<g>
	<defs>
		<circle id="SVGID_1_" cx="67.9" cy="11.3" r="9.7"/>
	</defs>
	<clipPath id="SVGID_2_">
		<use xlink:href="#SVGID_1_"  style="overflow:visible;"/>
	</clipPath>
</g>
<g>
	<path class="st0" d="M68.1,1.9c-5.2,0-9.5,4.2-9.5,9.5s4.2,9.5,9.5,9.5c1.3,0,2.5-0.3,3.7-0.7c-0.1-0.4-0.2-0.7-0.2-1.1
		c0-2.6,2.1-4.7,4.7-4.7c0.3,0,0.5,0,0.8,0.1c0.3-0.9,0.5-2,0.5-3C77.6,6.1,73.3,1.9,68.1,1.9z M74.3,13.1h-5h-1.8v-1.8V3h1.8v8.3h5
		V13.1z"/>
	<path class="st1" d="M68.1,20.8c-5.2,0-9.5-4.2-9.5-9.5s4.2-9.5,9.5-9.5c5.2,0,9.5,4.2,9.5,9.5c0,1.1-0.2,2.1-0.5,3
		c0.6,0.1,1.2,0.3,1.7,0.7c0.4-1.2,0.6-2.4,0.6-3.7C79.4,5.1,74.4,0,68.1,0c-6.3,0-11.3,5.1-11.3,11.3c0,6.3,5.1,11.3,11.3,11.3
		c1.6,0,3.1-0.3,4.5-0.9c-0.4-0.5-0.7-1.1-0.8-1.7C70.6,20.6,69.4,20.8,68.1,20.8z"/>
	<path class="st2" d="M78.8,15c-0.5-0.3-1.1-0.6-1.7-0.7c-0.3,0-0.5-0.1-0.8-0.1c-2.6,0-4.7,2.1-4.7,4.7c0,0.4,0.1,0.8,0.2,1.1
		c0.2,0.6,0.4,1.2,0.8,1.7c0.9,1.1,2.2,1.9,3.7,1.9c2.6,0,4.7-2.1,4.7-4.7C81,17.3,80.1,15.9,78.8,15z M77.2,22v0.3h-1.8V22v-1.4
		h1.8V22z M77.2,19.5h-1.8v-0.7v-3.2h1.8v3.2V19.5z"/>
	<polygon class="st3" points="77.2,15.7 75.4,15.7 75.4,18.8 75.4,19.5 77.2,19.5 77.2,18.8 	"/>
	<polygon class="st3" points="75.4,22 75.4,22.2 77.2,22.2 77.2,22 77.2,20.6 75.4,20.6 	"/>
</g>
<g>
	<path class="st0" d="M70.6,9c0-0.6-0.2-1.2-1.6-1.2c-0.2,0-0.3,0-0.4,0v2.4h1C70.3,10.1,70.6,9.7,70.6,9z"/>
	<path class="st1" d="M67.9,12.3l0.4,0c1.6,0.1,3-0.3,3.8-1.1c0.6-0.6,0.8-1.3,0.8-2.3c0-0.9-0.3-1.7-0.9-2.2
		c-0.7-0.6-1.7-0.9-3-0.9c-0.9,0-1.8,0.1-2.6,0.2l-0.1,0v4.9h-1.6v1.2h1.6v1.3h-1.6v1.2h1.6v2.6h1.6v-2.6h1.3v-1.2h-1.3V12.3z
		 M69.2,10.9h-1.3V7.2l0.3,0c0.2,0,0.5,0,0.8,0c2,0,2.3,1.2,2.3,1.9c0,1.1-0.6,1.8-1.7,2"/>
</g>
</svg>
