<?xml version="1.0" encoding="utf-8"?>
<!-- Generator: Adobe Illustrator 19.1.0, SVG Export Plug-In . SVG Version: 6.00 Build 0)  -->
<svg version="1.1" id="Layer_1" xmlns="http://www.w3.org/2000/svg" xmlns:xlink="http://www.w3.org/1999/xlink" x="0px" y="0px"
	 viewBox="0 0 44 27" style="enable-background:new 0 0 44 27;" xml:space="preserve">
<style type="text/css">
	.st0{fill:#343434;}
	.st1{fill-rule:evenodd;clip-rule:evenodd;fill:#343434;}
</style>
<g>
	<path class="st0" d="M40,1.7c1.3,0,2.3,1,2.3,2.3v19c0,1.3-1,2.3-2.3,2.3H4c-1.3,0-2.3-1-2.3-2.3V4c0-1.3,1-2.3,2.3-2.3H40 M40,0H4
		C1.8,0,0,1.8,0,4v19c0,2.2,1.8,4,4,4h36c2.2,0,4-1.8,4-4V4C44,1.8,42.2,0,40,0L40,0z"/>
</g>
<g>
	<path class="st1" d="M0.7,7.8v-2h42v2H0.7z"/>
</g>
<g>
	<path class="st1" d="M0.7,12.9v-2h42v2H0.7z"/>
</g>
</svg>
