<?xml version="1.0" encoding="utf-8"?>
<!-- Generator: Adobe Illustrator 19.1.0, SVG Export Plug-In . SVG Version: 6.00 Build 0)  -->
<svg version="1.1" id="Layer_1" xmlns="http://www.w3.org/2000/svg" xmlns:xlink="http://www.w3.org/1999/xlink" x="0px" y="0px"
	 viewBox="-283 383 44 27" style="enable-background:new -283 383 44 27;" xml:space="preserve">
<style type="text/css">
	.st0{fill:#E3C348;}
</style>
<g>
	<path class="st0" d="M-243,384.7c1.3,0,2.3,1,2.3,2.3v19c0,1.3-1,2.3-2.3,2.3h-36c-1.3,0-2.3-1-2.3-2.3v-19c0-1.3,1-2.3,2.3-2.3
		H-243 M-243,383h-36c-2.2,0-4,1.8-4,4v19c0,2.2,1.8,4,4,4h36c2.2,0,4-1.8,4-4v-19C-239,384.8-240.8,383-243,383L-243,383z"/>
</g>
<g>
	<path class="st0" d="M-282.3,390.8v-2h42v2H-282.3z"/>
</g>
<g>
	<path class="st0" d="M-282.3,395.9v-2h42v2H-282.3z"/>
</g>
</svg>
