<?xml version="1.0" encoding="utf-8"?>
<!-- Generator: Adobe Illustrator 19.1.0, SVG Export Plug-In . SVG Version: 6.00 Build 0)  -->
<svg version="1.1" id="Layer_1" xmlns="http://www.w3.org/2000/svg" xmlns:xlink="http://www.w3.org/1999/xlink" x="0px" y="0px"
	 viewBox="56.8 0 24.3 23.8" style="enable-background:new 56.8 0 24.3 23.8;" xml:space="preserve">
<style type="text/css">
	.st0{clip-path:url(#SVGID_2_);fill:none;stroke:#343434;stroke-width:2;stroke-miterlimit:10;}
	.st1{fill:none;}
	.st2{fill:#343434;}
	.st3{fill:#FBD73D;}
	.st4{fill:#434343;}
</style>
<g>
	<defs>
		<circle id="SVGID_1_" cx="68" cy="11.4" r="9.7"/>
	</defs>
	<clipPath id="SVGID_2_">
		<use xlink:href="#SVGID_1_"  style="overflow:visible;"/>
	</clipPath>
	<circle class="st0" cx="68.2" cy="9.5" r="4.2"/>
	<circle class="st0" cx="68.2" cy="21.4" r="7.6"/>
</g>
<g>
	<path class="st1" d="M68.2,1.9c-5.3,0-9.5,4.3-9.5,9.5s4.3,9.5,9.5,9.5c1.3,0,2.6-0.3,3.7-0.7c-0.1-0.4-0.2-0.7-0.2-1.1
		c0-2.6,2.1-4.7,4.7-4.7c0.3,0,0.5,0,0.8,0.1c0.3-1,0.5-2,0.5-3C77.7,6.2,73.4,1.9,68.2,1.9z M74.4,13.2h-5.1h-1.8v-1.8V3.1h1.8v8.4
		h5.1V13.2z"/>
	<path class="st2" d="M68.2,20.9c-5.3,0-9.5-4.3-9.5-9.5s4.3-9.5,9.5-9.5s9.5,4.3,9.5,9.5c0,1.1-0.2,2.1-0.5,3
		c0.6,0.1,1.2,0.3,1.8,0.7c0.4-1.2,0.6-2.4,0.6-3.7C79.6,5.1,74.5,0,68.2,0c-6.3,0-11.4,5.1-11.4,11.4c0,6.3,5.1,11.4,11.4,11.4
		c1.6,0,3.1-0.3,4.5-0.9c-0.4-0.5-0.7-1.1-0.8-1.7C70.7,20.7,69.5,20.9,68.2,20.9z"/>
	<path class="st3" d="M79,15.1c-0.5-0.3-1.1-0.6-1.8-0.7c-0.3,0-0.5-0.1-0.8-0.1c-2.6,0-4.7,2.1-4.7,4.7c0,0.4,0.1,0.8,0.2,1.1
		c0.2,0.6,0.4,1.2,0.8,1.7c0.9,1.1,2.2,1.9,3.7,1.9c2.6,0,4.7-2.1,4.7-4.7C81.1,17.4,80.2,16,79,15.1z M77.3,22.1v0.3h-1.8v-0.3
		v-1.4h1.8V22.1z M77.3,19.6h-1.8v-0.7v-3.2h1.8v3.2V19.6z"/>
	<polygon class="st4" points="77.3,15.7 75.5,15.7 75.5,18.9 75.5,19.6 77.3,19.6 77.3,18.9 	"/>
	<polygon class="st4" points="75.5,22.1 75.5,22.4 77.3,22.4 77.3,22.1 77.3,20.7 75.5,20.7 	"/>
</g>
</svg>
