<?xml version="1.0" encoding="utf-8"?>
<!-- Generator: Adobe Illustrator 19.1.0, SVG Export Plug-In . SVG Version: 6.00 Build 0)  -->
<svg version="1.1" id="Layer_1" xmlns="http://www.w3.org/2000/svg" xmlns:xlink="http://www.w3.org/1999/xlink" x="0px" y="0px"
	 viewBox="0 0 106.8 96.8" style="enable-background:new 0 0 106.8 96.8;" xml:space="preserve">
<style type="text/css">
	.st0{fill:#FAD64E;}
</style>
<g>
	<g>
		<g>
			<g>
				<g>
					<path class="st0" d="M99.8,79.9H7c-3.7,0-6.6-3-6.6-6.6V7c0-3.7,3-6.6,6.6-6.6h92.8c3.7,0,6.6,3,6.6,6.6v66.3
						C106.4,76.9,103.4,79.9,99.8,79.9z M7,3.7C5.2,3.7,3.7,5.2,3.7,7v66.3c0,1.8,1.5,3.3,3.3,3.3h92.8c1.8,0,3.3-1.5,3.3-3.3V7
						c0-1.8-1.5-3.3-3.3-3.3H7z"/>
					<path class="st0" d="M99.8,80.3H7c-3.8,0-7-3.1-7-7V7c0-3.8,3.1-7,7-7h92.8c3.8,0,7,3.1,7,7v66.3
						C106.8,77.1,103.6,80.3,99.8,80.3z M7,0.7C3.5,0.7,0.7,3.5,0.7,7v66.3c0,3.5,2.8,6.3,6.3,6.3h92.8c3.5,0,6.3-2.8,6.3-6.3V7
						c0-3.5-2.8-6.3-6.3-6.3H7z M99.8,76.9H7c-2,0-3.7-1.6-3.7-3.7V7C3.3,5,5,3.3,7,3.3h92.8c2,0,3.7,1.6,3.7,3.7v66.3
						C103.5,75.3,101.8,76.9,99.8,76.9z M7,4C5.3,4,4,5.3,4,7v66.3c0,1.6,1.3,3,3,3h92.8c1.6,0,3-1.3,3-3V7c0-1.6-1.3-3-3-3H7z"/>
				</g>
			</g>
			<g>
				<g>
					
						<rect x="57.2" y="84.9" transform="matrix(0.2874 0.9578 -0.9578 0.2874 129.7796 -1.3769)" class="st0" width="17.3" height="3.3"/>
					<path class="st0" d="M66.5,95.7l-5.2-17.2l3.8-1.2l5.2,17.2L66.5,95.7z M62.2,79l4.8,15.9l2.5-0.8l-4.8-15.9L62.2,79z"/>
				</g>
			</g>
			<g>
				<g>
					
						<rect x="39.3" y="77.9" transform="matrix(0.9579 0.2871 -0.2871 0.9579 26.5633 -8.1145)" class="st0" width="3.3" height="17.3"/>
					<path class="st0" d="M40.3,95.7l-3.8-1.2l5.2-17.2l3.8,1.2L40.3,95.7z M37.3,94.1l2.5,0.8L44.6,79l-2.5-0.8L37.3,94.1z"/>
				</g>
			</g>
			<g>
				<g>
					<rect x="31.8" y="93.2" class="st0" width="43.1" height="3.3"/>
					<path class="st0" d="M75.3,96.8H31.5v-4h43.8V96.8z M32.2,96.1h42.4v-2.6H32.2V96.1z"/>
				</g>
			</g>
			<g>
				<g>
					<rect x="51.7" y="70" class="st0" width="3.3" height="3.3"/>
					<path class="st0" d="M55.4,73.6h-4v-4h4V73.6z M52.1,72.9h2.6v-2.6h-2.6V72.9z"/>
				</g>
			</g>
			<g>
				<g>
					<path class="st0" d="M98.1,66.6H8.6C7.7,66.6,7,65.9,7,65V8.6C7,7.7,7.7,7,8.6,7h89.5c0.9,0,1.7,0.7,1.7,1.7V65
						C99.8,65.9,99,66.6,98.1,66.6z M10.3,63.3h86.2v-53H10.3V63.3z"/>
					<path class="st0" d="M98.1,67H8.6c-1.1,0-2-0.9-2-2V8.6c0-1.1,0.9-2,2-2h89.5c1.1,0,2,0.9,2,2V65C100.1,66.1,99.2,67,98.1,67z
						 M8.6,7.3c-0.7,0-1.3,0.6-1.3,1.3V65c0,0.7,0.6,1.3,1.3,1.3h89.5c0.7,0,1.3-0.6,1.3-1.3V8.6c0-0.7-0.6-1.3-1.3-1.3H8.6z
						 M96.8,63.7H9.9V9.9h86.9V63.7z M10.6,63h85.5V10.6H10.6V63z"/>
				</g>
			</g>
		</g>
	</g>
</g>
<g>
	<g>
		<path class="st0" d="M24.7,55c-0.6,0-1.2-0.3-1.5-0.7c-0.7-0.9-0.6-2.1,0.3-2.8l16.8-13.7c0.4-0.3,1-0.5,1.5-0.4
			c0.5,0.1,1,0.3,1.4,0.8l7.8,10.1l28.2-27.4c0.8-0.8,2.1-0.8,2.8,0c0.8,0.8,0.8,2.1,0,2.8L52,52.6c-0.4,0.4-1,0.6-1.5,0.6
			c-0.6,0-1.1-0.3-1.4-0.8l-7.9-10.3L25.9,54.6C25.6,54.9,25.1,55,24.7,55z"/>
	</g>
	<g>
		<path class="st0" d="M81.6,29.9c-1.1,0-2-0.9-2-2v-7c0-1.1,0.9-2,2-2c1.1,0,2,0.9,2,2v7C83.6,29,82.7,29.9,81.6,29.9z"/>
	</g>
	<g>
		<path class="st0" d="M81.6,22.9h-7c-1.1,0-2-0.9-2-2c0-1.1,0.9-2,2-2h7c1.1,0,2,0.9,2,2C83.6,22,82.7,22.9,81.6,22.9z"/>
	</g>
</g>
<g>
	<rect x="70.6" y="50.9" class="st0" width="21" height="4"/>
</g>
<g>
	<rect x="70.6" y="44.9" class="st0" width="21" height="4"/>
</g>
<g>
	<rect x="15.6" y="13.9" class="st0" width="10" height="4"/>
</g>
<g>
	<rect x="15.6" y="19.9" class="st0" width="5" height="4"/>
</g>
</svg>
