<?xml version="1.0" encoding="utf-8"?>
<!-- Generator: Adobe Illustrator 19.1.0, SVG Export Plug-In . SVG Version: 6.00 Build 0)  -->
<svg version="1.1" id="Layer_1" xmlns="http://www.w3.org/2000/svg" xmlns:xlink="http://www.w3.org/1999/xlink" x="0px" y="0px"
	 viewBox="-251 353.7 94 89.7" style="enable-background:new -251 353.7 94 89.7;" xml:space="preserve">
<style type="text/css">
	.st0{stroke:#000000;stroke-width:1.2;stroke-miterlimit:10;}
</style>
<g>
	<path class="st0" d="M-185,408.7c30.8-18.5,27.1-53.4,27.1-53.4s-34.9-7.3-56,21.4c-25.2-3.7-36.1,19.8-36.1,19.8
		s14.4-9.5,28.2-4.3c-1.4,3.7-2.2,9.7-2.2,9.7l12.8,14.2c0,0,5.8-0.1,9.8-1.1c2.7,14.6-4.4,23.2-7.2,27.6
		C-208.4,442.5-184.4,434.5-185,408.7z M-161.1,358.2c0,0-0.8,11.3-1.2,13.7l-12.5-13.9C-172.4,357.8-161.1,358.2-161.1,358.2z
		 M-240.9,389.1c0.6-0.7,9.4-10.9,25.2-9.5c-1.9,3-3.6,6.3-4.9,9.8C-227.3,387.2-234.4,387.1-240.9,389.1z M-209.7,413l-10.9-12.1
		c3.5-22.2,20.7-38.9,42.1-42.4l15.4,17C-168.8,396.5-187.2,411.8-209.7,413z M-200.1,434.4c2.7-6.3,3.3-13.4,1.9-20.2
		c3.6-1,7-2.2,10.2-3.9C-188.4,426.5-199.4,433.9-200.1,434.4z"/>
	<path class="st0" d="M-175.4,371.1c-4-4.4-10.7-4.7-15.1-0.8c-4.4,4-4.7,10.7-0.8,15.1c4,4.4,10.7,4.7,15.1,0.8
		C-171.8,382.3-171.4,375.5-175.4,371.1z M-189,383.4c-2.8-3.1-2.6-8,0.6-10.8c3.1-2.8,8-2.6,10.8,0.6c2.8,3.1,2.6,8-0.6,10.8
		C-181.3,386.8-186.2,386.5-189,383.4z"/>
	<polygon class="st0" points="-220.7,409.9 -218.7,412.2 -246.7,439.5 -248.8,437.3 	"/>
	
		<rect x="-232" y="405.9" transform="matrix(-0.6693 -0.743 0.743 -0.6693 -689.7425 513.896)" class="st0" width="3.1" height="9.2"/>
	<polygon class="st0" points="-217.9,417.6 -215.8,419.9 -232.7,436.1 -234.8,433.8 	"/>
</g>
</svg>
