<?xml version="1.0" encoding="utf-8"?>
<!-- Generator: Adobe Illustrator 16.0.0, SVG Export Plug-In . SVG Version: 6.00 Build 0)  -->
<!DOCTYPE svg PUBLIC "-//W3C//DTD SVG 1.1//EN" "http://www.w3.org/Graphics/SVG/1.1/DTD/svg11.dtd">
<svg version="1.1" id="Layer_1" xmlns="http://www.w3.org/2000/svg" xmlns:xlink="http://www.w3.org/1999/xlink" x="0px" y="0px"
	 width="80.592px" height="75.5px" viewBox="0 0 80.592 75.5" enable-background="new 0 0 80.592 75.5" xml:space="preserve">
<path fill="#FAD64D" d="M0,75.5h80.592V0H0V75.5z M3.24,15.646h2.767v8.801H3.24V15.646z M77.35,58.482h-2.461V44.706h2.461V58.482z
	 M27.076,41.465H9.248V27.688h17.828V41.465z M30.318,27.688h20.26v13.776h-20.26V27.688z M27.076,44.706v13.776H9.248V44.706
	H27.076z M30.318,44.706h20.26v13.776h-20.26V44.706z M53.818,44.706h17.829v13.776H53.818V44.706z M77.35,41.465h-2.461V27.688
	h2.461V41.465z M71.647,41.465H53.818V27.688h17.829V41.465z M53.818,24.447v-8.801h17.829v8.801H53.818z M50.578,24.447h-20.26
	v-8.801h20.26V24.447z M27.076,24.447H9.248v-8.801h17.828V24.447z M3.24,27.688h2.767v13.776H3.24V27.688z M3.24,44.706h2.767
	v13.776H3.24V44.706z M3.24,61.724h2.767v10.536H3.24V61.724z M9.248,61.724h17.828v10.536H9.248V61.724z M30.318,61.724h20.26
	v10.536h-20.26V61.724z M53.818,61.724h17.829v10.536H53.818V61.724z M74.889,61.724h2.461v10.536h-2.461V61.724z M77.35,24.447
	h-2.461v-8.801h2.461V24.447z M77.35,12.404H3.24V3.242H77.35V12.404z"/>
<path fill="#FAD64D" d="M9.676,10.784c1.452,0,2.634-1.182,2.634-2.634c0-1.453-1.182-2.634-2.634-2.634
	c-1.453,0-2.635,1.182-2.635,2.634C7.041,9.602,8.223,10.784,9.676,10.784z"/>
<path fill="#FAD64D" d="M16.158,10.784c1.453,0,2.635-1.182,2.635-2.634c0-1.453-1.182-2.634-2.635-2.634
	c-1.452,0-2.633,1.182-2.633,2.634C13.525,9.602,14.706,10.784,16.158,10.784z"/>
<path fill="#FAD64D" d="M22.642,10.784c1.452,0,2.634-1.182,2.634-2.634c0-1.453-1.182-2.634-2.634-2.634s-2.634,1.182-2.634,2.634
	C20.008,9.602,21.189,10.784,22.642,10.784z"/>
</svg>
