<?xml version="1.0" encoding="utf-8"?>
<!-- Generator: Adobe Illustrator 16.0.0, SVG Export Plug-In . SVG Version: 6.00 Build 0)  -->
<!DOCTYPE svg PUBLIC "-//W3C//DTD SVG 1.1//EN" "http://www.w3.org/Graphics/SVG/1.1/DTD/svg11.dtd">
<svg version="1.1" id="Layer_1" xmlns="http://www.w3.org/2000/svg" xmlns:xlink="http://www.w3.org/1999/xlink" x="0px" y="0px"
	 width="80.592px" height="75.5px" viewBox="0 0 80.592 75.5" enable-background="new 0 0 80.592 75.5" xml:space="preserve">
<path fill="#FAD64D" d="M80.592,0H0v75.5h80.592V0z M77.35,12.404H3.241V3.242H77.35V12.404z M3.241,72.259V15.646H77.35v56.613
	H3.241z"/>
<path fill="#FAD64D" d="M8.134,44.302h64.324V19.179H8.134V44.302z M69.217,40.379L45.102,31.74l24.115-8.638V40.379z
	 M19.084,41.061l21.212-7.598l21.21,7.598H19.084z M40.296,30.019l-21.212-7.598h42.422L40.296,30.019z M35.49,31.74l-24.115,8.639
	V23.102L35.49,31.74z"/>
<path fill="#FAD64D" d="M9.676,10.784c1.452,0,2.634-1.182,2.634-2.634c0-1.453-1.182-2.634-2.634-2.634S7.042,6.697,7.042,8.15
	C7.042,9.602,8.224,10.784,9.676,10.784z"/>
<path fill="#FAD64D" d="M16.159,10.784c1.452,0,2.634-1.182,2.634-2.634c0-1.453-1.182-2.634-2.634-2.634s-2.634,1.182-2.634,2.634
	C13.525,9.602,14.707,10.784,16.159,10.784z"/>
<path fill="#FAD64D" d="M22.643,10.784c1.451,0,2.633-1.182,2.633-2.634c0-1.453-1.182-2.634-2.633-2.634
	c-1.453,0-2.635,1.182-2.635,2.634C20.008,9.602,21.189,10.784,22.643,10.784z"/>
<path fill="#FAD64D" d="M44.601,66.587h27.857V49.974H44.601V66.587z M69.217,62.242l-7.293-3.961l7.293-3.961V62.242z M52.6,63.346
	l5.93-3.221l5.93,3.221H52.6z M58.529,56.436l-5.93-3.221h11.859L58.529,56.436z M55.135,58.28l-7.293,3.961v-7.923L55.135,58.28z"
	/>
<rect x="10.059" y="50.378" fill="#FAD64D" width="30.795" height="3.242"/>
<rect x="10.059" y="56.862" fill="#FAD64D" width="30.795" height="3.241"/>
<rect x="10.059" y="63.345" fill="#FAD64D" width="30.795" height="3.241"/>
</svg>
