<?xml version="1.0" encoding="utf-8"?>
<!-- Generator: Adobe Illustrator 16.0.0, SVG Export Plug-In . SVG Version: 6.00 Build 0)  -->
<!DOCTYPE svg PUBLIC "-//W3C//DTD SVG 1.1//EN" "http://www.w3.org/Graphics/SVG/1.1/DTD/svg11.dtd">
<svg version="1.1" id="Layer_1" xmlns="http://www.w3.org/2000/svg" xmlns:xlink="http://www.w3.org/1999/xlink" x="0px" y="0px"
	 width="55.835px" height="87.211px" viewBox="0 0 55.835 87.211" enable-background="new 0 0 55.835 87.211" xml:space="preserve">
<path fill="#FAD64D" d="M26.296,0H0v36.631v50.58h55.835v-50.58V16.696V0H26.296z M52.593,3.241v5.88
	c-1.906-2.373-4.64-4.372-8.166-5.88H52.593z M39.446,33.389h-9.908V19.936h9.908V33.389z M26.296,16.696v16.693H3.28
	C3.979,7.916,20.892,3.967,26.296,3.362V16.696z M42.687,19.936h9.906v13.453h-9.906V19.936z M42.687,16.696H29.538V3.332
	c5.236,0.375,21.453,2.433,22.936,13.364H42.687z M15.974,3.241c-0.686,0.358-1.379,0.744-2.073,1.185
	C8.681,7.74,5.339,12.309,3.241,17.237V3.241H15.974z M3.241,54.801c5.043,13.846,15.113,21.586,23.972,25.859
	c2.84,1.371,5.669,2.451,8.37,3.309H3.241V54.801z M28.526,77.698C12.201,69.78,3.71,55.969,3.263,36.631h23.033h16.391h9.906
	v47.268C48.731,83.655,38.562,82.563,28.526,77.698z"/>
</svg>
