<?xml version="1.0" encoding="utf-8"?>
<!-- Generator: Adobe Illustrator 19.1.0, SVG Export Plug-In . SVG Version: 6.00 Build 0)  -->
<svg version="1.1" id="Layer_1" xmlns="http://www.w3.org/2000/svg" xmlns:xlink="http://www.w3.org/1999/xlink" x="0px" y="0px"
	 viewBox="0 0 92 92" style="enable-background:new 0 0 92 92;" xml:space="preserve">
<style type="text/css">
	.st0{fill:none;}
	.st1{fill:#FAD64E;}
</style>
<g>
	<path class="st0" d="M71.9,3H20.3C19.8,3,19,3.9,19,4.5v25.8c0,0.6,0.8,0.8,1.3,0.8h31.5c1,0,2.1,1.1,2.1,2.1v10l11.1-11.4
		c0.3-0.3,0.6-0.7,1.1-0.7h5.7c0.6,0,1.1-0.2,1.1-0.8V4.5C73,3.9,72.5,3,71.9,3z M38.5,22.7c-0.3,0.4-0.7,0.6-1.1,0.6
		c-0.3,0-0.5-0.1-0.8-0.2l-7.8-5.5l7.8-5.5c0.6-0.4,1.5-0.3,1.9,0.3c0.4,0.6,0.1,1.5-0.6,1.9l-1,0.5v5.4l1,0.5
		C38.6,21.3,39,22.1,38.5,22.7z M51.7,10.5l-6.5,15.4c-0.2,0.5-0.7,0.8-1.2,0.8c-0.2,0-0.4,0-0.5-0.1c-0.3-0.1-0.6-0.4-0.7-0.7
		c-0.1-0.3-0.1-0.7,0-1l6.5-15.4c0.3-0.7,1.1-1,1.8-0.7C51.7,9,52,9.8,51.7,10.5z M57.1,23.1c-0.2,0.2-0.5,0.2-0.8,0.2
		c-0.4,0-0.9-0.2-1.1-0.6c-0.4-0.6-0.4-1.5,0.2-1.9l0.6-0.5v-5.4l-0.6-0.5c-0.6-0.4-0.7-1.3-0.3-1.9c0.4-0.6,1.3-0.8,1.9-0.3
		l7.9,5.5L57.1,23.1z"/>
	<polygon class="st0" points="89,84 56.9,84 54,86 38.2,86 35.4,84 4,84 4,83.9 8.2,89 84.1,89 89,83.9 	"/>
	<path class="st1" d="M85.6,92l6.4-6.6V80h-7V37.4c0-3.4-2.6-6.4-5.9-6.4H79v4h0.1c1.4,0,2.9,1,2.9,2.4V80H55.4l-2.9,3H39.7l-2.9-3
		H11V37.4c0-1.4,0.8-2.4,2.2-2.4H14v-4h-0.8C9.8,31,7,34,7,37.4V80H0v5.4L6.7,92H85.6z M8.2,89L4,83.9V84h31.4l2.9,2H54l2.9-2H89
		v-0.1L84.1,89H8.2z"/>
	<path class="st1" d="M20.3,35H50v12.4c0,0.7,0.5,1.4,1.1,1.7c0.2,0.1,0.5,0.1,0.7,0.1c0.5,0,0.9-0.1,1.3-0.5L66.9,35h5
		c2.6,0,5.1-2.2,5.1-4.8V4.5C77,1.9,74.5,0,71.9,0H20.3C17.8,0,16,1.9,16,4.5v25.8C16,32.8,17.8,35,20.3,35z M73,30.2
		c0,0.6-0.5,0.8-1.1,0.8h-5.7c-0.5,0-0.8,0.3-1.1,0.7L54,43.1v-10c0-1-1.1-2.1-2.1-2.1H20.3c-0.6,0-1.3-0.2-1.3-0.8V4.5
		C19,3.9,19.8,3,20.3,3h51.6C72.5,3,73,3.9,73,4.5V30.2z"/>
	<path class="st1" d="M44.1,47H18.7l0,0l0,0H16v25h31V47H44.1L44.1,47L44.1,47z M31.4,61.5l9.7,7.5H21.7L31.4,61.5z M19,66.5V51.7
		l9.5,7.4L19,66.5z M34.1,59.1l9.9-7.7v15.3L34.1,59.1z M31.4,56.9L22.6,50h17.7L31.4,56.9z"/>
	<rect x="63" y="47" class="st1" width="15" height="3"/>
	<rect x="55" y="53" class="st1" width="23" height="3"/>
	<rect x="63" y="59" class="st1" width="15" height="3"/>
	<rect x="70" y="68" class="st1" width="8" height="3"/>
	<path class="st1" d="M37.4,20.3l-3.9-2.7l3.9-2.7l0.8-0.5c0.6-0.4,0.8-1.3,0.3-1.9c-0.4-0.6-1.3-0.8-1.9-0.3l-7.8,5.5l7.8,5.5
		c0.2,0.2,0.5,0.2,0.8,0.2c0.4,0,0.9-0.2,1.1-0.6c0.4-0.6,0.3-1.5-0.3-1.9L37.4,20.3z"/>
	<path class="st1" d="M55.2,12.5c-0.4,0.6-0.3,1.5,0.3,1.9l0.8,0.5l3.9,2.7l-3.9,2.7l-0.8,0.5c-0.6,0.4-0.8,1.3-0.3,1.9
		c0.3,0.4,0.7,0.6,1.1,0.6c0.3,0,0.5-0.1,0.8-0.2l7.8-5.5l-7.8-5.5C56.5,11.8,55.6,11.9,55.2,12.5z"/>
	<path class="st1" d="M51,8.7c-0.7-0.3-1.5,0.1-1.8,0.7l-6.5,15.4c-0.1,0.3-0.1,0.7,0,1c0.1,0.3,0.4,0.6,0.7,0.7
		c0.2,0.1,0.3,0.1,0.5,0.1c0.5,0,1-0.3,1.2-0.8l6.5-15.4C52,9.8,51.7,9,51,8.7z"/>
</g>
</svg>
