<?xml version="1.0" encoding="utf-8"?>
<!-- Generator: Adobe Illustrator 19.1.0, SVG Export Plug-In . SVG Version: 6.00 Build 0)  -->
<svg version="1.1" id="Layer_1" xmlns="http://www.w3.org/2000/svg" xmlns:xlink="http://www.w3.org/1999/xlink" x="0px" y="0px"
	 viewBox="0 0 86.4 81.2" style="enable-background:new 0 0 86.4 81.2;" xml:space="preserve">
<style type="text/css">
	.st0{fill:none;}
	.st1{fill:#FAD64E;}
</style>
<polygon class="st0" points="32.3,29.9 32.3,29.9 32.3,29.9 "/>
<polygon class="st0" points="15.2,69.9 15.2,69.9 15.2,69.9 "/>
<path class="st0" d="M4,75.3c0,1.2,0.6,1.9,0.8,2l21.1-0.1c0.2-0.1,0.8-0.9,0.8-2l0-1.5l-7.4-4.3c-1.2,0.7-2.5,1-3.9,1h0
	c-1.4,0-2.7-0.3-3.9-0.9L4,73.7L4,75.3z"/>
<path class="st0" d="M10.5,59.9c0,3.2,1.7,6.6,4.7,6.6c3.1,0,4.5-3.5,4.5-6.7c0-4.2-0.8-5.3-4.8-5.3v-0.6l0,0l0.1,0.6
	C11.4,54.6,10.5,55.8,10.5,59.9z"/>
<path class="st0" d="M60.6,77l21.1-0.1c0.2-0.1,0.8-0.9,0.8-2l0-1.5L75,69.2c-1.2,0.7-2.5,1.1-3.9,1.1h0c-1.4,0-2.7-0.4-3.9-1.1
	l-7.4,4.3l0,1.5C59.8,76.2,60.4,76.9,60.6,77z"/>
<polygon class="st0" points="71,69.6 71,69.6 71,69.6 "/>
<path class="st0" d="M66.4,59.7c0,3.2,1.7,6.6,4.7,6.6c1.7,0,2.8-1.1,3.4-2c0.8-1.2,1.2-2.9,1.1-4.6c0-4.2-0.7-5.3-4.7-5.3v-0.6l0,0
	l0,0.6C67.3,54.3,66.3,55.5,66.4,59.7z"/>
<polygon class="st0" points="43.1,64.4 43.1,64.4 43.1,64.4 "/>
<polygon class="st0" points="4.7,80.6 4.7,80.6 4.7,80.6 "/>
<polygon class="st0" points="60.5,80.3 60.5,80.3 60.5,80.3 "/>
<polygon class="st0" points="42.9,19.3 42.9,19.3 42.9,19.3 "/>
<path class="st0" d="M31.6,24.6c0,1.2,0.6,1.9,0.8,2l21.1-0.1c0.2-0.1,0.8-0.9,0.8-2l0-1.5l-7.4-4c-1.2,0.7-2.5,1.3-3.9,1.3h0
	c-1.4,0-2.7-0.6-3.9-1.3l-7.4,4.2L31.6,24.6z"/>
<path class="st0" d="M43.1,61.1c6.3,0,11.3-5.1,11.2-11.4c0-6.2-5.4-11.3-11.4-11.3v-0.6l0,0l0,0.6c-3,0-5.8,1.2-7.9,3.4
	c-2.1,2.1-3.3,5-3.3,8C31.8,56.1,36.9,61.1,43.1,61.1z M51,48.6l0,3.2l-3.2,0l0-3.2L51,48.6z M44.7,48.6l0,3.2l-3.2,0l0-3.2
	L44.7,48.6z M39,48.6l0,3.2l-3.2,0l0-3.2L39,48.6z"/>
<path class="st0" d="M39.2,5c-0.7,0.8-1,2.1-1,4.3c0,3.2,1.7,6.6,4.7,6.6c1.7,0,2.8-1.1,3.4-2c0.8-1.2,1.2-2.9,1.2-4.6
	c0-4.2-0.6-5.3-4.6-5.3V3.3l0,0L42.8,4C41,4,39.8,4.3,39.2,5z"/>
<path class="st1" d="M62.8,13.2l-5,0l0,4l5,0c3.3,0,6,2.7,6,6L69,46l4,0l-0.1-22.9C72.8,17.6,68.3,13.2,62.8,13.2z"/>
<path class="st1" d="M23,13.4c-5.5,0-9.9,4.5-9.9,10l0.1,22.9l4,0L17,23.4c0-3.3,2.7-6,6-6l5,0l0-4L23,13.4z"/>
<rect x="33.6" y="77.1" transform="matrix(-1 4.775798e-003 -4.775798e-003 -1 86.8059 157.9147)" class="st1" width="19.2" height="4"/>
<rect x="41.5" y="48.6" transform="matrix(4.901594e-003 1 -1 4.901594e-003 93.139 6.8242)" class="st1" width="3.2" height="3.2"/>
<rect x="35.8" y="48.6" transform="matrix(4.901440e-003 1 -1 4.901440e-003 87.4291 12.617)" class="st1" width="3.2" height="3.2"/>
<rect x="47.8" y="48.6" transform="matrix(4.901594e-003 1 -1 4.901594e-003 99.3441 0.5299)" class="st1" width="3.2" height="3.2"/>
<path class="st1" d="M27.7,24.6c0,3.2,2.1,5.9,4.6,5.9l21.3-0.1c2.5,0,4.6-2.8,4.6-6l0-3.8l-8.5-4.8c1.1-1.8,1.8-4.1,1.8-6.7
	c0-4-0.9-9.2-8.7-9.2c-3.4,0-5.8,1.1-7.2,3.1c-1.3,1.9-1.4,4.5-1.4,6.2c0,2.6,0.7,4.8,1.8,6.6l-8.4,4.9L27.7,24.6z M42.9,19.3
	L42.9,19.3L42.9,19.3L42.9,19.3z M42.9,20.3L42.9,20.3c1.5,0,2.8-0.6,3.9-1.3l7.4,4.1l0,1.5c0,1.2-0.5,1.8-0.8,2l-21.1,0.1
	c-0.2-0.1-0.8-0.8-0.8-2l0-1.5L39,19C40.2,19.7,41.5,20.3,42.9,20.3z M42.9,3.3V4c4,0,4.6,1.1,4.6,5.3c0,1.7-0.4,3.4-1.2,4.6
	c-0.6,0.9-1.7,2-3.4,2c-3,0-4.7-3.4-4.7-6.6c0-2.2,0.3-3.5,1-4.3C39.8,4.3,41,4,42.8,4L42.9,3.3L42.9,3.3z M32.3,29.9L32.3,29.9
	L32.3,29.9L32.3,29.9z"/>
<path class="st1" d="M0,75.3c0,3.2,2.1,5.9,4.6,5.9l21.3-0.1c2.5,0,4.6-2.8,4.6-6l0-3.8l-8.5-4.8c1.1-1.8,1.8-4.1,1.8-6.7
	c0-4-0.9-9.2-8.7-9.2c-7.7,0-8.6,5.3-8.6,9.3c0,2.6,0.7,4.8,1.8,6.6L0,71.5L0,75.3z M15.2,69.9L15.2,69.9L15.2,69.9L15.2,69.9z
	 M15.2,70.3L15.2,70.3c1.5,0,2.8-0.3,3.9-1l7.4,4.3l0,1.5c0,1.2-0.6,1.9-0.8,2L4.8,77.3c-0.2-0.1-0.8-0.8-0.8-2l0-1.5l7.4-4.4
	C12.5,70,13.8,70.3,15.2,70.3z M14.9,53.9v0.6c4,0,4.8,1.1,4.8,5.3c0,3.2-1.5,6.7-4.6,6.7c-3,0-4.6-3.4-4.6-6.6
	c0-4.2,0.8-5.3,4.5-5.4L14.9,53.9L14.9,53.9z M4.7,80.6L4.7,80.6L4.7,80.6L4.7,80.6z"/>
<path class="st1" d="M71,50.4c-3.4,0-5.8,1.1-7.2,3.1c-1.3,1.9-1.4,4.5-1.4,6.2c0,2.6,0.7,4.8,1.8,6.6l-8.4,4.9l0,3.8
	c0,3.2,2.1,5.9,4.6,5.9l21.3-0.1c1.2,0,2.4-0.7,3.3-1.9c0.8-1.1,1.3-2.6,1.3-4.1l0-3.8l-8.5-4.8c1.2-1.8,1.8-4.2,1.8-6.7
	C79.6,55.6,78.7,50.4,71,50.4z M70.9,53.7v0.6c4,0,4.7,1.1,4.7,5.3c0,1.7-0.4,3.4-1.2,4.6c-0.6,0.9-1.6,2-3.4,2
	c-3,0-4.7-3.4-4.7-6.6c0-4.2,0.9-5.3,4.6-5.4L70.9,53.7L70.9,53.7z M71,69.6L71,69.6L71,69.6L71,69.6z M67.2,69.2
	c1.2,0.7,2.5,1.1,3.9,1.1h0c1.4,0,2.7-0.4,3.9-1.1l7.4,4.2l0,1.5c0,1.2-0.5,1.9-0.8,2L60.6,77c-0.2-0.1-0.8-0.8-0.8-2l0-1.5
	L67.2,69.2z M60.5,80.3L60.5,80.3L60.5,80.3L60.5,80.3z"/>
<path class="st1" d="M58.3,49.9c0-8.4-6.9-15.2-15.3-15.2c-8.4,0-15.2,7-15.2,15.4c0,8.4,6.9,15.3,15.3,15.3h0.1
	C51.6,65.3,58.4,58.3,58.3,49.9z M35,41.9c2.1-2.1,4.9-3.3,7.9-3.4l0-0.6l0,0v0.6c6,0,11.4,5.1,11.4,11.3c0,6.2-5,11.3-11.3,11.4
	c-6.2,0-11.3-5.1-11.3-11.3C31.7,46.9,32.9,44,35,41.9z M43.1,64.4L43.1,64.4L43.1,64.4L43.1,64.4z"/>
</svg>
