<?xml version="1.0" encoding="utf-8"?>
<!-- Generator: Adobe Illustrator 16.0.0, SVG Export Plug-In . SVG Version: 6.00 Build 0)  -->
<!DOCTYPE svg PUBLIC "-//W3C//DTD SVG 1.1//EN" "http://www.w3.org/Graphics/SVG/1.1/DTD/svg11.dtd">
<svg version="1.1" id="Layer_1" xmlns="http://www.w3.org/2000/svg" xmlns:xlink="http://www.w3.org/1999/xlink" x="0px" y="0px"
	 width="82px" height="114px" viewBox="0 0 82 114" enable-background="new 0 0 82 114" xml:space="preserve">
<circle fill="none" cx="23.765" cy="25.325" r="0.75"/>
<polygon fill="none" points="68,5.97 68,14 75.759,14 "/>
<path fill="none" d="M64,3H4v85.028v9.434V110h74V98.167v-4.643V18H64V3z M50,34h14v4H50V34z M27.765,13.938
	c9.408,0,17.062,7.654,17.062,17.062s-7.654,17.062-17.062,17.062S10.702,40.408,10.702,31S18.356,13.938,27.765,13.938z M11,78h28
	v3H11V78z M46,101.79c-2,0-3.599-1.331-4.563-2.305c-0.866-0.871-1.069-1.258-2.065-1.258c-0.997,0-1.418,0.387-2.285,1.258
	c-0.964,0.974-2.285,2.305-4.788,2.305c-2.5,0-3.821-1.331-4.786-2.305c-0.868-0.871-1.296-1.258-2.289-1.258
	c-0.993,0-1.422,0.387-2.292,1.258c-0.962,0.974-2.297,2.305-4.796,2.305c-2.496,0-3.843-1.331-4.803-2.305
	C12.463,98.614,12,98.228,11,98.228v-3.562c3,0,3.865,1.332,4.828,2.303c0.872,0.873,1.338,1.26,2.329,1.26
	c0.995,0,1.419-0.387,2.29-1.26c0.962-0.971,2.285-2.303,4.782-2.303c2.5,0,3.821,1.332,4.785,2.303
	c0.868,0.873,1.288,1.26,2.285,1.26s1.42-0.387,2.285-1.26c0.968-0.97,2.284-2.302,4.788-2.302c2.5,0,3.6,1.332,4.564,2.303
	C44.802,97.842,45,98.228,46,98.228V101.79z M71,70H11v-3h60V70z M71,61H11v-4h60V61z M72,26v4H50v-4H72z"/>
<path fill="none" d="M27.765,44.062c7.203,0,13.062-5.86,13.062-13.062s-5.86-13.062-13.062-13.062S14.702,23.797,14.702,31
	S20.562,44.062,27.765,44.062z M31.765,22.075c1.792,0,3.25,1.458,3.25,3.25s-1.458,3.25-3.25,3.25s-3.25-1.458-3.25-3.25
	S29.973,22.075,31.765,22.075z M23.765,22.075c1.792,0,3.25,1.458,3.25,3.25s-1.458,3.25-3.25,3.25s-3.25-1.458-3.25-3.25
	S21.973,22.075,23.765,22.075z M19.529,28.883c1.104,0,2,0.896,2,2c0,3.438,2.797,6.234,6.235,6.234S34,34.32,34,30.883
	c0-1.104,0.896-2,2-2s2,0.896,2,2c0,5.643-4.592,10.234-10.235,10.234s-10.235-4.591-10.235-10.234
	C17.529,29.778,18.425,28.883,19.529,28.883z"/>
<circle fill="none" cx="31.765" cy="25.325" r="0.75"/>
<path fill="#343434" d="M0,0v88.028v9.434V114h82V98.167v-4.643V15.182L66.618,0H0z M78,93.524v4.643V110H4V97.462v-9.434V3h60v15
	h14V93.524z M68,5.97L75.759,14H68V5.97z"/>
<path fill="#343434" d="M43.936,96.969c-0.964-0.971-2.064-2.303-4.564-2.303c-2.504,0-3.82,1.332-4.788,2.302
	c-0.865,0.873-1.288,1.26-2.285,1.26s-1.417-0.387-2.285-1.26c-0.964-0.971-2.285-2.303-4.785-2.303
	c-2.497,0-3.82,1.332-4.782,2.303c-0.871,0.873-1.295,1.26-2.29,1.26c-0.991,0-1.457-0.387-2.329-1.26
	C14.865,95.997,14,94.665,11,94.665v3.562c1,0,1.463,0.387,2.333,1.258c0.96,0.974,2.307,2.305,4.803,2.305
	c2.499,0,3.833-1.331,4.796-2.305c0.87-0.871,1.299-1.258,2.292-1.258c0.993,0,1.421,0.387,2.289,1.258
	c0.965,0.974,2.286,2.305,4.786,2.305c2.503,0,3.824-1.331,4.788-2.305c0.867-0.871,1.288-1.258,2.285-1.258
	c0.996,0,1.199,0.387,2.065,1.258C42.401,100.459,44,101.79,46,101.79v-3.562C45,98.228,44.802,97.842,43.936,96.969z"/>
<rect x="11" y="57" fill="#343434" width="60" height="4"/>
<rect x="11" y="67" fill="#343434" width="60" height="3"/>
<rect x="11" y="78" fill="#343434" width="28" height="3"/>
<rect x="50" y="26" fill="#343434" width="22" height="4"/>
<rect x="50" y="34" fill="#343434" width="14" height="4"/>
<path fill="#343434" d="M27.765,48.062c9.408,0,17.062-7.654,17.062-17.062s-7.654-17.062-17.062-17.062S10.702,21.592,10.702,31
	S18.356,48.062,27.765,48.062z M27.765,17.938c7.203,0,13.062,5.86,13.062,13.062s-5.86,13.062-13.062,13.062
	S14.702,38.203,14.702,31S20.562,17.938,27.765,17.938z"/>
<path fill="#343434" d="M23.765,28.575c1.792,0,3.25-1.458,3.25-3.25s-1.458-3.25-3.25-3.25s-3.25,1.458-3.25,3.25
	S21.973,28.575,23.765,28.575z"/>
<path fill="#343434" d="M31.765,28.575c1.792,0,3.25-1.458,3.25-3.25s-1.458-3.25-3.25-3.25s-3.25,1.458-3.25,3.25
	S29.973,28.575,31.765,28.575z"/>
<path fill="#343434" d="M27.765,41.117C33.408,41.117,38,36.526,38,30.883c0-1.104-0.896-2-2-2s-2,0.896-2,2
	c0,3.438-2.797,6.234-6.235,6.234s-6.235-2.797-6.235-6.234c0-1.104-0.896-2-2-2s-2,0.896-2,2
	C17.529,36.526,22.121,41.117,27.765,41.117z"/>
</svg>
