<?xml version="1.0" encoding="utf-8"?>
<!-- Generator: Adobe Illustrator 19.1.0, SVG Export Plug-In . SVG Version: 6.00 Build 0)  -->
<svg version="1.1" id="Layer_1" xmlns="http://www.w3.org/2000/svg" xmlns:xlink="http://www.w3.org/1999/xlink" x="0px" y="0px"
	 viewBox="49 -8.1 24 30" style="enable-background:new 49 -8.1 24 30;" xml:space="preserve">
<style type="text/css">
	.st0{fill:#FAD64E;}
	.st1{fill:#424242;}
</style>
<g>
	<path class="st0" d="M61,21.9c-0.2,0-0.4-0.1-0.6-0.2C59.9,21.3,49,12.3,49,3.9c0-6.6,5.4-12,12-12s12,5.4,12,12
		c0,8.4-10.9,17.4-11.4,17.8C61.4,21.9,61.2,21.9,61,21.9 M61-6.1"/>
	<path class="st1" d="M61-0.1c-2.2,0-4,1.8-4,4s1.8,4,4,4s4-1.8,4-4S63.2-0.1,61-0.1"/>
</g>
</svg>
