<?xml version="1.0" encoding="utf-8"?>
<!-- Generator: Adobe Illustrator 19.1.0, SVG Export Plug-In . SVG Version: 6.00 Build 0)  -->
<svg version="1.1" id="Layer_1" xmlns="http://www.w3.org/2000/svg" xmlns:xlink="http://www.w3.org/1999/xlink" x="0px" y="0px"
	 viewBox="49 -8.1 24 30" style="enable-background:new 49 -8.1 24 30;" xml:space="preserve">
<style type="text/css">
	.st0{fill:#FAD64E;}
</style>
<g>
	<path class="st0" d="M61,21.9c-0.2,0-0.4-0.1-0.6-0.2C59.9,21.3,49,12.3,49,3.9c0-6.6,5.4-12,12-12s12,5.4,12,12
		c0,8.4-10.9,17.4-11.4,17.8C61.4,21.9,61.2,21.9,61,21.9 M61-6.1c-5.5,0-10,4.5-10,10c0,6.4,7.7,13.7,10,15.7c2.3-2,10-9.3,10-15.7
		C71-1.6,66.5-6.1,61-6.1"/>
	<path class="st0" d="M61,9.9c-3.3,0-6-2.7-6-6s2.7-6,6-6s6,2.7,6,6S64.3,9.9,61,9.9 M61-0.1c-2.2,0-4,1.8-4,4s1.8,4,4,4s4-1.8,4-4
		S63.2-0.1,61-0.1"/>
</g>
</svg>
