<?xml version="1.0" encoding="utf-8"?>
<!-- Generator: Adobe Illustrator 19.1.0, SVG Export Plug-In . SVG Version: 6.00 Build 0)  -->
<svg version="1.1" id="Layer_1" xmlns="http://www.w3.org/2000/svg" xmlns:xlink="http://www.w3.org/1999/xlink" x="0px" y="0px"
	 viewBox="-272 352 65.3 89" style="enable-background:new -272 352 65.3 89;" xml:space="preserve">
<style type="text/css">
	.st0{fill:#424242;}
</style>
<g>
	<path class="st0" d="M-208.6,367.5c-1.3-3.4-3.1-6.3-5.5-8.5c-2.4-2.2-5.2-4.1-8.5-5.2c-3.3-1.1-7-1.8-11.2-1.8H-261v41h-11v13h11
		v9h-11v13h11v13h15v-13h28v-13h-28v-8h13c4.4,0,8.3-0.8,11.6-2.2c3.3-1.4,6-3.4,8.2-5.8c2.2-2.5,3.8-5.4,4.9-8.7
		c1.1-3.3,1.7-6.9,1.7-10.7C-206.7,375-207.3,370.9-208.6,367.5z M-224.2,389.3c-2.1,2.5-5.3,3.7-9.6,3.7H-246v-27h12.1
		c4.3,0,7.5,1,9.7,3.4c2.1,2.3,3.2,5.6,3.2,10C-221.1,383.5-222.1,386.8-224.2,389.3z"/>
</g>
</svg>
