<?xml version="1.0" encoding="utf-8"?>
<!-- Generator: Adobe Illustrator 19.1.0, SVG Export Plug-In . SVG Version: 6.00 Build 0)  -->
<svg version="1.1" id="Layer_1" xmlns="http://www.w3.org/2000/svg" xmlns:xlink="http://www.w3.org/1999/xlink" x="0px" y="0px"
	 viewBox="0 0 57.6 81.4" style="enable-background:new 0 0 57.6 81.4;" xml:space="preserve">
<style type="text/css">
	.st0{fill:none;}
</style>
<g>
	<path class="st0" d="M34,13.5h-8.6v20.3h8.7c3.3,0,5.5-0.8,6.9-2.5c1.5-1.8,2.3-4.5,2.3-7.8c0-3.5-0.8-6-2.3-7.7
		C39.6,14.2,37.3,13.5,34,13.5z"/>
	<path d="M51.4,5.7c-2-1.9-4.4-3.3-7.2-4.2C41.2,0.5,37.8,0,34.1,0H10.9v41.1H0v6h10.9v16H0v6h10.9v12.3h7.5V69.1H47v-6H18.4V47.5
		h16.5c3.9,0,7.3-0.6,10.2-1.8c2.8-1.2,5.1-2.8,6.9-4.9c1.8-2.1,3.3-4.6,4.2-7.4c1-2.9,1.5-6.1,1.5-9.6c0-4.2-0.6-7.9-1.7-10.9
		C54.9,10,53.3,7.6,51.4,5.7z M46.4,35.8c-2.8,3.3-6.9,5-12.3,5H18.4V6.5H34c0.7,0,1.3,0,1.9,0.1c4.4,0.3,7.8,1.9,10.3,4.5
		c2.7,3,4.1,7.1,4.1,12.4C50.3,28.5,49,32.7,46.4,35.8z"/>
</g>
</svg>
