<?xml version="1.0" encoding="utf-8"?>
<!-- Generator: Adobe Illustrator 19.1.0, SVG Export Plug-In . SVG Version: 6.00 Build 0)  -->
<svg version="1.1" id="Logo" xmlns="http://www.w3.org/2000/svg" xmlns:xlink="http://www.w3.org/1999/xlink" x="0px" y="0px"
	 viewBox="-44.9 145.1 503.8 503.8" style="enable-background:new -44.9 145.1 503.8 503.8;" xml:space="preserve">
<g>
	<path d="M207,190.5c67.3,0,75.2,0.3,101.8,1.5c24.6,1.1,37.9,5.2,46.8,8.7c11.8,4.6,20.2,10,29,18.8c8.8,8.8,14.3,17.2,18.8,29
		c3.4,8.9,7.6,22.2,8.7,46.8c1.2,26.6,1.5,34.5,1.5,101.8s-0.3,75.2-1.5,101.8c-1.1,24.6-5.2,37.9-8.7,46.8
		c-4.6,11.8-10,20.2-18.8,29c-8.8,8.8-17.2,14.3-29,18.8c-8.9,3.4-22.2,7.6-46.8,8.7c-26.6,1.2-34.5,1.5-101.8,1.5
		s-75.2-0.3-101.8-1.5c-24.6-1.1-37.9-5.2-46.8-8.7c-11.8-4.6-20.2-10-29-18.8c-8.8-8.8-14.3-17.2-18.8-29
		c-3.5-8.9-7.6-22.2-8.7-46.8C0.7,472.2,0.5,464.3,0.5,397s0.3-75.2,1.5-101.8c1.1-24.6,5.2-37.9,8.7-46.8c4.6-11.8,10-20.2,18.8-29
		s17.2-14.3,29-18.8c8.9-3.4,22.2-7.6,46.8-8.7C131.8,190.7,139.7,190.5,207,190.5 M207,145.1c-68.4,0-77,0.3-103.9,1.5
		c-26.8,1.2-45.1,5.5-61.2,11.7c-16.6,6.4-30.6,15.1-44.6,29.1c-14,14-22.6,28.1-29.1,44.6c-6.2,16-10.5,34.3-11.7,61.2
		c-1.2,26.9-1.5,35.4-1.5,103.9s0.3,77,1.5,103.9c1.2,26.8,5.5,45.1,11.7,61.2c6.4,16.6,15.1,30.6,29.1,44.6
		c14,14,28.1,22.6,44.6,29.1c16,6.2,34.3,10.5,61.2,11.7c26.9,1.2,35.4,1.5,103.9,1.5c68.4,0,77-0.3,103.9-1.5
		c26.8-1.2,45.1-5.5,61.2-11.7c16.6-6.4,30.6-15.1,44.6-29.1c14-14,22.6-28.1,29.1-44.6c6.2-16,10.5-34.3,11.7-61.2
		c1.2-26.9,1.5-35.4,1.5-103.9c0-68.4-0.3-77-1.5-103.9c-1.2-26.8-5.5-45.1-11.7-61.2c-6.4-16.6-15.1-30.6-29.1-44.6
		c-14-14-28.1-22.6-44.6-29.1c-16-6.2-34.3-10.5-61.2-11.7C284,145.4,275.4,145.1,207,145.1L207,145.1z"/>
	<path d="M207,267.6c-71.4,0-129.4,57.9-129.4,129.4S135.6,526.4,207,526.4S336.4,468.4,336.4,397S278.4,267.6,207,267.6z M207,481
		c-46.4,0-84-37.6-84-84s37.6-84,84-84c46.4,0,84,37.6,84,84C291,443.4,253.4,481,207,481z"/>
	<circle cx="341.5" cy="262.5" r="30.2"/>
</g>
</svg>
