<?xml version="1.0" encoding="utf-8"?>
<!-- Generator: Adobe Illustrator 19.1.0, SVG Export Plug-In . SVG Version: 6.00 Build 0)  -->
<svg version="1.1" id="iconmonstr" xmlns="http://www.w3.org/2000/svg" xmlns:xlink="http://www.w3.org/1999/xlink" x="0px" y="0px"
	 viewBox="0 0 24 18" style="enable-background:new 0 0 24 18;" xml:space="preserve">
<path id="video-camera-8" d="M13.5,8C13.8,8,14,8.2,14,8.5v7c0,0.3-0.2,0.5-0.5,0.5h-11C2.2,16,2,15.8,2,15.5v-7C2,8.2,2.2,8,2.5,8
	H13.5z M16,8c0-1.1-0.9-2-2-2H2C0.9,6,0,6.9,0,8v8c0,1.1,0.9,2,2,2h12c1.1,0,2-0.9,2-2V8z M12,11H4v-1h8V11z M8.2,1H11v2H8.9
	C8,3,7.7,3.4,7,4H4l2.1-2.1C6.7,1.3,7.4,1,8.2,1z M18.1,2c0,1.1-0.9,2-2,2H12V0h4.1C17.2,0,18.1,0.9,18.1,2z M22,10.2v3.5l-2-1v-1.5
	L22,10.2z M24,7l-6,3v4l6,3V7z"/>
</svg>
